%TF.GenerationSoftware,KiCad,Pcbnew,5.1.7-a382d34a8~87~ubuntu20.04.1*%
%TF.CreationDate,2020-10-01T12:41:17+02:00*%
%TF.ProjectId,reform2-trackball-sensor,7265666f-726d-4322-9d74-7261636b6261,rev?*%
%TF.SameCoordinates,Original*%
%TF.FileFunction,Legend,Bot*%
%TF.FilePolarity,Positive*%
%FSLAX46Y46*%
G04 Gerber Fmt 4.6, Leading zero omitted, Abs format (unit mm)*
G04 Created by KiCad (PCBNEW 5.1.7-a382d34a8~87~ubuntu20.04.1) date 2020-10-01 12:41:17*
%MOMM*%
%LPD*%
G01*
G04 APERTURE LIST*
%ADD10C,0.010000*%
G04 APERTURE END LIST*
D10*
G36*
X145276100Y-84044200D02*
G01*
X145877189Y-84645333D01*
X145278194Y-84645333D01*
X145170204Y-84645439D01*
X145070095Y-84645746D01*
X144978946Y-84646242D01*
X144897835Y-84646912D01*
X144827838Y-84647742D01*
X144770033Y-84648720D01*
X144725498Y-84649831D01*
X144695310Y-84651061D01*
X144680546Y-84652397D01*
X144679200Y-84652959D01*
X144685083Y-84659865D01*
X144702194Y-84677871D01*
X144729723Y-84706163D01*
X144766864Y-84743929D01*
X144812807Y-84790356D01*
X144866745Y-84844633D01*
X144927868Y-84905946D01*
X144995370Y-84973483D01*
X145068442Y-85046432D01*
X145146275Y-85123980D01*
X145228062Y-85205315D01*
X145277181Y-85254092D01*
X145875162Y-85847600D01*
X145277181Y-85847600D01*
X145178242Y-85847688D01*
X145084415Y-85847942D01*
X144997048Y-85848348D01*
X144917490Y-85848891D01*
X144847091Y-85849556D01*
X144787198Y-85850331D01*
X144739161Y-85851200D01*
X144704329Y-85852148D01*
X144684050Y-85853162D01*
X144679200Y-85853973D01*
X144685060Y-85860726D01*
X144702101Y-85878623D01*
X144729517Y-85906847D01*
X144766500Y-85944583D01*
X144812243Y-85991016D01*
X144865939Y-86045328D01*
X144926781Y-86106706D01*
X144993963Y-86174333D01*
X145066677Y-86247393D01*
X145144115Y-86325071D01*
X145225472Y-86406551D01*
X145271895Y-86452990D01*
X145864589Y-87045634D01*
X145481445Y-87049867D01*
X145098300Y-87054100D01*
X145096138Y-87805517D01*
X145093975Y-88556934D01*
X145695052Y-88556934D01*
X145699434Y-87655234D01*
X146512168Y-87653074D01*
X147324903Y-87650914D01*
X146723857Y-87049824D01*
X146122812Y-86448733D01*
X147324989Y-86448733D01*
X146723958Y-85847658D01*
X146122926Y-85246582D01*
X146721872Y-85244408D01*
X147320817Y-85242234D01*
X146721800Y-84643217D01*
X146122782Y-84044200D01*
X146601133Y-84044200D01*
X146601133Y-83443067D01*
X144675012Y-83443067D01*
X145276100Y-84044200D01*
G37*
X145276100Y-84044200D02*
X145877189Y-84645333D01*
X145278194Y-84645333D01*
X145170204Y-84645439D01*
X145070095Y-84645746D01*
X144978946Y-84646242D01*
X144897835Y-84646912D01*
X144827838Y-84647742D01*
X144770033Y-84648720D01*
X144725498Y-84649831D01*
X144695310Y-84651061D01*
X144680546Y-84652397D01*
X144679200Y-84652959D01*
X144685083Y-84659865D01*
X144702194Y-84677871D01*
X144729723Y-84706163D01*
X144766864Y-84743929D01*
X144812807Y-84790356D01*
X144866745Y-84844633D01*
X144927868Y-84905946D01*
X144995370Y-84973483D01*
X145068442Y-85046432D01*
X145146275Y-85123980D01*
X145228062Y-85205315D01*
X145277181Y-85254092D01*
X145875162Y-85847600D01*
X145277181Y-85847600D01*
X145178242Y-85847688D01*
X145084415Y-85847942D01*
X144997048Y-85848348D01*
X144917490Y-85848891D01*
X144847091Y-85849556D01*
X144787198Y-85850331D01*
X144739161Y-85851200D01*
X144704329Y-85852148D01*
X144684050Y-85853162D01*
X144679200Y-85853973D01*
X144685060Y-85860726D01*
X144702101Y-85878623D01*
X144729517Y-85906847D01*
X144766500Y-85944583D01*
X144812243Y-85991016D01*
X144865939Y-86045328D01*
X144926781Y-86106706D01*
X144993963Y-86174333D01*
X145066677Y-86247393D01*
X145144115Y-86325071D01*
X145225472Y-86406551D01*
X145271895Y-86452990D01*
X145864589Y-87045634D01*
X145481445Y-87049867D01*
X145098300Y-87054100D01*
X145096138Y-87805517D01*
X145093975Y-88556934D01*
X145695052Y-88556934D01*
X145699434Y-87655234D01*
X146512168Y-87653074D01*
X147324903Y-87650914D01*
X146723857Y-87049824D01*
X146122812Y-86448733D01*
X147324989Y-86448733D01*
X146723958Y-85847658D01*
X146122926Y-85246582D01*
X146721872Y-85244408D01*
X147320817Y-85242234D01*
X146721800Y-84643217D01*
X146122782Y-84044200D01*
X146601133Y-84044200D01*
X146601133Y-83443067D01*
X144675012Y-83443067D01*
X145276100Y-84044200D01*
M02*
