%TF.GenerationSoftware,KiCad,Pcbnew,5.1.7-a382d34a8~87~ubuntu20.04.1*%
%TF.CreationDate,2020-10-01T12:41:17+02:00*%
%TF.ProjectId,reform2-trackball-sensor,7265666f-726d-4322-9d74-7261636b6261,rev?*%
%TF.SameCoordinates,Original*%
%TF.FileFunction,Soldermask,Top*%
%TF.FilePolarity,Negative*%
%FSLAX46Y46*%
G04 Gerber Fmt 4.6, Leading zero omitted, Abs format (unit mm)*
G04 Created by KiCad (PCBNEW 5.1.7-a382d34a8~87~ubuntu20.04.1) date 2020-10-01 12:41:17*
%MOMM*%
%LPD*%
G01*
G04 APERTURE LIST*
%ADD10C,2.502000*%
%ADD11C,0.792000*%
%ADD12O,1.802000X1.802000*%
%ADD13C,0.100000*%
G04 APERTURE END LIST*
D10*
X149750000Y-87750000D03*
X149750000Y-75500000D03*
G36*
G01*
X148319000Y-83010000D02*
X148319000Y-82260000D01*
G75*
G02*
X148370000Y-82209000I51000J0D01*
G01*
X148870000Y-82209000D01*
G75*
G02*
X148921000Y-82260000I0J-51000D01*
G01*
X148921000Y-83010000D01*
G75*
G02*
X148870000Y-83061000I-51000J0D01*
G01*
X148370000Y-83061000D01*
G75*
G02*
X148319000Y-83010000I0J51000D01*
G01*
G37*
G36*
G01*
X149119000Y-83010000D02*
X149119000Y-82260000D01*
G75*
G02*
X149170000Y-82209000I51000J0D01*
G01*
X149670000Y-82209000D01*
G75*
G02*
X149721000Y-82260000I0J-51000D01*
G01*
X149721000Y-83010000D01*
G75*
G02*
X149670000Y-83061000I-51000J0D01*
G01*
X149170000Y-83061000D01*
G75*
G02*
X149119000Y-83010000I0J51000D01*
G01*
G37*
G36*
G01*
X149919000Y-83010000D02*
X149919000Y-82260000D01*
G75*
G02*
X149970000Y-82209000I51000J0D01*
G01*
X150470000Y-82209000D01*
G75*
G02*
X150521000Y-82260000I0J-51000D01*
G01*
X150521000Y-83010000D01*
G75*
G02*
X150470000Y-83061000I-51000J0D01*
G01*
X149970000Y-83061000D01*
G75*
G02*
X149919000Y-83010000I0J51000D01*
G01*
G37*
G36*
G01*
X150719000Y-83010000D02*
X150719000Y-82260000D01*
G75*
G02*
X150770000Y-82209000I51000J0D01*
G01*
X151270000Y-82209000D01*
G75*
G02*
X151321000Y-82260000I0J-51000D01*
G01*
X151321000Y-83010000D01*
G75*
G02*
X151270000Y-83061000I-51000J0D01*
G01*
X150770000Y-83061000D01*
G75*
G02*
X150719000Y-83010000I0J51000D01*
G01*
G37*
G36*
G01*
X150719000Y-80880000D02*
X150719000Y-80130000D01*
G75*
G02*
X150770000Y-80079000I51000J0D01*
G01*
X151270000Y-80079000D01*
G75*
G02*
X151321000Y-80130000I0J-51000D01*
G01*
X151321000Y-80880000D01*
G75*
G02*
X151270000Y-80931000I-51000J0D01*
G01*
X150770000Y-80931000D01*
G75*
G02*
X150719000Y-80880000I0J51000D01*
G01*
G37*
G36*
G01*
X149919000Y-80880000D02*
X149919000Y-80130000D01*
G75*
G02*
X149970000Y-80079000I51000J0D01*
G01*
X150470000Y-80079000D01*
G75*
G02*
X150521000Y-80130000I0J-51000D01*
G01*
X150521000Y-80880000D01*
G75*
G02*
X150470000Y-80931000I-51000J0D01*
G01*
X149970000Y-80931000D01*
G75*
G02*
X149919000Y-80880000I0J51000D01*
G01*
G37*
G36*
G01*
X149119000Y-80880000D02*
X149119000Y-80130000D01*
G75*
G02*
X149170000Y-80079000I51000J0D01*
G01*
X149670000Y-80079000D01*
G75*
G02*
X149721000Y-80130000I0J-51000D01*
G01*
X149721000Y-80880000D01*
G75*
G02*
X149670000Y-80931000I-51000J0D01*
G01*
X149170000Y-80931000D01*
G75*
G02*
X149119000Y-80880000I0J51000D01*
G01*
G37*
G36*
G01*
X148319000Y-80880000D02*
X148319000Y-80130000D01*
G75*
G02*
X148370000Y-80079000I51000J0D01*
G01*
X148870000Y-80079000D01*
G75*
G02*
X148921000Y-80130000I0J-51000D01*
G01*
X148921000Y-80880000D01*
G75*
G02*
X148870000Y-80931000I-51000J0D01*
G01*
X148370000Y-80931000D01*
G75*
G02*
X148319000Y-80880000I0J51000D01*
G01*
G37*
D11*
X150970000Y-81570000D03*
G36*
G01*
X146049000Y-79281750D02*
X146049000Y-78718250D01*
G75*
G02*
X146293250Y-78474000I244250J0D01*
G01*
X146781750Y-78474000D01*
G75*
G02*
X147026000Y-78718250I0J-244250D01*
G01*
X147026000Y-79281750D01*
G75*
G02*
X146781750Y-79526000I-244250J0D01*
G01*
X146293250Y-79526000D01*
G75*
G02*
X146049000Y-79281750I0J244250D01*
G01*
G37*
G36*
G01*
X144474000Y-79281750D02*
X144474000Y-78718250D01*
G75*
G02*
X144718250Y-78474000I244250J0D01*
G01*
X145206750Y-78474000D01*
G75*
G02*
X145451000Y-78718250I0J-244250D01*
G01*
X145451000Y-79281750D01*
G75*
G02*
X145206750Y-79526000I-244250J0D01*
G01*
X144718250Y-79526000D01*
G75*
G02*
X144474000Y-79281750I0J244250D01*
G01*
G37*
G36*
G01*
X150299000Y-84781750D02*
X150299000Y-84218250D01*
G75*
G02*
X150543250Y-83974000I244250J0D01*
G01*
X151031750Y-83974000D01*
G75*
G02*
X151276000Y-84218250I0J-244250D01*
G01*
X151276000Y-84781750D01*
G75*
G02*
X151031750Y-85026000I-244250J0D01*
G01*
X150543250Y-85026000D01*
G75*
G02*
X150299000Y-84781750I0J244250D01*
G01*
G37*
G36*
G01*
X148724000Y-84781750D02*
X148724000Y-84218250D01*
G75*
G02*
X148968250Y-83974000I244250J0D01*
G01*
X149456750Y-83974000D01*
G75*
G02*
X149701000Y-84218250I0J-244250D01*
G01*
X149701000Y-84781750D01*
G75*
G02*
X149456750Y-85026000I-244250J0D01*
G01*
X148968250Y-85026000D01*
G75*
G02*
X148724000Y-84781750I0J244250D01*
G01*
G37*
G36*
G01*
X145031750Y-81201000D02*
X144468250Y-81201000D01*
G75*
G02*
X144224000Y-80956750I0J244250D01*
G01*
X144224000Y-80468250D01*
G75*
G02*
X144468250Y-80224000I244250J0D01*
G01*
X145031750Y-80224000D01*
G75*
G02*
X145276000Y-80468250I0J-244250D01*
G01*
X145276000Y-80956750D01*
G75*
G02*
X145031750Y-81201000I-244250J0D01*
G01*
G37*
G36*
G01*
X145031750Y-82776000D02*
X144468250Y-82776000D01*
G75*
G02*
X144224000Y-82531750I0J244250D01*
G01*
X144224000Y-82043250D01*
G75*
G02*
X144468250Y-81799000I244250J0D01*
G01*
X145031750Y-81799000D01*
G75*
G02*
X145276000Y-82043250I0J-244250D01*
G01*
X145276000Y-82531750D01*
G75*
G02*
X145031750Y-82776000I-244250J0D01*
G01*
G37*
G36*
G01*
X146781750Y-81201000D02*
X146218250Y-81201000D01*
G75*
G02*
X145974000Y-80956750I0J244250D01*
G01*
X145974000Y-80468250D01*
G75*
G02*
X146218250Y-80224000I244250J0D01*
G01*
X146781750Y-80224000D01*
G75*
G02*
X147026000Y-80468250I0J-244250D01*
G01*
X147026000Y-80956750D01*
G75*
G02*
X146781750Y-81201000I-244250J0D01*
G01*
G37*
G36*
G01*
X146781750Y-82776000D02*
X146218250Y-82776000D01*
G75*
G02*
X145974000Y-82531750I0J244250D01*
G01*
X145974000Y-82043250D01*
G75*
G02*
X146218250Y-81799000I244250J0D01*
G01*
X146781750Y-81799000D01*
G75*
G02*
X147026000Y-82043250I0J-244250D01*
G01*
X147026000Y-82531750D01*
G75*
G02*
X146781750Y-82776000I-244250J0D01*
G01*
G37*
G36*
G01*
X153849000Y-77600000D02*
X153849000Y-75900000D01*
G75*
G02*
X153900000Y-75849000I51000J0D01*
G01*
X155600000Y-75849000D01*
G75*
G02*
X155651000Y-75900000I0J-51000D01*
G01*
X155651000Y-77600000D01*
G75*
G02*
X155600000Y-77651000I-51000J0D01*
G01*
X153900000Y-77651000D01*
G75*
G02*
X153849000Y-77600000I0J51000D01*
G01*
G37*
D12*
X154750000Y-79290000D03*
X154750000Y-81830000D03*
X154750000Y-84370000D03*
X154750000Y-86910000D03*
D13*
G36*
X150975305Y-82186263D02*
G01*
X150996569Y-82197628D01*
X151019644Y-82204628D01*
X151043831Y-82207010D01*
X151045457Y-82208175D01*
X151045261Y-82210165D01*
X151043635Y-82211000D01*
X150721000Y-82211000D01*
X150721000Y-83061000D01*
X150720000Y-83062732D01*
X150719000Y-83063000D01*
X150521000Y-83063000D01*
X150519268Y-83062000D01*
X150519000Y-83061000D01*
X150519000Y-82211000D01*
X149921000Y-82211000D01*
X149921000Y-83061000D01*
X149920000Y-83062732D01*
X149919000Y-83063000D01*
X149721000Y-83063000D01*
X149719268Y-83062000D01*
X149719000Y-83061000D01*
X149719000Y-82211000D01*
X149121000Y-82211000D01*
X149121000Y-83061000D01*
X149120000Y-83062732D01*
X149119000Y-83063000D01*
X148921000Y-83063000D01*
X148919268Y-83062000D01*
X148919000Y-83061000D01*
X148919000Y-82209000D01*
X148920000Y-82207268D01*
X148921000Y-82207000D01*
X150896271Y-82207000D01*
X150920356Y-82204628D01*
X150943431Y-82197628D01*
X150964695Y-82186263D01*
X150968731Y-82182950D01*
X150971269Y-82182950D01*
X150975305Y-82186263D01*
G37*
G36*
X150720732Y-80078000D02*
G01*
X150721000Y-80079000D01*
X150721000Y-80931000D01*
X150720000Y-80932732D01*
X150719000Y-80933000D01*
X148921000Y-80933000D01*
X148919268Y-80932000D01*
X148919000Y-80931000D01*
X148919000Y-80081000D01*
X149121000Y-80081000D01*
X149121000Y-80929000D01*
X149719000Y-80929000D01*
X149719000Y-80081000D01*
X149921000Y-80081000D01*
X149921000Y-80929000D01*
X150519000Y-80929000D01*
X150519000Y-80081000D01*
X149921000Y-80081000D01*
X149719000Y-80081000D01*
X149121000Y-80081000D01*
X148919000Y-80081000D01*
X148919000Y-80079000D01*
X148920000Y-80077268D01*
X148921000Y-80077000D01*
X150719000Y-80077000D01*
X150720732Y-80078000D01*
G37*
M02*
