%TF.GenerationSoftware,KiCad,Pcbnew,5.1.7-a382d34a8~87~ubuntu20.04.1*%
%TF.CreationDate,2020-10-01T12:41:17+02:00*%
%TF.ProjectId,reform2-trackball-sensor,7265666f-726d-4322-9d74-7261636b6261,rev?*%
%TF.SameCoordinates,Original*%
%TF.FileFunction,Copper,L2,Bot*%
%TF.FilePolarity,Positive*%
%FSLAX46Y46*%
G04 Gerber Fmt 4.6, Leading zero omitted, Abs format (unit mm)*
G04 Created by KiCad (PCBNEW 5.1.7-a382d34a8~87~ubuntu20.04.1) date 2020-10-01 12:41:17*
%MOMM*%
%LPD*%
G01*
G04 APERTURE LIST*
%TA.AperFunction,ComponentPad*%
%ADD10R,1.700000X1.700000*%
%TD*%
%TA.AperFunction,ComponentPad*%
%ADD11O,1.700000X1.700000*%
%TD*%
%TA.AperFunction,ViaPad*%
%ADD12C,0.800000*%
%TD*%
%TA.AperFunction,Conductor*%
%ADD13C,0.400000*%
%TD*%
%TA.AperFunction,Conductor*%
%ADD14C,0.254000*%
%TD*%
%TA.AperFunction,Conductor*%
%ADD15C,0.100000*%
%TD*%
G04 APERTURE END LIST*
D10*
X154750000Y-76750000D03*
D11*
X154750000Y-79290000D03*
X154750000Y-81830000D03*
X154750000Y-84370000D03*
X154750000Y-86910000D03*
D12*
X147500000Y-80750000D03*
X157000000Y-77750000D03*
X157000000Y-85500000D03*
X144750000Y-85500000D03*
X144750000Y-77750000D03*
X145500000Y-84000000D03*
X152750000Y-86250000D03*
D13*
X145500000Y-84000000D02*
X151500000Y-84000000D01*
X152750000Y-85250000D02*
X152750000Y-86250000D01*
X151500000Y-84000000D02*
X152750000Y-85250000D01*
D14*
X157090001Y-75523382D02*
X157090000Y-87726619D01*
X154976620Y-89840000D01*
X146273381Y-89840000D01*
X144160000Y-87726620D01*
X144160000Y-87569268D01*
X147915000Y-87569268D01*
X147915000Y-87930732D01*
X147985518Y-88285250D01*
X148123844Y-88619199D01*
X148324662Y-88919744D01*
X148580256Y-89175338D01*
X148880801Y-89376156D01*
X149214750Y-89514482D01*
X149569268Y-89585000D01*
X149930732Y-89585000D01*
X150285250Y-89514482D01*
X150619199Y-89376156D01*
X150919744Y-89175338D01*
X151175338Y-88919744D01*
X151376156Y-88619199D01*
X151514482Y-88285250D01*
X151585000Y-87930732D01*
X151585000Y-87569268D01*
X151514482Y-87214750D01*
X151376156Y-86880801D01*
X151175338Y-86580256D01*
X150919744Y-86324662D01*
X150619199Y-86123844D01*
X150285250Y-85985518D01*
X149930732Y-85915000D01*
X149569268Y-85915000D01*
X149214750Y-85985518D01*
X148880801Y-86123844D01*
X148580256Y-86324662D01*
X148324662Y-86580256D01*
X148123844Y-86880801D01*
X147985518Y-87214750D01*
X147915000Y-87569268D01*
X144160000Y-87569268D01*
X144160000Y-83898061D01*
X144465000Y-83898061D01*
X144465000Y-84101939D01*
X144504774Y-84301898D01*
X144582795Y-84490256D01*
X144696063Y-84659774D01*
X144840226Y-84803937D01*
X145009744Y-84917205D01*
X145198102Y-84995226D01*
X145398061Y-85035000D01*
X145601939Y-85035000D01*
X145801898Y-84995226D01*
X145990256Y-84917205D01*
X146113285Y-84835000D01*
X151154133Y-84835000D01*
X151915000Y-85595869D01*
X151915000Y-85636715D01*
X151832795Y-85759744D01*
X151754774Y-85948102D01*
X151715000Y-86148061D01*
X151715000Y-86351939D01*
X151754774Y-86551898D01*
X151832795Y-86740256D01*
X151946063Y-86909774D01*
X152090226Y-87053937D01*
X152259744Y-87167205D01*
X152448102Y-87245226D01*
X152648061Y-87285000D01*
X152851939Y-87285000D01*
X153051898Y-87245226D01*
X153240256Y-87167205D01*
X153281577Y-87139596D01*
X153322068Y-87343158D01*
X153434010Y-87613411D01*
X153596525Y-87856632D01*
X153803368Y-88063475D01*
X154046589Y-88225990D01*
X154316842Y-88337932D01*
X154603740Y-88395000D01*
X154896260Y-88395000D01*
X155183158Y-88337932D01*
X155453411Y-88225990D01*
X155696632Y-88063475D01*
X155903475Y-87856632D01*
X156065990Y-87613411D01*
X156177932Y-87343158D01*
X156235000Y-87056260D01*
X156235000Y-86763740D01*
X156177932Y-86476842D01*
X156065990Y-86206589D01*
X155903475Y-85963368D01*
X155696632Y-85756525D01*
X155522240Y-85640000D01*
X155696632Y-85523475D01*
X155903475Y-85316632D01*
X156065990Y-85073411D01*
X156177932Y-84803158D01*
X156235000Y-84516260D01*
X156235000Y-84223740D01*
X156177932Y-83936842D01*
X156065990Y-83666589D01*
X155903475Y-83423368D01*
X155696632Y-83216525D01*
X155522240Y-83100000D01*
X155696632Y-82983475D01*
X155903475Y-82776632D01*
X156065990Y-82533411D01*
X156177932Y-82263158D01*
X156235000Y-81976260D01*
X156235000Y-81683740D01*
X156177932Y-81396842D01*
X156065990Y-81126589D01*
X155903475Y-80883368D01*
X155696632Y-80676525D01*
X155522240Y-80560000D01*
X155696632Y-80443475D01*
X155903475Y-80236632D01*
X156065990Y-79993411D01*
X156177932Y-79723158D01*
X156235000Y-79436260D01*
X156235000Y-79143740D01*
X156177932Y-78856842D01*
X156065990Y-78586589D01*
X155903475Y-78343368D01*
X155771620Y-78211513D01*
X155844180Y-78189502D01*
X155954494Y-78130537D01*
X156051185Y-78051185D01*
X156130537Y-77954494D01*
X156189502Y-77844180D01*
X156225812Y-77724482D01*
X156238072Y-77600000D01*
X156235000Y-77035750D01*
X156076250Y-76877000D01*
X154877000Y-76877000D01*
X154877000Y-76897000D01*
X154623000Y-76897000D01*
X154623000Y-76877000D01*
X153423750Y-76877000D01*
X153265000Y-77035750D01*
X153261928Y-77600000D01*
X153274188Y-77724482D01*
X153310498Y-77844180D01*
X153369463Y-77954494D01*
X153448815Y-78051185D01*
X153545506Y-78130537D01*
X153655820Y-78189502D01*
X153728380Y-78211513D01*
X153596525Y-78343368D01*
X153434010Y-78586589D01*
X153322068Y-78856842D01*
X153265000Y-79143740D01*
X153265000Y-79436260D01*
X153322068Y-79723158D01*
X153434010Y-79993411D01*
X153596525Y-80236632D01*
X153803368Y-80443475D01*
X153977760Y-80560000D01*
X153803368Y-80676525D01*
X153596525Y-80883368D01*
X153434010Y-81126589D01*
X153322068Y-81396842D01*
X153265000Y-81683740D01*
X153265000Y-81976260D01*
X153322068Y-82263158D01*
X153434010Y-82533411D01*
X153596525Y-82776632D01*
X153803368Y-82983475D01*
X153977760Y-83100000D01*
X153803368Y-83216525D01*
X153596525Y-83423368D01*
X153434010Y-83666589D01*
X153322068Y-83936842D01*
X153265000Y-84223740D01*
X153265000Y-84516260D01*
X153281853Y-84600984D01*
X152119445Y-83438578D01*
X152093291Y-83406709D01*
X151966146Y-83302364D01*
X151821087Y-83224828D01*
X151663689Y-83177082D01*
X151541019Y-83165000D01*
X151541018Y-83165000D01*
X151500000Y-83160960D01*
X151458982Y-83165000D01*
X146113285Y-83165000D01*
X145990256Y-83082795D01*
X145801898Y-83004774D01*
X145601939Y-82965000D01*
X145398061Y-82965000D01*
X145198102Y-83004774D01*
X145009744Y-83082795D01*
X144840226Y-83196063D01*
X144696063Y-83340226D01*
X144582795Y-83509744D01*
X144504774Y-83698102D01*
X144465000Y-83898061D01*
X144160000Y-83898061D01*
X144160000Y-75523380D01*
X144364112Y-75319268D01*
X147915000Y-75319268D01*
X147915000Y-75680732D01*
X147985518Y-76035250D01*
X148123844Y-76369199D01*
X148324662Y-76669744D01*
X148580256Y-76925338D01*
X148880801Y-77126156D01*
X149214750Y-77264482D01*
X149569268Y-77335000D01*
X149930732Y-77335000D01*
X150285250Y-77264482D01*
X150619199Y-77126156D01*
X150919744Y-76925338D01*
X151175338Y-76669744D01*
X151376156Y-76369199D01*
X151514482Y-76035250D01*
X151541384Y-75900000D01*
X153261928Y-75900000D01*
X153265000Y-76464250D01*
X153423750Y-76623000D01*
X154623000Y-76623000D01*
X154623000Y-75423750D01*
X154877000Y-75423750D01*
X154877000Y-76623000D01*
X156076250Y-76623000D01*
X156235000Y-76464250D01*
X156238072Y-75900000D01*
X156225812Y-75775518D01*
X156189502Y-75655820D01*
X156130537Y-75545506D01*
X156051185Y-75448815D01*
X155954494Y-75369463D01*
X155844180Y-75310498D01*
X155724482Y-75274188D01*
X155600000Y-75261928D01*
X155035750Y-75265000D01*
X154877000Y-75423750D01*
X154623000Y-75423750D01*
X154464250Y-75265000D01*
X153900000Y-75261928D01*
X153775518Y-75274188D01*
X153655820Y-75310498D01*
X153545506Y-75369463D01*
X153448815Y-75448815D01*
X153369463Y-75545506D01*
X153310498Y-75655820D01*
X153274188Y-75775518D01*
X153261928Y-75900000D01*
X151541384Y-75900000D01*
X151585000Y-75680732D01*
X151585000Y-75319268D01*
X151514482Y-74964750D01*
X151376156Y-74630801D01*
X151175338Y-74330256D01*
X150919744Y-74074662D01*
X150619199Y-73873844D01*
X150285250Y-73735518D01*
X149930732Y-73665000D01*
X149569268Y-73665000D01*
X149214750Y-73735518D01*
X148880801Y-73873844D01*
X148580256Y-74074662D01*
X148324662Y-74330256D01*
X148123844Y-74630801D01*
X147985518Y-74964750D01*
X147915000Y-75319268D01*
X144364112Y-75319268D01*
X146273381Y-73410000D01*
X154976620Y-73410000D01*
X157090001Y-75523382D01*
%TA.AperFunction,Conductor*%
D15*
G36*
X157090001Y-75523382D02*
G01*
X157090000Y-87726619D01*
X154976620Y-89840000D01*
X146273381Y-89840000D01*
X144160000Y-87726620D01*
X144160000Y-87569268D01*
X147915000Y-87569268D01*
X147915000Y-87930732D01*
X147985518Y-88285250D01*
X148123844Y-88619199D01*
X148324662Y-88919744D01*
X148580256Y-89175338D01*
X148880801Y-89376156D01*
X149214750Y-89514482D01*
X149569268Y-89585000D01*
X149930732Y-89585000D01*
X150285250Y-89514482D01*
X150619199Y-89376156D01*
X150919744Y-89175338D01*
X151175338Y-88919744D01*
X151376156Y-88619199D01*
X151514482Y-88285250D01*
X151585000Y-87930732D01*
X151585000Y-87569268D01*
X151514482Y-87214750D01*
X151376156Y-86880801D01*
X151175338Y-86580256D01*
X150919744Y-86324662D01*
X150619199Y-86123844D01*
X150285250Y-85985518D01*
X149930732Y-85915000D01*
X149569268Y-85915000D01*
X149214750Y-85985518D01*
X148880801Y-86123844D01*
X148580256Y-86324662D01*
X148324662Y-86580256D01*
X148123844Y-86880801D01*
X147985518Y-87214750D01*
X147915000Y-87569268D01*
X144160000Y-87569268D01*
X144160000Y-83898061D01*
X144465000Y-83898061D01*
X144465000Y-84101939D01*
X144504774Y-84301898D01*
X144582795Y-84490256D01*
X144696063Y-84659774D01*
X144840226Y-84803937D01*
X145009744Y-84917205D01*
X145198102Y-84995226D01*
X145398061Y-85035000D01*
X145601939Y-85035000D01*
X145801898Y-84995226D01*
X145990256Y-84917205D01*
X146113285Y-84835000D01*
X151154133Y-84835000D01*
X151915000Y-85595869D01*
X151915000Y-85636715D01*
X151832795Y-85759744D01*
X151754774Y-85948102D01*
X151715000Y-86148061D01*
X151715000Y-86351939D01*
X151754774Y-86551898D01*
X151832795Y-86740256D01*
X151946063Y-86909774D01*
X152090226Y-87053937D01*
X152259744Y-87167205D01*
X152448102Y-87245226D01*
X152648061Y-87285000D01*
X152851939Y-87285000D01*
X153051898Y-87245226D01*
X153240256Y-87167205D01*
X153281577Y-87139596D01*
X153322068Y-87343158D01*
X153434010Y-87613411D01*
X153596525Y-87856632D01*
X153803368Y-88063475D01*
X154046589Y-88225990D01*
X154316842Y-88337932D01*
X154603740Y-88395000D01*
X154896260Y-88395000D01*
X155183158Y-88337932D01*
X155453411Y-88225990D01*
X155696632Y-88063475D01*
X155903475Y-87856632D01*
X156065990Y-87613411D01*
X156177932Y-87343158D01*
X156235000Y-87056260D01*
X156235000Y-86763740D01*
X156177932Y-86476842D01*
X156065990Y-86206589D01*
X155903475Y-85963368D01*
X155696632Y-85756525D01*
X155522240Y-85640000D01*
X155696632Y-85523475D01*
X155903475Y-85316632D01*
X156065990Y-85073411D01*
X156177932Y-84803158D01*
X156235000Y-84516260D01*
X156235000Y-84223740D01*
X156177932Y-83936842D01*
X156065990Y-83666589D01*
X155903475Y-83423368D01*
X155696632Y-83216525D01*
X155522240Y-83100000D01*
X155696632Y-82983475D01*
X155903475Y-82776632D01*
X156065990Y-82533411D01*
X156177932Y-82263158D01*
X156235000Y-81976260D01*
X156235000Y-81683740D01*
X156177932Y-81396842D01*
X156065990Y-81126589D01*
X155903475Y-80883368D01*
X155696632Y-80676525D01*
X155522240Y-80560000D01*
X155696632Y-80443475D01*
X155903475Y-80236632D01*
X156065990Y-79993411D01*
X156177932Y-79723158D01*
X156235000Y-79436260D01*
X156235000Y-79143740D01*
X156177932Y-78856842D01*
X156065990Y-78586589D01*
X155903475Y-78343368D01*
X155771620Y-78211513D01*
X155844180Y-78189502D01*
X155954494Y-78130537D01*
X156051185Y-78051185D01*
X156130537Y-77954494D01*
X156189502Y-77844180D01*
X156225812Y-77724482D01*
X156238072Y-77600000D01*
X156235000Y-77035750D01*
X156076250Y-76877000D01*
X154877000Y-76877000D01*
X154877000Y-76897000D01*
X154623000Y-76897000D01*
X154623000Y-76877000D01*
X153423750Y-76877000D01*
X153265000Y-77035750D01*
X153261928Y-77600000D01*
X153274188Y-77724482D01*
X153310498Y-77844180D01*
X153369463Y-77954494D01*
X153448815Y-78051185D01*
X153545506Y-78130537D01*
X153655820Y-78189502D01*
X153728380Y-78211513D01*
X153596525Y-78343368D01*
X153434010Y-78586589D01*
X153322068Y-78856842D01*
X153265000Y-79143740D01*
X153265000Y-79436260D01*
X153322068Y-79723158D01*
X153434010Y-79993411D01*
X153596525Y-80236632D01*
X153803368Y-80443475D01*
X153977760Y-80560000D01*
X153803368Y-80676525D01*
X153596525Y-80883368D01*
X153434010Y-81126589D01*
X153322068Y-81396842D01*
X153265000Y-81683740D01*
X153265000Y-81976260D01*
X153322068Y-82263158D01*
X153434010Y-82533411D01*
X153596525Y-82776632D01*
X153803368Y-82983475D01*
X153977760Y-83100000D01*
X153803368Y-83216525D01*
X153596525Y-83423368D01*
X153434010Y-83666589D01*
X153322068Y-83936842D01*
X153265000Y-84223740D01*
X153265000Y-84516260D01*
X153281853Y-84600984D01*
X152119445Y-83438578D01*
X152093291Y-83406709D01*
X151966146Y-83302364D01*
X151821087Y-83224828D01*
X151663689Y-83177082D01*
X151541019Y-83165000D01*
X151541018Y-83165000D01*
X151500000Y-83160960D01*
X151458982Y-83165000D01*
X146113285Y-83165000D01*
X145990256Y-83082795D01*
X145801898Y-83004774D01*
X145601939Y-82965000D01*
X145398061Y-82965000D01*
X145198102Y-83004774D01*
X145009744Y-83082795D01*
X144840226Y-83196063D01*
X144696063Y-83340226D01*
X144582795Y-83509744D01*
X144504774Y-83698102D01*
X144465000Y-83898061D01*
X144160000Y-83898061D01*
X144160000Y-75523380D01*
X144364112Y-75319268D01*
X147915000Y-75319268D01*
X147915000Y-75680732D01*
X147985518Y-76035250D01*
X148123844Y-76369199D01*
X148324662Y-76669744D01*
X148580256Y-76925338D01*
X148880801Y-77126156D01*
X149214750Y-77264482D01*
X149569268Y-77335000D01*
X149930732Y-77335000D01*
X150285250Y-77264482D01*
X150619199Y-77126156D01*
X150919744Y-76925338D01*
X151175338Y-76669744D01*
X151376156Y-76369199D01*
X151514482Y-76035250D01*
X151541384Y-75900000D01*
X153261928Y-75900000D01*
X153265000Y-76464250D01*
X153423750Y-76623000D01*
X154623000Y-76623000D01*
X154623000Y-75423750D01*
X154877000Y-75423750D01*
X154877000Y-76623000D01*
X156076250Y-76623000D01*
X156235000Y-76464250D01*
X156238072Y-75900000D01*
X156225812Y-75775518D01*
X156189502Y-75655820D01*
X156130537Y-75545506D01*
X156051185Y-75448815D01*
X155954494Y-75369463D01*
X155844180Y-75310498D01*
X155724482Y-75274188D01*
X155600000Y-75261928D01*
X155035750Y-75265000D01*
X154877000Y-75423750D01*
X154623000Y-75423750D01*
X154464250Y-75265000D01*
X153900000Y-75261928D01*
X153775518Y-75274188D01*
X153655820Y-75310498D01*
X153545506Y-75369463D01*
X153448815Y-75448815D01*
X153369463Y-75545506D01*
X153310498Y-75655820D01*
X153274188Y-75775518D01*
X153261928Y-75900000D01*
X151541384Y-75900000D01*
X151585000Y-75680732D01*
X151585000Y-75319268D01*
X151514482Y-74964750D01*
X151376156Y-74630801D01*
X151175338Y-74330256D01*
X150919744Y-74074662D01*
X150619199Y-73873844D01*
X150285250Y-73735518D01*
X149930732Y-73665000D01*
X149569268Y-73665000D01*
X149214750Y-73735518D01*
X148880801Y-73873844D01*
X148580256Y-74074662D01*
X148324662Y-74330256D01*
X148123844Y-74630801D01*
X147985518Y-74964750D01*
X147915000Y-75319268D01*
X144364112Y-75319268D01*
X146273381Y-73410000D01*
X154976620Y-73410000D01*
X157090001Y-75523382D01*
G37*
%TD.AperFunction*%
M02*
