%TF.GenerationSoftware,KiCad,Pcbnew,5.1.7-a382d34a8~87~ubuntu20.04.1*%
%TF.CreationDate,2020-10-01T12:41:17+02:00*%
%TF.ProjectId,reform2-trackball-sensor,7265666f-726d-4322-9d74-7261636b6261,rev?*%
%TF.SameCoordinates,Original*%
%TF.FileFunction,Paste,Top*%
%TF.FilePolarity,Positive*%
%FSLAX46Y46*%
G04 Gerber Fmt 4.6, Leading zero omitted, Abs format (unit mm)*
G04 Created by KiCad (PCBNEW 5.1.7-a382d34a8~87~ubuntu20.04.1) date 2020-10-01 12:41:17*
%MOMM*%
%LPD*%
G01*
G04 APERTURE LIST*
%ADD10R,0.500000X0.750000*%
%ADD11C,0.690000*%
G04 APERTURE END LIST*
D10*
X148620000Y-82635000D03*
X149420000Y-82635000D03*
X150220000Y-82635000D03*
X151020000Y-82635000D03*
X151020000Y-80505000D03*
X150220000Y-80505000D03*
X149420000Y-80505000D03*
X148620000Y-80505000D03*
D11*
X150970000Y-81570000D03*
G36*
G01*
X146100000Y-79256250D02*
X146100000Y-78743750D01*
G75*
G02*
X146318750Y-78525000I218750J0D01*
G01*
X146756250Y-78525000D01*
G75*
G02*
X146975000Y-78743750I0J-218750D01*
G01*
X146975000Y-79256250D01*
G75*
G02*
X146756250Y-79475000I-218750J0D01*
G01*
X146318750Y-79475000D01*
G75*
G02*
X146100000Y-79256250I0J218750D01*
G01*
G37*
G36*
G01*
X144525000Y-79256250D02*
X144525000Y-78743750D01*
G75*
G02*
X144743750Y-78525000I218750J0D01*
G01*
X145181250Y-78525000D01*
G75*
G02*
X145400000Y-78743750I0J-218750D01*
G01*
X145400000Y-79256250D01*
G75*
G02*
X145181250Y-79475000I-218750J0D01*
G01*
X144743750Y-79475000D01*
G75*
G02*
X144525000Y-79256250I0J218750D01*
G01*
G37*
G36*
G01*
X150350000Y-84756250D02*
X150350000Y-84243750D01*
G75*
G02*
X150568750Y-84025000I218750J0D01*
G01*
X151006250Y-84025000D01*
G75*
G02*
X151225000Y-84243750I0J-218750D01*
G01*
X151225000Y-84756250D01*
G75*
G02*
X151006250Y-84975000I-218750J0D01*
G01*
X150568750Y-84975000D01*
G75*
G02*
X150350000Y-84756250I0J218750D01*
G01*
G37*
G36*
G01*
X148775000Y-84756250D02*
X148775000Y-84243750D01*
G75*
G02*
X148993750Y-84025000I218750J0D01*
G01*
X149431250Y-84025000D01*
G75*
G02*
X149650000Y-84243750I0J-218750D01*
G01*
X149650000Y-84756250D01*
G75*
G02*
X149431250Y-84975000I-218750J0D01*
G01*
X148993750Y-84975000D01*
G75*
G02*
X148775000Y-84756250I0J218750D01*
G01*
G37*
G36*
G01*
X145006250Y-81150000D02*
X144493750Y-81150000D01*
G75*
G02*
X144275000Y-80931250I0J218750D01*
G01*
X144275000Y-80493750D01*
G75*
G02*
X144493750Y-80275000I218750J0D01*
G01*
X145006250Y-80275000D01*
G75*
G02*
X145225000Y-80493750I0J-218750D01*
G01*
X145225000Y-80931250D01*
G75*
G02*
X145006250Y-81150000I-218750J0D01*
G01*
G37*
G36*
G01*
X145006250Y-82725000D02*
X144493750Y-82725000D01*
G75*
G02*
X144275000Y-82506250I0J218750D01*
G01*
X144275000Y-82068750D01*
G75*
G02*
X144493750Y-81850000I218750J0D01*
G01*
X145006250Y-81850000D01*
G75*
G02*
X145225000Y-82068750I0J-218750D01*
G01*
X145225000Y-82506250D01*
G75*
G02*
X145006250Y-82725000I-218750J0D01*
G01*
G37*
G36*
G01*
X146756250Y-81150000D02*
X146243750Y-81150000D01*
G75*
G02*
X146025000Y-80931250I0J218750D01*
G01*
X146025000Y-80493750D01*
G75*
G02*
X146243750Y-80275000I218750J0D01*
G01*
X146756250Y-80275000D01*
G75*
G02*
X146975000Y-80493750I0J-218750D01*
G01*
X146975000Y-80931250D01*
G75*
G02*
X146756250Y-81150000I-218750J0D01*
G01*
G37*
G36*
G01*
X146756250Y-82725000D02*
X146243750Y-82725000D01*
G75*
G02*
X146025000Y-82506250I0J218750D01*
G01*
X146025000Y-82068750D01*
G75*
G02*
X146243750Y-81850000I218750J0D01*
G01*
X146756250Y-81850000D01*
G75*
G02*
X146975000Y-82068750I0J-218750D01*
G01*
X146975000Y-82506250D01*
G75*
G02*
X146756250Y-82725000I-218750J0D01*
G01*
G37*
M02*
