%TF.GenerationSoftware,KiCad,Pcbnew,5.1.7-a382d34a8~87~ubuntu20.04.1*%
%TF.CreationDate,2020-10-01T12:41:17+02:00*%
%TF.ProjectId,reform2-trackball-sensor,7265666f-726d-4322-9d74-7261636b6261,rev?*%
%TF.SameCoordinates,Original*%
%TF.FileFunction,Copper,L1,Top*%
%TF.FilePolarity,Positive*%
%FSLAX46Y46*%
G04 Gerber Fmt 4.6, Leading zero omitted, Abs format (unit mm)*
G04 Created by KiCad (PCBNEW 5.1.7-a382d34a8~87~ubuntu20.04.1) date 2020-10-01 12:41:17*
%MOMM*%
%LPD*%
G01*
G04 APERTURE LIST*
%TA.AperFunction,SMDPad,CuDef*%
%ADD10R,0.500000X0.750000*%
%TD*%
%TA.AperFunction,SMDPad,CuDef*%
%ADD11C,0.690000*%
%TD*%
%TA.AperFunction,ComponentPad*%
%ADD12R,1.700000X1.700000*%
%TD*%
%TA.AperFunction,ComponentPad*%
%ADD13O,1.700000X1.700000*%
%TD*%
%TA.AperFunction,ViaPad*%
%ADD14C,0.800000*%
%TD*%
%TA.AperFunction,Conductor*%
%ADD15C,0.400000*%
%TD*%
%TA.AperFunction,Conductor*%
%ADD16C,0.250000*%
%TD*%
%TA.AperFunction,Conductor*%
%ADD17C,0.254000*%
%TD*%
%TA.AperFunction,Conductor*%
%ADD18C,0.100000*%
%TD*%
G04 APERTURE END LIST*
D10*
X148620000Y-82635000D03*
X149420000Y-82635000D03*
X150220000Y-82635000D03*
X151020000Y-82635000D03*
X151020000Y-80505000D03*
X150220000Y-80505000D03*
X149420000Y-80505000D03*
X148620000Y-80505000D03*
D11*
X150970000Y-81570000D03*
%TA.AperFunction,SMDPad,CuDef*%
G36*
G01*
X146100000Y-79256250D02*
X146100000Y-78743750D01*
G75*
G02*
X146318750Y-78525000I218750J0D01*
G01*
X146756250Y-78525000D01*
G75*
G02*
X146975000Y-78743750I0J-218750D01*
G01*
X146975000Y-79256250D01*
G75*
G02*
X146756250Y-79475000I-218750J0D01*
G01*
X146318750Y-79475000D01*
G75*
G02*
X146100000Y-79256250I0J218750D01*
G01*
G37*
%TD.AperFunction*%
%TA.AperFunction,SMDPad,CuDef*%
G36*
G01*
X144525000Y-79256250D02*
X144525000Y-78743750D01*
G75*
G02*
X144743750Y-78525000I218750J0D01*
G01*
X145181250Y-78525000D01*
G75*
G02*
X145400000Y-78743750I0J-218750D01*
G01*
X145400000Y-79256250D01*
G75*
G02*
X145181250Y-79475000I-218750J0D01*
G01*
X144743750Y-79475000D01*
G75*
G02*
X144525000Y-79256250I0J218750D01*
G01*
G37*
%TD.AperFunction*%
%TA.AperFunction,SMDPad,CuDef*%
G36*
G01*
X150350000Y-84756250D02*
X150350000Y-84243750D01*
G75*
G02*
X150568750Y-84025000I218750J0D01*
G01*
X151006250Y-84025000D01*
G75*
G02*
X151225000Y-84243750I0J-218750D01*
G01*
X151225000Y-84756250D01*
G75*
G02*
X151006250Y-84975000I-218750J0D01*
G01*
X150568750Y-84975000D01*
G75*
G02*
X150350000Y-84756250I0J218750D01*
G01*
G37*
%TD.AperFunction*%
%TA.AperFunction,SMDPad,CuDef*%
G36*
G01*
X148775000Y-84756250D02*
X148775000Y-84243750D01*
G75*
G02*
X148993750Y-84025000I218750J0D01*
G01*
X149431250Y-84025000D01*
G75*
G02*
X149650000Y-84243750I0J-218750D01*
G01*
X149650000Y-84756250D01*
G75*
G02*
X149431250Y-84975000I-218750J0D01*
G01*
X148993750Y-84975000D01*
G75*
G02*
X148775000Y-84756250I0J218750D01*
G01*
G37*
%TD.AperFunction*%
%TA.AperFunction,SMDPad,CuDef*%
G36*
G01*
X145006250Y-81150000D02*
X144493750Y-81150000D01*
G75*
G02*
X144275000Y-80931250I0J218750D01*
G01*
X144275000Y-80493750D01*
G75*
G02*
X144493750Y-80275000I218750J0D01*
G01*
X145006250Y-80275000D01*
G75*
G02*
X145225000Y-80493750I0J-218750D01*
G01*
X145225000Y-80931250D01*
G75*
G02*
X145006250Y-81150000I-218750J0D01*
G01*
G37*
%TD.AperFunction*%
%TA.AperFunction,SMDPad,CuDef*%
G36*
G01*
X145006250Y-82725000D02*
X144493750Y-82725000D01*
G75*
G02*
X144275000Y-82506250I0J218750D01*
G01*
X144275000Y-82068750D01*
G75*
G02*
X144493750Y-81850000I218750J0D01*
G01*
X145006250Y-81850000D01*
G75*
G02*
X145225000Y-82068750I0J-218750D01*
G01*
X145225000Y-82506250D01*
G75*
G02*
X145006250Y-82725000I-218750J0D01*
G01*
G37*
%TD.AperFunction*%
%TA.AperFunction,SMDPad,CuDef*%
G36*
G01*
X146756250Y-81150000D02*
X146243750Y-81150000D01*
G75*
G02*
X146025000Y-80931250I0J218750D01*
G01*
X146025000Y-80493750D01*
G75*
G02*
X146243750Y-80275000I218750J0D01*
G01*
X146756250Y-80275000D01*
G75*
G02*
X146975000Y-80493750I0J-218750D01*
G01*
X146975000Y-80931250D01*
G75*
G02*
X146756250Y-81150000I-218750J0D01*
G01*
G37*
%TD.AperFunction*%
%TA.AperFunction,SMDPad,CuDef*%
G36*
G01*
X146756250Y-82725000D02*
X146243750Y-82725000D01*
G75*
G02*
X146025000Y-82506250I0J218750D01*
G01*
X146025000Y-82068750D01*
G75*
G02*
X146243750Y-81850000I218750J0D01*
G01*
X146756250Y-81850000D01*
G75*
G02*
X146975000Y-82068750I0J-218750D01*
G01*
X146975000Y-82506250D01*
G75*
G02*
X146756250Y-82725000I-218750J0D01*
G01*
G37*
%TD.AperFunction*%
D12*
X154750000Y-76750000D03*
D13*
X154750000Y-79290000D03*
X154750000Y-81830000D03*
X154750000Y-84370000D03*
X154750000Y-86910000D03*
D14*
X147500000Y-80750000D03*
X157000000Y-77750000D03*
X157000000Y-85500000D03*
X144750000Y-85500000D03*
X144750000Y-77750000D03*
X145500000Y-84000000D03*
X152750000Y-86250000D03*
D15*
X144750000Y-80712500D02*
X146500000Y-80712500D01*
X146500000Y-80712500D02*
X147462500Y-80712500D01*
X147462500Y-80712500D02*
X147500000Y-80750000D01*
X144750000Y-79212500D02*
X144962500Y-79000000D01*
X144750000Y-80712500D02*
X144750000Y-79212500D01*
X150220000Y-81860000D02*
X150220000Y-82635000D01*
X150169999Y-81809999D02*
X150220000Y-81860000D01*
X148670001Y-81809999D02*
X150169999Y-81809999D01*
X148620000Y-81860000D02*
X148670001Y-81809999D01*
X148620000Y-82635000D02*
X148620000Y-81860000D01*
X146500000Y-82287500D02*
X148272500Y-82287500D01*
X148272500Y-82287500D02*
X148620000Y-82635000D01*
X146500000Y-82287500D02*
X144750000Y-82287500D01*
X144750000Y-83250000D02*
X145500000Y-84000000D01*
X144750000Y-82287500D02*
X144750000Y-83250000D01*
X154090000Y-86250000D02*
X154750000Y-86910000D01*
X152750000Y-86250000D02*
X154090000Y-86250000D01*
D16*
X149420000Y-84292500D02*
X149420000Y-82635000D01*
X149212500Y-84500000D02*
X149420000Y-84292500D01*
X149420000Y-79880000D02*
X150010000Y-79290000D01*
X150010000Y-79290000D02*
X154750000Y-79290000D01*
X149420000Y-80505000D02*
X149420000Y-79880000D01*
X150295001Y-79804999D02*
X152724999Y-79804999D01*
X152724999Y-79804999D02*
X154750000Y-81830000D01*
X150220000Y-79880000D02*
X150295001Y-79804999D01*
X150220000Y-80505000D02*
X150220000Y-79880000D01*
X151020000Y-80640000D02*
X154750000Y-84370000D01*
X151020000Y-80505000D02*
X151020000Y-80640000D01*
X148620000Y-79620000D02*
X148620000Y-80505000D01*
X146537500Y-79000000D02*
X148000000Y-79000000D01*
X148000000Y-79000000D02*
X148620000Y-79620000D01*
D17*
X157090001Y-75523382D02*
X157090000Y-87726619D01*
X154976620Y-89840000D01*
X146273381Y-89840000D01*
X144160000Y-87726620D01*
X144160000Y-87569268D01*
X147915000Y-87569268D01*
X147915000Y-87930732D01*
X147985518Y-88285250D01*
X148123844Y-88619199D01*
X148324662Y-88919744D01*
X148580256Y-89175338D01*
X148880801Y-89376156D01*
X149214750Y-89514482D01*
X149569268Y-89585000D01*
X149930732Y-89585000D01*
X150285250Y-89514482D01*
X150619199Y-89376156D01*
X150919744Y-89175338D01*
X151175338Y-88919744D01*
X151376156Y-88619199D01*
X151514482Y-88285250D01*
X151585000Y-87930732D01*
X151585000Y-87569268D01*
X151514482Y-87214750D01*
X151376156Y-86880801D01*
X151175338Y-86580256D01*
X150919744Y-86324662D01*
X150619199Y-86123844D01*
X150285250Y-85985518D01*
X149930732Y-85915000D01*
X149569268Y-85915000D01*
X149214750Y-85985518D01*
X148880801Y-86123844D01*
X148580256Y-86324662D01*
X148324662Y-86580256D01*
X148123844Y-86880801D01*
X147985518Y-87214750D01*
X147915000Y-87569268D01*
X144160000Y-87569268D01*
X144160000Y-83845991D01*
X144188574Y-83869441D01*
X144475907Y-84156775D01*
X144504774Y-84301898D01*
X144582795Y-84490256D01*
X144696063Y-84659774D01*
X144840226Y-84803937D01*
X145009744Y-84917205D01*
X145198102Y-84995226D01*
X145398061Y-85035000D01*
X145601939Y-85035000D01*
X145801898Y-84995226D01*
X145990256Y-84917205D01*
X146159774Y-84803937D01*
X146303937Y-84659774D01*
X146417205Y-84490256D01*
X146495226Y-84301898D01*
X146535000Y-84101939D01*
X146535000Y-83898061D01*
X146495226Y-83698102D01*
X146417205Y-83509744D01*
X146319202Y-83363072D01*
X146756250Y-83363072D01*
X146923408Y-83346608D01*
X147084142Y-83297850D01*
X147232275Y-83218671D01*
X147349461Y-83122500D01*
X147743008Y-83122500D01*
X147744188Y-83134482D01*
X147780498Y-83254180D01*
X147839463Y-83364494D01*
X147918815Y-83461185D01*
X148015506Y-83540537D01*
X148125820Y-83599502D01*
X148245518Y-83635812D01*
X148370000Y-83648072D01*
X148379525Y-83648072D01*
X148281329Y-83767725D01*
X148202150Y-83915858D01*
X148153392Y-84076592D01*
X148136928Y-84243750D01*
X148136928Y-84756250D01*
X148153392Y-84923408D01*
X148202150Y-85084142D01*
X148281329Y-85232275D01*
X148387885Y-85362115D01*
X148517725Y-85468671D01*
X148665858Y-85547850D01*
X148826592Y-85596608D01*
X148993750Y-85613072D01*
X149431250Y-85613072D01*
X149598408Y-85596608D01*
X149759142Y-85547850D01*
X149907275Y-85468671D01*
X149928930Y-85450900D01*
X149995506Y-85505537D01*
X150105820Y-85564502D01*
X150225518Y-85600812D01*
X150350000Y-85613072D01*
X150501750Y-85610000D01*
X150660500Y-85451250D01*
X150660500Y-84627000D01*
X150914500Y-84627000D01*
X150914500Y-85451250D01*
X151073250Y-85610000D01*
X151225000Y-85613072D01*
X151349482Y-85600812D01*
X151469180Y-85564502D01*
X151579494Y-85505537D01*
X151676185Y-85426185D01*
X151755537Y-85329494D01*
X151814502Y-85219180D01*
X151850812Y-85099482D01*
X151863072Y-84975000D01*
X151860000Y-84785750D01*
X151701250Y-84627000D01*
X150914500Y-84627000D01*
X150660500Y-84627000D01*
X150640500Y-84627000D01*
X150640500Y-84373000D01*
X150660500Y-84373000D01*
X150660500Y-84353000D01*
X150914500Y-84353000D01*
X150914500Y-84373000D01*
X151701250Y-84373000D01*
X151860000Y-84214250D01*
X151863072Y-84025000D01*
X151850812Y-83900518D01*
X151814502Y-83780820D01*
X151755537Y-83670506D01*
X151676185Y-83573815D01*
X151630046Y-83535950D01*
X151636560Y-83532274D01*
X151731407Y-83450726D01*
X151808522Y-83352242D01*
X151864943Y-83240605D01*
X151898500Y-83120107D01*
X151907904Y-82995377D01*
X151905000Y-82920750D01*
X151746250Y-82762000D01*
X151143000Y-82762000D01*
X151143000Y-82782000D01*
X151108072Y-82782000D01*
X151108072Y-82541735D01*
X151255856Y-82512339D01*
X151266331Y-82508000D01*
X151746250Y-82508000D01*
X151779724Y-82474526D01*
X153308790Y-84003592D01*
X153265000Y-84223740D01*
X153265000Y-84516260D01*
X153322068Y-84803158D01*
X153434010Y-85073411D01*
X153596525Y-85316632D01*
X153694893Y-85415000D01*
X153363285Y-85415000D01*
X153240256Y-85332795D01*
X153051898Y-85254774D01*
X152851939Y-85215000D01*
X152648061Y-85215000D01*
X152448102Y-85254774D01*
X152259744Y-85332795D01*
X152090226Y-85446063D01*
X151946063Y-85590226D01*
X151832795Y-85759744D01*
X151754774Y-85948102D01*
X151715000Y-86148061D01*
X151715000Y-86351939D01*
X151754774Y-86551898D01*
X151832795Y-86740256D01*
X151946063Y-86909774D01*
X152090226Y-87053937D01*
X152259744Y-87167205D01*
X152448102Y-87245226D01*
X152648061Y-87285000D01*
X152851939Y-87285000D01*
X153051898Y-87245226D01*
X153240256Y-87167205D01*
X153281577Y-87139596D01*
X153322068Y-87343158D01*
X153434010Y-87613411D01*
X153596525Y-87856632D01*
X153803368Y-88063475D01*
X154046589Y-88225990D01*
X154316842Y-88337932D01*
X154603740Y-88395000D01*
X154896260Y-88395000D01*
X155183158Y-88337932D01*
X155453411Y-88225990D01*
X155696632Y-88063475D01*
X155903475Y-87856632D01*
X156065990Y-87613411D01*
X156177932Y-87343158D01*
X156235000Y-87056260D01*
X156235000Y-86763740D01*
X156177932Y-86476842D01*
X156065990Y-86206589D01*
X155903475Y-85963368D01*
X155696632Y-85756525D01*
X155522240Y-85640000D01*
X155696632Y-85523475D01*
X155903475Y-85316632D01*
X156065990Y-85073411D01*
X156177932Y-84803158D01*
X156235000Y-84516260D01*
X156235000Y-84223740D01*
X156177932Y-83936842D01*
X156065990Y-83666589D01*
X155903475Y-83423368D01*
X155696632Y-83216525D01*
X155522240Y-83100000D01*
X155696632Y-82983475D01*
X155903475Y-82776632D01*
X156065990Y-82533411D01*
X156177932Y-82263158D01*
X156235000Y-81976260D01*
X156235000Y-81683740D01*
X156177932Y-81396842D01*
X156065990Y-81126589D01*
X155903475Y-80883368D01*
X155696632Y-80676525D01*
X155522240Y-80560000D01*
X155696632Y-80443475D01*
X155903475Y-80236632D01*
X156065990Y-79993411D01*
X156177932Y-79723158D01*
X156235000Y-79436260D01*
X156235000Y-79143740D01*
X156177932Y-78856842D01*
X156065990Y-78586589D01*
X155903475Y-78343368D01*
X155771620Y-78211513D01*
X155844180Y-78189502D01*
X155954494Y-78130537D01*
X156051185Y-78051185D01*
X156130537Y-77954494D01*
X156189502Y-77844180D01*
X156225812Y-77724482D01*
X156238072Y-77600000D01*
X156235000Y-77035750D01*
X156076250Y-76877000D01*
X154877000Y-76877000D01*
X154877000Y-76897000D01*
X154623000Y-76897000D01*
X154623000Y-76877000D01*
X153423750Y-76877000D01*
X153265000Y-77035750D01*
X153261928Y-77600000D01*
X153274188Y-77724482D01*
X153310498Y-77844180D01*
X153369463Y-77954494D01*
X153448815Y-78051185D01*
X153545506Y-78130537D01*
X153655820Y-78189502D01*
X153728380Y-78211513D01*
X153596525Y-78343368D01*
X153471822Y-78530000D01*
X150047322Y-78530000D01*
X150009999Y-78526324D01*
X149972677Y-78530000D01*
X149972667Y-78530000D01*
X149861014Y-78540997D01*
X149717753Y-78584454D01*
X149585723Y-78655026D01*
X149513559Y-78714250D01*
X149469999Y-78749999D01*
X149446200Y-78778998D01*
X149151871Y-79073327D01*
X149131009Y-79056206D01*
X148563803Y-78489002D01*
X148540001Y-78459999D01*
X148424276Y-78365026D01*
X148292247Y-78294454D01*
X148148986Y-78250997D01*
X148037333Y-78240000D01*
X148037322Y-78240000D01*
X148000000Y-78236324D01*
X147962678Y-78240000D01*
X147445918Y-78240000D01*
X147362115Y-78137885D01*
X147232275Y-78031329D01*
X147084142Y-77952150D01*
X146923408Y-77903392D01*
X146756250Y-77886928D01*
X146318750Y-77886928D01*
X146151592Y-77903392D01*
X145990858Y-77952150D01*
X145842725Y-78031329D01*
X145821070Y-78049100D01*
X145754494Y-77994463D01*
X145644180Y-77935498D01*
X145524482Y-77899188D01*
X145400000Y-77886928D01*
X145248250Y-77890000D01*
X145089500Y-78048750D01*
X145089500Y-78873000D01*
X145109500Y-78873000D01*
X145109500Y-79127000D01*
X145089500Y-79127000D01*
X145089500Y-79147000D01*
X144835500Y-79147000D01*
X144835500Y-79127000D01*
X144815500Y-79127000D01*
X144815500Y-78873000D01*
X144835500Y-78873000D01*
X144835500Y-78048750D01*
X144676750Y-77890000D01*
X144525000Y-77886928D01*
X144400518Y-77899188D01*
X144280820Y-77935498D01*
X144170506Y-77994463D01*
X144160000Y-78003085D01*
X144160000Y-75523380D01*
X144364112Y-75319268D01*
X147915000Y-75319268D01*
X147915000Y-75680732D01*
X147985518Y-76035250D01*
X148123844Y-76369199D01*
X148324662Y-76669744D01*
X148580256Y-76925338D01*
X148880801Y-77126156D01*
X149214750Y-77264482D01*
X149569268Y-77335000D01*
X149930732Y-77335000D01*
X150285250Y-77264482D01*
X150619199Y-77126156D01*
X150919744Y-76925338D01*
X151175338Y-76669744D01*
X151376156Y-76369199D01*
X151514482Y-76035250D01*
X151541384Y-75900000D01*
X153261928Y-75900000D01*
X153265000Y-76464250D01*
X153423750Y-76623000D01*
X154623000Y-76623000D01*
X154623000Y-75423750D01*
X154877000Y-75423750D01*
X154877000Y-76623000D01*
X156076250Y-76623000D01*
X156235000Y-76464250D01*
X156238072Y-75900000D01*
X156225812Y-75775518D01*
X156189502Y-75655820D01*
X156130537Y-75545506D01*
X156051185Y-75448815D01*
X155954494Y-75369463D01*
X155844180Y-75310498D01*
X155724482Y-75274188D01*
X155600000Y-75261928D01*
X155035750Y-75265000D01*
X154877000Y-75423750D01*
X154623000Y-75423750D01*
X154464250Y-75265000D01*
X153900000Y-75261928D01*
X153775518Y-75274188D01*
X153655820Y-75310498D01*
X153545506Y-75369463D01*
X153448815Y-75448815D01*
X153369463Y-75545506D01*
X153310498Y-75655820D01*
X153274188Y-75775518D01*
X153261928Y-75900000D01*
X151541384Y-75900000D01*
X151585000Y-75680732D01*
X151585000Y-75319268D01*
X151514482Y-74964750D01*
X151376156Y-74630801D01*
X151175338Y-74330256D01*
X150919744Y-74074662D01*
X150619199Y-73873844D01*
X150285250Y-73735518D01*
X149930732Y-73665000D01*
X149569268Y-73665000D01*
X149214750Y-73735518D01*
X148880801Y-73873844D01*
X148580256Y-74074662D01*
X148324662Y-74330256D01*
X148123844Y-74630801D01*
X147985518Y-74964750D01*
X147915000Y-75319268D01*
X144364112Y-75319268D01*
X146273381Y-73410000D01*
X154976620Y-73410000D01*
X157090001Y-75523382D01*
%TA.AperFunction,Conductor*%
D18*
G36*
X157090001Y-75523382D02*
G01*
X157090000Y-87726619D01*
X154976620Y-89840000D01*
X146273381Y-89840000D01*
X144160000Y-87726620D01*
X144160000Y-87569268D01*
X147915000Y-87569268D01*
X147915000Y-87930732D01*
X147985518Y-88285250D01*
X148123844Y-88619199D01*
X148324662Y-88919744D01*
X148580256Y-89175338D01*
X148880801Y-89376156D01*
X149214750Y-89514482D01*
X149569268Y-89585000D01*
X149930732Y-89585000D01*
X150285250Y-89514482D01*
X150619199Y-89376156D01*
X150919744Y-89175338D01*
X151175338Y-88919744D01*
X151376156Y-88619199D01*
X151514482Y-88285250D01*
X151585000Y-87930732D01*
X151585000Y-87569268D01*
X151514482Y-87214750D01*
X151376156Y-86880801D01*
X151175338Y-86580256D01*
X150919744Y-86324662D01*
X150619199Y-86123844D01*
X150285250Y-85985518D01*
X149930732Y-85915000D01*
X149569268Y-85915000D01*
X149214750Y-85985518D01*
X148880801Y-86123844D01*
X148580256Y-86324662D01*
X148324662Y-86580256D01*
X148123844Y-86880801D01*
X147985518Y-87214750D01*
X147915000Y-87569268D01*
X144160000Y-87569268D01*
X144160000Y-83845991D01*
X144188574Y-83869441D01*
X144475907Y-84156775D01*
X144504774Y-84301898D01*
X144582795Y-84490256D01*
X144696063Y-84659774D01*
X144840226Y-84803937D01*
X145009744Y-84917205D01*
X145198102Y-84995226D01*
X145398061Y-85035000D01*
X145601939Y-85035000D01*
X145801898Y-84995226D01*
X145990256Y-84917205D01*
X146159774Y-84803937D01*
X146303937Y-84659774D01*
X146417205Y-84490256D01*
X146495226Y-84301898D01*
X146535000Y-84101939D01*
X146535000Y-83898061D01*
X146495226Y-83698102D01*
X146417205Y-83509744D01*
X146319202Y-83363072D01*
X146756250Y-83363072D01*
X146923408Y-83346608D01*
X147084142Y-83297850D01*
X147232275Y-83218671D01*
X147349461Y-83122500D01*
X147743008Y-83122500D01*
X147744188Y-83134482D01*
X147780498Y-83254180D01*
X147839463Y-83364494D01*
X147918815Y-83461185D01*
X148015506Y-83540537D01*
X148125820Y-83599502D01*
X148245518Y-83635812D01*
X148370000Y-83648072D01*
X148379525Y-83648072D01*
X148281329Y-83767725D01*
X148202150Y-83915858D01*
X148153392Y-84076592D01*
X148136928Y-84243750D01*
X148136928Y-84756250D01*
X148153392Y-84923408D01*
X148202150Y-85084142D01*
X148281329Y-85232275D01*
X148387885Y-85362115D01*
X148517725Y-85468671D01*
X148665858Y-85547850D01*
X148826592Y-85596608D01*
X148993750Y-85613072D01*
X149431250Y-85613072D01*
X149598408Y-85596608D01*
X149759142Y-85547850D01*
X149907275Y-85468671D01*
X149928930Y-85450900D01*
X149995506Y-85505537D01*
X150105820Y-85564502D01*
X150225518Y-85600812D01*
X150350000Y-85613072D01*
X150501750Y-85610000D01*
X150660500Y-85451250D01*
X150660500Y-84627000D01*
X150914500Y-84627000D01*
X150914500Y-85451250D01*
X151073250Y-85610000D01*
X151225000Y-85613072D01*
X151349482Y-85600812D01*
X151469180Y-85564502D01*
X151579494Y-85505537D01*
X151676185Y-85426185D01*
X151755537Y-85329494D01*
X151814502Y-85219180D01*
X151850812Y-85099482D01*
X151863072Y-84975000D01*
X151860000Y-84785750D01*
X151701250Y-84627000D01*
X150914500Y-84627000D01*
X150660500Y-84627000D01*
X150640500Y-84627000D01*
X150640500Y-84373000D01*
X150660500Y-84373000D01*
X150660500Y-84353000D01*
X150914500Y-84353000D01*
X150914500Y-84373000D01*
X151701250Y-84373000D01*
X151860000Y-84214250D01*
X151863072Y-84025000D01*
X151850812Y-83900518D01*
X151814502Y-83780820D01*
X151755537Y-83670506D01*
X151676185Y-83573815D01*
X151630046Y-83535950D01*
X151636560Y-83532274D01*
X151731407Y-83450726D01*
X151808522Y-83352242D01*
X151864943Y-83240605D01*
X151898500Y-83120107D01*
X151907904Y-82995377D01*
X151905000Y-82920750D01*
X151746250Y-82762000D01*
X151143000Y-82762000D01*
X151143000Y-82782000D01*
X151108072Y-82782000D01*
X151108072Y-82541735D01*
X151255856Y-82512339D01*
X151266331Y-82508000D01*
X151746250Y-82508000D01*
X151779724Y-82474526D01*
X153308790Y-84003592D01*
X153265000Y-84223740D01*
X153265000Y-84516260D01*
X153322068Y-84803158D01*
X153434010Y-85073411D01*
X153596525Y-85316632D01*
X153694893Y-85415000D01*
X153363285Y-85415000D01*
X153240256Y-85332795D01*
X153051898Y-85254774D01*
X152851939Y-85215000D01*
X152648061Y-85215000D01*
X152448102Y-85254774D01*
X152259744Y-85332795D01*
X152090226Y-85446063D01*
X151946063Y-85590226D01*
X151832795Y-85759744D01*
X151754774Y-85948102D01*
X151715000Y-86148061D01*
X151715000Y-86351939D01*
X151754774Y-86551898D01*
X151832795Y-86740256D01*
X151946063Y-86909774D01*
X152090226Y-87053937D01*
X152259744Y-87167205D01*
X152448102Y-87245226D01*
X152648061Y-87285000D01*
X152851939Y-87285000D01*
X153051898Y-87245226D01*
X153240256Y-87167205D01*
X153281577Y-87139596D01*
X153322068Y-87343158D01*
X153434010Y-87613411D01*
X153596525Y-87856632D01*
X153803368Y-88063475D01*
X154046589Y-88225990D01*
X154316842Y-88337932D01*
X154603740Y-88395000D01*
X154896260Y-88395000D01*
X155183158Y-88337932D01*
X155453411Y-88225990D01*
X155696632Y-88063475D01*
X155903475Y-87856632D01*
X156065990Y-87613411D01*
X156177932Y-87343158D01*
X156235000Y-87056260D01*
X156235000Y-86763740D01*
X156177932Y-86476842D01*
X156065990Y-86206589D01*
X155903475Y-85963368D01*
X155696632Y-85756525D01*
X155522240Y-85640000D01*
X155696632Y-85523475D01*
X155903475Y-85316632D01*
X156065990Y-85073411D01*
X156177932Y-84803158D01*
X156235000Y-84516260D01*
X156235000Y-84223740D01*
X156177932Y-83936842D01*
X156065990Y-83666589D01*
X155903475Y-83423368D01*
X155696632Y-83216525D01*
X155522240Y-83100000D01*
X155696632Y-82983475D01*
X155903475Y-82776632D01*
X156065990Y-82533411D01*
X156177932Y-82263158D01*
X156235000Y-81976260D01*
X156235000Y-81683740D01*
X156177932Y-81396842D01*
X156065990Y-81126589D01*
X155903475Y-80883368D01*
X155696632Y-80676525D01*
X155522240Y-80560000D01*
X155696632Y-80443475D01*
X155903475Y-80236632D01*
X156065990Y-79993411D01*
X156177932Y-79723158D01*
X156235000Y-79436260D01*
X156235000Y-79143740D01*
X156177932Y-78856842D01*
X156065990Y-78586589D01*
X155903475Y-78343368D01*
X155771620Y-78211513D01*
X155844180Y-78189502D01*
X155954494Y-78130537D01*
X156051185Y-78051185D01*
X156130537Y-77954494D01*
X156189502Y-77844180D01*
X156225812Y-77724482D01*
X156238072Y-77600000D01*
X156235000Y-77035750D01*
X156076250Y-76877000D01*
X154877000Y-76877000D01*
X154877000Y-76897000D01*
X154623000Y-76897000D01*
X154623000Y-76877000D01*
X153423750Y-76877000D01*
X153265000Y-77035750D01*
X153261928Y-77600000D01*
X153274188Y-77724482D01*
X153310498Y-77844180D01*
X153369463Y-77954494D01*
X153448815Y-78051185D01*
X153545506Y-78130537D01*
X153655820Y-78189502D01*
X153728380Y-78211513D01*
X153596525Y-78343368D01*
X153471822Y-78530000D01*
X150047322Y-78530000D01*
X150009999Y-78526324D01*
X149972677Y-78530000D01*
X149972667Y-78530000D01*
X149861014Y-78540997D01*
X149717753Y-78584454D01*
X149585723Y-78655026D01*
X149513559Y-78714250D01*
X149469999Y-78749999D01*
X149446200Y-78778998D01*
X149151871Y-79073327D01*
X149131009Y-79056206D01*
X148563803Y-78489002D01*
X148540001Y-78459999D01*
X148424276Y-78365026D01*
X148292247Y-78294454D01*
X148148986Y-78250997D01*
X148037333Y-78240000D01*
X148037322Y-78240000D01*
X148000000Y-78236324D01*
X147962678Y-78240000D01*
X147445918Y-78240000D01*
X147362115Y-78137885D01*
X147232275Y-78031329D01*
X147084142Y-77952150D01*
X146923408Y-77903392D01*
X146756250Y-77886928D01*
X146318750Y-77886928D01*
X146151592Y-77903392D01*
X145990858Y-77952150D01*
X145842725Y-78031329D01*
X145821070Y-78049100D01*
X145754494Y-77994463D01*
X145644180Y-77935498D01*
X145524482Y-77899188D01*
X145400000Y-77886928D01*
X145248250Y-77890000D01*
X145089500Y-78048750D01*
X145089500Y-78873000D01*
X145109500Y-78873000D01*
X145109500Y-79127000D01*
X145089500Y-79127000D01*
X145089500Y-79147000D01*
X144835500Y-79147000D01*
X144835500Y-79127000D01*
X144815500Y-79127000D01*
X144815500Y-78873000D01*
X144835500Y-78873000D01*
X144835500Y-78048750D01*
X144676750Y-77890000D01*
X144525000Y-77886928D01*
X144400518Y-77899188D01*
X144280820Y-77935498D01*
X144170506Y-77994463D01*
X144160000Y-78003085D01*
X144160000Y-75523380D01*
X144364112Y-75319268D01*
X147915000Y-75319268D01*
X147915000Y-75680732D01*
X147985518Y-76035250D01*
X148123844Y-76369199D01*
X148324662Y-76669744D01*
X148580256Y-76925338D01*
X148880801Y-77126156D01*
X149214750Y-77264482D01*
X149569268Y-77335000D01*
X149930732Y-77335000D01*
X150285250Y-77264482D01*
X150619199Y-77126156D01*
X150919744Y-76925338D01*
X151175338Y-76669744D01*
X151376156Y-76369199D01*
X151514482Y-76035250D01*
X151541384Y-75900000D01*
X153261928Y-75900000D01*
X153265000Y-76464250D01*
X153423750Y-76623000D01*
X154623000Y-76623000D01*
X154623000Y-75423750D01*
X154877000Y-75423750D01*
X154877000Y-76623000D01*
X156076250Y-76623000D01*
X156235000Y-76464250D01*
X156238072Y-75900000D01*
X156225812Y-75775518D01*
X156189502Y-75655820D01*
X156130537Y-75545506D01*
X156051185Y-75448815D01*
X155954494Y-75369463D01*
X155844180Y-75310498D01*
X155724482Y-75274188D01*
X155600000Y-75261928D01*
X155035750Y-75265000D01*
X154877000Y-75423750D01*
X154623000Y-75423750D01*
X154464250Y-75265000D01*
X153900000Y-75261928D01*
X153775518Y-75274188D01*
X153655820Y-75310498D01*
X153545506Y-75369463D01*
X153448815Y-75448815D01*
X153369463Y-75545506D01*
X153310498Y-75655820D01*
X153274188Y-75775518D01*
X153261928Y-75900000D01*
X151541384Y-75900000D01*
X151585000Y-75680732D01*
X151585000Y-75319268D01*
X151514482Y-74964750D01*
X151376156Y-74630801D01*
X151175338Y-74330256D01*
X150919744Y-74074662D01*
X150619199Y-73873844D01*
X150285250Y-73735518D01*
X149930732Y-73665000D01*
X149569268Y-73665000D01*
X149214750Y-73735518D01*
X148880801Y-73873844D01*
X148580256Y-74074662D01*
X148324662Y-74330256D01*
X148123844Y-74630801D01*
X147985518Y-74964750D01*
X147915000Y-75319268D01*
X144364112Y-75319268D01*
X146273381Y-73410000D01*
X154976620Y-73410000D01*
X157090001Y-75523382D01*
G37*
%TD.AperFunction*%
D17*
X147791129Y-79865931D02*
X147780498Y-79885820D01*
X147744188Y-80005518D01*
X147731928Y-80130000D01*
X147731928Y-80880000D01*
X147744188Y-81004482D01*
X147780498Y-81124180D01*
X147839463Y-81234494D01*
X147918815Y-81331185D01*
X147951669Y-81358147D01*
X147922364Y-81393855D01*
X147891017Y-81452500D01*
X147533329Y-81452500D01*
X147564502Y-81394180D01*
X147600812Y-81274482D01*
X147613072Y-81150000D01*
X147610000Y-80998250D01*
X147451250Y-80839500D01*
X146627000Y-80839500D01*
X146627000Y-80859500D01*
X146373000Y-80859500D01*
X146373000Y-80839500D01*
X144877000Y-80839500D01*
X144877000Y-80859500D01*
X144623000Y-80859500D01*
X144623000Y-80839500D01*
X144603000Y-80839500D01*
X144603000Y-80585500D01*
X144623000Y-80585500D01*
X144623000Y-80565500D01*
X144877000Y-80565500D01*
X144877000Y-80585500D01*
X146373000Y-80585500D01*
X146373000Y-80565500D01*
X146627000Y-80565500D01*
X146627000Y-80585500D01*
X147451250Y-80585500D01*
X147610000Y-80426750D01*
X147613072Y-80275000D01*
X147600812Y-80150518D01*
X147564502Y-80030820D01*
X147505537Y-79920506D01*
X147426185Y-79823815D01*
X147406682Y-79807809D01*
X147445918Y-79760000D01*
X147685198Y-79760000D01*
X147791129Y-79865931D01*
%TA.AperFunction,Conductor*%
D18*
G36*
X147791129Y-79865931D02*
G01*
X147780498Y-79885820D01*
X147744188Y-80005518D01*
X147731928Y-80130000D01*
X147731928Y-80880000D01*
X147744188Y-81004482D01*
X147780498Y-81124180D01*
X147839463Y-81234494D01*
X147918815Y-81331185D01*
X147951669Y-81358147D01*
X147922364Y-81393855D01*
X147891017Y-81452500D01*
X147533329Y-81452500D01*
X147564502Y-81394180D01*
X147600812Y-81274482D01*
X147613072Y-81150000D01*
X147610000Y-80998250D01*
X147451250Y-80839500D01*
X146627000Y-80839500D01*
X146627000Y-80859500D01*
X146373000Y-80859500D01*
X146373000Y-80839500D01*
X144877000Y-80839500D01*
X144877000Y-80859500D01*
X144623000Y-80859500D01*
X144623000Y-80839500D01*
X144603000Y-80839500D01*
X144603000Y-80585500D01*
X144623000Y-80585500D01*
X144623000Y-80565500D01*
X144877000Y-80565500D01*
X144877000Y-80585500D01*
X146373000Y-80585500D01*
X146373000Y-80565500D01*
X146627000Y-80565500D01*
X146627000Y-80585500D01*
X147451250Y-80585500D01*
X147610000Y-80426750D01*
X147613072Y-80275000D01*
X147600812Y-80150518D01*
X147564502Y-80030820D01*
X147505537Y-79920506D01*
X147426185Y-79823815D01*
X147406682Y-79807809D01*
X147445918Y-79760000D01*
X147685198Y-79760000D01*
X147791129Y-79865931D01*
G37*
%TD.AperFunction*%
M02*
