G04 #@! TF.GenerationSoftware,KiCad,Pcbnew,5.1.7-a382d34a8~87~ubuntu20.04.1*
G04 #@! TF.CreationDate,2020-10-04T08:45:11+02:00*
G04 #@! TF.ProjectId,reform2-trackball,7265666f-726d-4322-9d74-7261636b6261,rev?*
G04 #@! TF.SameCoordinates,Original*
G04 #@! TF.FileFunction,Paste,Top*
G04 #@! TF.FilePolarity,Positive*
%FSLAX46Y46*%
G04 Gerber Fmt 4.6, Leading zero omitted, Abs format (unit mm)*
G04 Created by KiCad (PCBNEW 5.1.7-a382d34a8~87~ubuntu20.04.1) date 2020-10-04 08:45:11*
%MOMM*%
%LPD*%
G01*
G04 APERTURE LIST*
%ADD10R,0.650000X1.060000*%
%ADD11R,1.100000X1.500000*%
%ADD12R,0.900000X1.000000*%
%ADD13R,2.100000X1.800000*%
%ADD14C,0.100000*%
G04 APERTURE END LIST*
G36*
G01*
X126543750Y-133250000D02*
X127056250Y-133250000D01*
G75*
G02*
X127275000Y-133468750I0J-218750D01*
G01*
X127275000Y-133906250D01*
G75*
G02*
X127056250Y-134125000I-218750J0D01*
G01*
X126543750Y-134125000D01*
G75*
G02*
X126325000Y-133906250I0J218750D01*
G01*
X126325000Y-133468750D01*
G75*
G02*
X126543750Y-133250000I218750J0D01*
G01*
G37*
G36*
G01*
X126543750Y-131675000D02*
X127056250Y-131675000D01*
G75*
G02*
X127275000Y-131893750I0J-218750D01*
G01*
X127275000Y-132331250D01*
G75*
G02*
X127056250Y-132550000I-218750J0D01*
G01*
X126543750Y-132550000D01*
G75*
G02*
X126325000Y-132331250I0J218750D01*
G01*
X126325000Y-131893750D01*
G75*
G02*
X126543750Y-131675000I218750J0D01*
G01*
G37*
G36*
G01*
X124043750Y-133250000D02*
X124556250Y-133250000D01*
G75*
G02*
X124775000Y-133468750I0J-218750D01*
G01*
X124775000Y-133906250D01*
G75*
G02*
X124556250Y-134125000I-218750J0D01*
G01*
X124043750Y-134125000D01*
G75*
G02*
X123825000Y-133906250I0J218750D01*
G01*
X123825000Y-133468750D01*
G75*
G02*
X124043750Y-133250000I218750J0D01*
G01*
G37*
G36*
G01*
X124043750Y-131675000D02*
X124556250Y-131675000D01*
G75*
G02*
X124775000Y-131893750I0J-218750D01*
G01*
X124775000Y-132331250D01*
G75*
G02*
X124556250Y-132550000I-218750J0D01*
G01*
X124043750Y-132550000D01*
G75*
G02*
X123825000Y-132331250I0J218750D01*
G01*
X123825000Y-131893750D01*
G75*
G02*
X124043750Y-131675000I218750J0D01*
G01*
G37*
G36*
G01*
X108150000Y-155743750D02*
X108150000Y-156256250D01*
G75*
G02*
X107931250Y-156475000I-218750J0D01*
G01*
X107493750Y-156475000D01*
G75*
G02*
X107275000Y-156256250I0J218750D01*
G01*
X107275000Y-155743750D01*
G75*
G02*
X107493750Y-155525000I218750J0D01*
G01*
X107931250Y-155525000D01*
G75*
G02*
X108150000Y-155743750I0J-218750D01*
G01*
G37*
G36*
G01*
X109725000Y-155743750D02*
X109725000Y-156256250D01*
G75*
G02*
X109506250Y-156475000I-218750J0D01*
G01*
X109068750Y-156475000D01*
G75*
G02*
X108850000Y-156256250I0J218750D01*
G01*
X108850000Y-155743750D01*
G75*
G02*
X109068750Y-155525000I218750J0D01*
G01*
X109506250Y-155525000D01*
G75*
G02*
X109725000Y-155743750I0J-218750D01*
G01*
G37*
G36*
G01*
X105600000Y-156256250D02*
X105600000Y-155743750D01*
G75*
G02*
X105818750Y-155525000I218750J0D01*
G01*
X106256250Y-155525000D01*
G75*
G02*
X106475000Y-155743750I0J-218750D01*
G01*
X106475000Y-156256250D01*
G75*
G02*
X106256250Y-156475000I-218750J0D01*
G01*
X105818750Y-156475000D01*
G75*
G02*
X105600000Y-156256250I0J218750D01*
G01*
G37*
G36*
G01*
X104025000Y-156256250D02*
X104025000Y-155743750D01*
G75*
G02*
X104243750Y-155525000I218750J0D01*
G01*
X104681250Y-155525000D01*
G75*
G02*
X104900000Y-155743750I0J-218750D01*
G01*
X104900000Y-156256250D01*
G75*
G02*
X104681250Y-156475000I-218750J0D01*
G01*
X104243750Y-156475000D01*
G75*
G02*
X104025000Y-156256250I0J218750D01*
G01*
G37*
D10*
X99050000Y-149900000D03*
X100950000Y-149900000D03*
X100950000Y-152100000D03*
X100000000Y-152100000D03*
X99050000Y-152100000D03*
G36*
G01*
X100850000Y-154506250D02*
X100850000Y-153993750D01*
G75*
G02*
X101068750Y-153775000I218750J0D01*
G01*
X101506250Y-153775000D01*
G75*
G02*
X101725000Y-153993750I0J-218750D01*
G01*
X101725000Y-154506250D01*
G75*
G02*
X101506250Y-154725000I-218750J0D01*
G01*
X101068750Y-154725000D01*
G75*
G02*
X100850000Y-154506250I0J218750D01*
G01*
G37*
G36*
G01*
X99275000Y-154506250D02*
X99275000Y-153993750D01*
G75*
G02*
X99493750Y-153775000I218750J0D01*
G01*
X99931250Y-153775000D01*
G75*
G02*
X100150000Y-153993750I0J-218750D01*
G01*
X100150000Y-154506250D01*
G75*
G02*
X99931250Y-154725000I-218750J0D01*
G01*
X99493750Y-154725000D01*
G75*
G02*
X99275000Y-154506250I0J218750D01*
G01*
G37*
G36*
G01*
X126371316Y-98366291D02*
X126733709Y-98728684D01*
G75*
G02*
X126733709Y-99038044I-154680J-154680D01*
G01*
X126424350Y-99347403D01*
G75*
G02*
X126114990Y-99347403I-154680J154680D01*
G01*
X125752597Y-98985010D01*
G75*
G02*
X125752597Y-98675650I154680J154680D01*
G01*
X126061956Y-98366291D01*
G75*
G02*
X126371316Y-98366291I154680J-154680D01*
G01*
G37*
G36*
G01*
X127485010Y-97252597D02*
X127847403Y-97614990D01*
G75*
G02*
X127847403Y-97924350I-154680J-154680D01*
G01*
X127538044Y-98233709D01*
G75*
G02*
X127228684Y-98233709I-154680J154680D01*
G01*
X126866291Y-97871316D01*
G75*
G02*
X126866291Y-97561956I154680J154680D01*
G01*
X127175650Y-97252597D01*
G75*
G02*
X127485010Y-97252597I154680J-154680D01*
G01*
G37*
G36*
G01*
X126916291Y-69128684D02*
X127278684Y-68766291D01*
G75*
G02*
X127588044Y-68766291I154680J-154680D01*
G01*
X127897403Y-69075650D01*
G75*
G02*
X127897403Y-69385010I-154680J-154680D01*
G01*
X127535010Y-69747403D01*
G75*
G02*
X127225650Y-69747403I-154680J154680D01*
G01*
X126916291Y-69438044D01*
G75*
G02*
X126916291Y-69128684I154680J154680D01*
G01*
G37*
G36*
G01*
X125802597Y-68014990D02*
X126164990Y-67652597D01*
G75*
G02*
X126474350Y-67652597I154680J-154680D01*
G01*
X126783709Y-67961956D01*
G75*
G02*
X126783709Y-68271316I-154680J-154680D01*
G01*
X126421316Y-68633709D01*
G75*
G02*
X126111956Y-68633709I-154680J154680D01*
G01*
X125802597Y-68324350D01*
G75*
G02*
X125802597Y-68014990I154680J154680D01*
G01*
G37*
G36*
G01*
X112200000Y-62656250D02*
X112200000Y-62143750D01*
G75*
G02*
X112418750Y-61925000I218750J0D01*
G01*
X112856250Y-61925000D01*
G75*
G02*
X113075000Y-62143750I0J-218750D01*
G01*
X113075000Y-62656250D01*
G75*
G02*
X112856250Y-62875000I-218750J0D01*
G01*
X112418750Y-62875000D01*
G75*
G02*
X112200000Y-62656250I0J218750D01*
G01*
G37*
G36*
G01*
X110625000Y-62656250D02*
X110625000Y-62143750D01*
G75*
G02*
X110843750Y-61925000I218750J0D01*
G01*
X111281250Y-61925000D01*
G75*
G02*
X111500000Y-62143750I0J-218750D01*
G01*
X111500000Y-62656250D01*
G75*
G02*
X111281250Y-62875000I-218750J0D01*
G01*
X110843750Y-62875000D01*
G75*
G02*
X110625000Y-62656250I0J218750D01*
G01*
G37*
G36*
G01*
X96271316Y-68766291D02*
X96633709Y-69128684D01*
G75*
G02*
X96633709Y-69438044I-154680J-154680D01*
G01*
X96324350Y-69747403D01*
G75*
G02*
X96014990Y-69747403I-154680J154680D01*
G01*
X95652597Y-69385010D01*
G75*
G02*
X95652597Y-69075650I154680J154680D01*
G01*
X95961956Y-68766291D01*
G75*
G02*
X96271316Y-68766291I154680J-154680D01*
G01*
G37*
G36*
G01*
X97385010Y-67652597D02*
X97747403Y-68014990D01*
G75*
G02*
X97747403Y-68324350I-154680J-154680D01*
G01*
X97438044Y-68633709D01*
G75*
G02*
X97128684Y-68633709I-154680J154680D01*
G01*
X96766291Y-68271316D01*
G75*
G02*
X96766291Y-67961956I154680J154680D01*
G01*
X97075650Y-67652597D01*
G75*
G02*
X97385010Y-67652597I154680J-154680D01*
G01*
G37*
G36*
G01*
X96733709Y-97771316D02*
X96371316Y-98133709D01*
G75*
G02*
X96061956Y-98133709I-154680J154680D01*
G01*
X95752597Y-97824350D01*
G75*
G02*
X95752597Y-97514990I154680J154680D01*
G01*
X96114990Y-97152597D01*
G75*
G02*
X96424350Y-97152597I154680J-154680D01*
G01*
X96733709Y-97461956D01*
G75*
G02*
X96733709Y-97771316I-154680J-154680D01*
G01*
G37*
G36*
G01*
X97847403Y-98885010D02*
X97485010Y-99247403D01*
G75*
G02*
X97175650Y-99247403I-154680J154680D01*
G01*
X96866291Y-98938044D01*
G75*
G02*
X96866291Y-98628684I154680J154680D01*
G01*
X97228684Y-98266291D01*
G75*
G02*
X97538044Y-98266291I154680J-154680D01*
G01*
X97847403Y-98575650D01*
G75*
G02*
X97847403Y-98885010I-154680J-154680D01*
G01*
G37*
G36*
G01*
X133650000Y-155743750D02*
X133650000Y-156256250D01*
G75*
G02*
X133431250Y-156475000I-218750J0D01*
G01*
X132993750Y-156475000D01*
G75*
G02*
X132775000Y-156256250I0J218750D01*
G01*
X132775000Y-155743750D01*
G75*
G02*
X132993750Y-155525000I218750J0D01*
G01*
X133431250Y-155525000D01*
G75*
G02*
X133650000Y-155743750I0J-218750D01*
G01*
G37*
G36*
G01*
X135225000Y-155743750D02*
X135225000Y-156256250D01*
G75*
G02*
X135006250Y-156475000I-218750J0D01*
G01*
X134568750Y-156475000D01*
G75*
G02*
X134350000Y-156256250I0J218750D01*
G01*
X134350000Y-155743750D01*
G75*
G02*
X134568750Y-155525000I218750J0D01*
G01*
X135006250Y-155525000D01*
G75*
G02*
X135225000Y-155743750I0J-218750D01*
G01*
G37*
G36*
G01*
X116350000Y-156006250D02*
X116350000Y-155493750D01*
G75*
G02*
X116568750Y-155275000I218750J0D01*
G01*
X117006250Y-155275000D01*
G75*
G02*
X117225000Y-155493750I0J-218750D01*
G01*
X117225000Y-156006250D01*
G75*
G02*
X117006250Y-156225000I-218750J0D01*
G01*
X116568750Y-156225000D01*
G75*
G02*
X116350000Y-156006250I0J218750D01*
G01*
G37*
G36*
G01*
X114775000Y-156006250D02*
X114775000Y-155493750D01*
G75*
G02*
X114993750Y-155275000I218750J0D01*
G01*
X115431250Y-155275000D01*
G75*
G02*
X115650000Y-155493750I0J-218750D01*
G01*
X115650000Y-156006250D01*
G75*
G02*
X115431250Y-156225000I-218750J0D01*
G01*
X114993750Y-156225000D01*
G75*
G02*
X114775000Y-156006250I0J218750D01*
G01*
G37*
G36*
G01*
X117150000Y-157743750D02*
X117150000Y-158256250D01*
G75*
G02*
X116931250Y-158475000I-218750J0D01*
G01*
X116493750Y-158475000D01*
G75*
G02*
X116275000Y-158256250I0J218750D01*
G01*
X116275000Y-157743750D01*
G75*
G02*
X116493750Y-157525000I218750J0D01*
G01*
X116931250Y-157525000D01*
G75*
G02*
X117150000Y-157743750I0J-218750D01*
G01*
G37*
G36*
G01*
X118725000Y-157743750D02*
X118725000Y-158256250D01*
G75*
G02*
X118506250Y-158475000I-218750J0D01*
G01*
X118068750Y-158475000D01*
G75*
G02*
X117850000Y-158256250I0J218750D01*
G01*
X117850000Y-157743750D01*
G75*
G02*
X118068750Y-157525000I218750J0D01*
G01*
X118506250Y-157525000D01*
G75*
G02*
X118725000Y-157743750I0J-218750D01*
G01*
G37*
G36*
G01*
X130600000Y-159006250D02*
X130600000Y-158493750D01*
G75*
G02*
X130818750Y-158275000I218750J0D01*
G01*
X131256250Y-158275000D01*
G75*
G02*
X131475000Y-158493750I0J-218750D01*
G01*
X131475000Y-159006250D01*
G75*
G02*
X131256250Y-159225000I-218750J0D01*
G01*
X130818750Y-159225000D01*
G75*
G02*
X130600000Y-159006250I0J218750D01*
G01*
G37*
G36*
G01*
X129025000Y-159006250D02*
X129025000Y-158493750D01*
G75*
G02*
X129243750Y-158275000I218750J0D01*
G01*
X129681250Y-158275000D01*
G75*
G02*
X129900000Y-158493750I0J-218750D01*
G01*
X129900000Y-159006250D01*
G75*
G02*
X129681250Y-159225000I-218750J0D01*
G01*
X129243750Y-159225000D01*
G75*
G02*
X129025000Y-159006250I0J218750D01*
G01*
G37*
G36*
G01*
X132993750Y-160350000D02*
X133506250Y-160350000D01*
G75*
G02*
X133725000Y-160568750I0J-218750D01*
G01*
X133725000Y-161006250D01*
G75*
G02*
X133506250Y-161225000I-218750J0D01*
G01*
X132993750Y-161225000D01*
G75*
G02*
X132775000Y-161006250I0J218750D01*
G01*
X132775000Y-160568750D01*
G75*
G02*
X132993750Y-160350000I218750J0D01*
G01*
G37*
G36*
G01*
X132993750Y-158775000D02*
X133506250Y-158775000D01*
G75*
G02*
X133725000Y-158993750I0J-218750D01*
G01*
X133725000Y-159431250D01*
G75*
G02*
X133506250Y-159650000I-218750J0D01*
G01*
X132993750Y-159650000D01*
G75*
G02*
X132775000Y-159431250I0J218750D01*
G01*
X132775000Y-158993750D01*
G75*
G02*
X132993750Y-158775000I218750J0D01*
G01*
G37*
G36*
G01*
X140743750Y-160000000D02*
X141256250Y-160000000D01*
G75*
G02*
X141475000Y-160218750I0J-218750D01*
G01*
X141475000Y-160656250D01*
G75*
G02*
X141256250Y-160875000I-218750J0D01*
G01*
X140743750Y-160875000D01*
G75*
G02*
X140525000Y-160656250I0J218750D01*
G01*
X140525000Y-160218750D01*
G75*
G02*
X140743750Y-160000000I218750J0D01*
G01*
G37*
G36*
G01*
X140743750Y-158425000D02*
X141256250Y-158425000D01*
G75*
G02*
X141475000Y-158643750I0J-218750D01*
G01*
X141475000Y-159081250D01*
G75*
G02*
X141256250Y-159300000I-218750J0D01*
G01*
X140743750Y-159300000D01*
G75*
G02*
X140525000Y-159081250I0J218750D01*
G01*
X140525000Y-158643750D01*
G75*
G02*
X140743750Y-158425000I218750J0D01*
G01*
G37*
D11*
X148250000Y-144800000D03*
X148250000Y-153700000D03*
D12*
X97050000Y-139450000D03*
X95450000Y-139450000D03*
X97050000Y-143550000D03*
X95450000Y-143550000D03*
G36*
G01*
X126028684Y-97033709D02*
X125666291Y-96671316D01*
G75*
G02*
X125666291Y-96361956I154680J154680D01*
G01*
X125975650Y-96052597D01*
G75*
G02*
X126285010Y-96052597I154680J-154680D01*
G01*
X126647403Y-96414990D01*
G75*
G02*
X126647403Y-96724350I-154680J-154680D01*
G01*
X126338044Y-97033709D01*
G75*
G02*
X126028684Y-97033709I-154680J154680D01*
G01*
G37*
G36*
G01*
X124914990Y-98147403D02*
X124552597Y-97785010D01*
G75*
G02*
X124552597Y-97475650I154680J154680D01*
G01*
X124861956Y-97166291D01*
G75*
G02*
X125171316Y-97166291I154680J-154680D01*
G01*
X125533709Y-97528684D01*
G75*
G02*
X125533709Y-97838044I-154680J-154680D01*
G01*
X125224350Y-98147403D01*
G75*
G02*
X124914990Y-98147403I-154680J154680D01*
G01*
G37*
G36*
G01*
X125533709Y-69521316D02*
X125171316Y-69883709D01*
G75*
G02*
X124861956Y-69883709I-154680J154680D01*
G01*
X124552597Y-69574350D01*
G75*
G02*
X124552597Y-69264990I154680J154680D01*
G01*
X124914990Y-68902597D01*
G75*
G02*
X125224350Y-68902597I154680J-154680D01*
G01*
X125533709Y-69211956D01*
G75*
G02*
X125533709Y-69521316I-154680J-154680D01*
G01*
G37*
G36*
G01*
X126647403Y-70635010D02*
X126285010Y-70997403D01*
G75*
G02*
X125975650Y-70997403I-154680J154680D01*
G01*
X125666291Y-70688044D01*
G75*
G02*
X125666291Y-70378684I154680J154680D01*
G01*
X126028684Y-70016291D01*
G75*
G02*
X126338044Y-70016291I154680J-154680D01*
G01*
X126647403Y-70325650D01*
G75*
G02*
X126647403Y-70635010I-154680J-154680D01*
G01*
G37*
G36*
G01*
X111500000Y-63893750D02*
X111500000Y-64406250D01*
G75*
G02*
X111281250Y-64625000I-218750J0D01*
G01*
X110843750Y-64625000D01*
G75*
G02*
X110625000Y-64406250I0J218750D01*
G01*
X110625000Y-63893750D01*
G75*
G02*
X110843750Y-63675000I218750J0D01*
G01*
X111281250Y-63675000D01*
G75*
G02*
X111500000Y-63893750I0J-218750D01*
G01*
G37*
G36*
G01*
X113075000Y-63893750D02*
X113075000Y-64406250D01*
G75*
G02*
X112856250Y-64625000I-218750J0D01*
G01*
X112418750Y-64625000D01*
G75*
G02*
X112200000Y-64406250I0J218750D01*
G01*
X112200000Y-63893750D01*
G75*
G02*
X112418750Y-63675000I218750J0D01*
G01*
X112856250Y-63675000D01*
G75*
G02*
X113075000Y-63893750I0J-218750D01*
G01*
G37*
G36*
G01*
X98428684Y-69883709D02*
X98066291Y-69521316D01*
G75*
G02*
X98066291Y-69211956I154680J154680D01*
G01*
X98375650Y-68902597D01*
G75*
G02*
X98685010Y-68902597I154680J-154680D01*
G01*
X99047403Y-69264990D01*
G75*
G02*
X99047403Y-69574350I-154680J-154680D01*
G01*
X98738044Y-69883709D01*
G75*
G02*
X98428684Y-69883709I-154680J154680D01*
G01*
G37*
G36*
G01*
X97314990Y-70997403D02*
X96952597Y-70635010D01*
G75*
G02*
X96952597Y-70325650I154680J154680D01*
G01*
X97261956Y-70016291D01*
G75*
G02*
X97571316Y-70016291I154680J-154680D01*
G01*
X97933709Y-70378684D01*
G75*
G02*
X97933709Y-70688044I-154680J-154680D01*
G01*
X97624350Y-70997403D01*
G75*
G02*
X97314990Y-70997403I-154680J154680D01*
G01*
G37*
G36*
G01*
X98066291Y-97428684D02*
X98428684Y-97066291D01*
G75*
G02*
X98738044Y-97066291I154680J-154680D01*
G01*
X99047403Y-97375650D01*
G75*
G02*
X99047403Y-97685010I-154680J-154680D01*
G01*
X98685010Y-98047403D01*
G75*
G02*
X98375650Y-98047403I-154680J154680D01*
G01*
X98066291Y-97738044D01*
G75*
G02*
X98066291Y-97428684I154680J154680D01*
G01*
G37*
G36*
G01*
X96952597Y-96314990D02*
X97314990Y-95952597D01*
G75*
G02*
X97624350Y-95952597I154680J-154680D01*
G01*
X97933709Y-96261956D01*
G75*
G02*
X97933709Y-96571316I-154680J-154680D01*
G01*
X97571316Y-96933709D01*
G75*
G02*
X97261956Y-96933709I-154680J154680D01*
G01*
X96952597Y-96624350D01*
G75*
G02*
X96952597Y-96314990I154680J154680D01*
G01*
G37*
D13*
X138650000Y-160800000D03*
X135750000Y-160800000D03*
X135750000Y-158500000D03*
X138650000Y-158500000D03*
D14*
G36*
X126185445Y-159356334D02*
G01*
X125796536Y-159745243D01*
X124665165Y-158613872D01*
X125054074Y-158224963D01*
X126185445Y-159356334D01*
G37*
G36*
X126751130Y-158790648D02*
G01*
X126362221Y-159179557D01*
X125230850Y-158048186D01*
X125619759Y-157659277D01*
X126751130Y-158790648D01*
G37*
G36*
X127316816Y-158224963D02*
G01*
X126927907Y-158613872D01*
X125796536Y-157482501D01*
X126185445Y-157093592D01*
X127316816Y-158224963D01*
G37*
G36*
X127882501Y-157659278D02*
G01*
X127493592Y-158048187D01*
X126362221Y-156916816D01*
X126751130Y-156527907D01*
X127882501Y-157659278D01*
G37*
G36*
X128448187Y-157093592D02*
G01*
X128059278Y-157482501D01*
X126927907Y-156351130D01*
X127316816Y-155962221D01*
X128448187Y-157093592D01*
G37*
G36*
X129013872Y-156527907D02*
G01*
X128624963Y-156916816D01*
X127493592Y-155785445D01*
X127882501Y-155396536D01*
X129013872Y-156527907D01*
G37*
G36*
X129579557Y-155962221D02*
G01*
X129190648Y-156351130D01*
X128059277Y-155219759D01*
X128448186Y-154830850D01*
X129579557Y-155962221D01*
G37*
G36*
X130145243Y-155396536D02*
G01*
X129756334Y-155785445D01*
X128624963Y-154654074D01*
X129013872Y-154265165D01*
X130145243Y-155396536D01*
G37*
G36*
X129756334Y-152214555D02*
G01*
X130145243Y-152603464D01*
X129013872Y-153734835D01*
X128624963Y-153345926D01*
X129756334Y-152214555D01*
G37*
G36*
X129190648Y-151648870D02*
G01*
X129579557Y-152037779D01*
X128448186Y-153169150D01*
X128059277Y-152780241D01*
X129190648Y-151648870D01*
G37*
G36*
X128624963Y-151083184D02*
G01*
X129013872Y-151472093D01*
X127882501Y-152603464D01*
X127493592Y-152214555D01*
X128624963Y-151083184D01*
G37*
G36*
X128059278Y-150517499D02*
G01*
X128448187Y-150906408D01*
X127316816Y-152037779D01*
X126927907Y-151648870D01*
X128059278Y-150517499D01*
G37*
G36*
X127493592Y-149951813D02*
G01*
X127882501Y-150340722D01*
X126751130Y-151472093D01*
X126362221Y-151083184D01*
X127493592Y-149951813D01*
G37*
G36*
X126927907Y-149386128D02*
G01*
X127316816Y-149775037D01*
X126185445Y-150906408D01*
X125796536Y-150517499D01*
X126927907Y-149386128D01*
G37*
G36*
X126362221Y-148820443D02*
G01*
X126751130Y-149209352D01*
X125619759Y-150340723D01*
X125230850Y-149951814D01*
X126362221Y-148820443D01*
G37*
G36*
X125796536Y-148254757D02*
G01*
X126185445Y-148643666D01*
X125054074Y-149775037D01*
X124665165Y-149386128D01*
X125796536Y-148254757D01*
G37*
G36*
X124134835Y-149386128D02*
G01*
X123745926Y-149775037D01*
X122614555Y-148643666D01*
X123003464Y-148254757D01*
X124134835Y-149386128D01*
G37*
G36*
X123569150Y-149951814D02*
G01*
X123180241Y-150340723D01*
X122048870Y-149209352D01*
X122437779Y-148820443D01*
X123569150Y-149951814D01*
G37*
G36*
X123003464Y-150517499D02*
G01*
X122614555Y-150906408D01*
X121483184Y-149775037D01*
X121872093Y-149386128D01*
X123003464Y-150517499D01*
G37*
G36*
X122437779Y-151083184D02*
G01*
X122048870Y-151472093D01*
X120917499Y-150340722D01*
X121306408Y-149951813D01*
X122437779Y-151083184D01*
G37*
G36*
X121872093Y-151648870D02*
G01*
X121483184Y-152037779D01*
X120351813Y-150906408D01*
X120740722Y-150517499D01*
X121872093Y-151648870D01*
G37*
G36*
X121306408Y-152214555D02*
G01*
X120917499Y-152603464D01*
X119786128Y-151472093D01*
X120175037Y-151083184D01*
X121306408Y-152214555D01*
G37*
G36*
X120740723Y-152780241D02*
G01*
X120351814Y-153169150D01*
X119220443Y-152037779D01*
X119609352Y-151648870D01*
X120740723Y-152780241D01*
G37*
G36*
X120175037Y-153345926D02*
G01*
X119786128Y-153734835D01*
X118654757Y-152603464D01*
X119043666Y-152214555D01*
X120175037Y-153345926D01*
G37*
G36*
X119786128Y-154265165D02*
G01*
X120175037Y-154654074D01*
X119043666Y-155785445D01*
X118654757Y-155396536D01*
X119786128Y-154265165D01*
G37*
G36*
X120351814Y-154830850D02*
G01*
X120740723Y-155219759D01*
X119609352Y-156351130D01*
X119220443Y-155962221D01*
X120351814Y-154830850D01*
G37*
G36*
X120917499Y-155396536D02*
G01*
X121306408Y-155785445D01*
X120175037Y-156916816D01*
X119786128Y-156527907D01*
X120917499Y-155396536D01*
G37*
G36*
X121483184Y-155962221D02*
G01*
X121872093Y-156351130D01*
X120740722Y-157482501D01*
X120351813Y-157093592D01*
X121483184Y-155962221D01*
G37*
G36*
X122048870Y-156527907D02*
G01*
X122437779Y-156916816D01*
X121306408Y-158048187D01*
X120917499Y-157659278D01*
X122048870Y-156527907D01*
G37*
G36*
X122614555Y-157093592D02*
G01*
X123003464Y-157482501D01*
X121872093Y-158613872D01*
X121483184Y-158224963D01*
X122614555Y-157093592D01*
G37*
G36*
X123180241Y-157659277D02*
G01*
X123569150Y-158048186D01*
X122437779Y-159179557D01*
X122048870Y-158790648D01*
X123180241Y-157659277D01*
G37*
G36*
X123745926Y-158224963D02*
G01*
X124134835Y-158613872D01*
X123003464Y-159745243D01*
X122614555Y-159356334D01*
X123745926Y-158224963D01*
G37*
M02*
