M48
; DRILL file {KiCad 5.1.7-a382d34a8~87~ubuntu20.04.1} date Sun Oct  4 08:45:13 2020
; FORMAT={-:-/ absolute / inch / decimal}
; #@! TF.CreationDate,2020-10-04T08:45:13+02:00
; #@! TF.GenerationSoftware,Kicad,Pcbnew,5.1.7-a382d34a8~87~ubuntu20.04.1
FMAT,2
INCH
T1C0.0157
T2C0.0295
T3C0.0394
T4C0.0433
T5C0.0472
T6C0.0866
%
G90
G05
T1
X2.5945Y-3.0383
X2.5945Y-3.432
X2.5945Y-3.8257
X2.5945Y-4.2194
X2.5945Y-4.6131
X2.5945Y-5.0068
X2.5945Y-5.4005
X2.5945Y-5.7942
X2.5945Y-6.1879
X2.6732Y-6.5028
X2.7913Y-3.2351
X2.7913Y-3.6288
X2.7913Y-4.0225
X2.7913Y-4.4162
X2.7913Y-4.8099
X2.7913Y-5.2036
X2.7913Y-5.5973
X2.7913Y-5.991
X2.8701Y-6.306
X2.9882Y-3.0383
X2.9882Y-3.432
X2.9882Y-3.8257
X2.9882Y-4.2194
X2.9882Y-5.4005
X2.9882Y-5.7942
X3.0669Y-6.5028
X3.1457Y-5.1642
X3.1457Y-6.1485
X3.185Y-3.2351
X3.185Y-3.6288
X3.185Y-4.0225
X3.185Y-5.5973
X3.3031Y-4.2981
X3.3031Y-5.8729
X3.3425Y-5.3611
X3.3819Y-3.0383
X3.3819Y-3.432
X3.3819Y-3.8257
X3.4213Y-6.2666
X3.5Y-4.1012
X3.5Y-5.6761
X3.5394Y-5.1642
X3.5787Y-3.2351
X3.5787Y-3.6288
X3.5787Y-5.991
X3.6575Y-6.4241
X3.6969Y-3.9044
X3.6969Y-4.2981
X3.6969Y-5.4398
X3.815Y-5.7548
X3.815Y-6.1485
X3.8937Y-2.6446
X3.9724Y-1.7784
X3.9724Y-2.1721
X4.0118Y-3.9831
X4.0118Y-5.5186
X4.0906Y-5.9123
X4.1116Y-4.1841
X4.1142Y-4.1161
X4.1299Y-2.4871
X4.1299Y-4.4162
X4.1417Y-3.9724
X4.1693Y-1.9753
X4.1693Y-4.7705
X4.2087Y-5.2824
X4.2618Y-5.4035
X4.2874Y-2.2509
X4.2874Y-4.1012
X4.2874Y-6.4241
X4.3661Y-1.7784
X4.3661Y-4.9674
X4.4409Y-4.5984
X4.4843Y-2.054
X4.5236Y-2.4083
X4.5374Y-6.1909
X4.5472Y-6.0138
X4.5484Y-5.8453
X4.563Y-5.5579
X4.5866Y-5.7776
X4.6024Y-4.0225
X4.6024Y-4.4162
X4.626Y-5.8661
X4.6555Y-6.1417
X4.6693Y-5.5591
X4.6811Y-1.8572
X4.6811Y-5.0855
X4.6811Y-6.4241
X4.7205Y-2.2115
X4.7205Y-2.6052
X4.7205Y-4.6918
X4.7559Y-5.8504
X4.7992Y-5.3611
X4.7992Y-5.7548
X4.8031Y-6.0433
X4.8053Y-6.3112
X4.8346Y-6.0079
X4.9173Y-2.0146
X4.9173Y-2.4083
X4.9173Y-4.4949
X4.9173Y-4.8886
X4.9409Y-5.2953
X4.9508Y-6.122
X5.0295Y-6.0827
X5.0624Y-6.25
X5.0748Y-1.7784
X5.0748Y-2.6446
X5.0748Y-3.7469
X5.0748Y-5.4792
X5.0787Y-5.8858
X5.1142Y-2.2115
X5.1142Y-6.5028
X5.147Y-6.1115
X5.1535Y-5.7942
X5.1929Y-2.9201
X5.1929Y-3.3138
X5.1929Y-5.2036
X5.2717Y-1.9753
X5.2717Y-2.4477
X5.3051Y-6.0827
X5.311Y-3.5894
X5.3839Y-6.1614
X5.3898Y-2.7233
X5.3898Y-3.117
X5.4291Y-5.5186
X5.4685Y-6.1091
X5.5079Y-3.3926
X5.5079Y-3.7863
X5.5079Y-6.4635
X5.5413Y-6.3583
X5.5472Y-5.7942
X5.626Y-2.9595
X5.626Y-5.2824
X5.6654Y-4.0225
X5.7047Y-3.5894
X5.7047Y-6.2666
X5.7441Y-3.2351
X5.7441Y-5.5973
X5.7835Y-4.2981
X5.7835Y-5.0461
X5.7835Y-5.9516
X5.8622Y-3.8257
X5.8622Y-6.5028
X5.9409Y-3.0383
X5.9409Y-3.432
X5.9409Y-4.5343
X5.9409Y-5.3611
X5.9803Y-5.7548
X5.9803Y-6.1485
X6.0197Y-4.8493
X6.0591Y-4.18
X6.1378Y-3.2351
X6.1378Y-3.6288
X6.1378Y-5.1249
X6.1378Y-6.3847
X6.1772Y-5.5186
X6.1772Y-5.9516
T2
X4.065Y-6.3091
X4.1437Y-6.3091
X4.2224Y-6.3091
X4.3012Y-6.3091
T3
X4.7953Y-5.0866
X4.8953Y-5.0866
X4.9953Y-5.0866
X5.0953Y-5.0866
X5.1953Y-5.0866
X5.3346Y-5.689
X5.4346Y-5.689
T4
X3.0669Y-6.0531
X3.0669Y-6.25
X3.2638Y-6.0531
X3.2638Y-6.25
T5
X6.0787Y-3.7283
X6.0787Y-4.0709
X6.0787Y-4.3346
X3.9823Y-5.1772
X4.2461Y-5.1772
X4.5886Y-5.1772
X2.7165Y-3.5118
X2.7165Y-3.7756
X2.7165Y-4.1181
T6
X4.1555Y-4.9311
X4.6378Y-4.9311
T0
M30
