G04 #@! TF.GenerationSoftware,KiCad,Pcbnew,5.1.7-a382d34a8~87~ubuntu20.04.1*
G04 #@! TF.CreationDate,2020-10-04T08:45:11+02:00*
G04 #@! TF.ProjectId,reform2-trackball,7265666f-726d-4322-9d74-7261636b6261,rev?*
G04 #@! TF.SameCoordinates,Original*
G04 #@! TF.FileFunction,Copper,L2,Bot*
G04 #@! TF.FilePolarity,Positive*
%FSLAX46Y46*%
G04 Gerber Fmt 4.6, Leading zero omitted, Abs format (unit mm)*
G04 Created by KiCad (PCBNEW 5.1.7-a382d34a8~87~ubuntu20.04.1) date 2020-10-04 08:45:11*
%MOMM*%
%LPD*%
G01*
G04 APERTURE LIST*
G04 #@! TA.AperFunction,ComponentPad*
%ADD10O,1.200000X1.750000*%
G04 #@! TD*
G04 #@! TA.AperFunction,ComponentPad*
%ADD11C,2.000000*%
G04 #@! TD*
G04 #@! TA.AperFunction,ComponentPad*
%ADD12R,1.700000X1.700000*%
G04 #@! TD*
G04 #@! TA.AperFunction,ComponentPad*
%ADD13O,1.700000X1.700000*%
G04 #@! TD*
G04 #@! TA.AperFunction,ComponentPad*
%ADD14C,4.400000*%
G04 #@! TD*
G04 #@! TA.AperFunction,ViaPad*
%ADD15C,0.800000*%
G04 #@! TD*
G04 #@! TA.AperFunction,Conductor*
%ADD16C,0.400000*%
G04 #@! TD*
G04 #@! TA.AperFunction,Conductor*
%ADD17C,0.300000*%
G04 #@! TD*
G04 #@! TA.AperFunction,Conductor*
%ADD18C,0.254000*%
G04 #@! TD*
G04 #@! TA.AperFunction,Conductor*
%ADD19C,0.100000*%
G04 #@! TD*
G04 APERTURE END LIST*
D10*
X103250000Y-160250000D03*
X105250000Y-160250000D03*
X107250000Y-160250000D03*
G04 #@! TA.AperFunction,ComponentPad*
G36*
G01*
X109850000Y-159624999D02*
X109850000Y-160875001D01*
G75*
G02*
X109600001Y-161125000I-249999J0D01*
G01*
X108899999Y-161125000D01*
G75*
G02*
X108650000Y-160875001I0J249999D01*
G01*
X108650000Y-159624999D01*
G75*
G02*
X108899999Y-159375000I249999J0D01*
G01*
X109600001Y-159375000D01*
G75*
G02*
X109850000Y-159624999I0J-249999D01*
G01*
G37*
G04 #@! TD.AperFunction*
D11*
X69000000Y-104600000D03*
X69000000Y-95900000D03*
X69000000Y-89200000D03*
X101150000Y-131500000D03*
X107850000Y-131500000D03*
X116550000Y-131500000D03*
X154400000Y-94700000D03*
X154400000Y-103400000D03*
X154400000Y-110100000D03*
X82900000Y-153750000D03*
X82900000Y-158750000D03*
X77900000Y-158750000D03*
X77900000Y-153750000D03*
D12*
X135500000Y-144500000D03*
D13*
X138040000Y-144500000D03*
D14*
X105550000Y-125250000D03*
X117800000Y-125250000D03*
D12*
X121800000Y-129200000D03*
D13*
X124340000Y-129200000D03*
X126880000Y-129200000D03*
X129420000Y-129200000D03*
X131960000Y-129200000D03*
D15*
X140750000Y-161500000D03*
X136750000Y-156500000D03*
X65899999Y-77171705D03*
X65899999Y-87171705D03*
X65899999Y-97171705D03*
X65899999Y-107171705D03*
X65899999Y-117171705D03*
X65899999Y-127171705D03*
X65899999Y-137171705D03*
X65899999Y-147171705D03*
X65899999Y-157171705D03*
X67899999Y-165171705D03*
X70899999Y-82171705D03*
X70899999Y-92171705D03*
X70899999Y-102171705D03*
X70899999Y-112171705D03*
X70899999Y-122171705D03*
X70899999Y-132171705D03*
X70899999Y-142171705D03*
X70899999Y-152171705D03*
X72899999Y-160171705D03*
X75899999Y-77171705D03*
X75899999Y-87171705D03*
X75899999Y-97171705D03*
X75899999Y-107171705D03*
X75899999Y-137171705D03*
X75899999Y-147171705D03*
X77899999Y-165171705D03*
X79899999Y-131171705D03*
X79899999Y-156171705D03*
X80899999Y-82171705D03*
X80899999Y-92171705D03*
X80899999Y-102171705D03*
X80899999Y-142171705D03*
X83899999Y-109171705D03*
X83899999Y-149171705D03*
X84899999Y-136171705D03*
X85899999Y-77171705D03*
X85899999Y-87171705D03*
X85899999Y-97171705D03*
X86899999Y-159171705D03*
X88899999Y-104171705D03*
X88899999Y-144171705D03*
X89899999Y-131171705D03*
X90899999Y-82171705D03*
X90899999Y-92171705D03*
X90899999Y-152171705D03*
X92899999Y-163171705D03*
X93899999Y-99171705D03*
X93899999Y-109171705D03*
X93899999Y-138171705D03*
X96899999Y-146171705D03*
X96899999Y-156171705D03*
X98899999Y-67171705D03*
X100899999Y-45171705D03*
X100899999Y-55171705D03*
X101899999Y-101171705D03*
X101899999Y-140171705D03*
X103899999Y-150171705D03*
X104899999Y-63171705D03*
X104899999Y-112171705D03*
X105899999Y-50171705D03*
X105899999Y-121171705D03*
X106899999Y-134171705D03*
X108899999Y-57171705D03*
X108899999Y-104171705D03*
X108899999Y-163171705D03*
X110899999Y-45171705D03*
X110899999Y-126171705D03*
X113899999Y-52171705D03*
X114899999Y-61171705D03*
X115899999Y-141171705D03*
X116899999Y-102171705D03*
X116899999Y-112171705D03*
X118899999Y-47171705D03*
X118899999Y-129171705D03*
X118899999Y-163171705D03*
X119899999Y-56171705D03*
X119899999Y-66171705D03*
X119899999Y-119171705D03*
X121899999Y-136171705D03*
X121899999Y-146171705D03*
X124899999Y-51171705D03*
X124899999Y-61171705D03*
X124899999Y-114171705D03*
X124899999Y-124171705D03*
X128899999Y-45171705D03*
X128899999Y-67171705D03*
X128899999Y-95171705D03*
X128899999Y-139171705D03*
X129899999Y-56171705D03*
X129899999Y-165171705D03*
X130899999Y-147171705D03*
X131899999Y-74171705D03*
X131899999Y-84171705D03*
X131899999Y-132171705D03*
X133899999Y-50171705D03*
X133899999Y-62171705D03*
X134899999Y-91171705D03*
X136899999Y-69171705D03*
X136899999Y-79171705D03*
X137899999Y-140171705D03*
X138899999Y-155171705D03*
X139899999Y-86171705D03*
X139899999Y-96171705D03*
X139899999Y-164171705D03*
X140899999Y-147171705D03*
X142899999Y-75171705D03*
X142899999Y-134171705D03*
X143899999Y-102171705D03*
X144899999Y-91171705D03*
X144899999Y-159171705D03*
X145899999Y-82171705D03*
X145899999Y-142171705D03*
X146899999Y-109171705D03*
X146899999Y-128171705D03*
X146899999Y-151171705D03*
X148899999Y-97171705D03*
X148899999Y-165171705D03*
X150899999Y-77171705D03*
X150899999Y-87171705D03*
X150899999Y-115171705D03*
X150899999Y-136171705D03*
X151899999Y-146171705D03*
X151899999Y-156171705D03*
X152899999Y-123171705D03*
X153899999Y-106171705D03*
X155899999Y-82171705D03*
X155899999Y-92171705D03*
X155899999Y-130171705D03*
X155899999Y-162171705D03*
X156899999Y-140171705D03*
X156899999Y-151171705D03*
X120800000Y-148600000D03*
X115250000Y-157250000D03*
X122054899Y-160304899D03*
X128584315Y-158749999D03*
X112800000Y-116800000D03*
X125500000Y-134500000D03*
X117500000Y-149000000D03*
X104434315Y-106275999D03*
X116500000Y-146750000D03*
X104500000Y-104550000D03*
X108250000Y-137250000D03*
X115500000Y-152750000D03*
X118250000Y-156000000D03*
X105200000Y-100900000D03*
X115530331Y-148469669D03*
X122000000Y-153500000D03*
X122800000Y-152600000D03*
X118600000Y-141200000D03*
X129000000Y-149500000D03*
X134750000Y-154500000D03*
X125750000Y-155500000D03*
X127750000Y-154500000D03*
X130733035Y-155233035D03*
D16*
X140750000Y-161500000D02*
X136750000Y-157500000D01*
X136750000Y-157500000D02*
X136750000Y-156500000D01*
D17*
X120800000Y-141200000D02*
X120800000Y-148600000D01*
X129420000Y-132580000D02*
X120800000Y-141200000D01*
X129420000Y-129200000D02*
X129420000Y-132580000D01*
X118304899Y-160304899D02*
X122054899Y-160304899D01*
X115250000Y-157250000D02*
X118304899Y-160304899D01*
X127029415Y-160304899D02*
X128584315Y-158749999D01*
X122054899Y-160304899D02*
X127029415Y-160304899D01*
X114374002Y-116800000D02*
X112800000Y-116800000D01*
X121800000Y-124225998D02*
X114374002Y-116800000D01*
X121800000Y-129200000D02*
X121800000Y-124225998D01*
X124340000Y-129200000D02*
X125500000Y-130360000D01*
X125500000Y-130360000D02*
X125500000Y-134500000D01*
X117500000Y-148860002D02*
X117500000Y-149000000D01*
X102999999Y-134360001D02*
X117500000Y-148860002D01*
X102999999Y-107710315D02*
X102999999Y-134360001D01*
X104434315Y-106275999D02*
X102999999Y-107710315D01*
X116500000Y-146610002D02*
X116500000Y-146750000D01*
X105184315Y-135294317D02*
X116500000Y-146610002D01*
X105184315Y-105234315D02*
X104500000Y-104550000D01*
X105184315Y-105750000D02*
X105184315Y-105234315D01*
X105184315Y-132167683D02*
X105184315Y-135294317D01*
X108100001Y-129251997D02*
X105184315Y-132167683D01*
X108100001Y-108665686D02*
X108100001Y-129251997D01*
X105184315Y-105750000D02*
X108100001Y-108665686D01*
X118250000Y-155500000D02*
X118250000Y-156000000D01*
X115500000Y-152750000D02*
X118250000Y-155500000D01*
X106250000Y-105250000D02*
X106250000Y-104200000D01*
X105200000Y-103150000D02*
X105200000Y-100900000D01*
X106250000Y-104200000D02*
X105200000Y-103150000D01*
X109200001Y-136299999D02*
X108250000Y-137250000D01*
X109200001Y-108200001D02*
X109200001Y-136299999D01*
X106250000Y-105250000D02*
X109200001Y-108200001D01*
X120560662Y-153500000D02*
X122000000Y-153500000D01*
X115530331Y-148469669D02*
X120560662Y-153500000D01*
X122800000Y-152600000D02*
X118600000Y-148400000D01*
X118600000Y-148400000D02*
X118600000Y-141200000D01*
X118600000Y-141200000D02*
X118600000Y-141150000D01*
X129750000Y-149500000D02*
X134750000Y-154500000D01*
X129000000Y-149500000D02*
X129750000Y-149500000D01*
X72250000Y-96750000D02*
X69000000Y-93500000D01*
X69000000Y-93500000D02*
X69000000Y-91200000D01*
X89500000Y-147750000D02*
X72250000Y-130500000D01*
X120250000Y-155500000D02*
X112500000Y-147750000D01*
X72250000Y-130500000D02*
X72250000Y-96750000D01*
X112500000Y-147750000D02*
X89500000Y-147750000D01*
X125750000Y-155500000D02*
X120250000Y-155500000D01*
X69000000Y-91200000D02*
X69000000Y-89200000D01*
X101150000Y-131500000D02*
X101150000Y-135150000D01*
X120500000Y-154500000D02*
X127750000Y-154500000D01*
X101150000Y-135150000D02*
X120500000Y-154500000D01*
X130733035Y-155233035D02*
X130733035Y-161266965D01*
X126900000Y-165100000D02*
X130733035Y-161266965D01*
X89250000Y-165100000D02*
X82900000Y-158750000D01*
X126900000Y-165100000D02*
X89250000Y-165100000D01*
D18*
X139155000Y-73036353D02*
X139151686Y-73070000D01*
X139164912Y-73204283D01*
X139204081Y-73333406D01*
X139267688Y-73452407D01*
X139353289Y-73556711D01*
X139457593Y-73642312D01*
X139576594Y-73705919D01*
X139705717Y-73745088D01*
X139840000Y-73758314D01*
X139873647Y-73755000D01*
X158615001Y-73755000D01*
X158615000Y-167065000D01*
X64685000Y-167065000D01*
X64685000Y-158588967D01*
X76265000Y-158588967D01*
X76265000Y-158911033D01*
X76327832Y-159226912D01*
X76451082Y-159524463D01*
X76630013Y-159792252D01*
X76857748Y-160019987D01*
X77125537Y-160198918D01*
X77423088Y-160322168D01*
X77738967Y-160385000D01*
X78061033Y-160385000D01*
X78376912Y-160322168D01*
X78674463Y-160198918D01*
X78942252Y-160019987D01*
X79169987Y-159792252D01*
X79348918Y-159524463D01*
X79472168Y-159226912D01*
X79535000Y-158911033D01*
X79535000Y-158588967D01*
X81265000Y-158588967D01*
X81265000Y-158911033D01*
X81327832Y-159226912D01*
X81451082Y-159524463D01*
X81630013Y-159792252D01*
X81857748Y-160019987D01*
X82125537Y-160198918D01*
X82423088Y-160322168D01*
X82738967Y-160385000D01*
X83061033Y-160385000D01*
X83364483Y-160324640D01*
X88667658Y-165627816D01*
X88692236Y-165657764D01*
X88722184Y-165682342D01*
X88722187Y-165682345D01*
X88751559Y-165706450D01*
X88811767Y-165755862D01*
X88948140Y-165828754D01*
X89096112Y-165873641D01*
X89110490Y-165875057D01*
X89211439Y-165885000D01*
X89211446Y-165885000D01*
X89249999Y-165888797D01*
X89288552Y-165885000D01*
X126861447Y-165885000D01*
X126900000Y-165888797D01*
X126938553Y-165885000D01*
X126938561Y-165885000D01*
X127053887Y-165873641D01*
X127201860Y-165828754D01*
X127338233Y-165755862D01*
X127457764Y-165657764D01*
X127482347Y-165627810D01*
X131260851Y-161849307D01*
X131290799Y-161824729D01*
X131388897Y-161705198D01*
X131461789Y-161568825D01*
X131506676Y-161420852D01*
X131518035Y-161305526D01*
X131518035Y-161305519D01*
X131521832Y-161266966D01*
X131518035Y-161228413D01*
X131518035Y-155911746D01*
X131536972Y-155892809D01*
X131650240Y-155723291D01*
X131728261Y-155534933D01*
X131768035Y-155334974D01*
X131768035Y-155131096D01*
X131728261Y-154931137D01*
X131650240Y-154742779D01*
X131536972Y-154573261D01*
X131392809Y-154429098D01*
X131223291Y-154315830D01*
X131034933Y-154237809D01*
X130834974Y-154198035D01*
X130631096Y-154198035D01*
X130431137Y-154237809D01*
X130242779Y-154315830D01*
X130073261Y-154429098D01*
X129929098Y-154573261D01*
X129815830Y-154742779D01*
X129737809Y-154931137D01*
X129698035Y-155131096D01*
X129698035Y-155334974D01*
X129737809Y-155534933D01*
X129815830Y-155723291D01*
X129929098Y-155892809D01*
X129948035Y-155911746D01*
X129948036Y-160941806D01*
X126574843Y-164315000D01*
X89575158Y-164315000D01*
X85637158Y-160377000D01*
X102015000Y-160377000D01*
X102015000Y-160652000D01*
X102063507Y-160890496D01*
X102157610Y-161114946D01*
X102293693Y-161316725D01*
X102466526Y-161488078D01*
X102669467Y-161622421D01*
X102894718Y-161714591D01*
X102932391Y-161718462D01*
X103123000Y-161593731D01*
X103123000Y-160377000D01*
X102015000Y-160377000D01*
X85637158Y-160377000D01*
X85108158Y-159848000D01*
X102015000Y-159848000D01*
X102015000Y-160123000D01*
X103123000Y-160123000D01*
X103123000Y-158906269D01*
X103377000Y-158906269D01*
X103377000Y-160123000D01*
X103397000Y-160123000D01*
X103397000Y-160377000D01*
X103377000Y-160377000D01*
X103377000Y-161593731D01*
X103567609Y-161718462D01*
X103605282Y-161714591D01*
X103830533Y-161622421D01*
X104033474Y-161488078D01*
X104206307Y-161316725D01*
X104249519Y-161252651D01*
X104372498Y-161402502D01*
X104560551Y-161556833D01*
X104775099Y-161671511D01*
X105007898Y-161742130D01*
X105250000Y-161765975D01*
X105492101Y-161742130D01*
X105724900Y-161671511D01*
X105939448Y-161556833D01*
X106127502Y-161402502D01*
X106250000Y-161253237D01*
X106372498Y-161402502D01*
X106560551Y-161556833D01*
X106775099Y-161671511D01*
X107007898Y-161742130D01*
X107250000Y-161765975D01*
X107492101Y-161742130D01*
X107724900Y-161671511D01*
X107939448Y-161556833D01*
X108127502Y-161402502D01*
X108159191Y-161363889D01*
X108161595Y-161368387D01*
X108272038Y-161502962D01*
X108406613Y-161613405D01*
X108560149Y-161695472D01*
X108726745Y-161746008D01*
X108899999Y-161763072D01*
X109600001Y-161763072D01*
X109773255Y-161746008D01*
X109939851Y-161695472D01*
X110093387Y-161613405D01*
X110227962Y-161502962D01*
X110338405Y-161368387D01*
X110420472Y-161214851D01*
X110471008Y-161048255D01*
X110488072Y-160875001D01*
X110488072Y-159624999D01*
X110471008Y-159451745D01*
X110420472Y-159285149D01*
X110338405Y-159131613D01*
X110227962Y-158997038D01*
X110093387Y-158886595D01*
X109939851Y-158804528D01*
X109773255Y-158753992D01*
X109600001Y-158736928D01*
X108899999Y-158736928D01*
X108726745Y-158753992D01*
X108560149Y-158804528D01*
X108406613Y-158886595D01*
X108272038Y-158997038D01*
X108161595Y-159131613D01*
X108159191Y-159136111D01*
X108127502Y-159097498D01*
X107939449Y-158943167D01*
X107724901Y-158828489D01*
X107492102Y-158757870D01*
X107250000Y-158734025D01*
X107007899Y-158757870D01*
X106775100Y-158828489D01*
X106560552Y-158943167D01*
X106372499Y-159097498D01*
X106250001Y-159246763D01*
X106127502Y-159097498D01*
X105939449Y-158943167D01*
X105724901Y-158828489D01*
X105492102Y-158757870D01*
X105250000Y-158734025D01*
X105007899Y-158757870D01*
X104775100Y-158828489D01*
X104560552Y-158943167D01*
X104372499Y-159097498D01*
X104249520Y-159247349D01*
X104206307Y-159183275D01*
X104033474Y-159011922D01*
X103830533Y-158877579D01*
X103605282Y-158785409D01*
X103567609Y-158781538D01*
X103377000Y-158906269D01*
X103123000Y-158906269D01*
X102932391Y-158781538D01*
X102894718Y-158785409D01*
X102669467Y-158877579D01*
X102466526Y-159011922D01*
X102293693Y-159183275D01*
X102157610Y-159385054D01*
X102063507Y-159609504D01*
X102015000Y-159848000D01*
X85108158Y-159848000D01*
X84474640Y-159214483D01*
X84535000Y-158911033D01*
X84535000Y-158588967D01*
X84472168Y-158273088D01*
X84348918Y-157975537D01*
X84169987Y-157707748D01*
X83942252Y-157480013D01*
X83674463Y-157301082D01*
X83376912Y-157177832D01*
X83227243Y-157148061D01*
X114215000Y-157148061D01*
X114215000Y-157351939D01*
X114254774Y-157551898D01*
X114332795Y-157740256D01*
X114446063Y-157909774D01*
X114590226Y-158053937D01*
X114759744Y-158167205D01*
X114948102Y-158245226D01*
X115148061Y-158285000D01*
X115174843Y-158285000D01*
X117722552Y-160832709D01*
X117747135Y-160862663D01*
X117866666Y-160960761D01*
X118003039Y-161033653D01*
X118151012Y-161078541D01*
X118225925Y-161085919D01*
X118266338Y-161089899D01*
X118266343Y-161089899D01*
X118304899Y-161093696D01*
X118343455Y-161089899D01*
X121376188Y-161089899D01*
X121395125Y-161108836D01*
X121564643Y-161222104D01*
X121753001Y-161300125D01*
X121952960Y-161339899D01*
X122156838Y-161339899D01*
X122356797Y-161300125D01*
X122545155Y-161222104D01*
X122714673Y-161108836D01*
X122733610Y-161089899D01*
X126990862Y-161089899D01*
X127029415Y-161093696D01*
X127067968Y-161089899D01*
X127067976Y-161089899D01*
X127183302Y-161078540D01*
X127331275Y-161033653D01*
X127467648Y-160960761D01*
X127587179Y-160862663D01*
X127611762Y-160832709D01*
X128659472Y-159784999D01*
X128686254Y-159784999D01*
X128886213Y-159745225D01*
X129074571Y-159667204D01*
X129244089Y-159553936D01*
X129388252Y-159409773D01*
X129501520Y-159240255D01*
X129579541Y-159051897D01*
X129619315Y-158851938D01*
X129619315Y-158648060D01*
X129579541Y-158448101D01*
X129501520Y-158259743D01*
X129388252Y-158090225D01*
X129244089Y-157946062D01*
X129074571Y-157832794D01*
X128886213Y-157754773D01*
X128686254Y-157714999D01*
X128482376Y-157714999D01*
X128282417Y-157754773D01*
X128094059Y-157832794D01*
X127924541Y-157946062D01*
X127780378Y-158090225D01*
X127667110Y-158259743D01*
X127589089Y-158448101D01*
X127549315Y-158648060D01*
X127549315Y-158674842D01*
X126704258Y-159519899D01*
X122733610Y-159519899D01*
X122714673Y-159500962D01*
X122545155Y-159387694D01*
X122356797Y-159309673D01*
X122156838Y-159269899D01*
X121952960Y-159269899D01*
X121753001Y-159309673D01*
X121564643Y-159387694D01*
X121395125Y-159500962D01*
X121376188Y-159519899D01*
X118630056Y-159519899D01*
X116285000Y-157174843D01*
X116285000Y-157148061D01*
X116245226Y-156948102D01*
X116167205Y-156759744D01*
X116053937Y-156590226D01*
X115909774Y-156446063D01*
X115740256Y-156332795D01*
X115551898Y-156254774D01*
X115351939Y-156215000D01*
X115148061Y-156215000D01*
X114948102Y-156254774D01*
X114759744Y-156332795D01*
X114590226Y-156446063D01*
X114446063Y-156590226D01*
X114332795Y-156759744D01*
X114254774Y-156948102D01*
X114215000Y-157148061D01*
X83227243Y-157148061D01*
X83061033Y-157115000D01*
X82738967Y-157115000D01*
X82423088Y-157177832D01*
X82125537Y-157301082D01*
X81857748Y-157480013D01*
X81630013Y-157707748D01*
X81451082Y-157975537D01*
X81327832Y-158273088D01*
X81265000Y-158588967D01*
X79535000Y-158588967D01*
X79472168Y-158273088D01*
X79348918Y-157975537D01*
X79169987Y-157707748D01*
X78942252Y-157480013D01*
X78674463Y-157301082D01*
X78376912Y-157177832D01*
X78061033Y-157115000D01*
X77738967Y-157115000D01*
X77423088Y-157177832D01*
X77125537Y-157301082D01*
X76857748Y-157480013D01*
X76630013Y-157707748D01*
X76451082Y-157975537D01*
X76327832Y-158273088D01*
X76265000Y-158588967D01*
X64685000Y-158588967D01*
X64685000Y-153588967D01*
X76265000Y-153588967D01*
X76265000Y-153911033D01*
X76327832Y-154226912D01*
X76451082Y-154524463D01*
X76630013Y-154792252D01*
X76857748Y-155019987D01*
X77125537Y-155198918D01*
X77423088Y-155322168D01*
X77738967Y-155385000D01*
X78061033Y-155385000D01*
X78376912Y-155322168D01*
X78674463Y-155198918D01*
X78942252Y-155019987D01*
X79076826Y-154885413D01*
X81944192Y-154885413D01*
X82039956Y-155149814D01*
X82329571Y-155290704D01*
X82641108Y-155372384D01*
X82962595Y-155391718D01*
X83281675Y-155347961D01*
X83586088Y-155242795D01*
X83760044Y-155149814D01*
X83855808Y-154885413D01*
X82900000Y-153929605D01*
X81944192Y-154885413D01*
X79076826Y-154885413D01*
X79169987Y-154792252D01*
X79348918Y-154524463D01*
X79472168Y-154226912D01*
X79535000Y-153911033D01*
X79535000Y-153812595D01*
X81258282Y-153812595D01*
X81302039Y-154131675D01*
X81407205Y-154436088D01*
X81500186Y-154610044D01*
X81764587Y-154705808D01*
X82720395Y-153750000D01*
X83079605Y-153750000D01*
X84035413Y-154705808D01*
X84299814Y-154610044D01*
X84440704Y-154320429D01*
X84522384Y-154008892D01*
X84541718Y-153687405D01*
X84497961Y-153368325D01*
X84392795Y-153063912D01*
X84299814Y-152889956D01*
X84035413Y-152794192D01*
X83079605Y-153750000D01*
X82720395Y-153750000D01*
X81764587Y-152794192D01*
X81500186Y-152889956D01*
X81359296Y-153179571D01*
X81277616Y-153491108D01*
X81258282Y-153812595D01*
X79535000Y-153812595D01*
X79535000Y-153588967D01*
X79472168Y-153273088D01*
X79348918Y-152975537D01*
X79169987Y-152707748D01*
X79076826Y-152614587D01*
X81944192Y-152614587D01*
X82900000Y-153570395D01*
X83855808Y-152614587D01*
X83760044Y-152350186D01*
X83470429Y-152209296D01*
X83158892Y-152127616D01*
X82837405Y-152108282D01*
X82518325Y-152152039D01*
X82213912Y-152257205D01*
X82039956Y-152350186D01*
X81944192Y-152614587D01*
X79076826Y-152614587D01*
X78942252Y-152480013D01*
X78674463Y-152301082D01*
X78376912Y-152177832D01*
X78061033Y-152115000D01*
X77738967Y-152115000D01*
X77423088Y-152177832D01*
X77125537Y-152301082D01*
X76857748Y-152480013D01*
X76630013Y-152707748D01*
X76451082Y-152975537D01*
X76327832Y-153273088D01*
X76265000Y-153588967D01*
X64685000Y-153588967D01*
X64685000Y-105735413D01*
X68044192Y-105735413D01*
X68139956Y-105999814D01*
X68429571Y-106140704D01*
X68741108Y-106222384D01*
X69062595Y-106241718D01*
X69381675Y-106197961D01*
X69686088Y-106092795D01*
X69860044Y-105999814D01*
X69955808Y-105735413D01*
X69000000Y-104779605D01*
X68044192Y-105735413D01*
X64685000Y-105735413D01*
X64685000Y-104662595D01*
X67358282Y-104662595D01*
X67402039Y-104981675D01*
X67507205Y-105286088D01*
X67600186Y-105460044D01*
X67864587Y-105555808D01*
X68820395Y-104600000D01*
X69179605Y-104600000D01*
X70135413Y-105555808D01*
X70399814Y-105460044D01*
X70540704Y-105170429D01*
X70622384Y-104858892D01*
X70641718Y-104537405D01*
X70597961Y-104218325D01*
X70492795Y-103913912D01*
X70399814Y-103739956D01*
X70135413Y-103644192D01*
X69179605Y-104600000D01*
X68820395Y-104600000D01*
X67864587Y-103644192D01*
X67600186Y-103739956D01*
X67459296Y-104029571D01*
X67377616Y-104341108D01*
X67358282Y-104662595D01*
X64685000Y-104662595D01*
X64685000Y-103464587D01*
X68044192Y-103464587D01*
X69000000Y-104420395D01*
X69955808Y-103464587D01*
X69860044Y-103200186D01*
X69570429Y-103059296D01*
X69258892Y-102977616D01*
X68937405Y-102958282D01*
X68618325Y-103002039D01*
X68313912Y-103107205D01*
X68139956Y-103200186D01*
X68044192Y-103464587D01*
X64685000Y-103464587D01*
X64685000Y-89038967D01*
X67365000Y-89038967D01*
X67365000Y-89361033D01*
X67427832Y-89676912D01*
X67551082Y-89974463D01*
X67730013Y-90242252D01*
X67957748Y-90469987D01*
X68215000Y-90641878D01*
X68215000Y-91238560D01*
X68215001Y-91238570D01*
X68215000Y-93461447D01*
X68211203Y-93500000D01*
X68215000Y-93538553D01*
X68215000Y-93538560D01*
X68226359Y-93653886D01*
X68271246Y-93801859D01*
X68344138Y-93938232D01*
X68442236Y-94057764D01*
X68472190Y-94082347D01*
X68685391Y-94295548D01*
X68523088Y-94327832D01*
X68225537Y-94451082D01*
X67957748Y-94630013D01*
X67730013Y-94857748D01*
X67551082Y-95125537D01*
X67427832Y-95423088D01*
X67365000Y-95738967D01*
X67365000Y-96061033D01*
X67427832Y-96376912D01*
X67551082Y-96674463D01*
X67730013Y-96942252D01*
X67957748Y-97169987D01*
X68225537Y-97348918D01*
X68523088Y-97472168D01*
X68838967Y-97535000D01*
X69161033Y-97535000D01*
X69476912Y-97472168D01*
X69774463Y-97348918D01*
X70042252Y-97169987D01*
X70269987Y-96942252D01*
X70448918Y-96674463D01*
X70572168Y-96376912D01*
X70604452Y-96214610D01*
X71465001Y-97075159D01*
X71465000Y-130461447D01*
X71461203Y-130500000D01*
X71465000Y-130538553D01*
X71465000Y-130538560D01*
X71476359Y-130653886D01*
X71521246Y-130801859D01*
X71594138Y-130938232D01*
X71692236Y-131057764D01*
X71722190Y-131082347D01*
X88917658Y-148277816D01*
X88942236Y-148307764D01*
X88972184Y-148332342D01*
X88972187Y-148332345D01*
X88981790Y-148340226D01*
X89061767Y-148405862D01*
X89172408Y-148465000D01*
X89198140Y-148478754D01*
X89346113Y-148523642D01*
X89421026Y-148531020D01*
X89461439Y-148535000D01*
X89461444Y-148535000D01*
X89500000Y-148538797D01*
X89538555Y-148535000D01*
X112174843Y-148535000D01*
X115362013Y-151722170D01*
X115198102Y-151754774D01*
X115009744Y-151832795D01*
X114840226Y-151946063D01*
X114696063Y-152090226D01*
X114582795Y-152259744D01*
X114504774Y-152448102D01*
X114465000Y-152648061D01*
X114465000Y-152851939D01*
X114504774Y-153051898D01*
X114582795Y-153240256D01*
X114696063Y-153409774D01*
X114840226Y-153553937D01*
X115009744Y-153667205D01*
X115198102Y-153745226D01*
X115398061Y-153785000D01*
X115424843Y-153785000D01*
X117279134Y-155639292D01*
X117254774Y-155698102D01*
X117215000Y-155898061D01*
X117215000Y-156101939D01*
X117254774Y-156301898D01*
X117332795Y-156490256D01*
X117446063Y-156659774D01*
X117590226Y-156803937D01*
X117759744Y-156917205D01*
X117948102Y-156995226D01*
X118148061Y-157035000D01*
X118351939Y-157035000D01*
X118551898Y-156995226D01*
X118740256Y-156917205D01*
X118909774Y-156803937D01*
X119053937Y-156659774D01*
X119167205Y-156490256D01*
X119245226Y-156301898D01*
X119285000Y-156101939D01*
X119285000Y-155898061D01*
X119245226Y-155698102D01*
X119179664Y-155539822D01*
X119667658Y-156027816D01*
X119692236Y-156057764D01*
X119722184Y-156082342D01*
X119722187Y-156082345D01*
X119751559Y-156106450D01*
X119811767Y-156155862D01*
X119922408Y-156215000D01*
X119948140Y-156228754D01*
X120096112Y-156273641D01*
X120110490Y-156275057D01*
X120211439Y-156285000D01*
X120211446Y-156285000D01*
X120249999Y-156288797D01*
X120288552Y-156285000D01*
X125071289Y-156285000D01*
X125090226Y-156303937D01*
X125259744Y-156417205D01*
X125448102Y-156495226D01*
X125648061Y-156535000D01*
X125851939Y-156535000D01*
X126051898Y-156495226D01*
X126240256Y-156417205D01*
X126409774Y-156303937D01*
X126553937Y-156159774D01*
X126667205Y-155990256D01*
X126745226Y-155801898D01*
X126785000Y-155601939D01*
X126785000Y-155398061D01*
X126762511Y-155285000D01*
X127071289Y-155285000D01*
X127090226Y-155303937D01*
X127259744Y-155417205D01*
X127448102Y-155495226D01*
X127648061Y-155535000D01*
X127851939Y-155535000D01*
X128051898Y-155495226D01*
X128240256Y-155417205D01*
X128409774Y-155303937D01*
X128553937Y-155159774D01*
X128667205Y-154990256D01*
X128745226Y-154801898D01*
X128785000Y-154601939D01*
X128785000Y-154398061D01*
X128745226Y-154198102D01*
X128667205Y-154009744D01*
X128553937Y-153840226D01*
X128409774Y-153696063D01*
X128240256Y-153582795D01*
X128051898Y-153504774D01*
X127851939Y-153465000D01*
X127648061Y-153465000D01*
X127448102Y-153504774D01*
X127259744Y-153582795D01*
X127090226Y-153696063D01*
X127071289Y-153715000D01*
X123012511Y-153715000D01*
X123033634Y-153608804D01*
X123101898Y-153595226D01*
X123290256Y-153517205D01*
X123459774Y-153403937D01*
X123603937Y-153259774D01*
X123717205Y-153090256D01*
X123795226Y-152901898D01*
X123835000Y-152701939D01*
X123835000Y-152498061D01*
X123795226Y-152298102D01*
X123717205Y-152109744D01*
X123603937Y-151940226D01*
X123459774Y-151796063D01*
X123290256Y-151682795D01*
X123101898Y-151604774D01*
X122901939Y-151565000D01*
X122875158Y-151565000D01*
X120937987Y-149627830D01*
X121101898Y-149595226D01*
X121290256Y-149517205D01*
X121459774Y-149403937D01*
X121465650Y-149398061D01*
X127965000Y-149398061D01*
X127965000Y-149601939D01*
X128004774Y-149801898D01*
X128082795Y-149990256D01*
X128196063Y-150159774D01*
X128340226Y-150303937D01*
X128509744Y-150417205D01*
X128698102Y-150495226D01*
X128898061Y-150535000D01*
X129101939Y-150535000D01*
X129301898Y-150495226D01*
X129490256Y-150417205D01*
X129530295Y-150390452D01*
X133715000Y-154575157D01*
X133715000Y-154601939D01*
X133754774Y-154801898D01*
X133832795Y-154990256D01*
X133946063Y-155159774D01*
X134090226Y-155303937D01*
X134259744Y-155417205D01*
X134448102Y-155495226D01*
X134648061Y-155535000D01*
X134851939Y-155535000D01*
X135051898Y-155495226D01*
X135240256Y-155417205D01*
X135409774Y-155303937D01*
X135553937Y-155159774D01*
X135667205Y-154990256D01*
X135745226Y-154801898D01*
X135785000Y-154601939D01*
X135785000Y-154398061D01*
X135745226Y-154198102D01*
X135667205Y-154009744D01*
X135553937Y-153840226D01*
X135409774Y-153696063D01*
X135240256Y-153582795D01*
X135051898Y-153504774D01*
X134851939Y-153465000D01*
X134825157Y-153465000D01*
X130332347Y-148972190D01*
X130307764Y-148942236D01*
X130188233Y-148844138D01*
X130051860Y-148771246D01*
X129903887Y-148726359D01*
X129788561Y-148715000D01*
X129788553Y-148715000D01*
X129750000Y-148711203D01*
X129711447Y-148715000D01*
X129678711Y-148715000D01*
X129659774Y-148696063D01*
X129490256Y-148582795D01*
X129301898Y-148504774D01*
X129101939Y-148465000D01*
X128898061Y-148465000D01*
X128698102Y-148504774D01*
X128509744Y-148582795D01*
X128340226Y-148696063D01*
X128196063Y-148840226D01*
X128082795Y-149009744D01*
X128004774Y-149198102D01*
X127965000Y-149398061D01*
X121465650Y-149398061D01*
X121603937Y-149259774D01*
X121717205Y-149090256D01*
X121795226Y-148901898D01*
X121835000Y-148701939D01*
X121835000Y-148498061D01*
X121795226Y-148298102D01*
X121717205Y-148109744D01*
X121603937Y-147940226D01*
X121585000Y-147921289D01*
X121585000Y-145350000D01*
X134011928Y-145350000D01*
X134024188Y-145474482D01*
X134060498Y-145594180D01*
X134119463Y-145704494D01*
X134198815Y-145801185D01*
X134295506Y-145880537D01*
X134405820Y-145939502D01*
X134525518Y-145975812D01*
X134650000Y-145988072D01*
X135214250Y-145985000D01*
X135373000Y-145826250D01*
X135373000Y-144627000D01*
X134173750Y-144627000D01*
X134015000Y-144785750D01*
X134011928Y-145350000D01*
X121585000Y-145350000D01*
X121585000Y-143650000D01*
X134011928Y-143650000D01*
X134015000Y-144214250D01*
X134173750Y-144373000D01*
X135373000Y-144373000D01*
X135373000Y-143173750D01*
X135627000Y-143173750D01*
X135627000Y-144373000D01*
X135647000Y-144373000D01*
X135647000Y-144627000D01*
X135627000Y-144627000D01*
X135627000Y-145826250D01*
X135785750Y-145985000D01*
X136350000Y-145988072D01*
X136474482Y-145975812D01*
X136594180Y-145939502D01*
X136704494Y-145880537D01*
X136801185Y-145801185D01*
X136880537Y-145704494D01*
X136939502Y-145594180D01*
X136961513Y-145521620D01*
X137093368Y-145653475D01*
X137336589Y-145815990D01*
X137606842Y-145927932D01*
X137893740Y-145985000D01*
X138186260Y-145985000D01*
X138473158Y-145927932D01*
X138743411Y-145815990D01*
X138986632Y-145653475D01*
X139193475Y-145446632D01*
X139355990Y-145203411D01*
X139467932Y-144933158D01*
X139525000Y-144646260D01*
X139525000Y-144353740D01*
X139467932Y-144066842D01*
X139355990Y-143796589D01*
X139193475Y-143553368D01*
X138986632Y-143346525D01*
X138743411Y-143184010D01*
X138473158Y-143072068D01*
X138186260Y-143015000D01*
X137893740Y-143015000D01*
X137606842Y-143072068D01*
X137336589Y-143184010D01*
X137093368Y-143346525D01*
X136961513Y-143478380D01*
X136939502Y-143405820D01*
X136880537Y-143295506D01*
X136801185Y-143198815D01*
X136704494Y-143119463D01*
X136594180Y-143060498D01*
X136474482Y-143024188D01*
X136350000Y-143011928D01*
X135785750Y-143015000D01*
X135627000Y-143173750D01*
X135373000Y-143173750D01*
X135214250Y-143015000D01*
X134650000Y-143011928D01*
X134525518Y-143024188D01*
X134405820Y-143060498D01*
X134295506Y-143119463D01*
X134198815Y-143198815D01*
X134119463Y-143295506D01*
X134060498Y-143405820D01*
X134024188Y-143525518D01*
X134011928Y-143650000D01*
X121585000Y-143650000D01*
X121585000Y-141525157D01*
X129947816Y-133162342D01*
X129977764Y-133137764D01*
X130075862Y-133018233D01*
X130148754Y-132881860D01*
X130166444Y-132823544D01*
X130193642Y-132733887D01*
X130203340Y-132635413D01*
X130205000Y-132618561D01*
X130205000Y-132618556D01*
X130208797Y-132580000D01*
X130205000Y-132541444D01*
X130205000Y-130461474D01*
X130366632Y-130353475D01*
X130573475Y-130146632D01*
X130695195Y-129964466D01*
X130764822Y-130081355D01*
X130959731Y-130297588D01*
X131193080Y-130471641D01*
X131455901Y-130596825D01*
X131603110Y-130641476D01*
X131833000Y-130520155D01*
X131833000Y-129327000D01*
X132087000Y-129327000D01*
X132087000Y-130520155D01*
X132316890Y-130641476D01*
X132464099Y-130596825D01*
X132726920Y-130471641D01*
X132960269Y-130297588D01*
X133155178Y-130081355D01*
X133304157Y-129831252D01*
X133401481Y-129556891D01*
X133280814Y-129327000D01*
X132087000Y-129327000D01*
X131833000Y-129327000D01*
X131813000Y-129327000D01*
X131813000Y-129073000D01*
X131833000Y-129073000D01*
X131833000Y-127879845D01*
X132087000Y-127879845D01*
X132087000Y-129073000D01*
X133280814Y-129073000D01*
X133401481Y-128843109D01*
X133304157Y-128568748D01*
X133155178Y-128318645D01*
X132960269Y-128102412D01*
X132726920Y-127928359D01*
X132464099Y-127803175D01*
X132316890Y-127758524D01*
X132087000Y-127879845D01*
X131833000Y-127879845D01*
X131603110Y-127758524D01*
X131455901Y-127803175D01*
X131193080Y-127928359D01*
X130959731Y-128102412D01*
X130764822Y-128318645D01*
X130695195Y-128435534D01*
X130573475Y-128253368D01*
X130366632Y-128046525D01*
X130123411Y-127884010D01*
X129853158Y-127772068D01*
X129566260Y-127715000D01*
X129273740Y-127715000D01*
X128986842Y-127772068D01*
X128716589Y-127884010D01*
X128473368Y-128046525D01*
X128266525Y-128253368D01*
X128150000Y-128427760D01*
X128033475Y-128253368D01*
X127826632Y-128046525D01*
X127583411Y-127884010D01*
X127313158Y-127772068D01*
X127026260Y-127715000D01*
X126733740Y-127715000D01*
X126446842Y-127772068D01*
X126176589Y-127884010D01*
X125933368Y-128046525D01*
X125726525Y-128253368D01*
X125610000Y-128427760D01*
X125493475Y-128253368D01*
X125286632Y-128046525D01*
X125043411Y-127884010D01*
X124773158Y-127772068D01*
X124486260Y-127715000D01*
X124193740Y-127715000D01*
X123906842Y-127772068D01*
X123636589Y-127884010D01*
X123393368Y-128046525D01*
X123261513Y-128178380D01*
X123239502Y-128105820D01*
X123180537Y-127995506D01*
X123101185Y-127898815D01*
X123004494Y-127819463D01*
X122894180Y-127760498D01*
X122774482Y-127724188D01*
X122650000Y-127711928D01*
X122585000Y-127711928D01*
X122585000Y-124264550D01*
X122588797Y-124225997D01*
X122585000Y-124187444D01*
X122585000Y-124187437D01*
X122573641Y-124072111D01*
X122572235Y-124067474D01*
X122528754Y-123924138D01*
X122455862Y-123787765D01*
X122357764Y-123668234D01*
X122327816Y-123643656D01*
X114956349Y-116272190D01*
X114931766Y-116242236D01*
X114812235Y-116144138D01*
X114675862Y-116071246D01*
X114527889Y-116026359D01*
X114412563Y-116015000D01*
X114412555Y-116015000D01*
X114374002Y-116011203D01*
X114335449Y-116015000D01*
X113478711Y-116015000D01*
X113459774Y-115996063D01*
X113290256Y-115882795D01*
X113101898Y-115804774D01*
X112901939Y-115765000D01*
X112698061Y-115765000D01*
X112498102Y-115804774D01*
X112309744Y-115882795D01*
X112140226Y-115996063D01*
X111996063Y-116140226D01*
X111882795Y-116309744D01*
X111804774Y-116498102D01*
X111765000Y-116698061D01*
X111765000Y-116901939D01*
X111804774Y-117101898D01*
X111882795Y-117290256D01*
X111996063Y-117459774D01*
X112140226Y-117603937D01*
X112309744Y-117717205D01*
X112498102Y-117795226D01*
X112698061Y-117835000D01*
X112901939Y-117835000D01*
X113101898Y-117795226D01*
X113290256Y-117717205D01*
X113459774Y-117603937D01*
X113478711Y-117585000D01*
X114048845Y-117585000D01*
X119299737Y-122835893D01*
X118876123Y-122612359D01*
X118340867Y-122453099D01*
X117784826Y-122401322D01*
X117229368Y-122459019D01*
X116695839Y-122623972D01*
X116229976Y-122872982D01*
X115989830Y-123260225D01*
X117800000Y-125070395D01*
X117814143Y-125056253D01*
X117993748Y-125235858D01*
X117979605Y-125250000D01*
X119789775Y-127060170D01*
X120177018Y-126820024D01*
X120437641Y-126326123D01*
X120596901Y-125790867D01*
X120648678Y-125234826D01*
X120590981Y-124679368D01*
X120426028Y-124145839D01*
X120215139Y-123751295D01*
X121015001Y-124551157D01*
X121015000Y-127711928D01*
X120950000Y-127711928D01*
X120825518Y-127724188D01*
X120705820Y-127760498D01*
X120595506Y-127819463D01*
X120498815Y-127898815D01*
X120419463Y-127995506D01*
X120360498Y-128105820D01*
X120324188Y-128225518D01*
X120311928Y-128350000D01*
X120311928Y-130050000D01*
X120324188Y-130174482D01*
X120360498Y-130294180D01*
X120419463Y-130404494D01*
X120498815Y-130501185D01*
X120595506Y-130580537D01*
X120705820Y-130639502D01*
X120825518Y-130675812D01*
X120950000Y-130688072D01*
X122650000Y-130688072D01*
X122774482Y-130675812D01*
X122894180Y-130639502D01*
X123004494Y-130580537D01*
X123101185Y-130501185D01*
X123180537Y-130404494D01*
X123239502Y-130294180D01*
X123261513Y-130221620D01*
X123393368Y-130353475D01*
X123636589Y-130515990D01*
X123906842Y-130627932D01*
X124193740Y-130685000D01*
X124486260Y-130685000D01*
X124676918Y-130647075D01*
X124715000Y-130685157D01*
X124715001Y-133821288D01*
X124696063Y-133840226D01*
X124582795Y-134009744D01*
X124504774Y-134198102D01*
X124465000Y-134398061D01*
X124465000Y-134601939D01*
X124504774Y-134801898D01*
X124582795Y-134990256D01*
X124696063Y-135159774D01*
X124840226Y-135303937D01*
X125009744Y-135417205D01*
X125198102Y-135495226D01*
X125362013Y-135527830D01*
X120272190Y-140617653D01*
X120242236Y-140642236D01*
X120144138Y-140761768D01*
X120071246Y-140898141D01*
X120026359Y-141046114D01*
X120015000Y-141161440D01*
X120015000Y-141161447D01*
X120011203Y-141200000D01*
X120015000Y-141238553D01*
X120015001Y-147921288D01*
X119996063Y-147940226D01*
X119882795Y-148109744D01*
X119804774Y-148298102D01*
X119772170Y-148462013D01*
X119385000Y-148074843D01*
X119385000Y-141878711D01*
X119403937Y-141859774D01*
X119517205Y-141690256D01*
X119595226Y-141501898D01*
X119635000Y-141301939D01*
X119635000Y-141098061D01*
X119595226Y-140898102D01*
X119517205Y-140709744D01*
X119403937Y-140540226D01*
X119259774Y-140396063D01*
X119090256Y-140282795D01*
X118901898Y-140204774D01*
X118701939Y-140165000D01*
X118498061Y-140165000D01*
X118298102Y-140204774D01*
X118109744Y-140282795D01*
X117940226Y-140396063D01*
X117796063Y-140540226D01*
X117682795Y-140709744D01*
X117604774Y-140898102D01*
X117565000Y-141098061D01*
X117565000Y-141301939D01*
X117604774Y-141501898D01*
X117682795Y-141690256D01*
X117796063Y-141859774D01*
X117815001Y-141878712D01*
X117815000Y-148010201D01*
X117801898Y-148004774D01*
X117743268Y-147993112D01*
X117231933Y-147481778D01*
X117303937Y-147409774D01*
X117417205Y-147240256D01*
X117495226Y-147051898D01*
X117535000Y-146851939D01*
X117535000Y-146648061D01*
X117495226Y-146448102D01*
X117417205Y-146259744D01*
X117303937Y-146090226D01*
X117159774Y-145946063D01*
X116990256Y-145832795D01*
X116801898Y-145754774D01*
X116743268Y-145743112D01*
X108981933Y-137981778D01*
X109053937Y-137909774D01*
X109167205Y-137740256D01*
X109245226Y-137551898D01*
X109285000Y-137351939D01*
X109285000Y-137325158D01*
X109727816Y-136882342D01*
X109757765Y-136857763D01*
X109855863Y-136738232D01*
X109928755Y-136601859D01*
X109973642Y-136453886D01*
X109985001Y-136338560D01*
X109985001Y-136338553D01*
X109988798Y-136300000D01*
X109985001Y-136261447D01*
X109985001Y-132635413D01*
X115594192Y-132635413D01*
X115689956Y-132899814D01*
X115979571Y-133040704D01*
X116291108Y-133122384D01*
X116612595Y-133141718D01*
X116931675Y-133097961D01*
X117236088Y-132992795D01*
X117410044Y-132899814D01*
X117505808Y-132635413D01*
X116550000Y-131679605D01*
X115594192Y-132635413D01*
X109985001Y-132635413D01*
X109985001Y-131562595D01*
X114908282Y-131562595D01*
X114952039Y-131881675D01*
X115057205Y-132186088D01*
X115150186Y-132360044D01*
X115414587Y-132455808D01*
X116370395Y-131500000D01*
X116729605Y-131500000D01*
X117685413Y-132455808D01*
X117949814Y-132360044D01*
X118090704Y-132070429D01*
X118172384Y-131758892D01*
X118191718Y-131437405D01*
X118147961Y-131118325D01*
X118042795Y-130813912D01*
X117949814Y-130639956D01*
X117685413Y-130544192D01*
X116729605Y-131500000D01*
X116370395Y-131500000D01*
X115414587Y-130544192D01*
X115150186Y-130639956D01*
X115009296Y-130929571D01*
X114927616Y-131241108D01*
X114908282Y-131562595D01*
X109985001Y-131562595D01*
X109985001Y-130364587D01*
X115594192Y-130364587D01*
X116550000Y-131320395D01*
X117505808Y-130364587D01*
X117410044Y-130100186D01*
X117120429Y-129959296D01*
X116808892Y-129877616D01*
X116487405Y-129858282D01*
X116168325Y-129902039D01*
X115863912Y-130007205D01*
X115689956Y-130100186D01*
X115594192Y-130364587D01*
X109985001Y-130364587D01*
X109985001Y-127239775D01*
X115989830Y-127239775D01*
X116229976Y-127627018D01*
X116723877Y-127887641D01*
X117259133Y-128046901D01*
X117815174Y-128098678D01*
X118370632Y-128040981D01*
X118904161Y-127876028D01*
X119370024Y-127627018D01*
X119610170Y-127239775D01*
X117800000Y-125429605D01*
X115989830Y-127239775D01*
X109985001Y-127239775D01*
X109985001Y-125265174D01*
X114951322Y-125265174D01*
X115009019Y-125820632D01*
X115173972Y-126354161D01*
X115422982Y-126820024D01*
X115810225Y-127060170D01*
X117620395Y-125250000D01*
X115810225Y-123439830D01*
X115422982Y-123679976D01*
X115162359Y-124173877D01*
X115003099Y-124709133D01*
X114951322Y-125265174D01*
X109985001Y-125265174D01*
X109985001Y-108238553D01*
X109988798Y-108200000D01*
X109985001Y-108161447D01*
X109985001Y-108161440D01*
X109973642Y-108046114D01*
X109928755Y-107898141D01*
X109855863Y-107761768D01*
X109757765Y-107642237D01*
X109727818Y-107617660D01*
X107035000Y-104924843D01*
X107035000Y-104238552D01*
X107038797Y-104199999D01*
X107035000Y-104161446D01*
X107035000Y-104161439D01*
X107033607Y-104147286D01*
X122181904Y-104147286D01*
X122183320Y-104158713D01*
X122182863Y-104170217D01*
X122191605Y-104225572D01*
X122198498Y-104281195D01*
X122202116Y-104292126D01*
X122203912Y-104303498D01*
X122223290Y-104356095D01*
X122240898Y-104409294D01*
X122263221Y-104448646D01*
X135679554Y-132140441D01*
X135703511Y-132193477D01*
X135728534Y-132228480D01*
X135751009Y-132265192D01*
X135767689Y-132283253D01*
X135781982Y-132303246D01*
X135813354Y-132332697D01*
X135842558Y-132364317D01*
X135862441Y-132378776D01*
X135880359Y-132395597D01*
X135916870Y-132418359D01*
X135951686Y-132443678D01*
X135974012Y-132453982D01*
X135994864Y-132466982D01*
X136035112Y-132482183D01*
X136074199Y-132500223D01*
X136098105Y-132505974D01*
X136121094Y-132514656D01*
X136163536Y-132521713D01*
X136205390Y-132531781D01*
X136229957Y-132532757D01*
X136254199Y-132536788D01*
X136297204Y-132535429D01*
X136340217Y-132537138D01*
X136364504Y-132533302D01*
X136389065Y-132532526D01*
X136430981Y-132522803D01*
X136473498Y-132516088D01*
X136496565Y-132507590D01*
X136520508Y-132502036D01*
X136559724Y-132484321D01*
X136600112Y-132469442D01*
X136649798Y-132439025D01*
X148962485Y-125348995D01*
X149012406Y-125322312D01*
X149046912Y-125293993D01*
X149083245Y-125268020D01*
X149098966Y-125251274D01*
X149116710Y-125236711D01*
X149145032Y-125202202D01*
X149175597Y-125169642D01*
X149187744Y-125150158D01*
X149202312Y-125132407D01*
X149223361Y-125093027D01*
X149246982Y-125055138D01*
X149255094Y-125033657D01*
X149265919Y-125013406D01*
X149278884Y-124970667D01*
X149294655Y-124928907D01*
X149298420Y-124906264D01*
X149305088Y-124884283D01*
X149309465Y-124839839D01*
X149316788Y-124795802D01*
X149315000Y-124739223D01*
X149315000Y-116811167D01*
X149316115Y-116804974D01*
X149315000Y-116743800D01*
X149315000Y-116716353D01*
X149314386Y-116710120D01*
X149313656Y-116670063D01*
X149307789Y-116643142D01*
X149305088Y-116615717D01*
X149293457Y-116577374D01*
X149284925Y-116538224D01*
X149273918Y-116512962D01*
X149265919Y-116486594D01*
X149247032Y-116451258D01*
X149244531Y-116445519D01*
X149231158Y-116421561D01*
X149202312Y-116367593D01*
X149198320Y-116362728D01*
X145612762Y-109938967D01*
X152765000Y-109938967D01*
X152765000Y-110261033D01*
X152827832Y-110576912D01*
X152951082Y-110874463D01*
X153130013Y-111142252D01*
X153357748Y-111369987D01*
X153625537Y-111548918D01*
X153923088Y-111672168D01*
X154238967Y-111735000D01*
X154561033Y-111735000D01*
X154876912Y-111672168D01*
X155174463Y-111548918D01*
X155442252Y-111369987D01*
X155669987Y-111142252D01*
X155848918Y-110874463D01*
X155972168Y-110576912D01*
X156035000Y-110261033D01*
X156035000Y-109938967D01*
X155972168Y-109623088D01*
X155848918Y-109325537D01*
X155669987Y-109057748D01*
X155442252Y-108830013D01*
X155174463Y-108651082D01*
X154876912Y-108527832D01*
X154561033Y-108465000D01*
X154238967Y-108465000D01*
X153923088Y-108527832D01*
X153625537Y-108651082D01*
X153357748Y-108830013D01*
X153130013Y-109057748D01*
X152951082Y-109325537D01*
X152827832Y-109623088D01*
X152765000Y-109938967D01*
X145612762Y-109938967D01*
X141873016Y-103238967D01*
X152765000Y-103238967D01*
X152765000Y-103561033D01*
X152827832Y-103876912D01*
X152951082Y-104174463D01*
X153130013Y-104442252D01*
X153357748Y-104669987D01*
X153625537Y-104848918D01*
X153923088Y-104972168D01*
X154238967Y-105035000D01*
X154561033Y-105035000D01*
X154876912Y-104972168D01*
X155174463Y-104848918D01*
X155442252Y-104669987D01*
X155669987Y-104442252D01*
X155848918Y-104174463D01*
X155972168Y-103876912D01*
X156035000Y-103561033D01*
X156035000Y-103238967D01*
X155972168Y-102923088D01*
X155848918Y-102625537D01*
X155669987Y-102357748D01*
X155442252Y-102130013D01*
X155174463Y-101951082D01*
X154876912Y-101827832D01*
X154561033Y-101765000D01*
X154238967Y-101765000D01*
X153923088Y-101827832D01*
X153625537Y-101951082D01*
X153357748Y-102130013D01*
X153130013Y-102357748D01*
X152951082Y-102625537D01*
X152827832Y-102923088D01*
X152765000Y-103238967D01*
X141873016Y-103238967D01*
X137740566Y-95835413D01*
X153444192Y-95835413D01*
X153539956Y-96099814D01*
X153829571Y-96240704D01*
X154141108Y-96322384D01*
X154462595Y-96341718D01*
X154781675Y-96297961D01*
X155086088Y-96192795D01*
X155260044Y-96099814D01*
X155355808Y-95835413D01*
X154400000Y-94879605D01*
X153444192Y-95835413D01*
X137740566Y-95835413D01*
X137141749Y-94762595D01*
X152758282Y-94762595D01*
X152802039Y-95081675D01*
X152907205Y-95386088D01*
X153000186Y-95560044D01*
X153264587Y-95655808D01*
X154220395Y-94700000D01*
X154579605Y-94700000D01*
X155535413Y-95655808D01*
X155799814Y-95560044D01*
X155940704Y-95270429D01*
X156022384Y-94958892D01*
X156041718Y-94637405D01*
X155997961Y-94318325D01*
X155892795Y-94013912D01*
X155799814Y-93839956D01*
X155535413Y-93744192D01*
X154579605Y-94700000D01*
X154220395Y-94700000D01*
X153264587Y-93744192D01*
X153000186Y-93839956D01*
X152859296Y-94129571D01*
X152777616Y-94441108D01*
X152758282Y-94762595D01*
X137141749Y-94762595D01*
X136929849Y-94382963D01*
X136929102Y-94380706D01*
X136897055Y-94324211D01*
X136881733Y-94296760D01*
X136880376Y-94294808D01*
X136862527Y-94263341D01*
X136841974Y-94239543D01*
X136824029Y-94213717D01*
X136797981Y-94188601D01*
X136774334Y-94161220D01*
X136749534Y-94141889D01*
X136726894Y-94120059D01*
X136696448Y-94100509D01*
X136667912Y-94078265D01*
X136639815Y-94064142D01*
X136613354Y-94047151D01*
X136579679Y-94033916D01*
X136547351Y-94017667D01*
X136517038Y-94009297D01*
X136487772Y-93997795D01*
X136452159Y-93991383D01*
X136417286Y-93981754D01*
X136385933Y-93979459D01*
X136354974Y-93973885D01*
X136318789Y-93974545D01*
X136282713Y-93971904D01*
X136251508Y-93975771D01*
X136220064Y-93976344D01*
X136184711Y-93984048D01*
X136148803Y-93988498D01*
X136118950Y-93998379D01*
X136088225Y-94005075D01*
X136055052Y-94019529D01*
X136020705Y-94030898D01*
X135993355Y-94046412D01*
X135964525Y-94058974D01*
X135934815Y-94079618D01*
X135932748Y-94080791D01*
X135907056Y-94098908D01*
X135853717Y-94135971D01*
X135852067Y-94137682D01*
X122493396Y-103557387D01*
X122454808Y-103581010D01*
X122413641Y-103619030D01*
X122371219Y-103655666D01*
X122364141Y-103664747D01*
X122355683Y-103672558D01*
X122322717Y-103717889D01*
X122288265Y-103762088D01*
X122283095Y-103772373D01*
X122276322Y-103781687D01*
X122252840Y-103832565D01*
X122227666Y-103882648D01*
X122224600Y-103893752D01*
X122219778Y-103904200D01*
X122206675Y-103958671D01*
X122191753Y-104012714D01*
X122190913Y-104024198D01*
X122188220Y-104035391D01*
X122185995Y-104091387D01*
X122181904Y-104147286D01*
X107033607Y-104147286D01*
X107023641Y-104046113D01*
X106978754Y-103898140D01*
X106905862Y-103761767D01*
X106807764Y-103642236D01*
X106777815Y-103617657D01*
X105985000Y-102824843D01*
X105985000Y-101578711D01*
X106003937Y-101559774D01*
X106117205Y-101390256D01*
X106195226Y-101201898D01*
X106235000Y-101001939D01*
X106235000Y-100798061D01*
X106195226Y-100598102D01*
X106117205Y-100409744D01*
X106003937Y-100240226D01*
X105941452Y-100177741D01*
X106338854Y-100328456D01*
X107989541Y-100777889D01*
X109675898Y-101065911D01*
X111382181Y-101189830D01*
X113092458Y-101148492D01*
X114790761Y-100942280D01*
X116461234Y-100573122D01*
X118088280Y-100044463D01*
X119656706Y-99361239D01*
X121151871Y-98529830D01*
X122559812Y-97557998D01*
X123867386Y-96454817D01*
X125062383Y-95230587D01*
X126133646Y-93896738D01*
X126351254Y-93564587D01*
X153444192Y-93564587D01*
X154400000Y-94520395D01*
X155355808Y-93564587D01*
X155260044Y-93300186D01*
X154970429Y-93159296D01*
X154658892Y-93077616D01*
X154337405Y-93058282D01*
X154018325Y-93102039D01*
X153713912Y-93207205D01*
X153539956Y-93300186D01*
X153444192Y-93564587D01*
X126351254Y-93564587D01*
X127071173Y-92465724D01*
X127866211Y-90950907D01*
X128511336Y-89366429D01*
X129000525Y-87727084D01*
X129329211Y-86048179D01*
X129494325Y-84345388D01*
X129494325Y-82634612D01*
X129329211Y-80931821D01*
X129000525Y-79252916D01*
X128511336Y-77613571D01*
X127866211Y-76029093D01*
X127071173Y-74514276D01*
X126133646Y-73083262D01*
X125062383Y-71749413D01*
X123867386Y-70525183D01*
X122559812Y-69422002D01*
X121151871Y-68450170D01*
X119656706Y-67618761D01*
X118088280Y-66935537D01*
X116461234Y-66406878D01*
X114790761Y-66037720D01*
X113092458Y-65831508D01*
X111382181Y-65790170D01*
X109675898Y-65914089D01*
X107989541Y-66202111D01*
X106338854Y-66651544D01*
X104739250Y-67258194D01*
X103205664Y-68016396D01*
X101752414Y-68919071D01*
X100393069Y-69957790D01*
X99140320Y-71122856D01*
X98005866Y-72403391D01*
X97000296Y-73787439D01*
X96133001Y-75262076D01*
X95412078Y-76813536D01*
X94844258Y-78427332D01*
X94434842Y-80088396D01*
X94187653Y-81781221D01*
X94105000Y-83490000D01*
X94187653Y-85198779D01*
X94434842Y-86891604D01*
X94844258Y-88552668D01*
X95412078Y-90166464D01*
X96133001Y-91717924D01*
X97000296Y-93192561D01*
X98005866Y-94576609D01*
X99140320Y-95857144D01*
X100393069Y-97022210D01*
X101752414Y-98060929D01*
X103205664Y-98963604D01*
X104739250Y-99721806D01*
X105116821Y-99865000D01*
X105098061Y-99865000D01*
X104898102Y-99904774D01*
X104709744Y-99982795D01*
X104540226Y-100096063D01*
X104396063Y-100240226D01*
X104282795Y-100409744D01*
X104204774Y-100598102D01*
X104165000Y-100798061D01*
X104165000Y-101001939D01*
X104204774Y-101201898D01*
X104282795Y-101390256D01*
X104396063Y-101559774D01*
X104415001Y-101578712D01*
X104415000Y-103111447D01*
X104411203Y-103150000D01*
X104415000Y-103188553D01*
X104415000Y-103188560D01*
X104426359Y-103303886D01*
X104471246Y-103451859D01*
X104504995Y-103515000D01*
X104398061Y-103515000D01*
X104198102Y-103554774D01*
X104009744Y-103632795D01*
X103840226Y-103746063D01*
X103696063Y-103890226D01*
X103582795Y-104059744D01*
X103504774Y-104248102D01*
X103465000Y-104448061D01*
X103465000Y-104651939D01*
X103504774Y-104851898D01*
X103582795Y-105040256D01*
X103696063Y-105209774D01*
X103840226Y-105353937D01*
X103895777Y-105391055D01*
X103774541Y-105472062D01*
X103630378Y-105616225D01*
X103517110Y-105785743D01*
X103439089Y-105974101D01*
X103399315Y-106174060D01*
X103399315Y-106200841D01*
X102472189Y-107127968D01*
X102442235Y-107152551D01*
X102344137Y-107272083D01*
X102271245Y-107408456D01*
X102226358Y-107556429D01*
X102214999Y-107671755D01*
X102214999Y-107671762D01*
X102211202Y-107710315D01*
X102214999Y-107748868D01*
X102214999Y-110335000D01*
X75493647Y-110335000D01*
X75460000Y-110331686D01*
X75426353Y-110335000D01*
X75325717Y-110344912D01*
X75196594Y-110384081D01*
X75077593Y-110447688D01*
X74973289Y-110533289D01*
X74887688Y-110637593D01*
X74824081Y-110756594D01*
X74784912Y-110885717D01*
X74771686Y-111020000D01*
X74775000Y-111053647D01*
X74775001Y-128766343D01*
X74771686Y-128800000D01*
X74784912Y-128934283D01*
X74824081Y-129063406D01*
X74887688Y-129182407D01*
X74973289Y-129286711D01*
X75077593Y-129372312D01*
X75196594Y-129435919D01*
X75325717Y-129475088D01*
X75426353Y-129485000D01*
X75460000Y-129488314D01*
X75493647Y-129485000D01*
X102215000Y-129485000D01*
X102215000Y-130252761D01*
X102192252Y-130230013D01*
X101924463Y-130051082D01*
X101626912Y-129927832D01*
X101311033Y-129865000D01*
X100988967Y-129865000D01*
X100673088Y-129927832D01*
X100375537Y-130051082D01*
X100107748Y-130230013D01*
X99880013Y-130457748D01*
X99701082Y-130725537D01*
X99577832Y-131023088D01*
X99515000Y-131338967D01*
X99515000Y-131661033D01*
X99577832Y-131976912D01*
X99701082Y-132274463D01*
X99880013Y-132542252D01*
X100107748Y-132769987D01*
X100365000Y-132941878D01*
X100365001Y-135111437D01*
X100361203Y-135150000D01*
X100376359Y-135303886D01*
X100421246Y-135451859D01*
X100421247Y-135451860D01*
X100494139Y-135588233D01*
X100500658Y-135596176D01*
X100567655Y-135677812D01*
X100567659Y-135677816D01*
X100592237Y-135707764D01*
X100622185Y-135732342D01*
X111854842Y-146965000D01*
X89825158Y-146965000D01*
X73035000Y-130174843D01*
X73035000Y-96788552D01*
X73038797Y-96749999D01*
X73035000Y-96711446D01*
X73035000Y-96711439D01*
X73023641Y-96596113D01*
X72978754Y-96448140D01*
X72905862Y-96311767D01*
X72807764Y-96192236D01*
X72777816Y-96167658D01*
X69785000Y-93174843D01*
X69785000Y-90641877D01*
X70042252Y-90469987D01*
X70269987Y-90242252D01*
X70448918Y-89974463D01*
X70572168Y-89676912D01*
X70635000Y-89361033D01*
X70635000Y-89038967D01*
X70572168Y-88723088D01*
X70448918Y-88425537D01*
X70269987Y-88157748D01*
X70042252Y-87930013D01*
X69774463Y-87751082D01*
X69476912Y-87627832D01*
X69161033Y-87565000D01*
X68838967Y-87565000D01*
X68523088Y-87627832D01*
X68225537Y-87751082D01*
X67957748Y-87930013D01*
X67730013Y-88157748D01*
X67551082Y-88425537D01*
X67427832Y-88723088D01*
X67365000Y-89038967D01*
X64685000Y-89038967D01*
X64685000Y-75405000D01*
X88392849Y-75405000D01*
X88452984Y-75406270D01*
X88493403Y-75399114D01*
X88534283Y-75395088D01*
X88559703Y-75387377D01*
X88585850Y-75382748D01*
X88624103Y-75367841D01*
X88663406Y-75355919D01*
X88686837Y-75343395D01*
X88711575Y-75333755D01*
X88746179Y-75311676D01*
X88782407Y-75292312D01*
X88802943Y-75275458D01*
X88825326Y-75261177D01*
X88854965Y-75232764D01*
X88886711Y-75206711D01*
X88924914Y-75160161D01*
X98921074Y-63491337D01*
X98926711Y-63486711D01*
X98964903Y-63440175D01*
X98982105Y-63420094D01*
X98986260Y-63414151D01*
X99012312Y-63382407D01*
X99024834Y-63358979D01*
X99040049Y-63337218D01*
X99056557Y-63299630D01*
X99075919Y-63263406D01*
X99083630Y-63237986D01*
X99094307Y-63213675D01*
X99103165Y-63173588D01*
X99115088Y-63134283D01*
X99117692Y-63107846D01*
X99123421Y-63081919D01*
X99124288Y-63040879D01*
X99125000Y-63033647D01*
X99125000Y-63007152D01*
X99126270Y-62947017D01*
X99125000Y-62939843D01*
X99125000Y-43915000D01*
X139155001Y-43915000D01*
X139155000Y-73036353D01*
G04 #@! TA.AperFunction,Conductor*
D19*
G36*
X139155000Y-73036353D02*
G01*
X139151686Y-73070000D01*
X139164912Y-73204283D01*
X139204081Y-73333406D01*
X139267688Y-73452407D01*
X139353289Y-73556711D01*
X139457593Y-73642312D01*
X139576594Y-73705919D01*
X139705717Y-73745088D01*
X139840000Y-73758314D01*
X139873647Y-73755000D01*
X158615001Y-73755000D01*
X158615000Y-167065000D01*
X64685000Y-167065000D01*
X64685000Y-158588967D01*
X76265000Y-158588967D01*
X76265000Y-158911033D01*
X76327832Y-159226912D01*
X76451082Y-159524463D01*
X76630013Y-159792252D01*
X76857748Y-160019987D01*
X77125537Y-160198918D01*
X77423088Y-160322168D01*
X77738967Y-160385000D01*
X78061033Y-160385000D01*
X78376912Y-160322168D01*
X78674463Y-160198918D01*
X78942252Y-160019987D01*
X79169987Y-159792252D01*
X79348918Y-159524463D01*
X79472168Y-159226912D01*
X79535000Y-158911033D01*
X79535000Y-158588967D01*
X81265000Y-158588967D01*
X81265000Y-158911033D01*
X81327832Y-159226912D01*
X81451082Y-159524463D01*
X81630013Y-159792252D01*
X81857748Y-160019987D01*
X82125537Y-160198918D01*
X82423088Y-160322168D01*
X82738967Y-160385000D01*
X83061033Y-160385000D01*
X83364483Y-160324640D01*
X88667658Y-165627816D01*
X88692236Y-165657764D01*
X88722184Y-165682342D01*
X88722187Y-165682345D01*
X88751559Y-165706450D01*
X88811767Y-165755862D01*
X88948140Y-165828754D01*
X89096112Y-165873641D01*
X89110490Y-165875057D01*
X89211439Y-165885000D01*
X89211446Y-165885000D01*
X89249999Y-165888797D01*
X89288552Y-165885000D01*
X126861447Y-165885000D01*
X126900000Y-165888797D01*
X126938553Y-165885000D01*
X126938561Y-165885000D01*
X127053887Y-165873641D01*
X127201860Y-165828754D01*
X127338233Y-165755862D01*
X127457764Y-165657764D01*
X127482347Y-165627810D01*
X131260851Y-161849307D01*
X131290799Y-161824729D01*
X131388897Y-161705198D01*
X131461789Y-161568825D01*
X131506676Y-161420852D01*
X131518035Y-161305526D01*
X131518035Y-161305519D01*
X131521832Y-161266966D01*
X131518035Y-161228413D01*
X131518035Y-155911746D01*
X131536972Y-155892809D01*
X131650240Y-155723291D01*
X131728261Y-155534933D01*
X131768035Y-155334974D01*
X131768035Y-155131096D01*
X131728261Y-154931137D01*
X131650240Y-154742779D01*
X131536972Y-154573261D01*
X131392809Y-154429098D01*
X131223291Y-154315830D01*
X131034933Y-154237809D01*
X130834974Y-154198035D01*
X130631096Y-154198035D01*
X130431137Y-154237809D01*
X130242779Y-154315830D01*
X130073261Y-154429098D01*
X129929098Y-154573261D01*
X129815830Y-154742779D01*
X129737809Y-154931137D01*
X129698035Y-155131096D01*
X129698035Y-155334974D01*
X129737809Y-155534933D01*
X129815830Y-155723291D01*
X129929098Y-155892809D01*
X129948035Y-155911746D01*
X129948036Y-160941806D01*
X126574843Y-164315000D01*
X89575158Y-164315000D01*
X85637158Y-160377000D01*
X102015000Y-160377000D01*
X102015000Y-160652000D01*
X102063507Y-160890496D01*
X102157610Y-161114946D01*
X102293693Y-161316725D01*
X102466526Y-161488078D01*
X102669467Y-161622421D01*
X102894718Y-161714591D01*
X102932391Y-161718462D01*
X103123000Y-161593731D01*
X103123000Y-160377000D01*
X102015000Y-160377000D01*
X85637158Y-160377000D01*
X85108158Y-159848000D01*
X102015000Y-159848000D01*
X102015000Y-160123000D01*
X103123000Y-160123000D01*
X103123000Y-158906269D01*
X103377000Y-158906269D01*
X103377000Y-160123000D01*
X103397000Y-160123000D01*
X103397000Y-160377000D01*
X103377000Y-160377000D01*
X103377000Y-161593731D01*
X103567609Y-161718462D01*
X103605282Y-161714591D01*
X103830533Y-161622421D01*
X104033474Y-161488078D01*
X104206307Y-161316725D01*
X104249519Y-161252651D01*
X104372498Y-161402502D01*
X104560551Y-161556833D01*
X104775099Y-161671511D01*
X105007898Y-161742130D01*
X105250000Y-161765975D01*
X105492101Y-161742130D01*
X105724900Y-161671511D01*
X105939448Y-161556833D01*
X106127502Y-161402502D01*
X106250000Y-161253237D01*
X106372498Y-161402502D01*
X106560551Y-161556833D01*
X106775099Y-161671511D01*
X107007898Y-161742130D01*
X107250000Y-161765975D01*
X107492101Y-161742130D01*
X107724900Y-161671511D01*
X107939448Y-161556833D01*
X108127502Y-161402502D01*
X108159191Y-161363889D01*
X108161595Y-161368387D01*
X108272038Y-161502962D01*
X108406613Y-161613405D01*
X108560149Y-161695472D01*
X108726745Y-161746008D01*
X108899999Y-161763072D01*
X109600001Y-161763072D01*
X109773255Y-161746008D01*
X109939851Y-161695472D01*
X110093387Y-161613405D01*
X110227962Y-161502962D01*
X110338405Y-161368387D01*
X110420472Y-161214851D01*
X110471008Y-161048255D01*
X110488072Y-160875001D01*
X110488072Y-159624999D01*
X110471008Y-159451745D01*
X110420472Y-159285149D01*
X110338405Y-159131613D01*
X110227962Y-158997038D01*
X110093387Y-158886595D01*
X109939851Y-158804528D01*
X109773255Y-158753992D01*
X109600001Y-158736928D01*
X108899999Y-158736928D01*
X108726745Y-158753992D01*
X108560149Y-158804528D01*
X108406613Y-158886595D01*
X108272038Y-158997038D01*
X108161595Y-159131613D01*
X108159191Y-159136111D01*
X108127502Y-159097498D01*
X107939449Y-158943167D01*
X107724901Y-158828489D01*
X107492102Y-158757870D01*
X107250000Y-158734025D01*
X107007899Y-158757870D01*
X106775100Y-158828489D01*
X106560552Y-158943167D01*
X106372499Y-159097498D01*
X106250001Y-159246763D01*
X106127502Y-159097498D01*
X105939449Y-158943167D01*
X105724901Y-158828489D01*
X105492102Y-158757870D01*
X105250000Y-158734025D01*
X105007899Y-158757870D01*
X104775100Y-158828489D01*
X104560552Y-158943167D01*
X104372499Y-159097498D01*
X104249520Y-159247349D01*
X104206307Y-159183275D01*
X104033474Y-159011922D01*
X103830533Y-158877579D01*
X103605282Y-158785409D01*
X103567609Y-158781538D01*
X103377000Y-158906269D01*
X103123000Y-158906269D01*
X102932391Y-158781538D01*
X102894718Y-158785409D01*
X102669467Y-158877579D01*
X102466526Y-159011922D01*
X102293693Y-159183275D01*
X102157610Y-159385054D01*
X102063507Y-159609504D01*
X102015000Y-159848000D01*
X85108158Y-159848000D01*
X84474640Y-159214483D01*
X84535000Y-158911033D01*
X84535000Y-158588967D01*
X84472168Y-158273088D01*
X84348918Y-157975537D01*
X84169987Y-157707748D01*
X83942252Y-157480013D01*
X83674463Y-157301082D01*
X83376912Y-157177832D01*
X83227243Y-157148061D01*
X114215000Y-157148061D01*
X114215000Y-157351939D01*
X114254774Y-157551898D01*
X114332795Y-157740256D01*
X114446063Y-157909774D01*
X114590226Y-158053937D01*
X114759744Y-158167205D01*
X114948102Y-158245226D01*
X115148061Y-158285000D01*
X115174843Y-158285000D01*
X117722552Y-160832709D01*
X117747135Y-160862663D01*
X117866666Y-160960761D01*
X118003039Y-161033653D01*
X118151012Y-161078541D01*
X118225925Y-161085919D01*
X118266338Y-161089899D01*
X118266343Y-161089899D01*
X118304899Y-161093696D01*
X118343455Y-161089899D01*
X121376188Y-161089899D01*
X121395125Y-161108836D01*
X121564643Y-161222104D01*
X121753001Y-161300125D01*
X121952960Y-161339899D01*
X122156838Y-161339899D01*
X122356797Y-161300125D01*
X122545155Y-161222104D01*
X122714673Y-161108836D01*
X122733610Y-161089899D01*
X126990862Y-161089899D01*
X127029415Y-161093696D01*
X127067968Y-161089899D01*
X127067976Y-161089899D01*
X127183302Y-161078540D01*
X127331275Y-161033653D01*
X127467648Y-160960761D01*
X127587179Y-160862663D01*
X127611762Y-160832709D01*
X128659472Y-159784999D01*
X128686254Y-159784999D01*
X128886213Y-159745225D01*
X129074571Y-159667204D01*
X129244089Y-159553936D01*
X129388252Y-159409773D01*
X129501520Y-159240255D01*
X129579541Y-159051897D01*
X129619315Y-158851938D01*
X129619315Y-158648060D01*
X129579541Y-158448101D01*
X129501520Y-158259743D01*
X129388252Y-158090225D01*
X129244089Y-157946062D01*
X129074571Y-157832794D01*
X128886213Y-157754773D01*
X128686254Y-157714999D01*
X128482376Y-157714999D01*
X128282417Y-157754773D01*
X128094059Y-157832794D01*
X127924541Y-157946062D01*
X127780378Y-158090225D01*
X127667110Y-158259743D01*
X127589089Y-158448101D01*
X127549315Y-158648060D01*
X127549315Y-158674842D01*
X126704258Y-159519899D01*
X122733610Y-159519899D01*
X122714673Y-159500962D01*
X122545155Y-159387694D01*
X122356797Y-159309673D01*
X122156838Y-159269899D01*
X121952960Y-159269899D01*
X121753001Y-159309673D01*
X121564643Y-159387694D01*
X121395125Y-159500962D01*
X121376188Y-159519899D01*
X118630056Y-159519899D01*
X116285000Y-157174843D01*
X116285000Y-157148061D01*
X116245226Y-156948102D01*
X116167205Y-156759744D01*
X116053937Y-156590226D01*
X115909774Y-156446063D01*
X115740256Y-156332795D01*
X115551898Y-156254774D01*
X115351939Y-156215000D01*
X115148061Y-156215000D01*
X114948102Y-156254774D01*
X114759744Y-156332795D01*
X114590226Y-156446063D01*
X114446063Y-156590226D01*
X114332795Y-156759744D01*
X114254774Y-156948102D01*
X114215000Y-157148061D01*
X83227243Y-157148061D01*
X83061033Y-157115000D01*
X82738967Y-157115000D01*
X82423088Y-157177832D01*
X82125537Y-157301082D01*
X81857748Y-157480013D01*
X81630013Y-157707748D01*
X81451082Y-157975537D01*
X81327832Y-158273088D01*
X81265000Y-158588967D01*
X79535000Y-158588967D01*
X79472168Y-158273088D01*
X79348918Y-157975537D01*
X79169987Y-157707748D01*
X78942252Y-157480013D01*
X78674463Y-157301082D01*
X78376912Y-157177832D01*
X78061033Y-157115000D01*
X77738967Y-157115000D01*
X77423088Y-157177832D01*
X77125537Y-157301082D01*
X76857748Y-157480013D01*
X76630013Y-157707748D01*
X76451082Y-157975537D01*
X76327832Y-158273088D01*
X76265000Y-158588967D01*
X64685000Y-158588967D01*
X64685000Y-153588967D01*
X76265000Y-153588967D01*
X76265000Y-153911033D01*
X76327832Y-154226912D01*
X76451082Y-154524463D01*
X76630013Y-154792252D01*
X76857748Y-155019987D01*
X77125537Y-155198918D01*
X77423088Y-155322168D01*
X77738967Y-155385000D01*
X78061033Y-155385000D01*
X78376912Y-155322168D01*
X78674463Y-155198918D01*
X78942252Y-155019987D01*
X79076826Y-154885413D01*
X81944192Y-154885413D01*
X82039956Y-155149814D01*
X82329571Y-155290704D01*
X82641108Y-155372384D01*
X82962595Y-155391718D01*
X83281675Y-155347961D01*
X83586088Y-155242795D01*
X83760044Y-155149814D01*
X83855808Y-154885413D01*
X82900000Y-153929605D01*
X81944192Y-154885413D01*
X79076826Y-154885413D01*
X79169987Y-154792252D01*
X79348918Y-154524463D01*
X79472168Y-154226912D01*
X79535000Y-153911033D01*
X79535000Y-153812595D01*
X81258282Y-153812595D01*
X81302039Y-154131675D01*
X81407205Y-154436088D01*
X81500186Y-154610044D01*
X81764587Y-154705808D01*
X82720395Y-153750000D01*
X83079605Y-153750000D01*
X84035413Y-154705808D01*
X84299814Y-154610044D01*
X84440704Y-154320429D01*
X84522384Y-154008892D01*
X84541718Y-153687405D01*
X84497961Y-153368325D01*
X84392795Y-153063912D01*
X84299814Y-152889956D01*
X84035413Y-152794192D01*
X83079605Y-153750000D01*
X82720395Y-153750000D01*
X81764587Y-152794192D01*
X81500186Y-152889956D01*
X81359296Y-153179571D01*
X81277616Y-153491108D01*
X81258282Y-153812595D01*
X79535000Y-153812595D01*
X79535000Y-153588967D01*
X79472168Y-153273088D01*
X79348918Y-152975537D01*
X79169987Y-152707748D01*
X79076826Y-152614587D01*
X81944192Y-152614587D01*
X82900000Y-153570395D01*
X83855808Y-152614587D01*
X83760044Y-152350186D01*
X83470429Y-152209296D01*
X83158892Y-152127616D01*
X82837405Y-152108282D01*
X82518325Y-152152039D01*
X82213912Y-152257205D01*
X82039956Y-152350186D01*
X81944192Y-152614587D01*
X79076826Y-152614587D01*
X78942252Y-152480013D01*
X78674463Y-152301082D01*
X78376912Y-152177832D01*
X78061033Y-152115000D01*
X77738967Y-152115000D01*
X77423088Y-152177832D01*
X77125537Y-152301082D01*
X76857748Y-152480013D01*
X76630013Y-152707748D01*
X76451082Y-152975537D01*
X76327832Y-153273088D01*
X76265000Y-153588967D01*
X64685000Y-153588967D01*
X64685000Y-105735413D01*
X68044192Y-105735413D01*
X68139956Y-105999814D01*
X68429571Y-106140704D01*
X68741108Y-106222384D01*
X69062595Y-106241718D01*
X69381675Y-106197961D01*
X69686088Y-106092795D01*
X69860044Y-105999814D01*
X69955808Y-105735413D01*
X69000000Y-104779605D01*
X68044192Y-105735413D01*
X64685000Y-105735413D01*
X64685000Y-104662595D01*
X67358282Y-104662595D01*
X67402039Y-104981675D01*
X67507205Y-105286088D01*
X67600186Y-105460044D01*
X67864587Y-105555808D01*
X68820395Y-104600000D01*
X69179605Y-104600000D01*
X70135413Y-105555808D01*
X70399814Y-105460044D01*
X70540704Y-105170429D01*
X70622384Y-104858892D01*
X70641718Y-104537405D01*
X70597961Y-104218325D01*
X70492795Y-103913912D01*
X70399814Y-103739956D01*
X70135413Y-103644192D01*
X69179605Y-104600000D01*
X68820395Y-104600000D01*
X67864587Y-103644192D01*
X67600186Y-103739956D01*
X67459296Y-104029571D01*
X67377616Y-104341108D01*
X67358282Y-104662595D01*
X64685000Y-104662595D01*
X64685000Y-103464587D01*
X68044192Y-103464587D01*
X69000000Y-104420395D01*
X69955808Y-103464587D01*
X69860044Y-103200186D01*
X69570429Y-103059296D01*
X69258892Y-102977616D01*
X68937405Y-102958282D01*
X68618325Y-103002039D01*
X68313912Y-103107205D01*
X68139956Y-103200186D01*
X68044192Y-103464587D01*
X64685000Y-103464587D01*
X64685000Y-89038967D01*
X67365000Y-89038967D01*
X67365000Y-89361033D01*
X67427832Y-89676912D01*
X67551082Y-89974463D01*
X67730013Y-90242252D01*
X67957748Y-90469987D01*
X68215000Y-90641878D01*
X68215000Y-91238560D01*
X68215001Y-91238570D01*
X68215000Y-93461447D01*
X68211203Y-93500000D01*
X68215000Y-93538553D01*
X68215000Y-93538560D01*
X68226359Y-93653886D01*
X68271246Y-93801859D01*
X68344138Y-93938232D01*
X68442236Y-94057764D01*
X68472190Y-94082347D01*
X68685391Y-94295548D01*
X68523088Y-94327832D01*
X68225537Y-94451082D01*
X67957748Y-94630013D01*
X67730013Y-94857748D01*
X67551082Y-95125537D01*
X67427832Y-95423088D01*
X67365000Y-95738967D01*
X67365000Y-96061033D01*
X67427832Y-96376912D01*
X67551082Y-96674463D01*
X67730013Y-96942252D01*
X67957748Y-97169987D01*
X68225537Y-97348918D01*
X68523088Y-97472168D01*
X68838967Y-97535000D01*
X69161033Y-97535000D01*
X69476912Y-97472168D01*
X69774463Y-97348918D01*
X70042252Y-97169987D01*
X70269987Y-96942252D01*
X70448918Y-96674463D01*
X70572168Y-96376912D01*
X70604452Y-96214610D01*
X71465001Y-97075159D01*
X71465000Y-130461447D01*
X71461203Y-130500000D01*
X71465000Y-130538553D01*
X71465000Y-130538560D01*
X71476359Y-130653886D01*
X71521246Y-130801859D01*
X71594138Y-130938232D01*
X71692236Y-131057764D01*
X71722190Y-131082347D01*
X88917658Y-148277816D01*
X88942236Y-148307764D01*
X88972184Y-148332342D01*
X88972187Y-148332345D01*
X88981790Y-148340226D01*
X89061767Y-148405862D01*
X89172408Y-148465000D01*
X89198140Y-148478754D01*
X89346113Y-148523642D01*
X89421026Y-148531020D01*
X89461439Y-148535000D01*
X89461444Y-148535000D01*
X89500000Y-148538797D01*
X89538555Y-148535000D01*
X112174843Y-148535000D01*
X115362013Y-151722170D01*
X115198102Y-151754774D01*
X115009744Y-151832795D01*
X114840226Y-151946063D01*
X114696063Y-152090226D01*
X114582795Y-152259744D01*
X114504774Y-152448102D01*
X114465000Y-152648061D01*
X114465000Y-152851939D01*
X114504774Y-153051898D01*
X114582795Y-153240256D01*
X114696063Y-153409774D01*
X114840226Y-153553937D01*
X115009744Y-153667205D01*
X115198102Y-153745226D01*
X115398061Y-153785000D01*
X115424843Y-153785000D01*
X117279134Y-155639292D01*
X117254774Y-155698102D01*
X117215000Y-155898061D01*
X117215000Y-156101939D01*
X117254774Y-156301898D01*
X117332795Y-156490256D01*
X117446063Y-156659774D01*
X117590226Y-156803937D01*
X117759744Y-156917205D01*
X117948102Y-156995226D01*
X118148061Y-157035000D01*
X118351939Y-157035000D01*
X118551898Y-156995226D01*
X118740256Y-156917205D01*
X118909774Y-156803937D01*
X119053937Y-156659774D01*
X119167205Y-156490256D01*
X119245226Y-156301898D01*
X119285000Y-156101939D01*
X119285000Y-155898061D01*
X119245226Y-155698102D01*
X119179664Y-155539822D01*
X119667658Y-156027816D01*
X119692236Y-156057764D01*
X119722184Y-156082342D01*
X119722187Y-156082345D01*
X119751559Y-156106450D01*
X119811767Y-156155862D01*
X119922408Y-156215000D01*
X119948140Y-156228754D01*
X120096112Y-156273641D01*
X120110490Y-156275057D01*
X120211439Y-156285000D01*
X120211446Y-156285000D01*
X120249999Y-156288797D01*
X120288552Y-156285000D01*
X125071289Y-156285000D01*
X125090226Y-156303937D01*
X125259744Y-156417205D01*
X125448102Y-156495226D01*
X125648061Y-156535000D01*
X125851939Y-156535000D01*
X126051898Y-156495226D01*
X126240256Y-156417205D01*
X126409774Y-156303937D01*
X126553937Y-156159774D01*
X126667205Y-155990256D01*
X126745226Y-155801898D01*
X126785000Y-155601939D01*
X126785000Y-155398061D01*
X126762511Y-155285000D01*
X127071289Y-155285000D01*
X127090226Y-155303937D01*
X127259744Y-155417205D01*
X127448102Y-155495226D01*
X127648061Y-155535000D01*
X127851939Y-155535000D01*
X128051898Y-155495226D01*
X128240256Y-155417205D01*
X128409774Y-155303937D01*
X128553937Y-155159774D01*
X128667205Y-154990256D01*
X128745226Y-154801898D01*
X128785000Y-154601939D01*
X128785000Y-154398061D01*
X128745226Y-154198102D01*
X128667205Y-154009744D01*
X128553937Y-153840226D01*
X128409774Y-153696063D01*
X128240256Y-153582795D01*
X128051898Y-153504774D01*
X127851939Y-153465000D01*
X127648061Y-153465000D01*
X127448102Y-153504774D01*
X127259744Y-153582795D01*
X127090226Y-153696063D01*
X127071289Y-153715000D01*
X123012511Y-153715000D01*
X123033634Y-153608804D01*
X123101898Y-153595226D01*
X123290256Y-153517205D01*
X123459774Y-153403937D01*
X123603937Y-153259774D01*
X123717205Y-153090256D01*
X123795226Y-152901898D01*
X123835000Y-152701939D01*
X123835000Y-152498061D01*
X123795226Y-152298102D01*
X123717205Y-152109744D01*
X123603937Y-151940226D01*
X123459774Y-151796063D01*
X123290256Y-151682795D01*
X123101898Y-151604774D01*
X122901939Y-151565000D01*
X122875158Y-151565000D01*
X120937987Y-149627830D01*
X121101898Y-149595226D01*
X121290256Y-149517205D01*
X121459774Y-149403937D01*
X121465650Y-149398061D01*
X127965000Y-149398061D01*
X127965000Y-149601939D01*
X128004774Y-149801898D01*
X128082795Y-149990256D01*
X128196063Y-150159774D01*
X128340226Y-150303937D01*
X128509744Y-150417205D01*
X128698102Y-150495226D01*
X128898061Y-150535000D01*
X129101939Y-150535000D01*
X129301898Y-150495226D01*
X129490256Y-150417205D01*
X129530295Y-150390452D01*
X133715000Y-154575157D01*
X133715000Y-154601939D01*
X133754774Y-154801898D01*
X133832795Y-154990256D01*
X133946063Y-155159774D01*
X134090226Y-155303937D01*
X134259744Y-155417205D01*
X134448102Y-155495226D01*
X134648061Y-155535000D01*
X134851939Y-155535000D01*
X135051898Y-155495226D01*
X135240256Y-155417205D01*
X135409774Y-155303937D01*
X135553937Y-155159774D01*
X135667205Y-154990256D01*
X135745226Y-154801898D01*
X135785000Y-154601939D01*
X135785000Y-154398061D01*
X135745226Y-154198102D01*
X135667205Y-154009744D01*
X135553937Y-153840226D01*
X135409774Y-153696063D01*
X135240256Y-153582795D01*
X135051898Y-153504774D01*
X134851939Y-153465000D01*
X134825157Y-153465000D01*
X130332347Y-148972190D01*
X130307764Y-148942236D01*
X130188233Y-148844138D01*
X130051860Y-148771246D01*
X129903887Y-148726359D01*
X129788561Y-148715000D01*
X129788553Y-148715000D01*
X129750000Y-148711203D01*
X129711447Y-148715000D01*
X129678711Y-148715000D01*
X129659774Y-148696063D01*
X129490256Y-148582795D01*
X129301898Y-148504774D01*
X129101939Y-148465000D01*
X128898061Y-148465000D01*
X128698102Y-148504774D01*
X128509744Y-148582795D01*
X128340226Y-148696063D01*
X128196063Y-148840226D01*
X128082795Y-149009744D01*
X128004774Y-149198102D01*
X127965000Y-149398061D01*
X121465650Y-149398061D01*
X121603937Y-149259774D01*
X121717205Y-149090256D01*
X121795226Y-148901898D01*
X121835000Y-148701939D01*
X121835000Y-148498061D01*
X121795226Y-148298102D01*
X121717205Y-148109744D01*
X121603937Y-147940226D01*
X121585000Y-147921289D01*
X121585000Y-145350000D01*
X134011928Y-145350000D01*
X134024188Y-145474482D01*
X134060498Y-145594180D01*
X134119463Y-145704494D01*
X134198815Y-145801185D01*
X134295506Y-145880537D01*
X134405820Y-145939502D01*
X134525518Y-145975812D01*
X134650000Y-145988072D01*
X135214250Y-145985000D01*
X135373000Y-145826250D01*
X135373000Y-144627000D01*
X134173750Y-144627000D01*
X134015000Y-144785750D01*
X134011928Y-145350000D01*
X121585000Y-145350000D01*
X121585000Y-143650000D01*
X134011928Y-143650000D01*
X134015000Y-144214250D01*
X134173750Y-144373000D01*
X135373000Y-144373000D01*
X135373000Y-143173750D01*
X135627000Y-143173750D01*
X135627000Y-144373000D01*
X135647000Y-144373000D01*
X135647000Y-144627000D01*
X135627000Y-144627000D01*
X135627000Y-145826250D01*
X135785750Y-145985000D01*
X136350000Y-145988072D01*
X136474482Y-145975812D01*
X136594180Y-145939502D01*
X136704494Y-145880537D01*
X136801185Y-145801185D01*
X136880537Y-145704494D01*
X136939502Y-145594180D01*
X136961513Y-145521620D01*
X137093368Y-145653475D01*
X137336589Y-145815990D01*
X137606842Y-145927932D01*
X137893740Y-145985000D01*
X138186260Y-145985000D01*
X138473158Y-145927932D01*
X138743411Y-145815990D01*
X138986632Y-145653475D01*
X139193475Y-145446632D01*
X139355990Y-145203411D01*
X139467932Y-144933158D01*
X139525000Y-144646260D01*
X139525000Y-144353740D01*
X139467932Y-144066842D01*
X139355990Y-143796589D01*
X139193475Y-143553368D01*
X138986632Y-143346525D01*
X138743411Y-143184010D01*
X138473158Y-143072068D01*
X138186260Y-143015000D01*
X137893740Y-143015000D01*
X137606842Y-143072068D01*
X137336589Y-143184010D01*
X137093368Y-143346525D01*
X136961513Y-143478380D01*
X136939502Y-143405820D01*
X136880537Y-143295506D01*
X136801185Y-143198815D01*
X136704494Y-143119463D01*
X136594180Y-143060498D01*
X136474482Y-143024188D01*
X136350000Y-143011928D01*
X135785750Y-143015000D01*
X135627000Y-143173750D01*
X135373000Y-143173750D01*
X135214250Y-143015000D01*
X134650000Y-143011928D01*
X134525518Y-143024188D01*
X134405820Y-143060498D01*
X134295506Y-143119463D01*
X134198815Y-143198815D01*
X134119463Y-143295506D01*
X134060498Y-143405820D01*
X134024188Y-143525518D01*
X134011928Y-143650000D01*
X121585000Y-143650000D01*
X121585000Y-141525157D01*
X129947816Y-133162342D01*
X129977764Y-133137764D01*
X130075862Y-133018233D01*
X130148754Y-132881860D01*
X130166444Y-132823544D01*
X130193642Y-132733887D01*
X130203340Y-132635413D01*
X130205000Y-132618561D01*
X130205000Y-132618556D01*
X130208797Y-132580000D01*
X130205000Y-132541444D01*
X130205000Y-130461474D01*
X130366632Y-130353475D01*
X130573475Y-130146632D01*
X130695195Y-129964466D01*
X130764822Y-130081355D01*
X130959731Y-130297588D01*
X131193080Y-130471641D01*
X131455901Y-130596825D01*
X131603110Y-130641476D01*
X131833000Y-130520155D01*
X131833000Y-129327000D01*
X132087000Y-129327000D01*
X132087000Y-130520155D01*
X132316890Y-130641476D01*
X132464099Y-130596825D01*
X132726920Y-130471641D01*
X132960269Y-130297588D01*
X133155178Y-130081355D01*
X133304157Y-129831252D01*
X133401481Y-129556891D01*
X133280814Y-129327000D01*
X132087000Y-129327000D01*
X131833000Y-129327000D01*
X131813000Y-129327000D01*
X131813000Y-129073000D01*
X131833000Y-129073000D01*
X131833000Y-127879845D01*
X132087000Y-127879845D01*
X132087000Y-129073000D01*
X133280814Y-129073000D01*
X133401481Y-128843109D01*
X133304157Y-128568748D01*
X133155178Y-128318645D01*
X132960269Y-128102412D01*
X132726920Y-127928359D01*
X132464099Y-127803175D01*
X132316890Y-127758524D01*
X132087000Y-127879845D01*
X131833000Y-127879845D01*
X131603110Y-127758524D01*
X131455901Y-127803175D01*
X131193080Y-127928359D01*
X130959731Y-128102412D01*
X130764822Y-128318645D01*
X130695195Y-128435534D01*
X130573475Y-128253368D01*
X130366632Y-128046525D01*
X130123411Y-127884010D01*
X129853158Y-127772068D01*
X129566260Y-127715000D01*
X129273740Y-127715000D01*
X128986842Y-127772068D01*
X128716589Y-127884010D01*
X128473368Y-128046525D01*
X128266525Y-128253368D01*
X128150000Y-128427760D01*
X128033475Y-128253368D01*
X127826632Y-128046525D01*
X127583411Y-127884010D01*
X127313158Y-127772068D01*
X127026260Y-127715000D01*
X126733740Y-127715000D01*
X126446842Y-127772068D01*
X126176589Y-127884010D01*
X125933368Y-128046525D01*
X125726525Y-128253368D01*
X125610000Y-128427760D01*
X125493475Y-128253368D01*
X125286632Y-128046525D01*
X125043411Y-127884010D01*
X124773158Y-127772068D01*
X124486260Y-127715000D01*
X124193740Y-127715000D01*
X123906842Y-127772068D01*
X123636589Y-127884010D01*
X123393368Y-128046525D01*
X123261513Y-128178380D01*
X123239502Y-128105820D01*
X123180537Y-127995506D01*
X123101185Y-127898815D01*
X123004494Y-127819463D01*
X122894180Y-127760498D01*
X122774482Y-127724188D01*
X122650000Y-127711928D01*
X122585000Y-127711928D01*
X122585000Y-124264550D01*
X122588797Y-124225997D01*
X122585000Y-124187444D01*
X122585000Y-124187437D01*
X122573641Y-124072111D01*
X122572235Y-124067474D01*
X122528754Y-123924138D01*
X122455862Y-123787765D01*
X122357764Y-123668234D01*
X122327816Y-123643656D01*
X114956349Y-116272190D01*
X114931766Y-116242236D01*
X114812235Y-116144138D01*
X114675862Y-116071246D01*
X114527889Y-116026359D01*
X114412563Y-116015000D01*
X114412555Y-116015000D01*
X114374002Y-116011203D01*
X114335449Y-116015000D01*
X113478711Y-116015000D01*
X113459774Y-115996063D01*
X113290256Y-115882795D01*
X113101898Y-115804774D01*
X112901939Y-115765000D01*
X112698061Y-115765000D01*
X112498102Y-115804774D01*
X112309744Y-115882795D01*
X112140226Y-115996063D01*
X111996063Y-116140226D01*
X111882795Y-116309744D01*
X111804774Y-116498102D01*
X111765000Y-116698061D01*
X111765000Y-116901939D01*
X111804774Y-117101898D01*
X111882795Y-117290256D01*
X111996063Y-117459774D01*
X112140226Y-117603937D01*
X112309744Y-117717205D01*
X112498102Y-117795226D01*
X112698061Y-117835000D01*
X112901939Y-117835000D01*
X113101898Y-117795226D01*
X113290256Y-117717205D01*
X113459774Y-117603937D01*
X113478711Y-117585000D01*
X114048845Y-117585000D01*
X119299737Y-122835893D01*
X118876123Y-122612359D01*
X118340867Y-122453099D01*
X117784826Y-122401322D01*
X117229368Y-122459019D01*
X116695839Y-122623972D01*
X116229976Y-122872982D01*
X115989830Y-123260225D01*
X117800000Y-125070395D01*
X117814143Y-125056253D01*
X117993748Y-125235858D01*
X117979605Y-125250000D01*
X119789775Y-127060170D01*
X120177018Y-126820024D01*
X120437641Y-126326123D01*
X120596901Y-125790867D01*
X120648678Y-125234826D01*
X120590981Y-124679368D01*
X120426028Y-124145839D01*
X120215139Y-123751295D01*
X121015001Y-124551157D01*
X121015000Y-127711928D01*
X120950000Y-127711928D01*
X120825518Y-127724188D01*
X120705820Y-127760498D01*
X120595506Y-127819463D01*
X120498815Y-127898815D01*
X120419463Y-127995506D01*
X120360498Y-128105820D01*
X120324188Y-128225518D01*
X120311928Y-128350000D01*
X120311928Y-130050000D01*
X120324188Y-130174482D01*
X120360498Y-130294180D01*
X120419463Y-130404494D01*
X120498815Y-130501185D01*
X120595506Y-130580537D01*
X120705820Y-130639502D01*
X120825518Y-130675812D01*
X120950000Y-130688072D01*
X122650000Y-130688072D01*
X122774482Y-130675812D01*
X122894180Y-130639502D01*
X123004494Y-130580537D01*
X123101185Y-130501185D01*
X123180537Y-130404494D01*
X123239502Y-130294180D01*
X123261513Y-130221620D01*
X123393368Y-130353475D01*
X123636589Y-130515990D01*
X123906842Y-130627932D01*
X124193740Y-130685000D01*
X124486260Y-130685000D01*
X124676918Y-130647075D01*
X124715000Y-130685157D01*
X124715001Y-133821288D01*
X124696063Y-133840226D01*
X124582795Y-134009744D01*
X124504774Y-134198102D01*
X124465000Y-134398061D01*
X124465000Y-134601939D01*
X124504774Y-134801898D01*
X124582795Y-134990256D01*
X124696063Y-135159774D01*
X124840226Y-135303937D01*
X125009744Y-135417205D01*
X125198102Y-135495226D01*
X125362013Y-135527830D01*
X120272190Y-140617653D01*
X120242236Y-140642236D01*
X120144138Y-140761768D01*
X120071246Y-140898141D01*
X120026359Y-141046114D01*
X120015000Y-141161440D01*
X120015000Y-141161447D01*
X120011203Y-141200000D01*
X120015000Y-141238553D01*
X120015001Y-147921288D01*
X119996063Y-147940226D01*
X119882795Y-148109744D01*
X119804774Y-148298102D01*
X119772170Y-148462013D01*
X119385000Y-148074843D01*
X119385000Y-141878711D01*
X119403937Y-141859774D01*
X119517205Y-141690256D01*
X119595226Y-141501898D01*
X119635000Y-141301939D01*
X119635000Y-141098061D01*
X119595226Y-140898102D01*
X119517205Y-140709744D01*
X119403937Y-140540226D01*
X119259774Y-140396063D01*
X119090256Y-140282795D01*
X118901898Y-140204774D01*
X118701939Y-140165000D01*
X118498061Y-140165000D01*
X118298102Y-140204774D01*
X118109744Y-140282795D01*
X117940226Y-140396063D01*
X117796063Y-140540226D01*
X117682795Y-140709744D01*
X117604774Y-140898102D01*
X117565000Y-141098061D01*
X117565000Y-141301939D01*
X117604774Y-141501898D01*
X117682795Y-141690256D01*
X117796063Y-141859774D01*
X117815001Y-141878712D01*
X117815000Y-148010201D01*
X117801898Y-148004774D01*
X117743268Y-147993112D01*
X117231933Y-147481778D01*
X117303937Y-147409774D01*
X117417205Y-147240256D01*
X117495226Y-147051898D01*
X117535000Y-146851939D01*
X117535000Y-146648061D01*
X117495226Y-146448102D01*
X117417205Y-146259744D01*
X117303937Y-146090226D01*
X117159774Y-145946063D01*
X116990256Y-145832795D01*
X116801898Y-145754774D01*
X116743268Y-145743112D01*
X108981933Y-137981778D01*
X109053937Y-137909774D01*
X109167205Y-137740256D01*
X109245226Y-137551898D01*
X109285000Y-137351939D01*
X109285000Y-137325158D01*
X109727816Y-136882342D01*
X109757765Y-136857763D01*
X109855863Y-136738232D01*
X109928755Y-136601859D01*
X109973642Y-136453886D01*
X109985001Y-136338560D01*
X109985001Y-136338553D01*
X109988798Y-136300000D01*
X109985001Y-136261447D01*
X109985001Y-132635413D01*
X115594192Y-132635413D01*
X115689956Y-132899814D01*
X115979571Y-133040704D01*
X116291108Y-133122384D01*
X116612595Y-133141718D01*
X116931675Y-133097961D01*
X117236088Y-132992795D01*
X117410044Y-132899814D01*
X117505808Y-132635413D01*
X116550000Y-131679605D01*
X115594192Y-132635413D01*
X109985001Y-132635413D01*
X109985001Y-131562595D01*
X114908282Y-131562595D01*
X114952039Y-131881675D01*
X115057205Y-132186088D01*
X115150186Y-132360044D01*
X115414587Y-132455808D01*
X116370395Y-131500000D01*
X116729605Y-131500000D01*
X117685413Y-132455808D01*
X117949814Y-132360044D01*
X118090704Y-132070429D01*
X118172384Y-131758892D01*
X118191718Y-131437405D01*
X118147961Y-131118325D01*
X118042795Y-130813912D01*
X117949814Y-130639956D01*
X117685413Y-130544192D01*
X116729605Y-131500000D01*
X116370395Y-131500000D01*
X115414587Y-130544192D01*
X115150186Y-130639956D01*
X115009296Y-130929571D01*
X114927616Y-131241108D01*
X114908282Y-131562595D01*
X109985001Y-131562595D01*
X109985001Y-130364587D01*
X115594192Y-130364587D01*
X116550000Y-131320395D01*
X117505808Y-130364587D01*
X117410044Y-130100186D01*
X117120429Y-129959296D01*
X116808892Y-129877616D01*
X116487405Y-129858282D01*
X116168325Y-129902039D01*
X115863912Y-130007205D01*
X115689956Y-130100186D01*
X115594192Y-130364587D01*
X109985001Y-130364587D01*
X109985001Y-127239775D01*
X115989830Y-127239775D01*
X116229976Y-127627018D01*
X116723877Y-127887641D01*
X117259133Y-128046901D01*
X117815174Y-128098678D01*
X118370632Y-128040981D01*
X118904161Y-127876028D01*
X119370024Y-127627018D01*
X119610170Y-127239775D01*
X117800000Y-125429605D01*
X115989830Y-127239775D01*
X109985001Y-127239775D01*
X109985001Y-125265174D01*
X114951322Y-125265174D01*
X115009019Y-125820632D01*
X115173972Y-126354161D01*
X115422982Y-126820024D01*
X115810225Y-127060170D01*
X117620395Y-125250000D01*
X115810225Y-123439830D01*
X115422982Y-123679976D01*
X115162359Y-124173877D01*
X115003099Y-124709133D01*
X114951322Y-125265174D01*
X109985001Y-125265174D01*
X109985001Y-108238553D01*
X109988798Y-108200000D01*
X109985001Y-108161447D01*
X109985001Y-108161440D01*
X109973642Y-108046114D01*
X109928755Y-107898141D01*
X109855863Y-107761768D01*
X109757765Y-107642237D01*
X109727818Y-107617660D01*
X107035000Y-104924843D01*
X107035000Y-104238552D01*
X107038797Y-104199999D01*
X107035000Y-104161446D01*
X107035000Y-104161439D01*
X107033607Y-104147286D01*
X122181904Y-104147286D01*
X122183320Y-104158713D01*
X122182863Y-104170217D01*
X122191605Y-104225572D01*
X122198498Y-104281195D01*
X122202116Y-104292126D01*
X122203912Y-104303498D01*
X122223290Y-104356095D01*
X122240898Y-104409294D01*
X122263221Y-104448646D01*
X135679554Y-132140441D01*
X135703511Y-132193477D01*
X135728534Y-132228480D01*
X135751009Y-132265192D01*
X135767689Y-132283253D01*
X135781982Y-132303246D01*
X135813354Y-132332697D01*
X135842558Y-132364317D01*
X135862441Y-132378776D01*
X135880359Y-132395597D01*
X135916870Y-132418359D01*
X135951686Y-132443678D01*
X135974012Y-132453982D01*
X135994864Y-132466982D01*
X136035112Y-132482183D01*
X136074199Y-132500223D01*
X136098105Y-132505974D01*
X136121094Y-132514656D01*
X136163536Y-132521713D01*
X136205390Y-132531781D01*
X136229957Y-132532757D01*
X136254199Y-132536788D01*
X136297204Y-132535429D01*
X136340217Y-132537138D01*
X136364504Y-132533302D01*
X136389065Y-132532526D01*
X136430981Y-132522803D01*
X136473498Y-132516088D01*
X136496565Y-132507590D01*
X136520508Y-132502036D01*
X136559724Y-132484321D01*
X136600112Y-132469442D01*
X136649798Y-132439025D01*
X148962485Y-125348995D01*
X149012406Y-125322312D01*
X149046912Y-125293993D01*
X149083245Y-125268020D01*
X149098966Y-125251274D01*
X149116710Y-125236711D01*
X149145032Y-125202202D01*
X149175597Y-125169642D01*
X149187744Y-125150158D01*
X149202312Y-125132407D01*
X149223361Y-125093027D01*
X149246982Y-125055138D01*
X149255094Y-125033657D01*
X149265919Y-125013406D01*
X149278884Y-124970667D01*
X149294655Y-124928907D01*
X149298420Y-124906264D01*
X149305088Y-124884283D01*
X149309465Y-124839839D01*
X149316788Y-124795802D01*
X149315000Y-124739223D01*
X149315000Y-116811167D01*
X149316115Y-116804974D01*
X149315000Y-116743800D01*
X149315000Y-116716353D01*
X149314386Y-116710120D01*
X149313656Y-116670063D01*
X149307789Y-116643142D01*
X149305088Y-116615717D01*
X149293457Y-116577374D01*
X149284925Y-116538224D01*
X149273918Y-116512962D01*
X149265919Y-116486594D01*
X149247032Y-116451258D01*
X149244531Y-116445519D01*
X149231158Y-116421561D01*
X149202312Y-116367593D01*
X149198320Y-116362728D01*
X145612762Y-109938967D01*
X152765000Y-109938967D01*
X152765000Y-110261033D01*
X152827832Y-110576912D01*
X152951082Y-110874463D01*
X153130013Y-111142252D01*
X153357748Y-111369987D01*
X153625537Y-111548918D01*
X153923088Y-111672168D01*
X154238967Y-111735000D01*
X154561033Y-111735000D01*
X154876912Y-111672168D01*
X155174463Y-111548918D01*
X155442252Y-111369987D01*
X155669987Y-111142252D01*
X155848918Y-110874463D01*
X155972168Y-110576912D01*
X156035000Y-110261033D01*
X156035000Y-109938967D01*
X155972168Y-109623088D01*
X155848918Y-109325537D01*
X155669987Y-109057748D01*
X155442252Y-108830013D01*
X155174463Y-108651082D01*
X154876912Y-108527832D01*
X154561033Y-108465000D01*
X154238967Y-108465000D01*
X153923088Y-108527832D01*
X153625537Y-108651082D01*
X153357748Y-108830013D01*
X153130013Y-109057748D01*
X152951082Y-109325537D01*
X152827832Y-109623088D01*
X152765000Y-109938967D01*
X145612762Y-109938967D01*
X141873016Y-103238967D01*
X152765000Y-103238967D01*
X152765000Y-103561033D01*
X152827832Y-103876912D01*
X152951082Y-104174463D01*
X153130013Y-104442252D01*
X153357748Y-104669987D01*
X153625537Y-104848918D01*
X153923088Y-104972168D01*
X154238967Y-105035000D01*
X154561033Y-105035000D01*
X154876912Y-104972168D01*
X155174463Y-104848918D01*
X155442252Y-104669987D01*
X155669987Y-104442252D01*
X155848918Y-104174463D01*
X155972168Y-103876912D01*
X156035000Y-103561033D01*
X156035000Y-103238967D01*
X155972168Y-102923088D01*
X155848918Y-102625537D01*
X155669987Y-102357748D01*
X155442252Y-102130013D01*
X155174463Y-101951082D01*
X154876912Y-101827832D01*
X154561033Y-101765000D01*
X154238967Y-101765000D01*
X153923088Y-101827832D01*
X153625537Y-101951082D01*
X153357748Y-102130013D01*
X153130013Y-102357748D01*
X152951082Y-102625537D01*
X152827832Y-102923088D01*
X152765000Y-103238967D01*
X141873016Y-103238967D01*
X137740566Y-95835413D01*
X153444192Y-95835413D01*
X153539956Y-96099814D01*
X153829571Y-96240704D01*
X154141108Y-96322384D01*
X154462595Y-96341718D01*
X154781675Y-96297961D01*
X155086088Y-96192795D01*
X155260044Y-96099814D01*
X155355808Y-95835413D01*
X154400000Y-94879605D01*
X153444192Y-95835413D01*
X137740566Y-95835413D01*
X137141749Y-94762595D01*
X152758282Y-94762595D01*
X152802039Y-95081675D01*
X152907205Y-95386088D01*
X153000186Y-95560044D01*
X153264587Y-95655808D01*
X154220395Y-94700000D01*
X154579605Y-94700000D01*
X155535413Y-95655808D01*
X155799814Y-95560044D01*
X155940704Y-95270429D01*
X156022384Y-94958892D01*
X156041718Y-94637405D01*
X155997961Y-94318325D01*
X155892795Y-94013912D01*
X155799814Y-93839956D01*
X155535413Y-93744192D01*
X154579605Y-94700000D01*
X154220395Y-94700000D01*
X153264587Y-93744192D01*
X153000186Y-93839956D01*
X152859296Y-94129571D01*
X152777616Y-94441108D01*
X152758282Y-94762595D01*
X137141749Y-94762595D01*
X136929849Y-94382963D01*
X136929102Y-94380706D01*
X136897055Y-94324211D01*
X136881733Y-94296760D01*
X136880376Y-94294808D01*
X136862527Y-94263341D01*
X136841974Y-94239543D01*
X136824029Y-94213717D01*
X136797981Y-94188601D01*
X136774334Y-94161220D01*
X136749534Y-94141889D01*
X136726894Y-94120059D01*
X136696448Y-94100509D01*
X136667912Y-94078265D01*
X136639815Y-94064142D01*
X136613354Y-94047151D01*
X136579679Y-94033916D01*
X136547351Y-94017667D01*
X136517038Y-94009297D01*
X136487772Y-93997795D01*
X136452159Y-93991383D01*
X136417286Y-93981754D01*
X136385933Y-93979459D01*
X136354974Y-93973885D01*
X136318789Y-93974545D01*
X136282713Y-93971904D01*
X136251508Y-93975771D01*
X136220064Y-93976344D01*
X136184711Y-93984048D01*
X136148803Y-93988498D01*
X136118950Y-93998379D01*
X136088225Y-94005075D01*
X136055052Y-94019529D01*
X136020705Y-94030898D01*
X135993355Y-94046412D01*
X135964525Y-94058974D01*
X135934815Y-94079618D01*
X135932748Y-94080791D01*
X135907056Y-94098908D01*
X135853717Y-94135971D01*
X135852067Y-94137682D01*
X122493396Y-103557387D01*
X122454808Y-103581010D01*
X122413641Y-103619030D01*
X122371219Y-103655666D01*
X122364141Y-103664747D01*
X122355683Y-103672558D01*
X122322717Y-103717889D01*
X122288265Y-103762088D01*
X122283095Y-103772373D01*
X122276322Y-103781687D01*
X122252840Y-103832565D01*
X122227666Y-103882648D01*
X122224600Y-103893752D01*
X122219778Y-103904200D01*
X122206675Y-103958671D01*
X122191753Y-104012714D01*
X122190913Y-104024198D01*
X122188220Y-104035391D01*
X122185995Y-104091387D01*
X122181904Y-104147286D01*
X107033607Y-104147286D01*
X107023641Y-104046113D01*
X106978754Y-103898140D01*
X106905862Y-103761767D01*
X106807764Y-103642236D01*
X106777815Y-103617657D01*
X105985000Y-102824843D01*
X105985000Y-101578711D01*
X106003937Y-101559774D01*
X106117205Y-101390256D01*
X106195226Y-101201898D01*
X106235000Y-101001939D01*
X106235000Y-100798061D01*
X106195226Y-100598102D01*
X106117205Y-100409744D01*
X106003937Y-100240226D01*
X105941452Y-100177741D01*
X106338854Y-100328456D01*
X107989541Y-100777889D01*
X109675898Y-101065911D01*
X111382181Y-101189830D01*
X113092458Y-101148492D01*
X114790761Y-100942280D01*
X116461234Y-100573122D01*
X118088280Y-100044463D01*
X119656706Y-99361239D01*
X121151871Y-98529830D01*
X122559812Y-97557998D01*
X123867386Y-96454817D01*
X125062383Y-95230587D01*
X126133646Y-93896738D01*
X126351254Y-93564587D01*
X153444192Y-93564587D01*
X154400000Y-94520395D01*
X155355808Y-93564587D01*
X155260044Y-93300186D01*
X154970429Y-93159296D01*
X154658892Y-93077616D01*
X154337405Y-93058282D01*
X154018325Y-93102039D01*
X153713912Y-93207205D01*
X153539956Y-93300186D01*
X153444192Y-93564587D01*
X126351254Y-93564587D01*
X127071173Y-92465724D01*
X127866211Y-90950907D01*
X128511336Y-89366429D01*
X129000525Y-87727084D01*
X129329211Y-86048179D01*
X129494325Y-84345388D01*
X129494325Y-82634612D01*
X129329211Y-80931821D01*
X129000525Y-79252916D01*
X128511336Y-77613571D01*
X127866211Y-76029093D01*
X127071173Y-74514276D01*
X126133646Y-73083262D01*
X125062383Y-71749413D01*
X123867386Y-70525183D01*
X122559812Y-69422002D01*
X121151871Y-68450170D01*
X119656706Y-67618761D01*
X118088280Y-66935537D01*
X116461234Y-66406878D01*
X114790761Y-66037720D01*
X113092458Y-65831508D01*
X111382181Y-65790170D01*
X109675898Y-65914089D01*
X107989541Y-66202111D01*
X106338854Y-66651544D01*
X104739250Y-67258194D01*
X103205664Y-68016396D01*
X101752414Y-68919071D01*
X100393069Y-69957790D01*
X99140320Y-71122856D01*
X98005866Y-72403391D01*
X97000296Y-73787439D01*
X96133001Y-75262076D01*
X95412078Y-76813536D01*
X94844258Y-78427332D01*
X94434842Y-80088396D01*
X94187653Y-81781221D01*
X94105000Y-83490000D01*
X94187653Y-85198779D01*
X94434842Y-86891604D01*
X94844258Y-88552668D01*
X95412078Y-90166464D01*
X96133001Y-91717924D01*
X97000296Y-93192561D01*
X98005866Y-94576609D01*
X99140320Y-95857144D01*
X100393069Y-97022210D01*
X101752414Y-98060929D01*
X103205664Y-98963604D01*
X104739250Y-99721806D01*
X105116821Y-99865000D01*
X105098061Y-99865000D01*
X104898102Y-99904774D01*
X104709744Y-99982795D01*
X104540226Y-100096063D01*
X104396063Y-100240226D01*
X104282795Y-100409744D01*
X104204774Y-100598102D01*
X104165000Y-100798061D01*
X104165000Y-101001939D01*
X104204774Y-101201898D01*
X104282795Y-101390256D01*
X104396063Y-101559774D01*
X104415001Y-101578712D01*
X104415000Y-103111447D01*
X104411203Y-103150000D01*
X104415000Y-103188553D01*
X104415000Y-103188560D01*
X104426359Y-103303886D01*
X104471246Y-103451859D01*
X104504995Y-103515000D01*
X104398061Y-103515000D01*
X104198102Y-103554774D01*
X104009744Y-103632795D01*
X103840226Y-103746063D01*
X103696063Y-103890226D01*
X103582795Y-104059744D01*
X103504774Y-104248102D01*
X103465000Y-104448061D01*
X103465000Y-104651939D01*
X103504774Y-104851898D01*
X103582795Y-105040256D01*
X103696063Y-105209774D01*
X103840226Y-105353937D01*
X103895777Y-105391055D01*
X103774541Y-105472062D01*
X103630378Y-105616225D01*
X103517110Y-105785743D01*
X103439089Y-105974101D01*
X103399315Y-106174060D01*
X103399315Y-106200841D01*
X102472189Y-107127968D01*
X102442235Y-107152551D01*
X102344137Y-107272083D01*
X102271245Y-107408456D01*
X102226358Y-107556429D01*
X102214999Y-107671755D01*
X102214999Y-107671762D01*
X102211202Y-107710315D01*
X102214999Y-107748868D01*
X102214999Y-110335000D01*
X75493647Y-110335000D01*
X75460000Y-110331686D01*
X75426353Y-110335000D01*
X75325717Y-110344912D01*
X75196594Y-110384081D01*
X75077593Y-110447688D01*
X74973289Y-110533289D01*
X74887688Y-110637593D01*
X74824081Y-110756594D01*
X74784912Y-110885717D01*
X74771686Y-111020000D01*
X74775000Y-111053647D01*
X74775001Y-128766343D01*
X74771686Y-128800000D01*
X74784912Y-128934283D01*
X74824081Y-129063406D01*
X74887688Y-129182407D01*
X74973289Y-129286711D01*
X75077593Y-129372312D01*
X75196594Y-129435919D01*
X75325717Y-129475088D01*
X75426353Y-129485000D01*
X75460000Y-129488314D01*
X75493647Y-129485000D01*
X102215000Y-129485000D01*
X102215000Y-130252761D01*
X102192252Y-130230013D01*
X101924463Y-130051082D01*
X101626912Y-129927832D01*
X101311033Y-129865000D01*
X100988967Y-129865000D01*
X100673088Y-129927832D01*
X100375537Y-130051082D01*
X100107748Y-130230013D01*
X99880013Y-130457748D01*
X99701082Y-130725537D01*
X99577832Y-131023088D01*
X99515000Y-131338967D01*
X99515000Y-131661033D01*
X99577832Y-131976912D01*
X99701082Y-132274463D01*
X99880013Y-132542252D01*
X100107748Y-132769987D01*
X100365000Y-132941878D01*
X100365001Y-135111437D01*
X100361203Y-135150000D01*
X100376359Y-135303886D01*
X100421246Y-135451859D01*
X100421247Y-135451860D01*
X100494139Y-135588233D01*
X100500658Y-135596176D01*
X100567655Y-135677812D01*
X100567659Y-135677816D01*
X100592237Y-135707764D01*
X100622185Y-135732342D01*
X111854842Y-146965000D01*
X89825158Y-146965000D01*
X73035000Y-130174843D01*
X73035000Y-96788552D01*
X73038797Y-96749999D01*
X73035000Y-96711446D01*
X73035000Y-96711439D01*
X73023641Y-96596113D01*
X72978754Y-96448140D01*
X72905862Y-96311767D01*
X72807764Y-96192236D01*
X72777816Y-96167658D01*
X69785000Y-93174843D01*
X69785000Y-90641877D01*
X70042252Y-90469987D01*
X70269987Y-90242252D01*
X70448918Y-89974463D01*
X70572168Y-89676912D01*
X70635000Y-89361033D01*
X70635000Y-89038967D01*
X70572168Y-88723088D01*
X70448918Y-88425537D01*
X70269987Y-88157748D01*
X70042252Y-87930013D01*
X69774463Y-87751082D01*
X69476912Y-87627832D01*
X69161033Y-87565000D01*
X68838967Y-87565000D01*
X68523088Y-87627832D01*
X68225537Y-87751082D01*
X67957748Y-87930013D01*
X67730013Y-88157748D01*
X67551082Y-88425537D01*
X67427832Y-88723088D01*
X67365000Y-89038967D01*
X64685000Y-89038967D01*
X64685000Y-75405000D01*
X88392849Y-75405000D01*
X88452984Y-75406270D01*
X88493403Y-75399114D01*
X88534283Y-75395088D01*
X88559703Y-75387377D01*
X88585850Y-75382748D01*
X88624103Y-75367841D01*
X88663406Y-75355919D01*
X88686837Y-75343395D01*
X88711575Y-75333755D01*
X88746179Y-75311676D01*
X88782407Y-75292312D01*
X88802943Y-75275458D01*
X88825326Y-75261177D01*
X88854965Y-75232764D01*
X88886711Y-75206711D01*
X88924914Y-75160161D01*
X98921074Y-63491337D01*
X98926711Y-63486711D01*
X98964903Y-63440175D01*
X98982105Y-63420094D01*
X98986260Y-63414151D01*
X99012312Y-63382407D01*
X99024834Y-63358979D01*
X99040049Y-63337218D01*
X99056557Y-63299630D01*
X99075919Y-63263406D01*
X99083630Y-63237986D01*
X99094307Y-63213675D01*
X99103165Y-63173588D01*
X99115088Y-63134283D01*
X99117692Y-63107846D01*
X99123421Y-63081919D01*
X99124288Y-63040879D01*
X99125000Y-63033647D01*
X99125000Y-63007152D01*
X99126270Y-62947017D01*
X99125000Y-62939843D01*
X99125000Y-43915000D01*
X139155001Y-43915000D01*
X139155000Y-73036353D01*
G37*
G04 #@! TD.AperFunction*
D18*
X106401082Y-132274463D02*
X106580013Y-132542252D01*
X106807748Y-132769987D01*
X107075537Y-132948918D01*
X107373088Y-133072168D01*
X107688967Y-133135000D01*
X108011033Y-133135000D01*
X108326912Y-133072168D01*
X108415002Y-133035680D01*
X108415002Y-135974840D01*
X108174842Y-136215000D01*
X108148061Y-136215000D01*
X107948102Y-136254774D01*
X107759744Y-136332795D01*
X107590226Y-136446063D01*
X107518222Y-136518067D01*
X105969315Y-134969160D01*
X105969315Y-132492840D01*
X106338581Y-132123574D01*
X106401082Y-132274463D01*
G04 #@! TA.AperFunction,Conductor*
D19*
G36*
X106401082Y-132274463D02*
G01*
X106580013Y-132542252D01*
X106807748Y-132769987D01*
X107075537Y-132948918D01*
X107373088Y-133072168D01*
X107688967Y-133135000D01*
X108011033Y-133135000D01*
X108326912Y-133072168D01*
X108415002Y-133035680D01*
X108415002Y-135974840D01*
X108174842Y-136215000D01*
X108148061Y-136215000D01*
X107948102Y-136254774D01*
X107759744Y-136332795D01*
X107590226Y-136446063D01*
X107518222Y-136518067D01*
X105969315Y-134969160D01*
X105969315Y-132492840D01*
X106338581Y-132123574D01*
X106401082Y-132274463D01*
G37*
G04 #@! TD.AperFunction*
D18*
X105743748Y-125235858D02*
X105729605Y-125250000D01*
X105743748Y-125264143D01*
X105564143Y-125443748D01*
X105550000Y-125429605D01*
X105535858Y-125443748D01*
X105356253Y-125264143D01*
X105370395Y-125250000D01*
X105356253Y-125235858D01*
X105535858Y-125056253D01*
X105550000Y-125070395D01*
X105564143Y-125056253D01*
X105743748Y-125235858D01*
G04 #@! TA.AperFunction,Conductor*
D19*
G36*
X105743748Y-125235858D02*
G01*
X105729605Y-125250000D01*
X105743748Y-125264143D01*
X105564143Y-125443748D01*
X105550000Y-125429605D01*
X105535858Y-125443748D01*
X105356253Y-125264143D01*
X105370395Y-125250000D01*
X105356253Y-125235858D01*
X105535858Y-125056253D01*
X105550000Y-125070395D01*
X105564143Y-125056253D01*
X105743748Y-125235858D01*
G37*
G04 #@! TD.AperFunction*
D18*
X107315001Y-108990843D02*
X107315002Y-123187390D01*
X107120024Y-122872982D01*
X106626123Y-122612359D01*
X106090867Y-122453099D01*
X105534826Y-122401322D01*
X104979368Y-122459019D01*
X104445839Y-122623972D01*
X103979976Y-122872982D01*
X103784999Y-123187389D01*
X103784999Y-108035472D01*
X104509473Y-107310999D01*
X104536254Y-107310999D01*
X104736213Y-107271225D01*
X104924571Y-107193204D01*
X105094089Y-107079936D01*
X105238252Y-106935773D01*
X105246935Y-106922777D01*
X107315001Y-108990843D01*
G04 #@! TA.AperFunction,Conductor*
D19*
G36*
X107315001Y-108990843D02*
G01*
X107315002Y-123187390D01*
X107120024Y-122872982D01*
X106626123Y-122612359D01*
X106090867Y-122453099D01*
X105534826Y-122401322D01*
X104979368Y-122459019D01*
X104445839Y-122623972D01*
X103979976Y-122872982D01*
X103784999Y-123187389D01*
X103784999Y-108035472D01*
X104509473Y-107310999D01*
X104536254Y-107310999D01*
X104736213Y-107271225D01*
X104924571Y-107193204D01*
X105094089Y-107079936D01*
X105238252Y-106935773D01*
X105246935Y-106922777D01*
X107315001Y-108990843D01*
G37*
G04 #@! TD.AperFunction*
M02*
