G04 #@! TF.GenerationSoftware,KiCad,Pcbnew,5.1.7-a382d34a8~87~ubuntu20.04.1*
G04 #@! TF.CreationDate,2020-10-04T08:45:11+02:00*
G04 #@! TF.ProjectId,reform2-trackball,7265666f-726d-4322-9d74-7261636b6261,rev?*
G04 #@! TF.SameCoordinates,Original*
G04 #@! TF.FileFunction,Copper,L1,Top*
G04 #@! TF.FilePolarity,Positive*
%FSLAX46Y46*%
G04 Gerber Fmt 4.6, Leading zero omitted, Abs format (unit mm)*
G04 Created by KiCad (PCBNEW 5.1.7-a382d34a8~87~ubuntu20.04.1) date 2020-10-04 08:45:11*
%MOMM*%
%LPD*%
G01*
G04 APERTURE LIST*
G04 #@! TA.AperFunction,ComponentPad*
%ADD10O,1.200000X1.750000*%
G04 #@! TD*
G04 #@! TA.AperFunction,SMDPad,CuDef*
%ADD11R,0.650000X1.060000*%
G04 #@! TD*
G04 #@! TA.AperFunction,SMDPad,CuDef*
%ADD12R,1.100000X1.500000*%
G04 #@! TD*
G04 #@! TA.AperFunction,SMDPad,CuDef*
%ADD13R,0.900000X1.000000*%
G04 #@! TD*
G04 #@! TA.AperFunction,SMDPad,CuDef*
%ADD14R,2.100000X1.800000*%
G04 #@! TD*
G04 #@! TA.AperFunction,SMDPad,CuDef*
%ADD15C,0.100000*%
G04 #@! TD*
G04 #@! TA.AperFunction,ComponentPad*
%ADD16C,2.000000*%
G04 #@! TD*
G04 #@! TA.AperFunction,ComponentPad*
%ADD17R,1.700000X1.700000*%
G04 #@! TD*
G04 #@! TA.AperFunction,ComponentPad*
%ADD18O,1.700000X1.700000*%
G04 #@! TD*
G04 #@! TA.AperFunction,ComponentPad*
%ADD19C,4.400000*%
G04 #@! TD*
G04 #@! TA.AperFunction,ViaPad*
%ADD20C,0.800000*%
G04 #@! TD*
G04 #@! TA.AperFunction,Conductor*
%ADD21C,0.300000*%
G04 #@! TD*
G04 #@! TA.AperFunction,Conductor*
%ADD22C,0.400000*%
G04 #@! TD*
G04 #@! TA.AperFunction,Conductor*
%ADD23C,0.254000*%
G04 #@! TD*
G04 #@! TA.AperFunction,Conductor*
%ADD24C,0.100000*%
G04 #@! TD*
G04 APERTURE END LIST*
D10*
X103250000Y-160250000D03*
X105250000Y-160250000D03*
X107250000Y-160250000D03*
G04 #@! TA.AperFunction,ComponentPad*
G36*
G01*
X109850000Y-159624999D02*
X109850000Y-160875001D01*
G75*
G02*
X109600001Y-161125000I-249999J0D01*
G01*
X108899999Y-161125000D01*
G75*
G02*
X108650000Y-160875001I0J249999D01*
G01*
X108650000Y-159624999D01*
G75*
G02*
X108899999Y-159375000I249999J0D01*
G01*
X109600001Y-159375000D01*
G75*
G02*
X109850000Y-159624999I0J-249999D01*
G01*
G37*
G04 #@! TD.AperFunction*
G04 #@! TA.AperFunction,SMDPad,CuDef*
G36*
G01*
X126543750Y-133250000D02*
X127056250Y-133250000D01*
G75*
G02*
X127275000Y-133468750I0J-218750D01*
G01*
X127275000Y-133906250D01*
G75*
G02*
X127056250Y-134125000I-218750J0D01*
G01*
X126543750Y-134125000D01*
G75*
G02*
X126325000Y-133906250I0J218750D01*
G01*
X126325000Y-133468750D01*
G75*
G02*
X126543750Y-133250000I218750J0D01*
G01*
G37*
G04 #@! TD.AperFunction*
G04 #@! TA.AperFunction,SMDPad,CuDef*
G36*
G01*
X126543750Y-131675000D02*
X127056250Y-131675000D01*
G75*
G02*
X127275000Y-131893750I0J-218750D01*
G01*
X127275000Y-132331250D01*
G75*
G02*
X127056250Y-132550000I-218750J0D01*
G01*
X126543750Y-132550000D01*
G75*
G02*
X126325000Y-132331250I0J218750D01*
G01*
X126325000Y-131893750D01*
G75*
G02*
X126543750Y-131675000I218750J0D01*
G01*
G37*
G04 #@! TD.AperFunction*
G04 #@! TA.AperFunction,SMDPad,CuDef*
G36*
G01*
X124043750Y-133250000D02*
X124556250Y-133250000D01*
G75*
G02*
X124775000Y-133468750I0J-218750D01*
G01*
X124775000Y-133906250D01*
G75*
G02*
X124556250Y-134125000I-218750J0D01*
G01*
X124043750Y-134125000D01*
G75*
G02*
X123825000Y-133906250I0J218750D01*
G01*
X123825000Y-133468750D01*
G75*
G02*
X124043750Y-133250000I218750J0D01*
G01*
G37*
G04 #@! TD.AperFunction*
G04 #@! TA.AperFunction,SMDPad,CuDef*
G36*
G01*
X124043750Y-131675000D02*
X124556250Y-131675000D01*
G75*
G02*
X124775000Y-131893750I0J-218750D01*
G01*
X124775000Y-132331250D01*
G75*
G02*
X124556250Y-132550000I-218750J0D01*
G01*
X124043750Y-132550000D01*
G75*
G02*
X123825000Y-132331250I0J218750D01*
G01*
X123825000Y-131893750D01*
G75*
G02*
X124043750Y-131675000I218750J0D01*
G01*
G37*
G04 #@! TD.AperFunction*
G04 #@! TA.AperFunction,SMDPad,CuDef*
G36*
G01*
X108150000Y-155743750D02*
X108150000Y-156256250D01*
G75*
G02*
X107931250Y-156475000I-218750J0D01*
G01*
X107493750Y-156475000D01*
G75*
G02*
X107275000Y-156256250I0J218750D01*
G01*
X107275000Y-155743750D01*
G75*
G02*
X107493750Y-155525000I218750J0D01*
G01*
X107931250Y-155525000D01*
G75*
G02*
X108150000Y-155743750I0J-218750D01*
G01*
G37*
G04 #@! TD.AperFunction*
G04 #@! TA.AperFunction,SMDPad,CuDef*
G36*
G01*
X109725000Y-155743750D02*
X109725000Y-156256250D01*
G75*
G02*
X109506250Y-156475000I-218750J0D01*
G01*
X109068750Y-156475000D01*
G75*
G02*
X108850000Y-156256250I0J218750D01*
G01*
X108850000Y-155743750D01*
G75*
G02*
X109068750Y-155525000I218750J0D01*
G01*
X109506250Y-155525000D01*
G75*
G02*
X109725000Y-155743750I0J-218750D01*
G01*
G37*
G04 #@! TD.AperFunction*
G04 #@! TA.AperFunction,SMDPad,CuDef*
G36*
G01*
X105600000Y-156256250D02*
X105600000Y-155743750D01*
G75*
G02*
X105818750Y-155525000I218750J0D01*
G01*
X106256250Y-155525000D01*
G75*
G02*
X106475000Y-155743750I0J-218750D01*
G01*
X106475000Y-156256250D01*
G75*
G02*
X106256250Y-156475000I-218750J0D01*
G01*
X105818750Y-156475000D01*
G75*
G02*
X105600000Y-156256250I0J218750D01*
G01*
G37*
G04 #@! TD.AperFunction*
G04 #@! TA.AperFunction,SMDPad,CuDef*
G36*
G01*
X104025000Y-156256250D02*
X104025000Y-155743750D01*
G75*
G02*
X104243750Y-155525000I218750J0D01*
G01*
X104681250Y-155525000D01*
G75*
G02*
X104900000Y-155743750I0J-218750D01*
G01*
X104900000Y-156256250D01*
G75*
G02*
X104681250Y-156475000I-218750J0D01*
G01*
X104243750Y-156475000D01*
G75*
G02*
X104025000Y-156256250I0J218750D01*
G01*
G37*
G04 #@! TD.AperFunction*
D11*
X99050000Y-149900000D03*
X100950000Y-149900000D03*
X100950000Y-152100000D03*
X100000000Y-152100000D03*
X99050000Y-152100000D03*
G04 #@! TA.AperFunction,SMDPad,CuDef*
G36*
G01*
X100850000Y-154506250D02*
X100850000Y-153993750D01*
G75*
G02*
X101068750Y-153775000I218750J0D01*
G01*
X101506250Y-153775000D01*
G75*
G02*
X101725000Y-153993750I0J-218750D01*
G01*
X101725000Y-154506250D01*
G75*
G02*
X101506250Y-154725000I-218750J0D01*
G01*
X101068750Y-154725000D01*
G75*
G02*
X100850000Y-154506250I0J218750D01*
G01*
G37*
G04 #@! TD.AperFunction*
G04 #@! TA.AperFunction,SMDPad,CuDef*
G36*
G01*
X99275000Y-154506250D02*
X99275000Y-153993750D01*
G75*
G02*
X99493750Y-153775000I218750J0D01*
G01*
X99931250Y-153775000D01*
G75*
G02*
X100150000Y-153993750I0J-218750D01*
G01*
X100150000Y-154506250D01*
G75*
G02*
X99931250Y-154725000I-218750J0D01*
G01*
X99493750Y-154725000D01*
G75*
G02*
X99275000Y-154506250I0J218750D01*
G01*
G37*
G04 #@! TD.AperFunction*
G04 #@! TA.AperFunction,SMDPad,CuDef*
G36*
G01*
X126371316Y-98366291D02*
X126733709Y-98728684D01*
G75*
G02*
X126733709Y-99038044I-154680J-154680D01*
G01*
X126424350Y-99347403D01*
G75*
G02*
X126114990Y-99347403I-154680J154680D01*
G01*
X125752597Y-98985010D01*
G75*
G02*
X125752597Y-98675650I154680J154680D01*
G01*
X126061956Y-98366291D01*
G75*
G02*
X126371316Y-98366291I154680J-154680D01*
G01*
G37*
G04 #@! TD.AperFunction*
G04 #@! TA.AperFunction,SMDPad,CuDef*
G36*
G01*
X127485010Y-97252597D02*
X127847403Y-97614990D01*
G75*
G02*
X127847403Y-97924350I-154680J-154680D01*
G01*
X127538044Y-98233709D01*
G75*
G02*
X127228684Y-98233709I-154680J154680D01*
G01*
X126866291Y-97871316D01*
G75*
G02*
X126866291Y-97561956I154680J154680D01*
G01*
X127175650Y-97252597D01*
G75*
G02*
X127485010Y-97252597I154680J-154680D01*
G01*
G37*
G04 #@! TD.AperFunction*
G04 #@! TA.AperFunction,SMDPad,CuDef*
G36*
G01*
X126916291Y-69128684D02*
X127278684Y-68766291D01*
G75*
G02*
X127588044Y-68766291I154680J-154680D01*
G01*
X127897403Y-69075650D01*
G75*
G02*
X127897403Y-69385010I-154680J-154680D01*
G01*
X127535010Y-69747403D01*
G75*
G02*
X127225650Y-69747403I-154680J154680D01*
G01*
X126916291Y-69438044D01*
G75*
G02*
X126916291Y-69128684I154680J154680D01*
G01*
G37*
G04 #@! TD.AperFunction*
G04 #@! TA.AperFunction,SMDPad,CuDef*
G36*
G01*
X125802597Y-68014990D02*
X126164990Y-67652597D01*
G75*
G02*
X126474350Y-67652597I154680J-154680D01*
G01*
X126783709Y-67961956D01*
G75*
G02*
X126783709Y-68271316I-154680J-154680D01*
G01*
X126421316Y-68633709D01*
G75*
G02*
X126111956Y-68633709I-154680J154680D01*
G01*
X125802597Y-68324350D01*
G75*
G02*
X125802597Y-68014990I154680J154680D01*
G01*
G37*
G04 #@! TD.AperFunction*
G04 #@! TA.AperFunction,SMDPad,CuDef*
G36*
G01*
X112200000Y-62656250D02*
X112200000Y-62143750D01*
G75*
G02*
X112418750Y-61925000I218750J0D01*
G01*
X112856250Y-61925000D01*
G75*
G02*
X113075000Y-62143750I0J-218750D01*
G01*
X113075000Y-62656250D01*
G75*
G02*
X112856250Y-62875000I-218750J0D01*
G01*
X112418750Y-62875000D01*
G75*
G02*
X112200000Y-62656250I0J218750D01*
G01*
G37*
G04 #@! TD.AperFunction*
G04 #@! TA.AperFunction,SMDPad,CuDef*
G36*
G01*
X110625000Y-62656250D02*
X110625000Y-62143750D01*
G75*
G02*
X110843750Y-61925000I218750J0D01*
G01*
X111281250Y-61925000D01*
G75*
G02*
X111500000Y-62143750I0J-218750D01*
G01*
X111500000Y-62656250D01*
G75*
G02*
X111281250Y-62875000I-218750J0D01*
G01*
X110843750Y-62875000D01*
G75*
G02*
X110625000Y-62656250I0J218750D01*
G01*
G37*
G04 #@! TD.AperFunction*
G04 #@! TA.AperFunction,SMDPad,CuDef*
G36*
G01*
X96271316Y-68766291D02*
X96633709Y-69128684D01*
G75*
G02*
X96633709Y-69438044I-154680J-154680D01*
G01*
X96324350Y-69747403D01*
G75*
G02*
X96014990Y-69747403I-154680J154680D01*
G01*
X95652597Y-69385010D01*
G75*
G02*
X95652597Y-69075650I154680J154680D01*
G01*
X95961956Y-68766291D01*
G75*
G02*
X96271316Y-68766291I154680J-154680D01*
G01*
G37*
G04 #@! TD.AperFunction*
G04 #@! TA.AperFunction,SMDPad,CuDef*
G36*
G01*
X97385010Y-67652597D02*
X97747403Y-68014990D01*
G75*
G02*
X97747403Y-68324350I-154680J-154680D01*
G01*
X97438044Y-68633709D01*
G75*
G02*
X97128684Y-68633709I-154680J154680D01*
G01*
X96766291Y-68271316D01*
G75*
G02*
X96766291Y-67961956I154680J154680D01*
G01*
X97075650Y-67652597D01*
G75*
G02*
X97385010Y-67652597I154680J-154680D01*
G01*
G37*
G04 #@! TD.AperFunction*
G04 #@! TA.AperFunction,SMDPad,CuDef*
G36*
G01*
X96733709Y-97771316D02*
X96371316Y-98133709D01*
G75*
G02*
X96061956Y-98133709I-154680J154680D01*
G01*
X95752597Y-97824350D01*
G75*
G02*
X95752597Y-97514990I154680J154680D01*
G01*
X96114990Y-97152597D01*
G75*
G02*
X96424350Y-97152597I154680J-154680D01*
G01*
X96733709Y-97461956D01*
G75*
G02*
X96733709Y-97771316I-154680J-154680D01*
G01*
G37*
G04 #@! TD.AperFunction*
G04 #@! TA.AperFunction,SMDPad,CuDef*
G36*
G01*
X97847403Y-98885010D02*
X97485010Y-99247403D01*
G75*
G02*
X97175650Y-99247403I-154680J154680D01*
G01*
X96866291Y-98938044D01*
G75*
G02*
X96866291Y-98628684I154680J154680D01*
G01*
X97228684Y-98266291D01*
G75*
G02*
X97538044Y-98266291I154680J-154680D01*
G01*
X97847403Y-98575650D01*
G75*
G02*
X97847403Y-98885010I-154680J-154680D01*
G01*
G37*
G04 #@! TD.AperFunction*
G04 #@! TA.AperFunction,SMDPad,CuDef*
G36*
G01*
X133650000Y-155743750D02*
X133650000Y-156256250D01*
G75*
G02*
X133431250Y-156475000I-218750J0D01*
G01*
X132993750Y-156475000D01*
G75*
G02*
X132775000Y-156256250I0J218750D01*
G01*
X132775000Y-155743750D01*
G75*
G02*
X132993750Y-155525000I218750J0D01*
G01*
X133431250Y-155525000D01*
G75*
G02*
X133650000Y-155743750I0J-218750D01*
G01*
G37*
G04 #@! TD.AperFunction*
G04 #@! TA.AperFunction,SMDPad,CuDef*
G36*
G01*
X135225000Y-155743750D02*
X135225000Y-156256250D01*
G75*
G02*
X135006250Y-156475000I-218750J0D01*
G01*
X134568750Y-156475000D01*
G75*
G02*
X134350000Y-156256250I0J218750D01*
G01*
X134350000Y-155743750D01*
G75*
G02*
X134568750Y-155525000I218750J0D01*
G01*
X135006250Y-155525000D01*
G75*
G02*
X135225000Y-155743750I0J-218750D01*
G01*
G37*
G04 #@! TD.AperFunction*
G04 #@! TA.AperFunction,SMDPad,CuDef*
G36*
G01*
X116350000Y-156006250D02*
X116350000Y-155493750D01*
G75*
G02*
X116568750Y-155275000I218750J0D01*
G01*
X117006250Y-155275000D01*
G75*
G02*
X117225000Y-155493750I0J-218750D01*
G01*
X117225000Y-156006250D01*
G75*
G02*
X117006250Y-156225000I-218750J0D01*
G01*
X116568750Y-156225000D01*
G75*
G02*
X116350000Y-156006250I0J218750D01*
G01*
G37*
G04 #@! TD.AperFunction*
G04 #@! TA.AperFunction,SMDPad,CuDef*
G36*
G01*
X114775000Y-156006250D02*
X114775000Y-155493750D01*
G75*
G02*
X114993750Y-155275000I218750J0D01*
G01*
X115431250Y-155275000D01*
G75*
G02*
X115650000Y-155493750I0J-218750D01*
G01*
X115650000Y-156006250D01*
G75*
G02*
X115431250Y-156225000I-218750J0D01*
G01*
X114993750Y-156225000D01*
G75*
G02*
X114775000Y-156006250I0J218750D01*
G01*
G37*
G04 #@! TD.AperFunction*
G04 #@! TA.AperFunction,SMDPad,CuDef*
G36*
G01*
X117150000Y-157743750D02*
X117150000Y-158256250D01*
G75*
G02*
X116931250Y-158475000I-218750J0D01*
G01*
X116493750Y-158475000D01*
G75*
G02*
X116275000Y-158256250I0J218750D01*
G01*
X116275000Y-157743750D01*
G75*
G02*
X116493750Y-157525000I218750J0D01*
G01*
X116931250Y-157525000D01*
G75*
G02*
X117150000Y-157743750I0J-218750D01*
G01*
G37*
G04 #@! TD.AperFunction*
G04 #@! TA.AperFunction,SMDPad,CuDef*
G36*
G01*
X118725000Y-157743750D02*
X118725000Y-158256250D01*
G75*
G02*
X118506250Y-158475000I-218750J0D01*
G01*
X118068750Y-158475000D01*
G75*
G02*
X117850000Y-158256250I0J218750D01*
G01*
X117850000Y-157743750D01*
G75*
G02*
X118068750Y-157525000I218750J0D01*
G01*
X118506250Y-157525000D01*
G75*
G02*
X118725000Y-157743750I0J-218750D01*
G01*
G37*
G04 #@! TD.AperFunction*
G04 #@! TA.AperFunction,SMDPad,CuDef*
G36*
G01*
X130600000Y-159006250D02*
X130600000Y-158493750D01*
G75*
G02*
X130818750Y-158275000I218750J0D01*
G01*
X131256250Y-158275000D01*
G75*
G02*
X131475000Y-158493750I0J-218750D01*
G01*
X131475000Y-159006250D01*
G75*
G02*
X131256250Y-159225000I-218750J0D01*
G01*
X130818750Y-159225000D01*
G75*
G02*
X130600000Y-159006250I0J218750D01*
G01*
G37*
G04 #@! TD.AperFunction*
G04 #@! TA.AperFunction,SMDPad,CuDef*
G36*
G01*
X129025000Y-159006250D02*
X129025000Y-158493750D01*
G75*
G02*
X129243750Y-158275000I218750J0D01*
G01*
X129681250Y-158275000D01*
G75*
G02*
X129900000Y-158493750I0J-218750D01*
G01*
X129900000Y-159006250D01*
G75*
G02*
X129681250Y-159225000I-218750J0D01*
G01*
X129243750Y-159225000D01*
G75*
G02*
X129025000Y-159006250I0J218750D01*
G01*
G37*
G04 #@! TD.AperFunction*
G04 #@! TA.AperFunction,SMDPad,CuDef*
G36*
G01*
X132993750Y-160350000D02*
X133506250Y-160350000D01*
G75*
G02*
X133725000Y-160568750I0J-218750D01*
G01*
X133725000Y-161006250D01*
G75*
G02*
X133506250Y-161225000I-218750J0D01*
G01*
X132993750Y-161225000D01*
G75*
G02*
X132775000Y-161006250I0J218750D01*
G01*
X132775000Y-160568750D01*
G75*
G02*
X132993750Y-160350000I218750J0D01*
G01*
G37*
G04 #@! TD.AperFunction*
G04 #@! TA.AperFunction,SMDPad,CuDef*
G36*
G01*
X132993750Y-158775000D02*
X133506250Y-158775000D01*
G75*
G02*
X133725000Y-158993750I0J-218750D01*
G01*
X133725000Y-159431250D01*
G75*
G02*
X133506250Y-159650000I-218750J0D01*
G01*
X132993750Y-159650000D01*
G75*
G02*
X132775000Y-159431250I0J218750D01*
G01*
X132775000Y-158993750D01*
G75*
G02*
X132993750Y-158775000I218750J0D01*
G01*
G37*
G04 #@! TD.AperFunction*
G04 #@! TA.AperFunction,SMDPad,CuDef*
G36*
G01*
X140743750Y-160000000D02*
X141256250Y-160000000D01*
G75*
G02*
X141475000Y-160218750I0J-218750D01*
G01*
X141475000Y-160656250D01*
G75*
G02*
X141256250Y-160875000I-218750J0D01*
G01*
X140743750Y-160875000D01*
G75*
G02*
X140525000Y-160656250I0J218750D01*
G01*
X140525000Y-160218750D01*
G75*
G02*
X140743750Y-160000000I218750J0D01*
G01*
G37*
G04 #@! TD.AperFunction*
G04 #@! TA.AperFunction,SMDPad,CuDef*
G36*
G01*
X140743750Y-158425000D02*
X141256250Y-158425000D01*
G75*
G02*
X141475000Y-158643750I0J-218750D01*
G01*
X141475000Y-159081250D01*
G75*
G02*
X141256250Y-159300000I-218750J0D01*
G01*
X140743750Y-159300000D01*
G75*
G02*
X140525000Y-159081250I0J218750D01*
G01*
X140525000Y-158643750D01*
G75*
G02*
X140743750Y-158425000I218750J0D01*
G01*
G37*
G04 #@! TD.AperFunction*
D12*
X148250000Y-144800000D03*
X148250000Y-153700000D03*
D13*
X97050000Y-139450000D03*
X95450000Y-139450000D03*
X97050000Y-143550000D03*
X95450000Y-143550000D03*
G04 #@! TA.AperFunction,SMDPad,CuDef*
G36*
G01*
X126028684Y-97033709D02*
X125666291Y-96671316D01*
G75*
G02*
X125666291Y-96361956I154680J154680D01*
G01*
X125975650Y-96052597D01*
G75*
G02*
X126285010Y-96052597I154680J-154680D01*
G01*
X126647403Y-96414990D01*
G75*
G02*
X126647403Y-96724350I-154680J-154680D01*
G01*
X126338044Y-97033709D01*
G75*
G02*
X126028684Y-97033709I-154680J154680D01*
G01*
G37*
G04 #@! TD.AperFunction*
G04 #@! TA.AperFunction,SMDPad,CuDef*
G36*
G01*
X124914990Y-98147403D02*
X124552597Y-97785010D01*
G75*
G02*
X124552597Y-97475650I154680J154680D01*
G01*
X124861956Y-97166291D01*
G75*
G02*
X125171316Y-97166291I154680J-154680D01*
G01*
X125533709Y-97528684D01*
G75*
G02*
X125533709Y-97838044I-154680J-154680D01*
G01*
X125224350Y-98147403D01*
G75*
G02*
X124914990Y-98147403I-154680J154680D01*
G01*
G37*
G04 #@! TD.AperFunction*
G04 #@! TA.AperFunction,SMDPad,CuDef*
G36*
G01*
X125533709Y-69521316D02*
X125171316Y-69883709D01*
G75*
G02*
X124861956Y-69883709I-154680J154680D01*
G01*
X124552597Y-69574350D01*
G75*
G02*
X124552597Y-69264990I154680J154680D01*
G01*
X124914990Y-68902597D01*
G75*
G02*
X125224350Y-68902597I154680J-154680D01*
G01*
X125533709Y-69211956D01*
G75*
G02*
X125533709Y-69521316I-154680J-154680D01*
G01*
G37*
G04 #@! TD.AperFunction*
G04 #@! TA.AperFunction,SMDPad,CuDef*
G36*
G01*
X126647403Y-70635010D02*
X126285010Y-70997403D01*
G75*
G02*
X125975650Y-70997403I-154680J154680D01*
G01*
X125666291Y-70688044D01*
G75*
G02*
X125666291Y-70378684I154680J154680D01*
G01*
X126028684Y-70016291D01*
G75*
G02*
X126338044Y-70016291I154680J-154680D01*
G01*
X126647403Y-70325650D01*
G75*
G02*
X126647403Y-70635010I-154680J-154680D01*
G01*
G37*
G04 #@! TD.AperFunction*
G04 #@! TA.AperFunction,SMDPad,CuDef*
G36*
G01*
X111500000Y-63893750D02*
X111500000Y-64406250D01*
G75*
G02*
X111281250Y-64625000I-218750J0D01*
G01*
X110843750Y-64625000D01*
G75*
G02*
X110625000Y-64406250I0J218750D01*
G01*
X110625000Y-63893750D01*
G75*
G02*
X110843750Y-63675000I218750J0D01*
G01*
X111281250Y-63675000D01*
G75*
G02*
X111500000Y-63893750I0J-218750D01*
G01*
G37*
G04 #@! TD.AperFunction*
G04 #@! TA.AperFunction,SMDPad,CuDef*
G36*
G01*
X113075000Y-63893750D02*
X113075000Y-64406250D01*
G75*
G02*
X112856250Y-64625000I-218750J0D01*
G01*
X112418750Y-64625000D01*
G75*
G02*
X112200000Y-64406250I0J218750D01*
G01*
X112200000Y-63893750D01*
G75*
G02*
X112418750Y-63675000I218750J0D01*
G01*
X112856250Y-63675000D01*
G75*
G02*
X113075000Y-63893750I0J-218750D01*
G01*
G37*
G04 #@! TD.AperFunction*
G04 #@! TA.AperFunction,SMDPad,CuDef*
G36*
G01*
X98428684Y-69883709D02*
X98066291Y-69521316D01*
G75*
G02*
X98066291Y-69211956I154680J154680D01*
G01*
X98375650Y-68902597D01*
G75*
G02*
X98685010Y-68902597I154680J-154680D01*
G01*
X99047403Y-69264990D01*
G75*
G02*
X99047403Y-69574350I-154680J-154680D01*
G01*
X98738044Y-69883709D01*
G75*
G02*
X98428684Y-69883709I-154680J154680D01*
G01*
G37*
G04 #@! TD.AperFunction*
G04 #@! TA.AperFunction,SMDPad,CuDef*
G36*
G01*
X97314990Y-70997403D02*
X96952597Y-70635010D01*
G75*
G02*
X96952597Y-70325650I154680J154680D01*
G01*
X97261956Y-70016291D01*
G75*
G02*
X97571316Y-70016291I154680J-154680D01*
G01*
X97933709Y-70378684D01*
G75*
G02*
X97933709Y-70688044I-154680J-154680D01*
G01*
X97624350Y-70997403D01*
G75*
G02*
X97314990Y-70997403I-154680J154680D01*
G01*
G37*
G04 #@! TD.AperFunction*
G04 #@! TA.AperFunction,SMDPad,CuDef*
G36*
G01*
X98066291Y-97428684D02*
X98428684Y-97066291D01*
G75*
G02*
X98738044Y-97066291I154680J-154680D01*
G01*
X99047403Y-97375650D01*
G75*
G02*
X99047403Y-97685010I-154680J-154680D01*
G01*
X98685010Y-98047403D01*
G75*
G02*
X98375650Y-98047403I-154680J154680D01*
G01*
X98066291Y-97738044D01*
G75*
G02*
X98066291Y-97428684I154680J154680D01*
G01*
G37*
G04 #@! TD.AperFunction*
G04 #@! TA.AperFunction,SMDPad,CuDef*
G36*
G01*
X96952597Y-96314990D02*
X97314990Y-95952597D01*
G75*
G02*
X97624350Y-95952597I154680J-154680D01*
G01*
X97933709Y-96261956D01*
G75*
G02*
X97933709Y-96571316I-154680J-154680D01*
G01*
X97571316Y-96933709D01*
G75*
G02*
X97261956Y-96933709I-154680J154680D01*
G01*
X96952597Y-96624350D01*
G75*
G02*
X96952597Y-96314990I154680J154680D01*
G01*
G37*
G04 #@! TD.AperFunction*
D14*
X138650000Y-160800000D03*
X135750000Y-160800000D03*
X135750000Y-158500000D03*
X138650000Y-158500000D03*
G04 #@! TA.AperFunction,SMDPad,CuDef*
D15*
G36*
X126185445Y-159356334D02*
G01*
X125796536Y-159745243D01*
X124665165Y-158613872D01*
X125054074Y-158224963D01*
X126185445Y-159356334D01*
G37*
G04 #@! TD.AperFunction*
G04 #@! TA.AperFunction,SMDPad,CuDef*
G36*
X126751130Y-158790648D02*
G01*
X126362221Y-159179557D01*
X125230850Y-158048186D01*
X125619759Y-157659277D01*
X126751130Y-158790648D01*
G37*
G04 #@! TD.AperFunction*
G04 #@! TA.AperFunction,SMDPad,CuDef*
G36*
X127316816Y-158224963D02*
G01*
X126927907Y-158613872D01*
X125796536Y-157482501D01*
X126185445Y-157093592D01*
X127316816Y-158224963D01*
G37*
G04 #@! TD.AperFunction*
G04 #@! TA.AperFunction,SMDPad,CuDef*
G36*
X127882501Y-157659278D02*
G01*
X127493592Y-158048187D01*
X126362221Y-156916816D01*
X126751130Y-156527907D01*
X127882501Y-157659278D01*
G37*
G04 #@! TD.AperFunction*
G04 #@! TA.AperFunction,SMDPad,CuDef*
G36*
X128448187Y-157093592D02*
G01*
X128059278Y-157482501D01*
X126927907Y-156351130D01*
X127316816Y-155962221D01*
X128448187Y-157093592D01*
G37*
G04 #@! TD.AperFunction*
G04 #@! TA.AperFunction,SMDPad,CuDef*
G36*
X129013872Y-156527907D02*
G01*
X128624963Y-156916816D01*
X127493592Y-155785445D01*
X127882501Y-155396536D01*
X129013872Y-156527907D01*
G37*
G04 #@! TD.AperFunction*
G04 #@! TA.AperFunction,SMDPad,CuDef*
G36*
X129579557Y-155962221D02*
G01*
X129190648Y-156351130D01*
X128059277Y-155219759D01*
X128448186Y-154830850D01*
X129579557Y-155962221D01*
G37*
G04 #@! TD.AperFunction*
G04 #@! TA.AperFunction,SMDPad,CuDef*
G36*
X130145243Y-155396536D02*
G01*
X129756334Y-155785445D01*
X128624963Y-154654074D01*
X129013872Y-154265165D01*
X130145243Y-155396536D01*
G37*
G04 #@! TD.AperFunction*
G04 #@! TA.AperFunction,SMDPad,CuDef*
G36*
X129756334Y-152214555D02*
G01*
X130145243Y-152603464D01*
X129013872Y-153734835D01*
X128624963Y-153345926D01*
X129756334Y-152214555D01*
G37*
G04 #@! TD.AperFunction*
G04 #@! TA.AperFunction,SMDPad,CuDef*
G36*
X129190648Y-151648870D02*
G01*
X129579557Y-152037779D01*
X128448186Y-153169150D01*
X128059277Y-152780241D01*
X129190648Y-151648870D01*
G37*
G04 #@! TD.AperFunction*
G04 #@! TA.AperFunction,SMDPad,CuDef*
G36*
X128624963Y-151083184D02*
G01*
X129013872Y-151472093D01*
X127882501Y-152603464D01*
X127493592Y-152214555D01*
X128624963Y-151083184D01*
G37*
G04 #@! TD.AperFunction*
G04 #@! TA.AperFunction,SMDPad,CuDef*
G36*
X128059278Y-150517499D02*
G01*
X128448187Y-150906408D01*
X127316816Y-152037779D01*
X126927907Y-151648870D01*
X128059278Y-150517499D01*
G37*
G04 #@! TD.AperFunction*
G04 #@! TA.AperFunction,SMDPad,CuDef*
G36*
X127493592Y-149951813D02*
G01*
X127882501Y-150340722D01*
X126751130Y-151472093D01*
X126362221Y-151083184D01*
X127493592Y-149951813D01*
G37*
G04 #@! TD.AperFunction*
G04 #@! TA.AperFunction,SMDPad,CuDef*
G36*
X126927907Y-149386128D02*
G01*
X127316816Y-149775037D01*
X126185445Y-150906408D01*
X125796536Y-150517499D01*
X126927907Y-149386128D01*
G37*
G04 #@! TD.AperFunction*
G04 #@! TA.AperFunction,SMDPad,CuDef*
G36*
X126362221Y-148820443D02*
G01*
X126751130Y-149209352D01*
X125619759Y-150340723D01*
X125230850Y-149951814D01*
X126362221Y-148820443D01*
G37*
G04 #@! TD.AperFunction*
G04 #@! TA.AperFunction,SMDPad,CuDef*
G36*
X125796536Y-148254757D02*
G01*
X126185445Y-148643666D01*
X125054074Y-149775037D01*
X124665165Y-149386128D01*
X125796536Y-148254757D01*
G37*
G04 #@! TD.AperFunction*
G04 #@! TA.AperFunction,SMDPad,CuDef*
G36*
X124134835Y-149386128D02*
G01*
X123745926Y-149775037D01*
X122614555Y-148643666D01*
X123003464Y-148254757D01*
X124134835Y-149386128D01*
G37*
G04 #@! TD.AperFunction*
G04 #@! TA.AperFunction,SMDPad,CuDef*
G36*
X123569150Y-149951814D02*
G01*
X123180241Y-150340723D01*
X122048870Y-149209352D01*
X122437779Y-148820443D01*
X123569150Y-149951814D01*
G37*
G04 #@! TD.AperFunction*
G04 #@! TA.AperFunction,SMDPad,CuDef*
G36*
X123003464Y-150517499D02*
G01*
X122614555Y-150906408D01*
X121483184Y-149775037D01*
X121872093Y-149386128D01*
X123003464Y-150517499D01*
G37*
G04 #@! TD.AperFunction*
G04 #@! TA.AperFunction,SMDPad,CuDef*
G36*
X122437779Y-151083184D02*
G01*
X122048870Y-151472093D01*
X120917499Y-150340722D01*
X121306408Y-149951813D01*
X122437779Y-151083184D01*
G37*
G04 #@! TD.AperFunction*
G04 #@! TA.AperFunction,SMDPad,CuDef*
G36*
X121872093Y-151648870D02*
G01*
X121483184Y-152037779D01*
X120351813Y-150906408D01*
X120740722Y-150517499D01*
X121872093Y-151648870D01*
G37*
G04 #@! TD.AperFunction*
G04 #@! TA.AperFunction,SMDPad,CuDef*
G36*
X121306408Y-152214555D02*
G01*
X120917499Y-152603464D01*
X119786128Y-151472093D01*
X120175037Y-151083184D01*
X121306408Y-152214555D01*
G37*
G04 #@! TD.AperFunction*
G04 #@! TA.AperFunction,SMDPad,CuDef*
G36*
X120740723Y-152780241D02*
G01*
X120351814Y-153169150D01*
X119220443Y-152037779D01*
X119609352Y-151648870D01*
X120740723Y-152780241D01*
G37*
G04 #@! TD.AperFunction*
G04 #@! TA.AperFunction,SMDPad,CuDef*
G36*
X120175037Y-153345926D02*
G01*
X119786128Y-153734835D01*
X118654757Y-152603464D01*
X119043666Y-152214555D01*
X120175037Y-153345926D01*
G37*
G04 #@! TD.AperFunction*
G04 #@! TA.AperFunction,SMDPad,CuDef*
G36*
X119786128Y-154265165D02*
G01*
X120175037Y-154654074D01*
X119043666Y-155785445D01*
X118654757Y-155396536D01*
X119786128Y-154265165D01*
G37*
G04 #@! TD.AperFunction*
G04 #@! TA.AperFunction,SMDPad,CuDef*
G36*
X120351814Y-154830850D02*
G01*
X120740723Y-155219759D01*
X119609352Y-156351130D01*
X119220443Y-155962221D01*
X120351814Y-154830850D01*
G37*
G04 #@! TD.AperFunction*
G04 #@! TA.AperFunction,SMDPad,CuDef*
G36*
X120917499Y-155396536D02*
G01*
X121306408Y-155785445D01*
X120175037Y-156916816D01*
X119786128Y-156527907D01*
X120917499Y-155396536D01*
G37*
G04 #@! TD.AperFunction*
G04 #@! TA.AperFunction,SMDPad,CuDef*
G36*
X121483184Y-155962221D02*
G01*
X121872093Y-156351130D01*
X120740722Y-157482501D01*
X120351813Y-157093592D01*
X121483184Y-155962221D01*
G37*
G04 #@! TD.AperFunction*
G04 #@! TA.AperFunction,SMDPad,CuDef*
G36*
X122048870Y-156527907D02*
G01*
X122437779Y-156916816D01*
X121306408Y-158048187D01*
X120917499Y-157659278D01*
X122048870Y-156527907D01*
G37*
G04 #@! TD.AperFunction*
G04 #@! TA.AperFunction,SMDPad,CuDef*
G36*
X122614555Y-157093592D02*
G01*
X123003464Y-157482501D01*
X121872093Y-158613872D01*
X121483184Y-158224963D01*
X122614555Y-157093592D01*
G37*
G04 #@! TD.AperFunction*
G04 #@! TA.AperFunction,SMDPad,CuDef*
G36*
X123180241Y-157659277D02*
G01*
X123569150Y-158048186D01*
X122437779Y-159179557D01*
X122048870Y-158790648D01*
X123180241Y-157659277D01*
G37*
G04 #@! TD.AperFunction*
G04 #@! TA.AperFunction,SMDPad,CuDef*
G36*
X123745926Y-158224963D02*
G01*
X124134835Y-158613872D01*
X123003464Y-159745243D01*
X122614555Y-159356334D01*
X123745926Y-158224963D01*
G37*
G04 #@! TD.AperFunction*
D16*
X69000000Y-104600000D03*
X69000000Y-95900000D03*
X69000000Y-89200000D03*
X101150000Y-131500000D03*
X107850000Y-131500000D03*
X116550000Y-131500000D03*
X154400000Y-94700000D03*
X154400000Y-103400000D03*
X154400000Y-110100000D03*
X82900000Y-153750000D03*
X82900000Y-158750000D03*
X77900000Y-158750000D03*
X77900000Y-153750000D03*
D17*
X135500000Y-144500000D03*
D18*
X138040000Y-144500000D03*
D19*
X105550000Y-125250000D03*
X117800000Y-125250000D03*
D17*
X121800000Y-129200000D03*
D18*
X124340000Y-129200000D03*
X126880000Y-129200000D03*
X129420000Y-129200000D03*
X131960000Y-129200000D03*
D20*
X140750000Y-161500000D03*
X136750000Y-156500000D03*
X65899999Y-77171705D03*
X65899999Y-87171705D03*
X65899999Y-97171705D03*
X65899999Y-107171705D03*
X65899999Y-117171705D03*
X65899999Y-127171705D03*
X65899999Y-137171705D03*
X65899999Y-147171705D03*
X65899999Y-157171705D03*
X67899999Y-165171705D03*
X70899999Y-82171705D03*
X70899999Y-92171705D03*
X70899999Y-102171705D03*
X70899999Y-112171705D03*
X70899999Y-122171705D03*
X70899999Y-132171705D03*
X70899999Y-142171705D03*
X70899999Y-152171705D03*
X72899999Y-160171705D03*
X75899999Y-77171705D03*
X75899999Y-87171705D03*
X75899999Y-97171705D03*
X75899999Y-107171705D03*
X75899999Y-137171705D03*
X75899999Y-147171705D03*
X77899999Y-165171705D03*
X79899999Y-131171705D03*
X79899999Y-156171705D03*
X80899999Y-82171705D03*
X80899999Y-92171705D03*
X80899999Y-102171705D03*
X80899999Y-142171705D03*
X83899999Y-109171705D03*
X83899999Y-149171705D03*
X84899999Y-136171705D03*
X85899999Y-77171705D03*
X85899999Y-87171705D03*
X85899999Y-97171705D03*
X86899999Y-159171705D03*
X88899999Y-104171705D03*
X88899999Y-144171705D03*
X89899999Y-131171705D03*
X90899999Y-82171705D03*
X90899999Y-92171705D03*
X90899999Y-152171705D03*
X92899999Y-163171705D03*
X93899999Y-99171705D03*
X93899999Y-109171705D03*
X93899999Y-138171705D03*
X96899999Y-146171705D03*
X96899999Y-156171705D03*
X98899999Y-67171705D03*
X100899999Y-45171705D03*
X100899999Y-55171705D03*
X101899999Y-101171705D03*
X101899999Y-140171705D03*
X103899999Y-150171705D03*
X104899999Y-63171705D03*
X104899999Y-112171705D03*
X105899999Y-50171705D03*
X105899999Y-121171705D03*
X106899999Y-134171705D03*
X108899999Y-57171705D03*
X108899999Y-104171705D03*
X108899999Y-163171705D03*
X110899999Y-45171705D03*
X110899999Y-126171705D03*
X113899999Y-52171705D03*
X114899999Y-61171705D03*
X115899999Y-141171705D03*
X116899999Y-102171705D03*
X116899999Y-112171705D03*
X118899999Y-47171705D03*
X118899999Y-129171705D03*
X118899999Y-163171705D03*
X119899999Y-56171705D03*
X119899999Y-66171705D03*
X119899999Y-119171705D03*
X121899999Y-136171705D03*
X121899999Y-146171705D03*
X124899999Y-51171705D03*
X124899999Y-61171705D03*
X124899999Y-114171705D03*
X124899999Y-124171705D03*
X128899999Y-45171705D03*
X128899999Y-67171705D03*
X128899999Y-95171705D03*
X128899999Y-139171705D03*
X129899999Y-56171705D03*
X129899999Y-165171705D03*
X130899999Y-147171705D03*
X131899999Y-74171705D03*
X131899999Y-84171705D03*
X131899999Y-132171705D03*
X133899999Y-50171705D03*
X133899999Y-62171705D03*
X134899999Y-91171705D03*
X136899999Y-69171705D03*
X136899999Y-79171705D03*
X137899999Y-140171705D03*
X138899999Y-155171705D03*
X139899999Y-86171705D03*
X139899999Y-96171705D03*
X139899999Y-164171705D03*
X140899999Y-147171705D03*
X142899999Y-75171705D03*
X142899999Y-134171705D03*
X143899999Y-102171705D03*
X144899999Y-91171705D03*
X144899999Y-159171705D03*
X145899999Y-82171705D03*
X145899999Y-142171705D03*
X146899999Y-109171705D03*
X146899999Y-128171705D03*
X146899999Y-151171705D03*
X148899999Y-97171705D03*
X148899999Y-165171705D03*
X150899999Y-77171705D03*
X150899999Y-87171705D03*
X150899999Y-115171705D03*
X150899999Y-136171705D03*
X151899999Y-146171705D03*
X151899999Y-156171705D03*
X152899999Y-123171705D03*
X153899999Y-106171705D03*
X155899999Y-82171705D03*
X155899999Y-92171705D03*
X155899999Y-130171705D03*
X155899999Y-162171705D03*
X156899999Y-140171705D03*
X156899999Y-151171705D03*
X120800000Y-148600000D03*
X115250000Y-157250000D03*
X122054899Y-160304899D03*
X128584315Y-158749999D03*
X112800000Y-116800000D03*
X125500000Y-134500000D03*
X117500000Y-149000000D03*
X104434315Y-106275999D03*
X116500000Y-146750000D03*
X104500000Y-104550000D03*
X108250000Y-137250000D03*
X115500000Y-152750000D03*
X118250000Y-156000000D03*
X105200000Y-100900000D03*
X115530331Y-148469669D03*
X122000000Y-153500000D03*
X122800000Y-152600000D03*
X118600000Y-141200000D03*
X129000000Y-149500000D03*
X134750000Y-154500000D03*
X125750000Y-155500000D03*
X127750000Y-154500000D03*
X130733035Y-155233035D03*
D21*
X105250000Y-157000000D02*
X105250000Y-160250000D01*
X104462500Y-156000000D02*
X104462500Y-156212500D01*
X104462500Y-156212500D02*
X105250000Y-157000000D01*
X107250000Y-156462500D02*
X107712500Y-156000000D01*
X107250000Y-160250000D02*
X107250000Y-156462500D01*
D22*
X138850000Y-160600000D02*
X138650000Y-160800000D01*
X141000000Y-160600000D02*
X138850000Y-160600000D01*
X133800000Y-158500000D02*
X133250000Y-159050000D01*
X135750000Y-158500000D02*
X133800000Y-158500000D01*
X131500000Y-159212500D02*
X131037500Y-158750000D01*
X102430001Y-153107499D02*
X101287500Y-154250000D01*
X100000000Y-152100000D02*
X100000000Y-151294998D01*
X100000000Y-151294998D02*
X100224999Y-151069999D01*
X117687510Y-158975010D02*
X117174112Y-158461612D01*
X118859304Y-158975010D02*
X117687510Y-158975010D01*
X117174112Y-158461612D02*
X116712500Y-158000000D01*
X121111953Y-156722361D02*
X118859304Y-158975010D01*
X129602945Y-160900001D02*
X131349999Y-160900001D01*
X126556676Y-157853732D02*
X129602945Y-160900001D01*
X132212500Y-160037500D02*
X132212500Y-159212500D01*
X131349999Y-160900001D02*
X132212500Y-160037500D01*
X133250000Y-159212500D02*
X132212500Y-159212500D01*
X132212500Y-159212500D02*
X131500000Y-159212500D01*
X141000000Y-160437500D02*
X141000000Y-161250000D01*
X141000000Y-161250000D02*
X140750000Y-161500000D01*
X136750000Y-157500000D02*
X135750000Y-158500000D01*
X136750000Y-156500000D02*
X136750000Y-157500000D01*
X102430001Y-151569999D02*
X101930001Y-151069999D01*
X100224999Y-151069999D02*
X101930001Y-151069999D01*
X102430001Y-151569999D02*
X102430001Y-153107499D01*
X101287500Y-158287500D02*
X103250000Y-160250000D01*
X101287500Y-154250000D02*
X101287500Y-158287500D01*
X112750000Y-160250000D02*
X109250000Y-160250000D01*
X114500000Y-162000000D02*
X112750000Y-160250000D01*
X122809010Y-158419417D02*
X119228427Y-162000000D01*
X119228427Y-162000000D02*
X114500000Y-162000000D01*
X99050000Y-153587500D02*
X99712500Y-154250000D01*
X99050000Y-152100000D02*
X99050000Y-153587500D01*
X100950000Y-153012500D02*
X100950000Y-152100000D01*
X99712500Y-154250000D02*
X100950000Y-153012500D01*
X107250000Y-162250000D02*
X109250000Y-160250000D01*
X102250000Y-162250000D02*
X107250000Y-162250000D01*
X100250000Y-160250000D02*
X102250000Y-162250000D01*
X99712500Y-154250000D02*
X100250000Y-154787500D01*
X100250000Y-154787500D02*
X100250000Y-160250000D01*
D21*
X120800000Y-148702944D02*
X122243324Y-150146268D01*
X120800000Y-148600000D02*
X120800000Y-148702944D01*
X139012500Y-158862500D02*
X138650000Y-158500000D01*
X141000000Y-158862500D02*
X139012500Y-158862500D01*
X128940202Y-162500000D02*
X141442501Y-162500000D01*
X142250000Y-161692501D02*
X142250000Y-159500000D01*
X125425305Y-158985103D02*
X128940202Y-162500000D01*
X142250000Y-159500000D02*
X141612500Y-158862500D01*
X141612500Y-158862500D02*
X141000000Y-158862500D01*
X141442501Y-162500000D02*
X142250000Y-161692501D01*
X129321573Y-161750000D02*
X125990990Y-158419417D01*
X133250000Y-160950000D02*
X132450000Y-161750000D01*
X132450000Y-161750000D02*
X129321573Y-161750000D01*
X133262500Y-160800000D02*
X133250000Y-160787500D01*
X135750000Y-160800000D02*
X133262500Y-160800000D01*
X118702944Y-158000000D02*
X120546268Y-156156676D01*
X118450000Y-158000000D02*
X118702944Y-158000000D01*
X132212500Y-156000000D02*
X129462500Y-158750000D01*
X133212500Y-156000000D02*
X132212500Y-156000000D01*
X128584314Y-158750000D02*
X127122361Y-157288047D01*
X129462500Y-158750000D02*
X128584314Y-158750000D01*
X99050000Y-149900000D02*
X99050000Y-149200000D01*
X99050000Y-149200000D02*
X99500000Y-148750000D01*
X108212500Y-148750000D02*
X115212500Y-155750000D01*
X99500000Y-148750000D02*
X108212500Y-148750000D01*
X115212500Y-157212500D02*
X115250000Y-157250000D01*
X115212500Y-155750000D02*
X115212500Y-157212500D01*
X122054899Y-160304899D02*
X123374695Y-158985103D01*
X95900000Y-149900000D02*
X99050000Y-149900000D01*
X92500000Y-146500000D02*
X95900000Y-149900000D01*
X121800000Y-131187500D02*
X124300000Y-133687500D01*
X121800000Y-129200000D02*
X121800000Y-131187500D01*
X112800000Y-116800000D02*
X112800000Y-121800000D01*
X112800000Y-121800000D02*
X100200000Y-134400000D01*
X100200000Y-134400000D02*
X95400000Y-134400000D01*
X92500000Y-137300000D02*
X92500000Y-146500000D01*
X95400000Y-134400000D02*
X92500000Y-137300000D01*
X121300000Y-103800000D02*
X126243153Y-98856847D01*
X112800000Y-116800000D02*
X95250000Y-99250000D01*
X95250000Y-98636306D02*
X96243153Y-97643153D01*
X95250000Y-99250000D02*
X95250000Y-98636306D01*
X96243153Y-97643153D02*
X93150000Y-94550000D01*
X93150000Y-72250000D02*
X96143153Y-69256847D01*
X93150000Y-94550000D02*
X93150000Y-72250000D01*
X96143153Y-69256847D02*
X96143153Y-67556847D01*
X96143153Y-67556847D02*
X102350000Y-61350000D01*
X111587500Y-61350000D02*
X112637500Y-62400000D01*
X102350000Y-61350000D02*
X111587500Y-61350000D01*
X112637500Y-62400000D02*
X122400000Y-62400000D01*
X127406847Y-67406847D02*
X127406847Y-69256847D01*
X122400000Y-62400000D02*
X127406847Y-67406847D01*
X121300000Y-128700000D02*
X121800000Y-129200000D01*
X121300000Y-103800000D02*
X121300000Y-128700000D01*
X124592888Y-133499992D02*
X126612492Y-133499992D01*
X124405380Y-133687500D02*
X124592888Y-133499992D01*
X126612492Y-133499992D02*
X126800000Y-133687500D01*
X124300000Y-133687500D02*
X124405380Y-133687500D01*
X124300000Y-132112500D02*
X124300000Y-129240000D01*
X125425305Y-149014897D02*
X125425305Y-148974695D01*
X125425305Y-148974695D02*
X126200000Y-148200000D01*
X126200000Y-148200000D02*
X126200000Y-135400000D01*
X126200000Y-135200000D02*
X125500000Y-134500000D01*
X126200000Y-135400000D02*
X126200000Y-135200000D01*
X126800000Y-132112500D02*
X126800000Y-129280000D01*
X127625010Y-129945010D02*
X126880000Y-129200000D01*
X127625010Y-147946563D02*
X127625010Y-129945010D01*
X125990990Y-149580583D02*
X127625010Y-147946563D01*
X97356847Y-98756847D02*
X98556847Y-97556847D01*
X120343324Y-151843324D02*
X120546268Y-151843324D01*
X117500000Y-149000000D02*
X120343324Y-151843324D01*
X98609897Y-96443153D02*
X99700000Y-97533256D01*
X97443153Y-96443153D02*
X98609897Y-96443153D01*
X99700000Y-101541684D02*
X104434315Y-106275999D01*
X99700000Y-97533256D02*
X99700000Y-101541684D01*
X97306847Y-68143153D02*
X98556847Y-69393153D01*
X97256847Y-68143153D02*
X97306847Y-68143153D01*
X116500000Y-149110002D02*
X117639998Y-150250000D01*
X116500000Y-146750000D02*
X116500000Y-149110002D01*
X117821573Y-150250000D02*
X119980583Y-152409010D01*
X117639998Y-150250000D02*
X117821573Y-150250000D01*
X93800000Y-90926136D02*
X93800000Y-74150000D01*
X93800000Y-74150000D02*
X97443153Y-70506847D01*
X104500000Y-101626136D02*
X93800000Y-90926136D01*
X104500000Y-104550000D02*
X104500000Y-101626136D01*
X111062500Y-62400000D02*
X111062500Y-64150000D01*
X108250000Y-137250000D02*
X111250000Y-140250000D01*
X111250000Y-148500000D02*
X115500000Y-152750000D01*
X111250000Y-140250000D02*
X111250000Y-148500000D01*
X118440202Y-156000000D02*
X119414897Y-155025305D01*
X118250000Y-156000000D02*
X118440202Y-156000000D01*
X104480984Y-100900000D02*
X105200000Y-100900000D01*
X94300010Y-74816734D02*
X94300010Y-90719026D01*
X104116744Y-65000000D02*
X94300010Y-74816734D01*
X111787500Y-65000000D02*
X104116744Y-65000000D01*
X94300010Y-90719026D02*
X104480984Y-100900000D01*
X112637500Y-64150000D02*
X111787500Y-65000000D01*
X126293153Y-68143153D02*
X125043153Y-69393153D01*
X122000000Y-153571573D02*
X119980583Y-155590990D01*
X122000000Y-153500000D02*
X122000000Y-153571573D01*
X130350000Y-74700000D02*
X126156847Y-70506847D01*
X130350000Y-91183256D02*
X130350000Y-74700000D01*
X113919999Y-107613257D02*
X130350000Y-91183256D01*
X113919999Y-146859337D02*
X113919999Y-107613257D01*
X115530331Y-148469669D02*
X113919999Y-146859337D01*
X126156847Y-96543153D02*
X127356847Y-97743153D01*
X126182105Y-156177897D02*
X125760002Y-156600000D01*
X127143583Y-156177897D02*
X126182105Y-156177897D01*
X127688047Y-156722361D02*
X127143583Y-156177897D01*
X125760002Y-156600000D02*
X125400000Y-156600000D01*
X125400000Y-156600000D02*
X123600000Y-154800000D01*
X123600000Y-153400000D02*
X122800000Y-152600000D01*
X123600000Y-154800000D02*
X123600000Y-153400000D01*
X115199999Y-137799999D02*
X118600000Y-141200000D01*
X115199999Y-107500001D02*
X115199999Y-137799999D01*
X125043153Y-97656847D02*
X115199999Y-107500001D01*
X97050000Y-139450000D02*
X97050000Y-143550000D01*
X97050000Y-143550000D02*
X104587500Y-143550000D01*
X119414897Y-152974695D02*
X119414897Y-152914897D01*
X119414897Y-152914897D02*
X118750000Y-152250000D01*
X118750000Y-152250000D02*
X117250000Y-152250000D01*
X115643750Y-153856250D02*
X114893750Y-153856250D01*
X117250000Y-152250000D02*
X115643750Y-153856250D01*
X114893750Y-153856250D02*
X116787500Y-155750000D01*
X104587500Y-143550000D02*
X114893750Y-153856250D01*
X128334314Y-149500000D02*
X129000000Y-149500000D01*
X127122361Y-150711953D02*
X128334314Y-149500000D01*
X134750000Y-155962500D02*
X134787500Y-156000000D01*
X134750000Y-154500000D02*
X134750000Y-155962500D01*
X135550000Y-153700000D02*
X134750000Y-154500000D01*
X148250000Y-153700000D02*
X135550000Y-153700000D01*
X118715686Y-160250000D02*
X115500000Y-160250000D01*
X115500000Y-160250000D02*
X111750000Y-156500000D01*
X121677639Y-157288047D02*
X118715686Y-160250000D01*
X106499112Y-155538388D02*
X106037500Y-156000000D01*
X109783262Y-155074990D02*
X106962510Y-155074990D01*
X106962510Y-155074990D02*
X106499112Y-155538388D01*
X111208272Y-156500000D02*
X109783262Y-155074990D01*
X111750000Y-156500000D02*
X111208272Y-156500000D01*
X110850010Y-157100010D02*
X109750000Y-156000000D01*
X111501468Y-157100010D02*
X110850010Y-157100010D01*
X122137274Y-157853732D02*
X121492809Y-158498197D01*
X121492809Y-158498197D02*
X121316031Y-158498197D01*
X109750000Y-156000000D02*
X109287500Y-156000000D01*
X122243324Y-157853732D02*
X122137274Y-157853732D01*
X121316031Y-158498197D02*
X118964219Y-160850009D01*
X115251467Y-160850009D02*
X111501468Y-157100010D01*
X118964219Y-160850009D02*
X115251467Y-160850009D01*
X128730988Y-152409010D02*
X128819417Y-152409010D01*
X125750000Y-155389998D02*
X128730988Y-152409010D01*
X125750000Y-155500000D02*
X125750000Y-155389998D01*
X127859798Y-154500000D02*
X129385103Y-152974695D01*
X127750000Y-154500000D02*
X127859798Y-154500000D01*
X136839999Y-137147161D02*
X136839999Y-148016069D01*
X136852839Y-137147161D02*
X136839999Y-137147161D01*
X143750000Y-130250000D02*
X136852839Y-137147161D01*
X129830763Y-155025305D02*
X129385103Y-155025305D01*
X136839999Y-148016069D02*
X129830763Y-155025305D01*
X149500000Y-130250000D02*
X143750000Y-130250000D01*
X154400000Y-125350000D02*
X149500000Y-130250000D01*
X154400000Y-110100000D02*
X154400000Y-125350000D01*
X130733035Y-155303735D02*
X130733035Y-155233035D01*
X129901315Y-156135455D02*
X130733035Y-155303735D01*
X129363882Y-156135455D02*
X129901315Y-156135455D01*
X128819417Y-155590990D02*
X129363882Y-156135455D01*
X138000000Y-151000000D02*
X138000000Y-144540000D01*
X136250000Y-152750000D02*
X138000000Y-151000000D01*
X134276732Y-152750000D02*
X136250000Y-152750000D01*
X130191267Y-156835465D02*
X134276732Y-152750000D01*
X138000000Y-144540000D02*
X138040000Y-144500000D01*
X128932521Y-156835465D02*
X130191267Y-156835465D01*
X128253732Y-156156676D02*
X128932521Y-156835465D01*
D23*
X139155000Y-73036353D02*
X139151686Y-73070000D01*
X139164912Y-73204283D01*
X139204081Y-73333406D01*
X139267688Y-73452407D01*
X139353289Y-73556711D01*
X139433072Y-73622188D01*
X139457593Y-73642312D01*
X139576594Y-73705919D01*
X139705717Y-73745088D01*
X139840000Y-73758314D01*
X139873647Y-73755000D01*
X158615001Y-73755000D01*
X158615000Y-167065000D01*
X64685000Y-167065000D01*
X64685000Y-158588967D01*
X76265000Y-158588967D01*
X76265000Y-158911033D01*
X76327832Y-159226912D01*
X76451082Y-159524463D01*
X76630013Y-159792252D01*
X76857748Y-160019987D01*
X77125537Y-160198918D01*
X77423088Y-160322168D01*
X77738967Y-160385000D01*
X78061033Y-160385000D01*
X78376912Y-160322168D01*
X78674463Y-160198918D01*
X78942252Y-160019987D01*
X79169987Y-159792252D01*
X79348918Y-159524463D01*
X79472168Y-159226912D01*
X79535000Y-158911033D01*
X79535000Y-158588967D01*
X81265000Y-158588967D01*
X81265000Y-158911033D01*
X81327832Y-159226912D01*
X81451082Y-159524463D01*
X81630013Y-159792252D01*
X81857748Y-160019987D01*
X82125537Y-160198918D01*
X82423088Y-160322168D01*
X82738967Y-160385000D01*
X83061033Y-160385000D01*
X83376912Y-160322168D01*
X83674463Y-160198918D01*
X83942252Y-160019987D01*
X84169987Y-159792252D01*
X84348918Y-159524463D01*
X84472168Y-159226912D01*
X84535000Y-158911033D01*
X84535000Y-158588967D01*
X84472168Y-158273088D01*
X84348918Y-157975537D01*
X84169987Y-157707748D01*
X83942252Y-157480013D01*
X83674463Y-157301082D01*
X83376912Y-157177832D01*
X83061033Y-157115000D01*
X82738967Y-157115000D01*
X82423088Y-157177832D01*
X82125537Y-157301082D01*
X81857748Y-157480013D01*
X81630013Y-157707748D01*
X81451082Y-157975537D01*
X81327832Y-158273088D01*
X81265000Y-158588967D01*
X79535000Y-158588967D01*
X79472168Y-158273088D01*
X79348918Y-157975537D01*
X79169987Y-157707748D01*
X78942252Y-157480013D01*
X78674463Y-157301082D01*
X78376912Y-157177832D01*
X78061033Y-157115000D01*
X77738967Y-157115000D01*
X77423088Y-157177832D01*
X77125537Y-157301082D01*
X76857748Y-157480013D01*
X76630013Y-157707748D01*
X76451082Y-157975537D01*
X76327832Y-158273088D01*
X76265000Y-158588967D01*
X64685000Y-158588967D01*
X64685000Y-153588967D01*
X76265000Y-153588967D01*
X76265000Y-153911033D01*
X76327832Y-154226912D01*
X76451082Y-154524463D01*
X76630013Y-154792252D01*
X76857748Y-155019987D01*
X77125537Y-155198918D01*
X77423088Y-155322168D01*
X77738967Y-155385000D01*
X78061033Y-155385000D01*
X78376912Y-155322168D01*
X78674463Y-155198918D01*
X78942252Y-155019987D01*
X79076826Y-154885413D01*
X81944192Y-154885413D01*
X82039956Y-155149814D01*
X82329571Y-155290704D01*
X82641108Y-155372384D01*
X82962595Y-155391718D01*
X83281675Y-155347961D01*
X83586088Y-155242795D01*
X83760044Y-155149814D01*
X83855808Y-154885413D01*
X82900000Y-153929605D01*
X81944192Y-154885413D01*
X79076826Y-154885413D01*
X79169987Y-154792252D01*
X79348918Y-154524463D01*
X79472168Y-154226912D01*
X79535000Y-153911033D01*
X79535000Y-153812595D01*
X81258282Y-153812595D01*
X81302039Y-154131675D01*
X81407205Y-154436088D01*
X81500186Y-154610044D01*
X81764587Y-154705808D01*
X82720395Y-153750000D01*
X83079605Y-153750000D01*
X84035413Y-154705808D01*
X84299814Y-154610044D01*
X84440704Y-154320429D01*
X84522384Y-154008892D01*
X84541718Y-153687405D01*
X84497961Y-153368325D01*
X84392795Y-153063912D01*
X84299814Y-152889956D01*
X84035413Y-152794192D01*
X83079605Y-153750000D01*
X82720395Y-153750000D01*
X81764587Y-152794192D01*
X81500186Y-152889956D01*
X81359296Y-153179571D01*
X81277616Y-153491108D01*
X81258282Y-153812595D01*
X79535000Y-153812595D01*
X79535000Y-153588967D01*
X79472168Y-153273088D01*
X79348918Y-152975537D01*
X79169987Y-152707748D01*
X79076826Y-152614587D01*
X81944192Y-152614587D01*
X82900000Y-153570395D01*
X83855808Y-152614587D01*
X83760044Y-152350186D01*
X83470429Y-152209296D01*
X83158892Y-152127616D01*
X82837405Y-152108282D01*
X82518325Y-152152039D01*
X82213912Y-152257205D01*
X82039956Y-152350186D01*
X81944192Y-152614587D01*
X79076826Y-152614587D01*
X78942252Y-152480013D01*
X78674463Y-152301082D01*
X78376912Y-152177832D01*
X78061033Y-152115000D01*
X77738967Y-152115000D01*
X77423088Y-152177832D01*
X77125537Y-152301082D01*
X76857748Y-152480013D01*
X76630013Y-152707748D01*
X76451082Y-152975537D01*
X76327832Y-153273088D01*
X76265000Y-153588967D01*
X64685000Y-153588967D01*
X64685000Y-111020000D01*
X74771686Y-111020000D01*
X74775000Y-111053647D01*
X74775001Y-128766343D01*
X74771686Y-128800000D01*
X74784912Y-128934283D01*
X74824081Y-129063406D01*
X74887688Y-129182407D01*
X74973289Y-129286711D01*
X75077593Y-129372312D01*
X75196594Y-129435919D01*
X75325717Y-129475088D01*
X75426353Y-129485000D01*
X75460000Y-129488314D01*
X75493647Y-129485000D01*
X102286353Y-129485000D01*
X102320000Y-129488314D01*
X102454283Y-129475088D01*
X102583406Y-129435919D01*
X102702407Y-129372312D01*
X102806711Y-129286711D01*
X102892312Y-129182407D01*
X102955919Y-129063406D01*
X102995088Y-128934283D01*
X103005000Y-128833647D01*
X103008314Y-128800000D01*
X103005000Y-128766353D01*
X103005000Y-126505753D01*
X103172982Y-126820024D01*
X103560225Y-127060170D01*
X105370395Y-125250000D01*
X103560225Y-123439830D01*
X103172982Y-123679976D01*
X103005000Y-123998315D01*
X103005000Y-123260225D01*
X103739830Y-123260225D01*
X105550000Y-125070395D01*
X107360170Y-123260225D01*
X107120024Y-122872982D01*
X106626123Y-122612359D01*
X106090867Y-122453099D01*
X105534826Y-122401322D01*
X104979368Y-122459019D01*
X104445839Y-122623972D01*
X103979976Y-122872982D01*
X103739830Y-123260225D01*
X103005000Y-123260225D01*
X103005000Y-111053647D01*
X103008314Y-111020000D01*
X102995088Y-110885717D01*
X102955919Y-110756594D01*
X102892312Y-110637593D01*
X102806711Y-110533289D01*
X102702407Y-110447688D01*
X102583406Y-110384081D01*
X102454283Y-110344912D01*
X102353647Y-110335000D01*
X102320000Y-110331686D01*
X102286353Y-110335000D01*
X75493647Y-110335000D01*
X75460000Y-110331686D01*
X75426353Y-110335000D01*
X75325717Y-110344912D01*
X75196594Y-110384081D01*
X75077593Y-110447688D01*
X74973289Y-110533289D01*
X74887688Y-110637593D01*
X74824081Y-110756594D01*
X74784912Y-110885717D01*
X74771686Y-111020000D01*
X64685000Y-111020000D01*
X64685000Y-105735413D01*
X68044192Y-105735413D01*
X68139956Y-105999814D01*
X68429571Y-106140704D01*
X68741108Y-106222384D01*
X69062595Y-106241718D01*
X69381675Y-106197961D01*
X69686088Y-106092795D01*
X69860044Y-105999814D01*
X69955808Y-105735413D01*
X69000000Y-104779605D01*
X68044192Y-105735413D01*
X64685000Y-105735413D01*
X64685000Y-104662595D01*
X67358282Y-104662595D01*
X67402039Y-104981675D01*
X67507205Y-105286088D01*
X67600186Y-105460044D01*
X67864587Y-105555808D01*
X68820395Y-104600000D01*
X69179605Y-104600000D01*
X70135413Y-105555808D01*
X70399814Y-105460044D01*
X70540704Y-105170429D01*
X70622384Y-104858892D01*
X70641718Y-104537405D01*
X70597961Y-104218325D01*
X70492795Y-103913912D01*
X70399814Y-103739956D01*
X70135413Y-103644192D01*
X69179605Y-104600000D01*
X68820395Y-104600000D01*
X67864587Y-103644192D01*
X67600186Y-103739956D01*
X67459296Y-104029571D01*
X67377616Y-104341108D01*
X67358282Y-104662595D01*
X64685000Y-104662595D01*
X64685000Y-103464587D01*
X68044192Y-103464587D01*
X69000000Y-104420395D01*
X69955808Y-103464587D01*
X69860044Y-103200186D01*
X69570429Y-103059296D01*
X69258892Y-102977616D01*
X68937405Y-102958282D01*
X68618325Y-103002039D01*
X68313912Y-103107205D01*
X68139956Y-103200186D01*
X68044192Y-103464587D01*
X64685000Y-103464587D01*
X64685000Y-95738967D01*
X67365000Y-95738967D01*
X67365000Y-96061033D01*
X67427832Y-96376912D01*
X67551082Y-96674463D01*
X67730013Y-96942252D01*
X67957748Y-97169987D01*
X68225537Y-97348918D01*
X68523088Y-97472168D01*
X68838967Y-97535000D01*
X69161033Y-97535000D01*
X69476912Y-97472168D01*
X69774463Y-97348918D01*
X70042252Y-97169987D01*
X70269987Y-96942252D01*
X70448918Y-96674463D01*
X70572168Y-96376912D01*
X70635000Y-96061033D01*
X70635000Y-95738967D01*
X70572168Y-95423088D01*
X70448918Y-95125537D01*
X70269987Y-94857748D01*
X70042252Y-94630013D01*
X69774463Y-94451082D01*
X69476912Y-94327832D01*
X69161033Y-94265000D01*
X68838967Y-94265000D01*
X68523088Y-94327832D01*
X68225537Y-94451082D01*
X67957748Y-94630013D01*
X67730013Y-94857748D01*
X67551082Y-95125537D01*
X67427832Y-95423088D01*
X67365000Y-95738967D01*
X64685000Y-95738967D01*
X64685000Y-89038967D01*
X67365000Y-89038967D01*
X67365000Y-89361033D01*
X67427832Y-89676912D01*
X67551082Y-89974463D01*
X67730013Y-90242252D01*
X67957748Y-90469987D01*
X68225537Y-90648918D01*
X68523088Y-90772168D01*
X68838967Y-90835000D01*
X69161033Y-90835000D01*
X69476912Y-90772168D01*
X69774463Y-90648918D01*
X70042252Y-90469987D01*
X70269987Y-90242252D01*
X70448918Y-89974463D01*
X70572168Y-89676912D01*
X70635000Y-89361033D01*
X70635000Y-89038967D01*
X70572168Y-88723088D01*
X70448918Y-88425537D01*
X70269987Y-88157748D01*
X70042252Y-87930013D01*
X69774463Y-87751082D01*
X69476912Y-87627832D01*
X69161033Y-87565000D01*
X68838967Y-87565000D01*
X68523088Y-87627832D01*
X68225537Y-87751082D01*
X67957748Y-87930013D01*
X67730013Y-88157748D01*
X67551082Y-88425537D01*
X67427832Y-88723088D01*
X67365000Y-89038967D01*
X64685000Y-89038967D01*
X64685000Y-75405000D01*
X88392849Y-75405000D01*
X88452984Y-75406270D01*
X88493403Y-75399114D01*
X88534283Y-75395088D01*
X88559703Y-75387377D01*
X88585850Y-75382748D01*
X88624103Y-75367841D01*
X88663406Y-75355919D01*
X88686837Y-75343395D01*
X88711575Y-75333755D01*
X88746179Y-75311676D01*
X88782407Y-75292312D01*
X88802943Y-75275458D01*
X88825326Y-75261177D01*
X88854965Y-75232764D01*
X88886711Y-75206711D01*
X88924914Y-75160161D01*
X95358154Y-67650443D01*
X95358153Y-68467724D01*
X95201412Y-68624465D01*
X95094856Y-68754305D01*
X95015677Y-68902438D01*
X94966919Y-69063172D01*
X94950455Y-69230330D01*
X94960233Y-69329610D01*
X92622185Y-71667658D01*
X92592237Y-71692236D01*
X92567659Y-71722184D01*
X92567655Y-71722188D01*
X92545312Y-71749413D01*
X92494139Y-71811767D01*
X92455177Y-71884660D01*
X92421246Y-71948141D01*
X92376359Y-72096114D01*
X92361203Y-72250000D01*
X92365001Y-72288563D01*
X92365000Y-94511447D01*
X92361203Y-94550000D01*
X92365000Y-94588553D01*
X92365000Y-94588560D01*
X92376359Y-94703886D01*
X92421246Y-94851859D01*
X92494138Y-94988232D01*
X92592236Y-95107764D01*
X92622190Y-95132347D01*
X95060233Y-97570391D01*
X95050455Y-97669670D01*
X95055478Y-97720670D01*
X94722185Y-98053964D01*
X94692237Y-98078542D01*
X94667659Y-98108490D01*
X94667655Y-98108494D01*
X94654548Y-98124465D01*
X94594139Y-98198073D01*
X94521246Y-98334446D01*
X94476359Y-98482419D01*
X94465000Y-98597745D01*
X94465000Y-98597753D01*
X94461203Y-98636306D01*
X94465000Y-98674859D01*
X94465000Y-99211447D01*
X94461203Y-99250000D01*
X94465000Y-99288553D01*
X94465000Y-99288560D01*
X94476359Y-99403886D01*
X94521246Y-99551859D01*
X94594138Y-99688232D01*
X94692236Y-99807764D01*
X94722190Y-99832347D01*
X111765000Y-116875158D01*
X111765000Y-116901939D01*
X111804774Y-117101898D01*
X111882795Y-117290256D01*
X111996063Y-117459774D01*
X112015000Y-117478711D01*
X112015001Y-121474842D01*
X108385160Y-125104683D01*
X108340981Y-124679368D01*
X108176028Y-124145839D01*
X107927018Y-123679976D01*
X107539775Y-123439830D01*
X105729605Y-125250000D01*
X105743748Y-125264143D01*
X105564143Y-125443748D01*
X105550000Y-125429605D01*
X103739830Y-127239775D01*
X103979976Y-127627018D01*
X104473877Y-127887641D01*
X105009133Y-128046901D01*
X105405988Y-128083855D01*
X102647359Y-130842484D01*
X102598918Y-130725537D01*
X102419987Y-130457748D01*
X102192252Y-130230013D01*
X101924463Y-130051082D01*
X101626912Y-129927832D01*
X101311033Y-129865000D01*
X100988967Y-129865000D01*
X100673088Y-129927832D01*
X100375537Y-130051082D01*
X100107748Y-130230013D01*
X99880013Y-130457748D01*
X99701082Y-130725537D01*
X99577832Y-131023088D01*
X99515000Y-131338967D01*
X99515000Y-131661033D01*
X99577832Y-131976912D01*
X99701082Y-132274463D01*
X99880013Y-132542252D01*
X100107748Y-132769987D01*
X100375537Y-132948918D01*
X100492484Y-132997359D01*
X99874843Y-133615000D01*
X95438552Y-133615000D01*
X95399999Y-133611203D01*
X95361446Y-133615000D01*
X95361439Y-133615000D01*
X95260490Y-133624943D01*
X95246112Y-133626359D01*
X95211672Y-133636806D01*
X95098140Y-133671246D01*
X94961767Y-133744138D01*
X94901559Y-133793550D01*
X94872187Y-133817655D01*
X94872184Y-133817658D01*
X94842236Y-133842236D01*
X94817658Y-133872184D01*
X91972190Y-136717653D01*
X91942236Y-136742236D01*
X91844138Y-136861768D01*
X91771246Y-136998141D01*
X91726359Y-137146114D01*
X91715000Y-137261440D01*
X91715000Y-137261447D01*
X91711203Y-137300000D01*
X91715000Y-137338553D01*
X91715001Y-146461437D01*
X91711203Y-146500000D01*
X91726359Y-146653886D01*
X91771246Y-146801859D01*
X91771247Y-146801860D01*
X91844139Y-146938233D01*
X91884690Y-146987644D01*
X91917655Y-147027812D01*
X91917659Y-147027816D01*
X91942237Y-147057764D01*
X91972185Y-147082342D01*
X95317658Y-150427816D01*
X95342236Y-150457764D01*
X95372184Y-150482342D01*
X95372187Y-150482345D01*
X95387883Y-150495226D01*
X95461767Y-150555862D01*
X95598140Y-150628754D01*
X95746112Y-150673641D01*
X95751585Y-150674180D01*
X95861439Y-150685000D01*
X95861446Y-150685000D01*
X95899999Y-150688797D01*
X95938552Y-150685000D01*
X98141282Y-150685000D01*
X98194463Y-150784494D01*
X98273815Y-150881185D01*
X98370506Y-150960537D01*
X98444335Y-151000000D01*
X98370506Y-151039463D01*
X98273815Y-151118815D01*
X98194463Y-151215506D01*
X98135498Y-151325820D01*
X98099188Y-151445518D01*
X98086928Y-151570000D01*
X98086928Y-152630000D01*
X98099188Y-152754482D01*
X98135498Y-152874180D01*
X98194463Y-152984494D01*
X98215001Y-153009519D01*
X98215001Y-153546472D01*
X98210960Y-153587500D01*
X98227082Y-153751188D01*
X98274828Y-153908586D01*
X98352364Y-154053645D01*
X98366809Y-154071246D01*
X98456710Y-154180791D01*
X98488574Y-154206941D01*
X98636928Y-154355295D01*
X98636928Y-154506250D01*
X98653392Y-154673408D01*
X98702150Y-154834142D01*
X98781329Y-154982275D01*
X98887885Y-155112115D01*
X99017725Y-155218671D01*
X99165858Y-155297850D01*
X99326592Y-155346608D01*
X99415000Y-155355316D01*
X99415001Y-160208972D01*
X99410960Y-160250000D01*
X99427082Y-160413688D01*
X99474828Y-160571086D01*
X99541662Y-160696123D01*
X99552365Y-160716146D01*
X99656710Y-160843291D01*
X99688574Y-160869441D01*
X101630559Y-162811427D01*
X101656709Y-162843291D01*
X101772395Y-162938232D01*
X101783854Y-162947636D01*
X101928913Y-163025172D01*
X102086311Y-163072918D01*
X102249999Y-163089040D01*
X102291018Y-163085000D01*
X107208982Y-163085000D01*
X107250000Y-163089040D01*
X107291018Y-163085000D01*
X107291019Y-163085000D01*
X107413689Y-163072918D01*
X107571087Y-163025172D01*
X107716146Y-162947636D01*
X107843291Y-162843291D01*
X107869446Y-162811421D01*
X108917796Y-161763072D01*
X109600001Y-161763072D01*
X109773255Y-161746008D01*
X109939851Y-161695472D01*
X110093387Y-161613405D01*
X110227962Y-161502962D01*
X110338405Y-161368387D01*
X110420472Y-161214851D01*
X110459862Y-161085000D01*
X112404133Y-161085000D01*
X113880563Y-162561432D01*
X113906709Y-162593291D01*
X113938568Y-162619437D01*
X113938570Y-162619439D01*
X114033854Y-162697636D01*
X114178913Y-162775172D01*
X114336311Y-162822918D01*
X114458981Y-162835000D01*
X114458982Y-162835000D01*
X114500000Y-162839040D01*
X114541018Y-162835000D01*
X119187409Y-162835000D01*
X119228427Y-162839040D01*
X119269445Y-162835000D01*
X119269446Y-162835000D01*
X119392116Y-162822918D01*
X119549514Y-162775172D01*
X119694573Y-162697636D01*
X119821718Y-162593291D01*
X119847873Y-162561421D01*
X121347792Y-161061503D01*
X121395125Y-161108836D01*
X121564643Y-161222104D01*
X121753001Y-161300125D01*
X121952960Y-161339899D01*
X122156838Y-161339899D01*
X122356797Y-161300125D01*
X122545155Y-161222104D01*
X122714673Y-161108836D01*
X122858836Y-160964673D01*
X122972104Y-160795155D01*
X123050125Y-160606797D01*
X123089899Y-160406838D01*
X123089899Y-160380056D01*
X123095727Y-160374228D01*
X123127946Y-160371055D01*
X123247644Y-160334745D01*
X123357958Y-160275780D01*
X123454649Y-160196428D01*
X124400000Y-159251077D01*
X125345351Y-160196428D01*
X125442042Y-160275780D01*
X125552356Y-160334745D01*
X125672054Y-160371055D01*
X125704273Y-160374228D01*
X128357860Y-163027816D01*
X128382438Y-163057764D01*
X128412386Y-163082342D01*
X128412389Y-163082345D01*
X128420547Y-163089040D01*
X128501969Y-163155862D01*
X128638342Y-163228754D01*
X128786315Y-163273641D01*
X128901641Y-163285000D01*
X128901648Y-163285000D01*
X128940201Y-163288797D01*
X128978754Y-163285000D01*
X141403948Y-163285000D01*
X141442501Y-163288797D01*
X141481054Y-163285000D01*
X141481062Y-163285000D01*
X141596388Y-163273641D01*
X141744361Y-163228754D01*
X141880734Y-163155862D01*
X142000265Y-163057764D01*
X142024848Y-163027810D01*
X142777817Y-162274842D01*
X142807764Y-162250265D01*
X142905862Y-162130734D01*
X142978754Y-161994361D01*
X143023641Y-161846388D01*
X143035000Y-161731062D01*
X143035000Y-161731055D01*
X143038797Y-161692502D01*
X143035000Y-161653949D01*
X143035000Y-159538552D01*
X143038797Y-159499999D01*
X143035000Y-159461446D01*
X143035000Y-159461439D01*
X143023641Y-159346113D01*
X143012838Y-159310498D01*
X142978754Y-159198140D01*
X142973458Y-159188232D01*
X142905862Y-159061767D01*
X142852740Y-158997038D01*
X142832345Y-158972187D01*
X142832342Y-158972184D01*
X142807764Y-158942236D01*
X142777815Y-158917657D01*
X142194845Y-158334688D01*
X142170264Y-158304736D01*
X142050733Y-158206638D01*
X141961435Y-158158908D01*
X141862115Y-158037885D01*
X141732275Y-157931329D01*
X141584142Y-157852150D01*
X141423408Y-157803392D01*
X141256250Y-157786928D01*
X140743750Y-157786928D01*
X140576592Y-157803392D01*
X140415858Y-157852150D01*
X140338072Y-157893728D01*
X140338072Y-157600000D01*
X140325812Y-157475518D01*
X140289502Y-157355820D01*
X140230537Y-157245506D01*
X140151185Y-157148815D01*
X140054494Y-157069463D01*
X139944180Y-157010498D01*
X139824482Y-156974188D01*
X139700000Y-156961928D01*
X137600000Y-156961928D01*
X137475518Y-156974188D01*
X137355820Y-157010498D01*
X137245506Y-157069463D01*
X137200000Y-157106809D01*
X137154494Y-157069463D01*
X137044180Y-157010498D01*
X136924482Y-156974188D01*
X136800000Y-156961928D01*
X136035750Y-156965000D01*
X135877000Y-157123750D01*
X135877000Y-158373000D01*
X135897000Y-158373000D01*
X135897000Y-158627000D01*
X135877000Y-158627000D01*
X135877000Y-158647000D01*
X135623000Y-158647000D01*
X135623000Y-158627000D01*
X135603000Y-158627000D01*
X135603000Y-158373000D01*
X135623000Y-158373000D01*
X135623000Y-157123750D01*
X135472921Y-156973671D01*
X135482275Y-156968671D01*
X135612115Y-156862115D01*
X135718671Y-156732275D01*
X135797850Y-156584142D01*
X135846608Y-156423408D01*
X135863072Y-156256250D01*
X135863072Y-155743750D01*
X135846608Y-155576592D01*
X135797850Y-155415858D01*
X135718671Y-155267725D01*
X135612115Y-155137885D01*
X135583987Y-155114801D01*
X135667205Y-154990256D01*
X135745226Y-154801898D01*
X135785000Y-154601939D01*
X135785000Y-154575157D01*
X135875157Y-154485000D01*
X147065375Y-154485000D01*
X147074188Y-154574482D01*
X147110498Y-154694180D01*
X147169463Y-154804494D01*
X147248815Y-154901185D01*
X147345506Y-154980537D01*
X147455820Y-155039502D01*
X147575518Y-155075812D01*
X147700000Y-155088072D01*
X148800000Y-155088072D01*
X148924482Y-155075812D01*
X149044180Y-155039502D01*
X149154494Y-154980537D01*
X149251185Y-154901185D01*
X149330537Y-154804494D01*
X149389502Y-154694180D01*
X149425812Y-154574482D01*
X149438072Y-154450000D01*
X149438072Y-152950000D01*
X149425812Y-152825518D01*
X149389502Y-152705820D01*
X149330537Y-152595506D01*
X149251185Y-152498815D01*
X149154494Y-152419463D01*
X149044180Y-152360498D01*
X148924482Y-152324188D01*
X148800000Y-152311928D01*
X147700000Y-152311928D01*
X147575518Y-152324188D01*
X147455820Y-152360498D01*
X147345506Y-152419463D01*
X147248815Y-152498815D01*
X147169463Y-152595506D01*
X147110498Y-152705820D01*
X147074188Y-152825518D01*
X147065375Y-152915000D01*
X137195157Y-152915000D01*
X138527811Y-151582346D01*
X138557764Y-151557764D01*
X138655862Y-151438233D01*
X138728754Y-151301860D01*
X138736270Y-151277082D01*
X138773642Y-151153887D01*
X138782093Y-151068072D01*
X138785000Y-151038561D01*
X138785000Y-151038556D01*
X138788797Y-151000000D01*
X138785000Y-150961444D01*
X138785000Y-145788201D01*
X138986632Y-145653475D01*
X139090107Y-145550000D01*
X147061928Y-145550000D01*
X147074188Y-145674482D01*
X147110498Y-145794180D01*
X147169463Y-145904494D01*
X147248815Y-146001185D01*
X147345506Y-146080537D01*
X147455820Y-146139502D01*
X147575518Y-146175812D01*
X147700000Y-146188072D01*
X147964250Y-146185000D01*
X148123000Y-146026250D01*
X148123000Y-144927000D01*
X148377000Y-144927000D01*
X148377000Y-146026250D01*
X148535750Y-146185000D01*
X148800000Y-146188072D01*
X148924482Y-146175812D01*
X149044180Y-146139502D01*
X149154494Y-146080537D01*
X149251185Y-146001185D01*
X149330537Y-145904494D01*
X149389502Y-145794180D01*
X149425812Y-145674482D01*
X149438072Y-145550000D01*
X149435000Y-145085750D01*
X149276250Y-144927000D01*
X148377000Y-144927000D01*
X148123000Y-144927000D01*
X147223750Y-144927000D01*
X147065000Y-145085750D01*
X147061928Y-145550000D01*
X139090107Y-145550000D01*
X139193475Y-145446632D01*
X139355990Y-145203411D01*
X139467932Y-144933158D01*
X139525000Y-144646260D01*
X139525000Y-144353740D01*
X139467932Y-144066842D01*
X139460956Y-144050000D01*
X147061928Y-144050000D01*
X147065000Y-144514250D01*
X147223750Y-144673000D01*
X148123000Y-144673000D01*
X148123000Y-143573750D01*
X148377000Y-143573750D01*
X148377000Y-144673000D01*
X149276250Y-144673000D01*
X149435000Y-144514250D01*
X149438072Y-144050000D01*
X149425812Y-143925518D01*
X149389502Y-143805820D01*
X149330537Y-143695506D01*
X149251185Y-143598815D01*
X149154494Y-143519463D01*
X149044180Y-143460498D01*
X148924482Y-143424188D01*
X148800000Y-143411928D01*
X148535750Y-143415000D01*
X148377000Y-143573750D01*
X148123000Y-143573750D01*
X147964250Y-143415000D01*
X147700000Y-143411928D01*
X147575518Y-143424188D01*
X147455820Y-143460498D01*
X147345506Y-143519463D01*
X147248815Y-143598815D01*
X147169463Y-143695506D01*
X147110498Y-143805820D01*
X147074188Y-143925518D01*
X147061928Y-144050000D01*
X139460956Y-144050000D01*
X139355990Y-143796589D01*
X139193475Y-143553368D01*
X138986632Y-143346525D01*
X138743411Y-143184010D01*
X138473158Y-143072068D01*
X138186260Y-143015000D01*
X137893740Y-143015000D01*
X137624999Y-143068456D01*
X137624999Y-137485158D01*
X144075157Y-131035000D01*
X149461447Y-131035000D01*
X149500000Y-131038797D01*
X149538553Y-131035000D01*
X149538561Y-131035000D01*
X149653887Y-131023641D01*
X149801860Y-130978754D01*
X149938233Y-130905862D01*
X150057764Y-130807764D01*
X150082347Y-130777810D01*
X154927816Y-125932342D01*
X154957764Y-125907764D01*
X155055862Y-125788233D01*
X155128754Y-125651860D01*
X155173641Y-125503887D01*
X155185000Y-125388561D01*
X155185000Y-125388554D01*
X155188797Y-125350001D01*
X155185000Y-125311448D01*
X155185000Y-111541877D01*
X155442252Y-111369987D01*
X155669987Y-111142252D01*
X155848918Y-110874463D01*
X155972168Y-110576912D01*
X156035000Y-110261033D01*
X156035000Y-109938967D01*
X155972168Y-109623088D01*
X155848918Y-109325537D01*
X155669987Y-109057748D01*
X155442252Y-108830013D01*
X155174463Y-108651082D01*
X154876912Y-108527832D01*
X154561033Y-108465000D01*
X154238967Y-108465000D01*
X153923088Y-108527832D01*
X153625537Y-108651082D01*
X153357748Y-108830013D01*
X153130013Y-109057748D01*
X152951082Y-109325537D01*
X152827832Y-109623088D01*
X152765000Y-109938967D01*
X152765000Y-110261033D01*
X152827832Y-110576912D01*
X152951082Y-110874463D01*
X153130013Y-111142252D01*
X153357748Y-111369987D01*
X153615000Y-111541877D01*
X153615001Y-125024841D01*
X149174843Y-129465000D01*
X143788556Y-129465000D01*
X143750000Y-129461203D01*
X143711444Y-129465000D01*
X143711439Y-129465000D01*
X143671026Y-129468980D01*
X143596113Y-129476358D01*
X143448140Y-129521246D01*
X143311767Y-129594138D01*
X143192236Y-129692236D01*
X143167655Y-129722188D01*
X136383797Y-136506046D01*
X136282235Y-136589397D01*
X136184137Y-136708928D01*
X136111245Y-136845301D01*
X136066358Y-136993274D01*
X136051201Y-137147161D01*
X136054999Y-137185722D01*
X136055000Y-143013534D01*
X135785750Y-143015000D01*
X135627000Y-143173750D01*
X135627000Y-144373000D01*
X135647000Y-144373000D01*
X135647000Y-144627000D01*
X135627000Y-144627000D01*
X135627000Y-145826250D01*
X135785750Y-145985000D01*
X136055000Y-145986466D01*
X136055000Y-147690911D01*
X129698494Y-154047417D01*
X129651077Y-154000000D01*
X130596428Y-153054649D01*
X130675780Y-152957958D01*
X130734745Y-152847644D01*
X130771055Y-152727946D01*
X130783315Y-152603464D01*
X130771055Y-152478982D01*
X130734745Y-152359284D01*
X130675780Y-152248970D01*
X130596428Y-152152279D01*
X130207519Y-151763370D01*
X130110828Y-151684018D01*
X130110349Y-151683762D01*
X130110094Y-151683285D01*
X130030742Y-151586594D01*
X129641833Y-151197685D01*
X129545142Y-151118333D01*
X129544665Y-151118078D01*
X129544409Y-151117599D01*
X129465057Y-151020908D01*
X129076148Y-150631999D01*
X128979457Y-150552647D01*
X128978979Y-150552392D01*
X128978724Y-150551914D01*
X128964843Y-150535000D01*
X129101939Y-150535000D01*
X129301898Y-150495226D01*
X129490256Y-150417205D01*
X129659774Y-150303937D01*
X129803937Y-150159774D01*
X129917205Y-149990256D01*
X129995226Y-149801898D01*
X130035000Y-149601939D01*
X130035000Y-149398061D01*
X129995226Y-149198102D01*
X129917205Y-149009744D01*
X129803937Y-148840226D01*
X129659774Y-148696063D01*
X129490256Y-148582795D01*
X129301898Y-148504774D01*
X129101939Y-148465000D01*
X128898061Y-148465000D01*
X128698102Y-148504774D01*
X128509744Y-148582795D01*
X128340226Y-148696063D01*
X128324078Y-148712211D01*
X128295760Y-148715000D01*
X128295753Y-148715000D01*
X128194804Y-148724943D01*
X128180426Y-148726359D01*
X128162068Y-148731928D01*
X128032454Y-148771246D01*
X127896081Y-148844138D01*
X127835873Y-148893550D01*
X127806501Y-148917655D01*
X127806498Y-148917658D01*
X127776550Y-148942236D01*
X127751972Y-148972185D01*
X127584153Y-149140004D01*
X127562940Y-149118791D01*
X128152827Y-148528904D01*
X128182774Y-148504327D01*
X128209924Y-148471246D01*
X128231460Y-148445004D01*
X128280872Y-148384796D01*
X128353764Y-148248423D01*
X128398651Y-148100450D01*
X128410010Y-147985124D01*
X128410010Y-147985117D01*
X128413807Y-147946564D01*
X128410010Y-147908011D01*
X128410010Y-145350000D01*
X134011928Y-145350000D01*
X134024188Y-145474482D01*
X134060498Y-145594180D01*
X134119463Y-145704494D01*
X134198815Y-145801185D01*
X134295506Y-145880537D01*
X134405820Y-145939502D01*
X134525518Y-145975812D01*
X134650000Y-145988072D01*
X135214250Y-145985000D01*
X135373000Y-145826250D01*
X135373000Y-144627000D01*
X134173750Y-144627000D01*
X134015000Y-144785750D01*
X134011928Y-145350000D01*
X128410010Y-145350000D01*
X128410010Y-143650000D01*
X134011928Y-143650000D01*
X134015000Y-144214250D01*
X134173750Y-144373000D01*
X135373000Y-144373000D01*
X135373000Y-143173750D01*
X135214250Y-143015000D01*
X134650000Y-143011928D01*
X134525518Y-143024188D01*
X134405820Y-143060498D01*
X134295506Y-143119463D01*
X134198815Y-143198815D01*
X134119463Y-143295506D01*
X134060498Y-143405820D01*
X134024188Y-143525518D01*
X134011928Y-143650000D01*
X128410010Y-143650000D01*
X128410010Y-130290117D01*
X128473368Y-130353475D01*
X128716589Y-130515990D01*
X128986842Y-130627932D01*
X129273740Y-130685000D01*
X129566260Y-130685000D01*
X129853158Y-130627932D01*
X130123411Y-130515990D01*
X130366632Y-130353475D01*
X130573475Y-130146632D01*
X130695195Y-129964466D01*
X130764822Y-130081355D01*
X130959731Y-130297588D01*
X131193080Y-130471641D01*
X131455901Y-130596825D01*
X131603110Y-130641476D01*
X131833000Y-130520155D01*
X131833000Y-129327000D01*
X132087000Y-129327000D01*
X132087000Y-130520155D01*
X132316890Y-130641476D01*
X132464099Y-130596825D01*
X132726920Y-130471641D01*
X132960269Y-130297588D01*
X133155178Y-130081355D01*
X133304157Y-129831252D01*
X133401481Y-129556891D01*
X133280814Y-129327000D01*
X132087000Y-129327000D01*
X131833000Y-129327000D01*
X131813000Y-129327000D01*
X131813000Y-129073000D01*
X131833000Y-129073000D01*
X131833000Y-127879845D01*
X132087000Y-127879845D01*
X132087000Y-129073000D01*
X133280814Y-129073000D01*
X133401481Y-128843109D01*
X133304157Y-128568748D01*
X133155178Y-128318645D01*
X132960269Y-128102412D01*
X132726920Y-127928359D01*
X132464099Y-127803175D01*
X132316890Y-127758524D01*
X132087000Y-127879845D01*
X131833000Y-127879845D01*
X131603110Y-127758524D01*
X131455901Y-127803175D01*
X131193080Y-127928359D01*
X130959731Y-128102412D01*
X130764822Y-128318645D01*
X130695195Y-128435534D01*
X130573475Y-128253368D01*
X130366632Y-128046525D01*
X130123411Y-127884010D01*
X129853158Y-127772068D01*
X129566260Y-127715000D01*
X129273740Y-127715000D01*
X128986842Y-127772068D01*
X128716589Y-127884010D01*
X128473368Y-128046525D01*
X128266525Y-128253368D01*
X128150000Y-128427760D01*
X128033475Y-128253368D01*
X127826632Y-128046525D01*
X127583411Y-127884010D01*
X127313158Y-127772068D01*
X127026260Y-127715000D01*
X126733740Y-127715000D01*
X126446842Y-127772068D01*
X126176589Y-127884010D01*
X125933368Y-128046525D01*
X125726525Y-128253368D01*
X125610000Y-128427760D01*
X125493475Y-128253368D01*
X125286632Y-128046525D01*
X125043411Y-127884010D01*
X124773158Y-127772068D01*
X124486260Y-127715000D01*
X124193740Y-127715000D01*
X123906842Y-127772068D01*
X123636589Y-127884010D01*
X123393368Y-128046525D01*
X123261513Y-128178380D01*
X123239502Y-128105820D01*
X123180537Y-127995506D01*
X123101185Y-127898815D01*
X123004494Y-127819463D01*
X122894180Y-127760498D01*
X122774482Y-127724188D01*
X122650000Y-127711928D01*
X122085000Y-127711928D01*
X122085000Y-104125157D01*
X122191304Y-104018853D01*
X122190913Y-104024198D01*
X122188220Y-104035391D01*
X122185995Y-104091387D01*
X122181904Y-104147286D01*
X122183320Y-104158713D01*
X122182863Y-104170217D01*
X122191605Y-104225572D01*
X122198498Y-104281195D01*
X122202116Y-104292126D01*
X122203912Y-104303498D01*
X122223290Y-104356095D01*
X122240898Y-104409294D01*
X122263221Y-104448646D01*
X135679554Y-132140441D01*
X135703511Y-132193477D01*
X135728534Y-132228480D01*
X135751009Y-132265192D01*
X135767689Y-132283253D01*
X135781982Y-132303246D01*
X135813354Y-132332697D01*
X135842558Y-132364317D01*
X135862441Y-132378776D01*
X135880359Y-132395597D01*
X135916870Y-132418359D01*
X135951686Y-132443678D01*
X135974012Y-132453982D01*
X135994864Y-132466982D01*
X136035112Y-132482183D01*
X136074199Y-132500223D01*
X136098105Y-132505974D01*
X136121094Y-132514656D01*
X136163536Y-132521713D01*
X136205390Y-132531781D01*
X136229957Y-132532757D01*
X136254199Y-132536788D01*
X136297204Y-132535429D01*
X136340217Y-132537138D01*
X136364504Y-132533302D01*
X136389065Y-132532526D01*
X136430981Y-132522803D01*
X136473498Y-132516088D01*
X136496565Y-132507590D01*
X136520508Y-132502036D01*
X136559724Y-132484321D01*
X136600112Y-132469442D01*
X136649798Y-132439025D01*
X148962485Y-125348995D01*
X149012406Y-125322312D01*
X149046912Y-125293993D01*
X149083245Y-125268020D01*
X149098966Y-125251274D01*
X149116710Y-125236711D01*
X149145032Y-125202202D01*
X149175597Y-125169642D01*
X149187744Y-125150158D01*
X149202312Y-125132407D01*
X149223361Y-125093027D01*
X149246982Y-125055138D01*
X149255094Y-125033657D01*
X149265919Y-125013406D01*
X149278884Y-124970667D01*
X149294655Y-124928907D01*
X149298420Y-124906264D01*
X149305088Y-124884283D01*
X149309465Y-124839839D01*
X149316788Y-124795802D01*
X149315000Y-124739223D01*
X149315000Y-116811167D01*
X149316115Y-116804974D01*
X149315000Y-116743800D01*
X149315000Y-116716353D01*
X149314386Y-116710120D01*
X149313656Y-116670063D01*
X149307789Y-116643142D01*
X149305088Y-116615717D01*
X149293457Y-116577374D01*
X149284925Y-116538224D01*
X149273918Y-116512962D01*
X149265919Y-116486594D01*
X149247032Y-116451258D01*
X149244531Y-116445519D01*
X149231158Y-116421561D01*
X149202312Y-116367593D01*
X149198320Y-116362728D01*
X141873016Y-103238967D01*
X152765000Y-103238967D01*
X152765000Y-103561033D01*
X152827832Y-103876912D01*
X152951082Y-104174463D01*
X153130013Y-104442252D01*
X153357748Y-104669987D01*
X153625537Y-104848918D01*
X153923088Y-104972168D01*
X154238967Y-105035000D01*
X154561033Y-105035000D01*
X154876912Y-104972168D01*
X155174463Y-104848918D01*
X155442252Y-104669987D01*
X155669987Y-104442252D01*
X155848918Y-104174463D01*
X155972168Y-103876912D01*
X156035000Y-103561033D01*
X156035000Y-103238967D01*
X155972168Y-102923088D01*
X155848918Y-102625537D01*
X155669987Y-102357748D01*
X155442252Y-102130013D01*
X155174463Y-101951082D01*
X154876912Y-101827832D01*
X154561033Y-101765000D01*
X154238967Y-101765000D01*
X153923088Y-101827832D01*
X153625537Y-101951082D01*
X153357748Y-102130013D01*
X153130013Y-102357748D01*
X152951082Y-102625537D01*
X152827832Y-102923088D01*
X152765000Y-103238967D01*
X141873016Y-103238967D01*
X137740566Y-95835413D01*
X153444192Y-95835413D01*
X153539956Y-96099814D01*
X153829571Y-96240704D01*
X154141108Y-96322384D01*
X154462595Y-96341718D01*
X154781675Y-96297961D01*
X155086088Y-96192795D01*
X155260044Y-96099814D01*
X155355808Y-95835413D01*
X154400000Y-94879605D01*
X153444192Y-95835413D01*
X137740566Y-95835413D01*
X137141749Y-94762595D01*
X152758282Y-94762595D01*
X152802039Y-95081675D01*
X152907205Y-95386088D01*
X153000186Y-95560044D01*
X153264587Y-95655808D01*
X154220395Y-94700000D01*
X154579605Y-94700000D01*
X155535413Y-95655808D01*
X155799814Y-95560044D01*
X155940704Y-95270429D01*
X156022384Y-94958892D01*
X156041718Y-94637405D01*
X155997961Y-94318325D01*
X155892795Y-94013912D01*
X155799814Y-93839956D01*
X155535413Y-93744192D01*
X154579605Y-94700000D01*
X154220395Y-94700000D01*
X153264587Y-93744192D01*
X153000186Y-93839956D01*
X152859296Y-94129571D01*
X152777616Y-94441108D01*
X152758282Y-94762595D01*
X137141749Y-94762595D01*
X136929849Y-94382963D01*
X136929102Y-94380706D01*
X136897055Y-94324211D01*
X136881733Y-94296760D01*
X136880376Y-94294808D01*
X136862527Y-94263341D01*
X136841974Y-94239543D01*
X136824029Y-94213717D01*
X136797981Y-94188601D01*
X136774334Y-94161220D01*
X136749534Y-94141889D01*
X136726894Y-94120059D01*
X136696448Y-94100509D01*
X136667912Y-94078265D01*
X136639815Y-94064142D01*
X136613354Y-94047151D01*
X136579679Y-94033916D01*
X136547351Y-94017667D01*
X136517038Y-94009297D01*
X136487772Y-93997795D01*
X136452159Y-93991383D01*
X136417286Y-93981754D01*
X136385933Y-93979459D01*
X136354974Y-93973885D01*
X136318789Y-93974545D01*
X136282713Y-93971904D01*
X136251508Y-93975771D01*
X136220064Y-93976344D01*
X136184711Y-93984048D01*
X136148803Y-93988498D01*
X136118950Y-93998379D01*
X136088225Y-94005075D01*
X136055052Y-94019529D01*
X136020705Y-94030898D01*
X135993355Y-94046412D01*
X135964525Y-94058974D01*
X135934815Y-94079618D01*
X135932748Y-94080791D01*
X135907056Y-94098908D01*
X135853717Y-94135971D01*
X135852067Y-94137682D01*
X123033902Y-103176255D01*
X126170391Y-100039767D01*
X126269670Y-100049545D01*
X126436828Y-100033081D01*
X126597562Y-99984323D01*
X126745695Y-99905144D01*
X126875535Y-99798588D01*
X127184894Y-99489229D01*
X127291450Y-99359389D01*
X127370629Y-99211256D01*
X127419387Y-99050522D01*
X127431145Y-98931145D01*
X127550522Y-98919387D01*
X127711256Y-98870629D01*
X127859389Y-98791450D01*
X127989229Y-98684894D01*
X128298588Y-98375535D01*
X128405144Y-98245695D01*
X128484323Y-98097562D01*
X128533081Y-97936828D01*
X128549545Y-97769670D01*
X128533081Y-97602512D01*
X128484323Y-97441778D01*
X128405144Y-97293645D01*
X128298588Y-97163805D01*
X127936195Y-96801412D01*
X127806355Y-96694856D01*
X127658222Y-96615677D01*
X127497488Y-96566919D01*
X127347822Y-96552178D01*
X127333081Y-96402512D01*
X127284323Y-96241778D01*
X127205144Y-96093645D01*
X127098588Y-95963805D01*
X126889098Y-95754315D01*
X129078826Y-93564587D01*
X153444192Y-93564587D01*
X154400000Y-94520395D01*
X155355808Y-93564587D01*
X155260044Y-93300186D01*
X154970429Y-93159296D01*
X154658892Y-93077616D01*
X154337405Y-93058282D01*
X154018325Y-93102039D01*
X153713912Y-93207205D01*
X153539956Y-93300186D01*
X153444192Y-93564587D01*
X129078826Y-93564587D01*
X130877817Y-91765597D01*
X130907764Y-91741020D01*
X131005862Y-91621489D01*
X131078754Y-91485116D01*
X131123641Y-91337143D01*
X131135000Y-91221817D01*
X131135000Y-91221810D01*
X131138797Y-91183257D01*
X131135000Y-91144704D01*
X131135000Y-74738556D01*
X131138797Y-74700000D01*
X131135000Y-74661444D01*
X131135000Y-74661439D01*
X131131020Y-74621026D01*
X131123642Y-74546113D01*
X131078754Y-74398140D01*
X131005862Y-74261767D01*
X130907764Y-74142236D01*
X130877810Y-74117653D01*
X127339767Y-70579610D01*
X127349545Y-70480330D01*
X127346182Y-70446182D01*
X127380330Y-70449545D01*
X127547488Y-70433081D01*
X127708222Y-70384323D01*
X127856355Y-70305144D01*
X127986195Y-70198588D01*
X128348588Y-69836195D01*
X128455144Y-69706355D01*
X128534323Y-69558222D01*
X128583081Y-69397488D01*
X128599545Y-69230330D01*
X128583081Y-69063172D01*
X128534323Y-68902438D01*
X128455144Y-68754305D01*
X128348588Y-68624465D01*
X128191847Y-68467724D01*
X128191847Y-67445402D01*
X128195644Y-67406847D01*
X128191847Y-67368287D01*
X128191847Y-67368286D01*
X128181004Y-67258194D01*
X128180489Y-67252960D01*
X128135601Y-67104987D01*
X128087864Y-67015677D01*
X128062709Y-66968614D01*
X128013297Y-66908406D01*
X127989192Y-66879034D01*
X127989189Y-66879031D01*
X127964611Y-66849083D01*
X127934664Y-66824506D01*
X122982347Y-61872190D01*
X122957764Y-61842236D01*
X122838233Y-61744138D01*
X122701860Y-61671246D01*
X122553887Y-61626359D01*
X122438561Y-61615000D01*
X122438553Y-61615000D01*
X122400000Y-61611203D01*
X122361447Y-61615000D01*
X113525401Y-61615000D01*
X113462115Y-61537885D01*
X113332275Y-61431329D01*
X113184142Y-61352150D01*
X113023408Y-61303392D01*
X112856250Y-61286928D01*
X112634585Y-61286928D01*
X112169847Y-60822190D01*
X112145264Y-60792236D01*
X112025733Y-60694138D01*
X111889360Y-60621246D01*
X111741387Y-60576359D01*
X111626061Y-60565000D01*
X111626053Y-60565000D01*
X111587500Y-60561203D01*
X111548947Y-60565000D01*
X102388552Y-60565000D01*
X102349999Y-60561203D01*
X102311446Y-60565000D01*
X102311439Y-60565000D01*
X102210490Y-60574943D01*
X102196112Y-60576359D01*
X102048140Y-60621246D01*
X101911767Y-60694138D01*
X101851559Y-60743550D01*
X101822187Y-60767655D01*
X101822184Y-60767658D01*
X101792236Y-60792236D01*
X101767658Y-60822184D01*
X97860711Y-64729132D01*
X98921074Y-63491337D01*
X98926711Y-63486711D01*
X98964903Y-63440175D01*
X98982105Y-63420094D01*
X98986260Y-63414151D01*
X99012312Y-63382407D01*
X99024834Y-63358979D01*
X99040049Y-63337218D01*
X99056557Y-63299630D01*
X99075919Y-63263406D01*
X99083630Y-63237986D01*
X99094307Y-63213675D01*
X99103165Y-63173588D01*
X99115088Y-63134283D01*
X99117692Y-63107846D01*
X99123421Y-63081919D01*
X99124288Y-63040879D01*
X99125000Y-63033647D01*
X99125000Y-63007152D01*
X99126270Y-62947017D01*
X99125000Y-62939843D01*
X99125000Y-43915000D01*
X139155001Y-43915000D01*
X139155000Y-73036353D01*
G04 #@! TA.AperFunction,Conductor*
D24*
G36*
X139155000Y-73036353D02*
G01*
X139151686Y-73070000D01*
X139164912Y-73204283D01*
X139204081Y-73333406D01*
X139267688Y-73452407D01*
X139353289Y-73556711D01*
X139433072Y-73622188D01*
X139457593Y-73642312D01*
X139576594Y-73705919D01*
X139705717Y-73745088D01*
X139840000Y-73758314D01*
X139873647Y-73755000D01*
X158615001Y-73755000D01*
X158615000Y-167065000D01*
X64685000Y-167065000D01*
X64685000Y-158588967D01*
X76265000Y-158588967D01*
X76265000Y-158911033D01*
X76327832Y-159226912D01*
X76451082Y-159524463D01*
X76630013Y-159792252D01*
X76857748Y-160019987D01*
X77125537Y-160198918D01*
X77423088Y-160322168D01*
X77738967Y-160385000D01*
X78061033Y-160385000D01*
X78376912Y-160322168D01*
X78674463Y-160198918D01*
X78942252Y-160019987D01*
X79169987Y-159792252D01*
X79348918Y-159524463D01*
X79472168Y-159226912D01*
X79535000Y-158911033D01*
X79535000Y-158588967D01*
X81265000Y-158588967D01*
X81265000Y-158911033D01*
X81327832Y-159226912D01*
X81451082Y-159524463D01*
X81630013Y-159792252D01*
X81857748Y-160019987D01*
X82125537Y-160198918D01*
X82423088Y-160322168D01*
X82738967Y-160385000D01*
X83061033Y-160385000D01*
X83376912Y-160322168D01*
X83674463Y-160198918D01*
X83942252Y-160019987D01*
X84169987Y-159792252D01*
X84348918Y-159524463D01*
X84472168Y-159226912D01*
X84535000Y-158911033D01*
X84535000Y-158588967D01*
X84472168Y-158273088D01*
X84348918Y-157975537D01*
X84169987Y-157707748D01*
X83942252Y-157480013D01*
X83674463Y-157301082D01*
X83376912Y-157177832D01*
X83061033Y-157115000D01*
X82738967Y-157115000D01*
X82423088Y-157177832D01*
X82125537Y-157301082D01*
X81857748Y-157480013D01*
X81630013Y-157707748D01*
X81451082Y-157975537D01*
X81327832Y-158273088D01*
X81265000Y-158588967D01*
X79535000Y-158588967D01*
X79472168Y-158273088D01*
X79348918Y-157975537D01*
X79169987Y-157707748D01*
X78942252Y-157480013D01*
X78674463Y-157301082D01*
X78376912Y-157177832D01*
X78061033Y-157115000D01*
X77738967Y-157115000D01*
X77423088Y-157177832D01*
X77125537Y-157301082D01*
X76857748Y-157480013D01*
X76630013Y-157707748D01*
X76451082Y-157975537D01*
X76327832Y-158273088D01*
X76265000Y-158588967D01*
X64685000Y-158588967D01*
X64685000Y-153588967D01*
X76265000Y-153588967D01*
X76265000Y-153911033D01*
X76327832Y-154226912D01*
X76451082Y-154524463D01*
X76630013Y-154792252D01*
X76857748Y-155019987D01*
X77125537Y-155198918D01*
X77423088Y-155322168D01*
X77738967Y-155385000D01*
X78061033Y-155385000D01*
X78376912Y-155322168D01*
X78674463Y-155198918D01*
X78942252Y-155019987D01*
X79076826Y-154885413D01*
X81944192Y-154885413D01*
X82039956Y-155149814D01*
X82329571Y-155290704D01*
X82641108Y-155372384D01*
X82962595Y-155391718D01*
X83281675Y-155347961D01*
X83586088Y-155242795D01*
X83760044Y-155149814D01*
X83855808Y-154885413D01*
X82900000Y-153929605D01*
X81944192Y-154885413D01*
X79076826Y-154885413D01*
X79169987Y-154792252D01*
X79348918Y-154524463D01*
X79472168Y-154226912D01*
X79535000Y-153911033D01*
X79535000Y-153812595D01*
X81258282Y-153812595D01*
X81302039Y-154131675D01*
X81407205Y-154436088D01*
X81500186Y-154610044D01*
X81764587Y-154705808D01*
X82720395Y-153750000D01*
X83079605Y-153750000D01*
X84035413Y-154705808D01*
X84299814Y-154610044D01*
X84440704Y-154320429D01*
X84522384Y-154008892D01*
X84541718Y-153687405D01*
X84497961Y-153368325D01*
X84392795Y-153063912D01*
X84299814Y-152889956D01*
X84035413Y-152794192D01*
X83079605Y-153750000D01*
X82720395Y-153750000D01*
X81764587Y-152794192D01*
X81500186Y-152889956D01*
X81359296Y-153179571D01*
X81277616Y-153491108D01*
X81258282Y-153812595D01*
X79535000Y-153812595D01*
X79535000Y-153588967D01*
X79472168Y-153273088D01*
X79348918Y-152975537D01*
X79169987Y-152707748D01*
X79076826Y-152614587D01*
X81944192Y-152614587D01*
X82900000Y-153570395D01*
X83855808Y-152614587D01*
X83760044Y-152350186D01*
X83470429Y-152209296D01*
X83158892Y-152127616D01*
X82837405Y-152108282D01*
X82518325Y-152152039D01*
X82213912Y-152257205D01*
X82039956Y-152350186D01*
X81944192Y-152614587D01*
X79076826Y-152614587D01*
X78942252Y-152480013D01*
X78674463Y-152301082D01*
X78376912Y-152177832D01*
X78061033Y-152115000D01*
X77738967Y-152115000D01*
X77423088Y-152177832D01*
X77125537Y-152301082D01*
X76857748Y-152480013D01*
X76630013Y-152707748D01*
X76451082Y-152975537D01*
X76327832Y-153273088D01*
X76265000Y-153588967D01*
X64685000Y-153588967D01*
X64685000Y-111020000D01*
X74771686Y-111020000D01*
X74775000Y-111053647D01*
X74775001Y-128766343D01*
X74771686Y-128800000D01*
X74784912Y-128934283D01*
X74824081Y-129063406D01*
X74887688Y-129182407D01*
X74973289Y-129286711D01*
X75077593Y-129372312D01*
X75196594Y-129435919D01*
X75325717Y-129475088D01*
X75426353Y-129485000D01*
X75460000Y-129488314D01*
X75493647Y-129485000D01*
X102286353Y-129485000D01*
X102320000Y-129488314D01*
X102454283Y-129475088D01*
X102583406Y-129435919D01*
X102702407Y-129372312D01*
X102806711Y-129286711D01*
X102892312Y-129182407D01*
X102955919Y-129063406D01*
X102995088Y-128934283D01*
X103005000Y-128833647D01*
X103008314Y-128800000D01*
X103005000Y-128766353D01*
X103005000Y-126505753D01*
X103172982Y-126820024D01*
X103560225Y-127060170D01*
X105370395Y-125250000D01*
X103560225Y-123439830D01*
X103172982Y-123679976D01*
X103005000Y-123998315D01*
X103005000Y-123260225D01*
X103739830Y-123260225D01*
X105550000Y-125070395D01*
X107360170Y-123260225D01*
X107120024Y-122872982D01*
X106626123Y-122612359D01*
X106090867Y-122453099D01*
X105534826Y-122401322D01*
X104979368Y-122459019D01*
X104445839Y-122623972D01*
X103979976Y-122872982D01*
X103739830Y-123260225D01*
X103005000Y-123260225D01*
X103005000Y-111053647D01*
X103008314Y-111020000D01*
X102995088Y-110885717D01*
X102955919Y-110756594D01*
X102892312Y-110637593D01*
X102806711Y-110533289D01*
X102702407Y-110447688D01*
X102583406Y-110384081D01*
X102454283Y-110344912D01*
X102353647Y-110335000D01*
X102320000Y-110331686D01*
X102286353Y-110335000D01*
X75493647Y-110335000D01*
X75460000Y-110331686D01*
X75426353Y-110335000D01*
X75325717Y-110344912D01*
X75196594Y-110384081D01*
X75077593Y-110447688D01*
X74973289Y-110533289D01*
X74887688Y-110637593D01*
X74824081Y-110756594D01*
X74784912Y-110885717D01*
X74771686Y-111020000D01*
X64685000Y-111020000D01*
X64685000Y-105735413D01*
X68044192Y-105735413D01*
X68139956Y-105999814D01*
X68429571Y-106140704D01*
X68741108Y-106222384D01*
X69062595Y-106241718D01*
X69381675Y-106197961D01*
X69686088Y-106092795D01*
X69860044Y-105999814D01*
X69955808Y-105735413D01*
X69000000Y-104779605D01*
X68044192Y-105735413D01*
X64685000Y-105735413D01*
X64685000Y-104662595D01*
X67358282Y-104662595D01*
X67402039Y-104981675D01*
X67507205Y-105286088D01*
X67600186Y-105460044D01*
X67864587Y-105555808D01*
X68820395Y-104600000D01*
X69179605Y-104600000D01*
X70135413Y-105555808D01*
X70399814Y-105460044D01*
X70540704Y-105170429D01*
X70622384Y-104858892D01*
X70641718Y-104537405D01*
X70597961Y-104218325D01*
X70492795Y-103913912D01*
X70399814Y-103739956D01*
X70135413Y-103644192D01*
X69179605Y-104600000D01*
X68820395Y-104600000D01*
X67864587Y-103644192D01*
X67600186Y-103739956D01*
X67459296Y-104029571D01*
X67377616Y-104341108D01*
X67358282Y-104662595D01*
X64685000Y-104662595D01*
X64685000Y-103464587D01*
X68044192Y-103464587D01*
X69000000Y-104420395D01*
X69955808Y-103464587D01*
X69860044Y-103200186D01*
X69570429Y-103059296D01*
X69258892Y-102977616D01*
X68937405Y-102958282D01*
X68618325Y-103002039D01*
X68313912Y-103107205D01*
X68139956Y-103200186D01*
X68044192Y-103464587D01*
X64685000Y-103464587D01*
X64685000Y-95738967D01*
X67365000Y-95738967D01*
X67365000Y-96061033D01*
X67427832Y-96376912D01*
X67551082Y-96674463D01*
X67730013Y-96942252D01*
X67957748Y-97169987D01*
X68225537Y-97348918D01*
X68523088Y-97472168D01*
X68838967Y-97535000D01*
X69161033Y-97535000D01*
X69476912Y-97472168D01*
X69774463Y-97348918D01*
X70042252Y-97169987D01*
X70269987Y-96942252D01*
X70448918Y-96674463D01*
X70572168Y-96376912D01*
X70635000Y-96061033D01*
X70635000Y-95738967D01*
X70572168Y-95423088D01*
X70448918Y-95125537D01*
X70269987Y-94857748D01*
X70042252Y-94630013D01*
X69774463Y-94451082D01*
X69476912Y-94327832D01*
X69161033Y-94265000D01*
X68838967Y-94265000D01*
X68523088Y-94327832D01*
X68225537Y-94451082D01*
X67957748Y-94630013D01*
X67730013Y-94857748D01*
X67551082Y-95125537D01*
X67427832Y-95423088D01*
X67365000Y-95738967D01*
X64685000Y-95738967D01*
X64685000Y-89038967D01*
X67365000Y-89038967D01*
X67365000Y-89361033D01*
X67427832Y-89676912D01*
X67551082Y-89974463D01*
X67730013Y-90242252D01*
X67957748Y-90469987D01*
X68225537Y-90648918D01*
X68523088Y-90772168D01*
X68838967Y-90835000D01*
X69161033Y-90835000D01*
X69476912Y-90772168D01*
X69774463Y-90648918D01*
X70042252Y-90469987D01*
X70269987Y-90242252D01*
X70448918Y-89974463D01*
X70572168Y-89676912D01*
X70635000Y-89361033D01*
X70635000Y-89038967D01*
X70572168Y-88723088D01*
X70448918Y-88425537D01*
X70269987Y-88157748D01*
X70042252Y-87930013D01*
X69774463Y-87751082D01*
X69476912Y-87627832D01*
X69161033Y-87565000D01*
X68838967Y-87565000D01*
X68523088Y-87627832D01*
X68225537Y-87751082D01*
X67957748Y-87930013D01*
X67730013Y-88157748D01*
X67551082Y-88425537D01*
X67427832Y-88723088D01*
X67365000Y-89038967D01*
X64685000Y-89038967D01*
X64685000Y-75405000D01*
X88392849Y-75405000D01*
X88452984Y-75406270D01*
X88493403Y-75399114D01*
X88534283Y-75395088D01*
X88559703Y-75387377D01*
X88585850Y-75382748D01*
X88624103Y-75367841D01*
X88663406Y-75355919D01*
X88686837Y-75343395D01*
X88711575Y-75333755D01*
X88746179Y-75311676D01*
X88782407Y-75292312D01*
X88802943Y-75275458D01*
X88825326Y-75261177D01*
X88854965Y-75232764D01*
X88886711Y-75206711D01*
X88924914Y-75160161D01*
X95358154Y-67650443D01*
X95358153Y-68467724D01*
X95201412Y-68624465D01*
X95094856Y-68754305D01*
X95015677Y-68902438D01*
X94966919Y-69063172D01*
X94950455Y-69230330D01*
X94960233Y-69329610D01*
X92622185Y-71667658D01*
X92592237Y-71692236D01*
X92567659Y-71722184D01*
X92567655Y-71722188D01*
X92545312Y-71749413D01*
X92494139Y-71811767D01*
X92455177Y-71884660D01*
X92421246Y-71948141D01*
X92376359Y-72096114D01*
X92361203Y-72250000D01*
X92365001Y-72288563D01*
X92365000Y-94511447D01*
X92361203Y-94550000D01*
X92365000Y-94588553D01*
X92365000Y-94588560D01*
X92376359Y-94703886D01*
X92421246Y-94851859D01*
X92494138Y-94988232D01*
X92592236Y-95107764D01*
X92622190Y-95132347D01*
X95060233Y-97570391D01*
X95050455Y-97669670D01*
X95055478Y-97720670D01*
X94722185Y-98053964D01*
X94692237Y-98078542D01*
X94667659Y-98108490D01*
X94667655Y-98108494D01*
X94654548Y-98124465D01*
X94594139Y-98198073D01*
X94521246Y-98334446D01*
X94476359Y-98482419D01*
X94465000Y-98597745D01*
X94465000Y-98597753D01*
X94461203Y-98636306D01*
X94465000Y-98674859D01*
X94465000Y-99211447D01*
X94461203Y-99250000D01*
X94465000Y-99288553D01*
X94465000Y-99288560D01*
X94476359Y-99403886D01*
X94521246Y-99551859D01*
X94594138Y-99688232D01*
X94692236Y-99807764D01*
X94722190Y-99832347D01*
X111765000Y-116875158D01*
X111765000Y-116901939D01*
X111804774Y-117101898D01*
X111882795Y-117290256D01*
X111996063Y-117459774D01*
X112015000Y-117478711D01*
X112015001Y-121474842D01*
X108385160Y-125104683D01*
X108340981Y-124679368D01*
X108176028Y-124145839D01*
X107927018Y-123679976D01*
X107539775Y-123439830D01*
X105729605Y-125250000D01*
X105743748Y-125264143D01*
X105564143Y-125443748D01*
X105550000Y-125429605D01*
X103739830Y-127239775D01*
X103979976Y-127627018D01*
X104473877Y-127887641D01*
X105009133Y-128046901D01*
X105405988Y-128083855D01*
X102647359Y-130842484D01*
X102598918Y-130725537D01*
X102419987Y-130457748D01*
X102192252Y-130230013D01*
X101924463Y-130051082D01*
X101626912Y-129927832D01*
X101311033Y-129865000D01*
X100988967Y-129865000D01*
X100673088Y-129927832D01*
X100375537Y-130051082D01*
X100107748Y-130230013D01*
X99880013Y-130457748D01*
X99701082Y-130725537D01*
X99577832Y-131023088D01*
X99515000Y-131338967D01*
X99515000Y-131661033D01*
X99577832Y-131976912D01*
X99701082Y-132274463D01*
X99880013Y-132542252D01*
X100107748Y-132769987D01*
X100375537Y-132948918D01*
X100492484Y-132997359D01*
X99874843Y-133615000D01*
X95438552Y-133615000D01*
X95399999Y-133611203D01*
X95361446Y-133615000D01*
X95361439Y-133615000D01*
X95260490Y-133624943D01*
X95246112Y-133626359D01*
X95211672Y-133636806D01*
X95098140Y-133671246D01*
X94961767Y-133744138D01*
X94901559Y-133793550D01*
X94872187Y-133817655D01*
X94872184Y-133817658D01*
X94842236Y-133842236D01*
X94817658Y-133872184D01*
X91972190Y-136717653D01*
X91942236Y-136742236D01*
X91844138Y-136861768D01*
X91771246Y-136998141D01*
X91726359Y-137146114D01*
X91715000Y-137261440D01*
X91715000Y-137261447D01*
X91711203Y-137300000D01*
X91715000Y-137338553D01*
X91715001Y-146461437D01*
X91711203Y-146500000D01*
X91726359Y-146653886D01*
X91771246Y-146801859D01*
X91771247Y-146801860D01*
X91844139Y-146938233D01*
X91884690Y-146987644D01*
X91917655Y-147027812D01*
X91917659Y-147027816D01*
X91942237Y-147057764D01*
X91972185Y-147082342D01*
X95317658Y-150427816D01*
X95342236Y-150457764D01*
X95372184Y-150482342D01*
X95372187Y-150482345D01*
X95387883Y-150495226D01*
X95461767Y-150555862D01*
X95598140Y-150628754D01*
X95746112Y-150673641D01*
X95751585Y-150674180D01*
X95861439Y-150685000D01*
X95861446Y-150685000D01*
X95899999Y-150688797D01*
X95938552Y-150685000D01*
X98141282Y-150685000D01*
X98194463Y-150784494D01*
X98273815Y-150881185D01*
X98370506Y-150960537D01*
X98444335Y-151000000D01*
X98370506Y-151039463D01*
X98273815Y-151118815D01*
X98194463Y-151215506D01*
X98135498Y-151325820D01*
X98099188Y-151445518D01*
X98086928Y-151570000D01*
X98086928Y-152630000D01*
X98099188Y-152754482D01*
X98135498Y-152874180D01*
X98194463Y-152984494D01*
X98215001Y-153009519D01*
X98215001Y-153546472D01*
X98210960Y-153587500D01*
X98227082Y-153751188D01*
X98274828Y-153908586D01*
X98352364Y-154053645D01*
X98366809Y-154071246D01*
X98456710Y-154180791D01*
X98488574Y-154206941D01*
X98636928Y-154355295D01*
X98636928Y-154506250D01*
X98653392Y-154673408D01*
X98702150Y-154834142D01*
X98781329Y-154982275D01*
X98887885Y-155112115D01*
X99017725Y-155218671D01*
X99165858Y-155297850D01*
X99326592Y-155346608D01*
X99415000Y-155355316D01*
X99415001Y-160208972D01*
X99410960Y-160250000D01*
X99427082Y-160413688D01*
X99474828Y-160571086D01*
X99541662Y-160696123D01*
X99552365Y-160716146D01*
X99656710Y-160843291D01*
X99688574Y-160869441D01*
X101630559Y-162811427D01*
X101656709Y-162843291D01*
X101772395Y-162938232D01*
X101783854Y-162947636D01*
X101928913Y-163025172D01*
X102086311Y-163072918D01*
X102249999Y-163089040D01*
X102291018Y-163085000D01*
X107208982Y-163085000D01*
X107250000Y-163089040D01*
X107291018Y-163085000D01*
X107291019Y-163085000D01*
X107413689Y-163072918D01*
X107571087Y-163025172D01*
X107716146Y-162947636D01*
X107843291Y-162843291D01*
X107869446Y-162811421D01*
X108917796Y-161763072D01*
X109600001Y-161763072D01*
X109773255Y-161746008D01*
X109939851Y-161695472D01*
X110093387Y-161613405D01*
X110227962Y-161502962D01*
X110338405Y-161368387D01*
X110420472Y-161214851D01*
X110459862Y-161085000D01*
X112404133Y-161085000D01*
X113880563Y-162561432D01*
X113906709Y-162593291D01*
X113938568Y-162619437D01*
X113938570Y-162619439D01*
X114033854Y-162697636D01*
X114178913Y-162775172D01*
X114336311Y-162822918D01*
X114458981Y-162835000D01*
X114458982Y-162835000D01*
X114500000Y-162839040D01*
X114541018Y-162835000D01*
X119187409Y-162835000D01*
X119228427Y-162839040D01*
X119269445Y-162835000D01*
X119269446Y-162835000D01*
X119392116Y-162822918D01*
X119549514Y-162775172D01*
X119694573Y-162697636D01*
X119821718Y-162593291D01*
X119847873Y-162561421D01*
X121347792Y-161061503D01*
X121395125Y-161108836D01*
X121564643Y-161222104D01*
X121753001Y-161300125D01*
X121952960Y-161339899D01*
X122156838Y-161339899D01*
X122356797Y-161300125D01*
X122545155Y-161222104D01*
X122714673Y-161108836D01*
X122858836Y-160964673D01*
X122972104Y-160795155D01*
X123050125Y-160606797D01*
X123089899Y-160406838D01*
X123089899Y-160380056D01*
X123095727Y-160374228D01*
X123127946Y-160371055D01*
X123247644Y-160334745D01*
X123357958Y-160275780D01*
X123454649Y-160196428D01*
X124400000Y-159251077D01*
X125345351Y-160196428D01*
X125442042Y-160275780D01*
X125552356Y-160334745D01*
X125672054Y-160371055D01*
X125704273Y-160374228D01*
X128357860Y-163027816D01*
X128382438Y-163057764D01*
X128412386Y-163082342D01*
X128412389Y-163082345D01*
X128420547Y-163089040D01*
X128501969Y-163155862D01*
X128638342Y-163228754D01*
X128786315Y-163273641D01*
X128901641Y-163285000D01*
X128901648Y-163285000D01*
X128940201Y-163288797D01*
X128978754Y-163285000D01*
X141403948Y-163285000D01*
X141442501Y-163288797D01*
X141481054Y-163285000D01*
X141481062Y-163285000D01*
X141596388Y-163273641D01*
X141744361Y-163228754D01*
X141880734Y-163155862D01*
X142000265Y-163057764D01*
X142024848Y-163027810D01*
X142777817Y-162274842D01*
X142807764Y-162250265D01*
X142905862Y-162130734D01*
X142978754Y-161994361D01*
X143023641Y-161846388D01*
X143035000Y-161731062D01*
X143035000Y-161731055D01*
X143038797Y-161692502D01*
X143035000Y-161653949D01*
X143035000Y-159538552D01*
X143038797Y-159499999D01*
X143035000Y-159461446D01*
X143035000Y-159461439D01*
X143023641Y-159346113D01*
X143012838Y-159310498D01*
X142978754Y-159198140D01*
X142973458Y-159188232D01*
X142905862Y-159061767D01*
X142852740Y-158997038D01*
X142832345Y-158972187D01*
X142832342Y-158972184D01*
X142807764Y-158942236D01*
X142777815Y-158917657D01*
X142194845Y-158334688D01*
X142170264Y-158304736D01*
X142050733Y-158206638D01*
X141961435Y-158158908D01*
X141862115Y-158037885D01*
X141732275Y-157931329D01*
X141584142Y-157852150D01*
X141423408Y-157803392D01*
X141256250Y-157786928D01*
X140743750Y-157786928D01*
X140576592Y-157803392D01*
X140415858Y-157852150D01*
X140338072Y-157893728D01*
X140338072Y-157600000D01*
X140325812Y-157475518D01*
X140289502Y-157355820D01*
X140230537Y-157245506D01*
X140151185Y-157148815D01*
X140054494Y-157069463D01*
X139944180Y-157010498D01*
X139824482Y-156974188D01*
X139700000Y-156961928D01*
X137600000Y-156961928D01*
X137475518Y-156974188D01*
X137355820Y-157010498D01*
X137245506Y-157069463D01*
X137200000Y-157106809D01*
X137154494Y-157069463D01*
X137044180Y-157010498D01*
X136924482Y-156974188D01*
X136800000Y-156961928D01*
X136035750Y-156965000D01*
X135877000Y-157123750D01*
X135877000Y-158373000D01*
X135897000Y-158373000D01*
X135897000Y-158627000D01*
X135877000Y-158627000D01*
X135877000Y-158647000D01*
X135623000Y-158647000D01*
X135623000Y-158627000D01*
X135603000Y-158627000D01*
X135603000Y-158373000D01*
X135623000Y-158373000D01*
X135623000Y-157123750D01*
X135472921Y-156973671D01*
X135482275Y-156968671D01*
X135612115Y-156862115D01*
X135718671Y-156732275D01*
X135797850Y-156584142D01*
X135846608Y-156423408D01*
X135863072Y-156256250D01*
X135863072Y-155743750D01*
X135846608Y-155576592D01*
X135797850Y-155415858D01*
X135718671Y-155267725D01*
X135612115Y-155137885D01*
X135583987Y-155114801D01*
X135667205Y-154990256D01*
X135745226Y-154801898D01*
X135785000Y-154601939D01*
X135785000Y-154575157D01*
X135875157Y-154485000D01*
X147065375Y-154485000D01*
X147074188Y-154574482D01*
X147110498Y-154694180D01*
X147169463Y-154804494D01*
X147248815Y-154901185D01*
X147345506Y-154980537D01*
X147455820Y-155039502D01*
X147575518Y-155075812D01*
X147700000Y-155088072D01*
X148800000Y-155088072D01*
X148924482Y-155075812D01*
X149044180Y-155039502D01*
X149154494Y-154980537D01*
X149251185Y-154901185D01*
X149330537Y-154804494D01*
X149389502Y-154694180D01*
X149425812Y-154574482D01*
X149438072Y-154450000D01*
X149438072Y-152950000D01*
X149425812Y-152825518D01*
X149389502Y-152705820D01*
X149330537Y-152595506D01*
X149251185Y-152498815D01*
X149154494Y-152419463D01*
X149044180Y-152360498D01*
X148924482Y-152324188D01*
X148800000Y-152311928D01*
X147700000Y-152311928D01*
X147575518Y-152324188D01*
X147455820Y-152360498D01*
X147345506Y-152419463D01*
X147248815Y-152498815D01*
X147169463Y-152595506D01*
X147110498Y-152705820D01*
X147074188Y-152825518D01*
X147065375Y-152915000D01*
X137195157Y-152915000D01*
X138527811Y-151582346D01*
X138557764Y-151557764D01*
X138655862Y-151438233D01*
X138728754Y-151301860D01*
X138736270Y-151277082D01*
X138773642Y-151153887D01*
X138782093Y-151068072D01*
X138785000Y-151038561D01*
X138785000Y-151038556D01*
X138788797Y-151000000D01*
X138785000Y-150961444D01*
X138785000Y-145788201D01*
X138986632Y-145653475D01*
X139090107Y-145550000D01*
X147061928Y-145550000D01*
X147074188Y-145674482D01*
X147110498Y-145794180D01*
X147169463Y-145904494D01*
X147248815Y-146001185D01*
X147345506Y-146080537D01*
X147455820Y-146139502D01*
X147575518Y-146175812D01*
X147700000Y-146188072D01*
X147964250Y-146185000D01*
X148123000Y-146026250D01*
X148123000Y-144927000D01*
X148377000Y-144927000D01*
X148377000Y-146026250D01*
X148535750Y-146185000D01*
X148800000Y-146188072D01*
X148924482Y-146175812D01*
X149044180Y-146139502D01*
X149154494Y-146080537D01*
X149251185Y-146001185D01*
X149330537Y-145904494D01*
X149389502Y-145794180D01*
X149425812Y-145674482D01*
X149438072Y-145550000D01*
X149435000Y-145085750D01*
X149276250Y-144927000D01*
X148377000Y-144927000D01*
X148123000Y-144927000D01*
X147223750Y-144927000D01*
X147065000Y-145085750D01*
X147061928Y-145550000D01*
X139090107Y-145550000D01*
X139193475Y-145446632D01*
X139355990Y-145203411D01*
X139467932Y-144933158D01*
X139525000Y-144646260D01*
X139525000Y-144353740D01*
X139467932Y-144066842D01*
X139460956Y-144050000D01*
X147061928Y-144050000D01*
X147065000Y-144514250D01*
X147223750Y-144673000D01*
X148123000Y-144673000D01*
X148123000Y-143573750D01*
X148377000Y-143573750D01*
X148377000Y-144673000D01*
X149276250Y-144673000D01*
X149435000Y-144514250D01*
X149438072Y-144050000D01*
X149425812Y-143925518D01*
X149389502Y-143805820D01*
X149330537Y-143695506D01*
X149251185Y-143598815D01*
X149154494Y-143519463D01*
X149044180Y-143460498D01*
X148924482Y-143424188D01*
X148800000Y-143411928D01*
X148535750Y-143415000D01*
X148377000Y-143573750D01*
X148123000Y-143573750D01*
X147964250Y-143415000D01*
X147700000Y-143411928D01*
X147575518Y-143424188D01*
X147455820Y-143460498D01*
X147345506Y-143519463D01*
X147248815Y-143598815D01*
X147169463Y-143695506D01*
X147110498Y-143805820D01*
X147074188Y-143925518D01*
X147061928Y-144050000D01*
X139460956Y-144050000D01*
X139355990Y-143796589D01*
X139193475Y-143553368D01*
X138986632Y-143346525D01*
X138743411Y-143184010D01*
X138473158Y-143072068D01*
X138186260Y-143015000D01*
X137893740Y-143015000D01*
X137624999Y-143068456D01*
X137624999Y-137485158D01*
X144075157Y-131035000D01*
X149461447Y-131035000D01*
X149500000Y-131038797D01*
X149538553Y-131035000D01*
X149538561Y-131035000D01*
X149653887Y-131023641D01*
X149801860Y-130978754D01*
X149938233Y-130905862D01*
X150057764Y-130807764D01*
X150082347Y-130777810D01*
X154927816Y-125932342D01*
X154957764Y-125907764D01*
X155055862Y-125788233D01*
X155128754Y-125651860D01*
X155173641Y-125503887D01*
X155185000Y-125388561D01*
X155185000Y-125388554D01*
X155188797Y-125350001D01*
X155185000Y-125311448D01*
X155185000Y-111541877D01*
X155442252Y-111369987D01*
X155669987Y-111142252D01*
X155848918Y-110874463D01*
X155972168Y-110576912D01*
X156035000Y-110261033D01*
X156035000Y-109938967D01*
X155972168Y-109623088D01*
X155848918Y-109325537D01*
X155669987Y-109057748D01*
X155442252Y-108830013D01*
X155174463Y-108651082D01*
X154876912Y-108527832D01*
X154561033Y-108465000D01*
X154238967Y-108465000D01*
X153923088Y-108527832D01*
X153625537Y-108651082D01*
X153357748Y-108830013D01*
X153130013Y-109057748D01*
X152951082Y-109325537D01*
X152827832Y-109623088D01*
X152765000Y-109938967D01*
X152765000Y-110261033D01*
X152827832Y-110576912D01*
X152951082Y-110874463D01*
X153130013Y-111142252D01*
X153357748Y-111369987D01*
X153615000Y-111541877D01*
X153615001Y-125024841D01*
X149174843Y-129465000D01*
X143788556Y-129465000D01*
X143750000Y-129461203D01*
X143711444Y-129465000D01*
X143711439Y-129465000D01*
X143671026Y-129468980D01*
X143596113Y-129476358D01*
X143448140Y-129521246D01*
X143311767Y-129594138D01*
X143192236Y-129692236D01*
X143167655Y-129722188D01*
X136383797Y-136506046D01*
X136282235Y-136589397D01*
X136184137Y-136708928D01*
X136111245Y-136845301D01*
X136066358Y-136993274D01*
X136051201Y-137147161D01*
X136054999Y-137185722D01*
X136055000Y-143013534D01*
X135785750Y-143015000D01*
X135627000Y-143173750D01*
X135627000Y-144373000D01*
X135647000Y-144373000D01*
X135647000Y-144627000D01*
X135627000Y-144627000D01*
X135627000Y-145826250D01*
X135785750Y-145985000D01*
X136055000Y-145986466D01*
X136055000Y-147690911D01*
X129698494Y-154047417D01*
X129651077Y-154000000D01*
X130596428Y-153054649D01*
X130675780Y-152957958D01*
X130734745Y-152847644D01*
X130771055Y-152727946D01*
X130783315Y-152603464D01*
X130771055Y-152478982D01*
X130734745Y-152359284D01*
X130675780Y-152248970D01*
X130596428Y-152152279D01*
X130207519Y-151763370D01*
X130110828Y-151684018D01*
X130110349Y-151683762D01*
X130110094Y-151683285D01*
X130030742Y-151586594D01*
X129641833Y-151197685D01*
X129545142Y-151118333D01*
X129544665Y-151118078D01*
X129544409Y-151117599D01*
X129465057Y-151020908D01*
X129076148Y-150631999D01*
X128979457Y-150552647D01*
X128978979Y-150552392D01*
X128978724Y-150551914D01*
X128964843Y-150535000D01*
X129101939Y-150535000D01*
X129301898Y-150495226D01*
X129490256Y-150417205D01*
X129659774Y-150303937D01*
X129803937Y-150159774D01*
X129917205Y-149990256D01*
X129995226Y-149801898D01*
X130035000Y-149601939D01*
X130035000Y-149398061D01*
X129995226Y-149198102D01*
X129917205Y-149009744D01*
X129803937Y-148840226D01*
X129659774Y-148696063D01*
X129490256Y-148582795D01*
X129301898Y-148504774D01*
X129101939Y-148465000D01*
X128898061Y-148465000D01*
X128698102Y-148504774D01*
X128509744Y-148582795D01*
X128340226Y-148696063D01*
X128324078Y-148712211D01*
X128295760Y-148715000D01*
X128295753Y-148715000D01*
X128194804Y-148724943D01*
X128180426Y-148726359D01*
X128162068Y-148731928D01*
X128032454Y-148771246D01*
X127896081Y-148844138D01*
X127835873Y-148893550D01*
X127806501Y-148917655D01*
X127806498Y-148917658D01*
X127776550Y-148942236D01*
X127751972Y-148972185D01*
X127584153Y-149140004D01*
X127562940Y-149118791D01*
X128152827Y-148528904D01*
X128182774Y-148504327D01*
X128209924Y-148471246D01*
X128231460Y-148445004D01*
X128280872Y-148384796D01*
X128353764Y-148248423D01*
X128398651Y-148100450D01*
X128410010Y-147985124D01*
X128410010Y-147985117D01*
X128413807Y-147946564D01*
X128410010Y-147908011D01*
X128410010Y-145350000D01*
X134011928Y-145350000D01*
X134024188Y-145474482D01*
X134060498Y-145594180D01*
X134119463Y-145704494D01*
X134198815Y-145801185D01*
X134295506Y-145880537D01*
X134405820Y-145939502D01*
X134525518Y-145975812D01*
X134650000Y-145988072D01*
X135214250Y-145985000D01*
X135373000Y-145826250D01*
X135373000Y-144627000D01*
X134173750Y-144627000D01*
X134015000Y-144785750D01*
X134011928Y-145350000D01*
X128410010Y-145350000D01*
X128410010Y-143650000D01*
X134011928Y-143650000D01*
X134015000Y-144214250D01*
X134173750Y-144373000D01*
X135373000Y-144373000D01*
X135373000Y-143173750D01*
X135214250Y-143015000D01*
X134650000Y-143011928D01*
X134525518Y-143024188D01*
X134405820Y-143060498D01*
X134295506Y-143119463D01*
X134198815Y-143198815D01*
X134119463Y-143295506D01*
X134060498Y-143405820D01*
X134024188Y-143525518D01*
X134011928Y-143650000D01*
X128410010Y-143650000D01*
X128410010Y-130290117D01*
X128473368Y-130353475D01*
X128716589Y-130515990D01*
X128986842Y-130627932D01*
X129273740Y-130685000D01*
X129566260Y-130685000D01*
X129853158Y-130627932D01*
X130123411Y-130515990D01*
X130366632Y-130353475D01*
X130573475Y-130146632D01*
X130695195Y-129964466D01*
X130764822Y-130081355D01*
X130959731Y-130297588D01*
X131193080Y-130471641D01*
X131455901Y-130596825D01*
X131603110Y-130641476D01*
X131833000Y-130520155D01*
X131833000Y-129327000D01*
X132087000Y-129327000D01*
X132087000Y-130520155D01*
X132316890Y-130641476D01*
X132464099Y-130596825D01*
X132726920Y-130471641D01*
X132960269Y-130297588D01*
X133155178Y-130081355D01*
X133304157Y-129831252D01*
X133401481Y-129556891D01*
X133280814Y-129327000D01*
X132087000Y-129327000D01*
X131833000Y-129327000D01*
X131813000Y-129327000D01*
X131813000Y-129073000D01*
X131833000Y-129073000D01*
X131833000Y-127879845D01*
X132087000Y-127879845D01*
X132087000Y-129073000D01*
X133280814Y-129073000D01*
X133401481Y-128843109D01*
X133304157Y-128568748D01*
X133155178Y-128318645D01*
X132960269Y-128102412D01*
X132726920Y-127928359D01*
X132464099Y-127803175D01*
X132316890Y-127758524D01*
X132087000Y-127879845D01*
X131833000Y-127879845D01*
X131603110Y-127758524D01*
X131455901Y-127803175D01*
X131193080Y-127928359D01*
X130959731Y-128102412D01*
X130764822Y-128318645D01*
X130695195Y-128435534D01*
X130573475Y-128253368D01*
X130366632Y-128046525D01*
X130123411Y-127884010D01*
X129853158Y-127772068D01*
X129566260Y-127715000D01*
X129273740Y-127715000D01*
X128986842Y-127772068D01*
X128716589Y-127884010D01*
X128473368Y-128046525D01*
X128266525Y-128253368D01*
X128150000Y-128427760D01*
X128033475Y-128253368D01*
X127826632Y-128046525D01*
X127583411Y-127884010D01*
X127313158Y-127772068D01*
X127026260Y-127715000D01*
X126733740Y-127715000D01*
X126446842Y-127772068D01*
X126176589Y-127884010D01*
X125933368Y-128046525D01*
X125726525Y-128253368D01*
X125610000Y-128427760D01*
X125493475Y-128253368D01*
X125286632Y-128046525D01*
X125043411Y-127884010D01*
X124773158Y-127772068D01*
X124486260Y-127715000D01*
X124193740Y-127715000D01*
X123906842Y-127772068D01*
X123636589Y-127884010D01*
X123393368Y-128046525D01*
X123261513Y-128178380D01*
X123239502Y-128105820D01*
X123180537Y-127995506D01*
X123101185Y-127898815D01*
X123004494Y-127819463D01*
X122894180Y-127760498D01*
X122774482Y-127724188D01*
X122650000Y-127711928D01*
X122085000Y-127711928D01*
X122085000Y-104125157D01*
X122191304Y-104018853D01*
X122190913Y-104024198D01*
X122188220Y-104035391D01*
X122185995Y-104091387D01*
X122181904Y-104147286D01*
X122183320Y-104158713D01*
X122182863Y-104170217D01*
X122191605Y-104225572D01*
X122198498Y-104281195D01*
X122202116Y-104292126D01*
X122203912Y-104303498D01*
X122223290Y-104356095D01*
X122240898Y-104409294D01*
X122263221Y-104448646D01*
X135679554Y-132140441D01*
X135703511Y-132193477D01*
X135728534Y-132228480D01*
X135751009Y-132265192D01*
X135767689Y-132283253D01*
X135781982Y-132303246D01*
X135813354Y-132332697D01*
X135842558Y-132364317D01*
X135862441Y-132378776D01*
X135880359Y-132395597D01*
X135916870Y-132418359D01*
X135951686Y-132443678D01*
X135974012Y-132453982D01*
X135994864Y-132466982D01*
X136035112Y-132482183D01*
X136074199Y-132500223D01*
X136098105Y-132505974D01*
X136121094Y-132514656D01*
X136163536Y-132521713D01*
X136205390Y-132531781D01*
X136229957Y-132532757D01*
X136254199Y-132536788D01*
X136297204Y-132535429D01*
X136340217Y-132537138D01*
X136364504Y-132533302D01*
X136389065Y-132532526D01*
X136430981Y-132522803D01*
X136473498Y-132516088D01*
X136496565Y-132507590D01*
X136520508Y-132502036D01*
X136559724Y-132484321D01*
X136600112Y-132469442D01*
X136649798Y-132439025D01*
X148962485Y-125348995D01*
X149012406Y-125322312D01*
X149046912Y-125293993D01*
X149083245Y-125268020D01*
X149098966Y-125251274D01*
X149116710Y-125236711D01*
X149145032Y-125202202D01*
X149175597Y-125169642D01*
X149187744Y-125150158D01*
X149202312Y-125132407D01*
X149223361Y-125093027D01*
X149246982Y-125055138D01*
X149255094Y-125033657D01*
X149265919Y-125013406D01*
X149278884Y-124970667D01*
X149294655Y-124928907D01*
X149298420Y-124906264D01*
X149305088Y-124884283D01*
X149309465Y-124839839D01*
X149316788Y-124795802D01*
X149315000Y-124739223D01*
X149315000Y-116811167D01*
X149316115Y-116804974D01*
X149315000Y-116743800D01*
X149315000Y-116716353D01*
X149314386Y-116710120D01*
X149313656Y-116670063D01*
X149307789Y-116643142D01*
X149305088Y-116615717D01*
X149293457Y-116577374D01*
X149284925Y-116538224D01*
X149273918Y-116512962D01*
X149265919Y-116486594D01*
X149247032Y-116451258D01*
X149244531Y-116445519D01*
X149231158Y-116421561D01*
X149202312Y-116367593D01*
X149198320Y-116362728D01*
X141873016Y-103238967D01*
X152765000Y-103238967D01*
X152765000Y-103561033D01*
X152827832Y-103876912D01*
X152951082Y-104174463D01*
X153130013Y-104442252D01*
X153357748Y-104669987D01*
X153625537Y-104848918D01*
X153923088Y-104972168D01*
X154238967Y-105035000D01*
X154561033Y-105035000D01*
X154876912Y-104972168D01*
X155174463Y-104848918D01*
X155442252Y-104669987D01*
X155669987Y-104442252D01*
X155848918Y-104174463D01*
X155972168Y-103876912D01*
X156035000Y-103561033D01*
X156035000Y-103238967D01*
X155972168Y-102923088D01*
X155848918Y-102625537D01*
X155669987Y-102357748D01*
X155442252Y-102130013D01*
X155174463Y-101951082D01*
X154876912Y-101827832D01*
X154561033Y-101765000D01*
X154238967Y-101765000D01*
X153923088Y-101827832D01*
X153625537Y-101951082D01*
X153357748Y-102130013D01*
X153130013Y-102357748D01*
X152951082Y-102625537D01*
X152827832Y-102923088D01*
X152765000Y-103238967D01*
X141873016Y-103238967D01*
X137740566Y-95835413D01*
X153444192Y-95835413D01*
X153539956Y-96099814D01*
X153829571Y-96240704D01*
X154141108Y-96322384D01*
X154462595Y-96341718D01*
X154781675Y-96297961D01*
X155086088Y-96192795D01*
X155260044Y-96099814D01*
X155355808Y-95835413D01*
X154400000Y-94879605D01*
X153444192Y-95835413D01*
X137740566Y-95835413D01*
X137141749Y-94762595D01*
X152758282Y-94762595D01*
X152802039Y-95081675D01*
X152907205Y-95386088D01*
X153000186Y-95560044D01*
X153264587Y-95655808D01*
X154220395Y-94700000D01*
X154579605Y-94700000D01*
X155535413Y-95655808D01*
X155799814Y-95560044D01*
X155940704Y-95270429D01*
X156022384Y-94958892D01*
X156041718Y-94637405D01*
X155997961Y-94318325D01*
X155892795Y-94013912D01*
X155799814Y-93839956D01*
X155535413Y-93744192D01*
X154579605Y-94700000D01*
X154220395Y-94700000D01*
X153264587Y-93744192D01*
X153000186Y-93839956D01*
X152859296Y-94129571D01*
X152777616Y-94441108D01*
X152758282Y-94762595D01*
X137141749Y-94762595D01*
X136929849Y-94382963D01*
X136929102Y-94380706D01*
X136897055Y-94324211D01*
X136881733Y-94296760D01*
X136880376Y-94294808D01*
X136862527Y-94263341D01*
X136841974Y-94239543D01*
X136824029Y-94213717D01*
X136797981Y-94188601D01*
X136774334Y-94161220D01*
X136749534Y-94141889D01*
X136726894Y-94120059D01*
X136696448Y-94100509D01*
X136667912Y-94078265D01*
X136639815Y-94064142D01*
X136613354Y-94047151D01*
X136579679Y-94033916D01*
X136547351Y-94017667D01*
X136517038Y-94009297D01*
X136487772Y-93997795D01*
X136452159Y-93991383D01*
X136417286Y-93981754D01*
X136385933Y-93979459D01*
X136354974Y-93973885D01*
X136318789Y-93974545D01*
X136282713Y-93971904D01*
X136251508Y-93975771D01*
X136220064Y-93976344D01*
X136184711Y-93984048D01*
X136148803Y-93988498D01*
X136118950Y-93998379D01*
X136088225Y-94005075D01*
X136055052Y-94019529D01*
X136020705Y-94030898D01*
X135993355Y-94046412D01*
X135964525Y-94058974D01*
X135934815Y-94079618D01*
X135932748Y-94080791D01*
X135907056Y-94098908D01*
X135853717Y-94135971D01*
X135852067Y-94137682D01*
X123033902Y-103176255D01*
X126170391Y-100039767D01*
X126269670Y-100049545D01*
X126436828Y-100033081D01*
X126597562Y-99984323D01*
X126745695Y-99905144D01*
X126875535Y-99798588D01*
X127184894Y-99489229D01*
X127291450Y-99359389D01*
X127370629Y-99211256D01*
X127419387Y-99050522D01*
X127431145Y-98931145D01*
X127550522Y-98919387D01*
X127711256Y-98870629D01*
X127859389Y-98791450D01*
X127989229Y-98684894D01*
X128298588Y-98375535D01*
X128405144Y-98245695D01*
X128484323Y-98097562D01*
X128533081Y-97936828D01*
X128549545Y-97769670D01*
X128533081Y-97602512D01*
X128484323Y-97441778D01*
X128405144Y-97293645D01*
X128298588Y-97163805D01*
X127936195Y-96801412D01*
X127806355Y-96694856D01*
X127658222Y-96615677D01*
X127497488Y-96566919D01*
X127347822Y-96552178D01*
X127333081Y-96402512D01*
X127284323Y-96241778D01*
X127205144Y-96093645D01*
X127098588Y-95963805D01*
X126889098Y-95754315D01*
X129078826Y-93564587D01*
X153444192Y-93564587D01*
X154400000Y-94520395D01*
X155355808Y-93564587D01*
X155260044Y-93300186D01*
X154970429Y-93159296D01*
X154658892Y-93077616D01*
X154337405Y-93058282D01*
X154018325Y-93102039D01*
X153713912Y-93207205D01*
X153539956Y-93300186D01*
X153444192Y-93564587D01*
X129078826Y-93564587D01*
X130877817Y-91765597D01*
X130907764Y-91741020D01*
X131005862Y-91621489D01*
X131078754Y-91485116D01*
X131123641Y-91337143D01*
X131135000Y-91221817D01*
X131135000Y-91221810D01*
X131138797Y-91183257D01*
X131135000Y-91144704D01*
X131135000Y-74738556D01*
X131138797Y-74700000D01*
X131135000Y-74661444D01*
X131135000Y-74661439D01*
X131131020Y-74621026D01*
X131123642Y-74546113D01*
X131078754Y-74398140D01*
X131005862Y-74261767D01*
X130907764Y-74142236D01*
X130877810Y-74117653D01*
X127339767Y-70579610D01*
X127349545Y-70480330D01*
X127346182Y-70446182D01*
X127380330Y-70449545D01*
X127547488Y-70433081D01*
X127708222Y-70384323D01*
X127856355Y-70305144D01*
X127986195Y-70198588D01*
X128348588Y-69836195D01*
X128455144Y-69706355D01*
X128534323Y-69558222D01*
X128583081Y-69397488D01*
X128599545Y-69230330D01*
X128583081Y-69063172D01*
X128534323Y-68902438D01*
X128455144Y-68754305D01*
X128348588Y-68624465D01*
X128191847Y-68467724D01*
X128191847Y-67445402D01*
X128195644Y-67406847D01*
X128191847Y-67368287D01*
X128191847Y-67368286D01*
X128181004Y-67258194D01*
X128180489Y-67252960D01*
X128135601Y-67104987D01*
X128087864Y-67015677D01*
X128062709Y-66968614D01*
X128013297Y-66908406D01*
X127989192Y-66879034D01*
X127989189Y-66879031D01*
X127964611Y-66849083D01*
X127934664Y-66824506D01*
X122982347Y-61872190D01*
X122957764Y-61842236D01*
X122838233Y-61744138D01*
X122701860Y-61671246D01*
X122553887Y-61626359D01*
X122438561Y-61615000D01*
X122438553Y-61615000D01*
X122400000Y-61611203D01*
X122361447Y-61615000D01*
X113525401Y-61615000D01*
X113462115Y-61537885D01*
X113332275Y-61431329D01*
X113184142Y-61352150D01*
X113023408Y-61303392D01*
X112856250Y-61286928D01*
X112634585Y-61286928D01*
X112169847Y-60822190D01*
X112145264Y-60792236D01*
X112025733Y-60694138D01*
X111889360Y-60621246D01*
X111741387Y-60576359D01*
X111626061Y-60565000D01*
X111626053Y-60565000D01*
X111587500Y-60561203D01*
X111548947Y-60565000D01*
X102388552Y-60565000D01*
X102349999Y-60561203D01*
X102311446Y-60565000D01*
X102311439Y-60565000D01*
X102210490Y-60574943D01*
X102196112Y-60576359D01*
X102048140Y-60621246D01*
X101911767Y-60694138D01*
X101851559Y-60743550D01*
X101822187Y-60767655D01*
X101822184Y-60767658D01*
X101792236Y-60792236D01*
X101767658Y-60822184D01*
X97860711Y-64729132D01*
X98921074Y-63491337D01*
X98926711Y-63486711D01*
X98964903Y-63440175D01*
X98982105Y-63420094D01*
X98986260Y-63414151D01*
X99012312Y-63382407D01*
X99024834Y-63358979D01*
X99040049Y-63337218D01*
X99056557Y-63299630D01*
X99075919Y-63263406D01*
X99083630Y-63237986D01*
X99094307Y-63213675D01*
X99103165Y-63173588D01*
X99115088Y-63134283D01*
X99117692Y-63107846D01*
X99123421Y-63081919D01*
X99124288Y-63040879D01*
X99125000Y-63033647D01*
X99125000Y-63007152D01*
X99126270Y-62947017D01*
X99125000Y-62939843D01*
X99125000Y-43915000D01*
X139155001Y-43915000D01*
X139155000Y-73036353D01*
G37*
G04 #@! TD.AperFunction*
D23*
X141127000Y-160310500D02*
X141147000Y-160310500D01*
X141147000Y-160564500D01*
X141127000Y-160564500D01*
X141127000Y-161351250D01*
X141285750Y-161510000D01*
X141321759Y-161510585D01*
X141117344Y-161715000D01*
X140336595Y-161715000D01*
X140338072Y-161700000D01*
X140336979Y-161481538D01*
X140400518Y-161500812D01*
X140525000Y-161513072D01*
X140714250Y-161510000D01*
X140873000Y-161351250D01*
X140873000Y-160564500D01*
X140853000Y-160564500D01*
X140853000Y-160310500D01*
X140873000Y-160310500D01*
X140873000Y-160290500D01*
X141127000Y-160290500D01*
X141127000Y-160310500D01*
G04 #@! TA.AperFunction,Conductor*
D24*
G36*
X141127000Y-160310500D02*
G01*
X141147000Y-160310500D01*
X141147000Y-160564500D01*
X141127000Y-160564500D01*
X141127000Y-161351250D01*
X141285750Y-161510000D01*
X141321759Y-161510585D01*
X141117344Y-161715000D01*
X140336595Y-161715000D01*
X140338072Y-161700000D01*
X140336979Y-161481538D01*
X140400518Y-161500812D01*
X140525000Y-161513072D01*
X140714250Y-161510000D01*
X140873000Y-161351250D01*
X140873000Y-160564500D01*
X140853000Y-160564500D01*
X140853000Y-160310500D01*
X140873000Y-160310500D01*
X140873000Y-160290500D01*
X141127000Y-160290500D01*
X141127000Y-160310500D01*
G37*
G04 #@! TD.AperFunction*
D23*
X134092725Y-156968671D02*
X134240858Y-157047850D01*
X134336492Y-157076860D01*
X134248815Y-157148815D01*
X134169463Y-157245506D01*
X134110498Y-157355820D01*
X134074188Y-157475518D01*
X134061928Y-157600000D01*
X134065000Y-158214250D01*
X134167151Y-158316401D01*
X134079494Y-158244463D01*
X133969180Y-158185498D01*
X133849482Y-158149188D01*
X133725000Y-158136928D01*
X133535750Y-158140000D01*
X133377000Y-158298750D01*
X133377000Y-159085500D01*
X133397000Y-159085500D01*
X133397000Y-159339500D01*
X133377000Y-159339500D01*
X133377000Y-159359500D01*
X133123000Y-159359500D01*
X133123000Y-159339500D01*
X132298750Y-159339500D01*
X132140000Y-159498250D01*
X132136928Y-159650000D01*
X132149188Y-159774482D01*
X132185498Y-159894180D01*
X132244463Y-160004494D01*
X132299100Y-160071070D01*
X132281329Y-160092725D01*
X132202150Y-160240858D01*
X132153392Y-160401592D01*
X132136928Y-160568750D01*
X132136928Y-160952915D01*
X132124843Y-160965000D01*
X129646730Y-160965000D01*
X128462844Y-159781114D01*
X128482376Y-159784999D01*
X128686254Y-159784999D01*
X128836065Y-159755200D01*
X128915858Y-159797850D01*
X129076592Y-159846608D01*
X129243750Y-159863072D01*
X129681250Y-159863072D01*
X129848408Y-159846608D01*
X130009142Y-159797850D01*
X130157275Y-159718671D01*
X130178930Y-159700900D01*
X130245506Y-159755537D01*
X130355820Y-159814502D01*
X130475518Y-159850812D01*
X130600000Y-159863072D01*
X130751750Y-159860000D01*
X130910500Y-159701250D01*
X130910500Y-158877000D01*
X131164500Y-158877000D01*
X131164500Y-159701250D01*
X131323250Y-159860000D01*
X131475000Y-159863072D01*
X131599482Y-159850812D01*
X131719180Y-159814502D01*
X131829494Y-159755537D01*
X131926185Y-159676185D01*
X132005537Y-159579494D01*
X132064502Y-159469180D01*
X132100812Y-159349482D01*
X132113072Y-159225000D01*
X132110000Y-159035750D01*
X131951250Y-158877000D01*
X131164500Y-158877000D01*
X130910500Y-158877000D01*
X130890500Y-158877000D01*
X130890500Y-158775000D01*
X132136928Y-158775000D01*
X132140000Y-158926750D01*
X132298750Y-159085500D01*
X133123000Y-159085500D01*
X133123000Y-158298750D01*
X132964250Y-158140000D01*
X132775000Y-158136928D01*
X132650518Y-158149188D01*
X132530820Y-158185498D01*
X132420506Y-158244463D01*
X132323815Y-158323815D01*
X132244463Y-158420506D01*
X132185498Y-158530820D01*
X132149188Y-158650518D01*
X132136928Y-158775000D01*
X130890500Y-158775000D01*
X130890500Y-158623000D01*
X130910500Y-158623000D01*
X130910500Y-158603000D01*
X131164500Y-158603000D01*
X131164500Y-158623000D01*
X131951250Y-158623000D01*
X132110000Y-158464250D01*
X132113072Y-158275000D01*
X132100812Y-158150518D01*
X132064502Y-158030820D01*
X132005537Y-157920506D01*
X131926185Y-157823815D01*
X131829494Y-157744463D01*
X131719180Y-157685498D01*
X131656249Y-157666408D01*
X132427792Y-156894866D01*
X132517725Y-156968671D01*
X132665858Y-157047850D01*
X132826592Y-157096608D01*
X132993750Y-157113072D01*
X133431250Y-157113072D01*
X133598408Y-157096608D01*
X133759142Y-157047850D01*
X133907275Y-156968671D01*
X134000000Y-156892574D01*
X134092725Y-156968671D01*
G04 #@! TA.AperFunction,Conductor*
D24*
G36*
X134092725Y-156968671D02*
G01*
X134240858Y-157047850D01*
X134336492Y-157076860D01*
X134248815Y-157148815D01*
X134169463Y-157245506D01*
X134110498Y-157355820D01*
X134074188Y-157475518D01*
X134061928Y-157600000D01*
X134065000Y-158214250D01*
X134167151Y-158316401D01*
X134079494Y-158244463D01*
X133969180Y-158185498D01*
X133849482Y-158149188D01*
X133725000Y-158136928D01*
X133535750Y-158140000D01*
X133377000Y-158298750D01*
X133377000Y-159085500D01*
X133397000Y-159085500D01*
X133397000Y-159339500D01*
X133377000Y-159339500D01*
X133377000Y-159359500D01*
X133123000Y-159359500D01*
X133123000Y-159339500D01*
X132298750Y-159339500D01*
X132140000Y-159498250D01*
X132136928Y-159650000D01*
X132149188Y-159774482D01*
X132185498Y-159894180D01*
X132244463Y-160004494D01*
X132299100Y-160071070D01*
X132281329Y-160092725D01*
X132202150Y-160240858D01*
X132153392Y-160401592D01*
X132136928Y-160568750D01*
X132136928Y-160952915D01*
X132124843Y-160965000D01*
X129646730Y-160965000D01*
X128462844Y-159781114D01*
X128482376Y-159784999D01*
X128686254Y-159784999D01*
X128836065Y-159755200D01*
X128915858Y-159797850D01*
X129076592Y-159846608D01*
X129243750Y-159863072D01*
X129681250Y-159863072D01*
X129848408Y-159846608D01*
X130009142Y-159797850D01*
X130157275Y-159718671D01*
X130178930Y-159700900D01*
X130245506Y-159755537D01*
X130355820Y-159814502D01*
X130475518Y-159850812D01*
X130600000Y-159863072D01*
X130751750Y-159860000D01*
X130910500Y-159701250D01*
X130910500Y-158877000D01*
X131164500Y-158877000D01*
X131164500Y-159701250D01*
X131323250Y-159860000D01*
X131475000Y-159863072D01*
X131599482Y-159850812D01*
X131719180Y-159814502D01*
X131829494Y-159755537D01*
X131926185Y-159676185D01*
X132005537Y-159579494D01*
X132064502Y-159469180D01*
X132100812Y-159349482D01*
X132113072Y-159225000D01*
X132110000Y-159035750D01*
X131951250Y-158877000D01*
X131164500Y-158877000D01*
X130910500Y-158877000D01*
X130890500Y-158877000D01*
X130890500Y-158775000D01*
X132136928Y-158775000D01*
X132140000Y-158926750D01*
X132298750Y-159085500D01*
X133123000Y-159085500D01*
X133123000Y-158298750D01*
X132964250Y-158140000D01*
X132775000Y-158136928D01*
X132650518Y-158149188D01*
X132530820Y-158185498D01*
X132420506Y-158244463D01*
X132323815Y-158323815D01*
X132244463Y-158420506D01*
X132185498Y-158530820D01*
X132149188Y-158650518D01*
X132136928Y-158775000D01*
X130890500Y-158775000D01*
X130890500Y-158623000D01*
X130910500Y-158623000D01*
X130910500Y-158603000D01*
X131164500Y-158603000D01*
X131164500Y-158623000D01*
X131951250Y-158623000D01*
X132110000Y-158464250D01*
X132113072Y-158275000D01*
X132100812Y-158150518D01*
X132064502Y-158030820D01*
X132005537Y-157920506D01*
X131926185Y-157823815D01*
X131829494Y-157744463D01*
X131719180Y-157685498D01*
X131656249Y-157666408D01*
X132427792Y-156894866D01*
X132517725Y-156968671D01*
X132665858Y-157047850D01*
X132826592Y-157096608D01*
X132993750Y-157113072D01*
X133431250Y-157113072D01*
X133598408Y-157096608D01*
X133759142Y-157047850D01*
X133907275Y-156968671D01*
X134000000Y-156892574D01*
X134092725Y-156968671D01*
G37*
G04 #@! TD.AperFunction*
D23*
X138777000Y-160673000D02*
X138797000Y-160673000D01*
X138797000Y-160927000D01*
X138777000Y-160927000D01*
X138777000Y-160947000D01*
X138523000Y-160947000D01*
X138523000Y-160927000D01*
X138503000Y-160927000D01*
X138503000Y-160673000D01*
X138523000Y-160673000D01*
X138523000Y-160653000D01*
X138777000Y-160653000D01*
X138777000Y-160673000D01*
G04 #@! TA.AperFunction,Conductor*
D24*
G36*
X138777000Y-160673000D02*
G01*
X138797000Y-160673000D01*
X138797000Y-160927000D01*
X138777000Y-160927000D01*
X138777000Y-160947000D01*
X138523000Y-160947000D01*
X138523000Y-160927000D01*
X138503000Y-160927000D01*
X138503000Y-160673000D01*
X138523000Y-160673000D01*
X138523000Y-160653000D01*
X138777000Y-160653000D01*
X138777000Y-160673000D01*
G37*
G04 #@! TD.AperFunction*
D23*
X114136928Y-155784586D02*
X114136928Y-156006250D01*
X114153392Y-156173408D01*
X114202150Y-156334142D01*
X114281329Y-156482275D01*
X114387885Y-156612115D01*
X114416013Y-156635199D01*
X114332795Y-156759744D01*
X114254774Y-156948102D01*
X114215000Y-157148061D01*
X114215000Y-157351939D01*
X114254774Y-157551898D01*
X114332795Y-157740256D01*
X114446063Y-157909774D01*
X114590226Y-158053937D01*
X114759744Y-158167205D01*
X114948102Y-158245226D01*
X115148061Y-158285000D01*
X115351939Y-158285000D01*
X115551898Y-158245226D01*
X115740256Y-158167205D01*
X115795373Y-158130377D01*
X115640000Y-158285750D01*
X115636928Y-158475000D01*
X115649188Y-158599482D01*
X115685498Y-158719180D01*
X115744463Y-158829494D01*
X115823815Y-158926185D01*
X115920506Y-159005537D01*
X116030820Y-159064502D01*
X116150518Y-159100812D01*
X116275000Y-159113072D01*
X116426750Y-159110000D01*
X116585500Y-158951250D01*
X116585500Y-158127000D01*
X116565500Y-158127000D01*
X116565500Y-157873000D01*
X116585500Y-157873000D01*
X116585500Y-157048750D01*
X116426750Y-156890000D01*
X116275000Y-156886928D01*
X116222047Y-156892143D01*
X116167205Y-156759744D01*
X116165893Y-156757780D01*
X116240858Y-156797850D01*
X116401592Y-156846608D01*
X116568750Y-156863072D01*
X117006250Y-156863072D01*
X117173408Y-156846608D01*
X117334142Y-156797850D01*
X117482275Y-156718671D01*
X117494735Y-156708446D01*
X117590226Y-156803937D01*
X117759744Y-156917205D01*
X117800460Y-156934070D01*
X117740858Y-156952150D01*
X117592725Y-157031329D01*
X117571070Y-157049100D01*
X117504494Y-156994463D01*
X117394180Y-156935498D01*
X117274482Y-156899188D01*
X117150000Y-156886928D01*
X116998250Y-156890000D01*
X116839500Y-157048750D01*
X116839500Y-157873000D01*
X116859500Y-157873000D01*
X116859500Y-158127000D01*
X116839500Y-158127000D01*
X116839500Y-158951250D01*
X116998250Y-159110000D01*
X117150000Y-159113072D01*
X117274482Y-159100812D01*
X117394180Y-159064502D01*
X117504494Y-159005537D01*
X117571070Y-158950900D01*
X117592725Y-158968671D01*
X117740858Y-159047850D01*
X117901592Y-159096608D01*
X118068750Y-159113072D01*
X118506250Y-159113072D01*
X118673408Y-159096608D01*
X118796156Y-159059373D01*
X118390529Y-159465000D01*
X115825157Y-159465000D01*
X112332347Y-155972190D01*
X112307764Y-155942236D01*
X112188233Y-155844138D01*
X112051860Y-155771246D01*
X111903887Y-155726359D01*
X111788561Y-155715000D01*
X111788553Y-155715000D01*
X111750000Y-155711203D01*
X111711447Y-155715000D01*
X111533430Y-155715000D01*
X110365609Y-154547180D01*
X110341026Y-154517226D01*
X110221495Y-154419128D01*
X110085122Y-154346236D01*
X109937149Y-154301349D01*
X109821823Y-154289990D01*
X109821815Y-154289990D01*
X109783262Y-154286193D01*
X109744709Y-154289990D01*
X107001066Y-154289990D01*
X106962510Y-154286193D01*
X106923954Y-154289990D01*
X106923949Y-154289990D01*
X106883536Y-154293970D01*
X106808623Y-154301348D01*
X106664019Y-154345214D01*
X106660650Y-154346236D01*
X106524277Y-154419128D01*
X106404746Y-154517226D01*
X106380159Y-154547185D01*
X106040415Y-154886928D01*
X105818750Y-154886928D01*
X105651592Y-154903392D01*
X105490858Y-154952150D01*
X105342725Y-155031329D01*
X105250000Y-155107426D01*
X105157275Y-155031329D01*
X105009142Y-154952150D01*
X104848408Y-154903392D01*
X104681250Y-154886928D01*
X104243750Y-154886928D01*
X104076592Y-154903392D01*
X103915858Y-154952150D01*
X103767725Y-155031329D01*
X103637885Y-155137885D01*
X103531329Y-155267725D01*
X103452150Y-155415858D01*
X103403392Y-155576592D01*
X103386928Y-155743750D01*
X103386928Y-156256250D01*
X103403392Y-156423408D01*
X103452150Y-156584142D01*
X103531329Y-156732275D01*
X103637885Y-156862115D01*
X103767725Y-156968671D01*
X103915858Y-157047850D01*
X104076592Y-157096608D01*
X104243750Y-157113072D01*
X104252915Y-157113072D01*
X104465000Y-157325158D01*
X104465001Y-159021584D01*
X104372499Y-159097498D01*
X104249520Y-159247349D01*
X104206307Y-159183275D01*
X104033474Y-159011922D01*
X103830533Y-158877579D01*
X103605282Y-158785409D01*
X103567609Y-158781538D01*
X103377000Y-158906269D01*
X103377000Y-160123000D01*
X103397000Y-160123000D01*
X103397000Y-160377000D01*
X103377000Y-160377000D01*
X103377000Y-160397000D01*
X103123000Y-160397000D01*
X103123000Y-160377000D01*
X102015000Y-160377000D01*
X102015000Y-160652000D01*
X102061501Y-160880633D01*
X101085000Y-159904133D01*
X101085000Y-159848000D01*
X102015000Y-159848000D01*
X102015000Y-160123000D01*
X103123000Y-160123000D01*
X103123000Y-158906269D01*
X102932391Y-158781538D01*
X102894718Y-158785409D01*
X102669467Y-158877579D01*
X102466526Y-159011922D01*
X102293693Y-159183275D01*
X102157610Y-159385054D01*
X102063507Y-159609504D01*
X102015000Y-159848000D01*
X101085000Y-159848000D01*
X101085000Y-155276750D01*
X101160500Y-155201250D01*
X101160500Y-154377000D01*
X101414500Y-154377000D01*
X101414500Y-155201250D01*
X101573250Y-155360000D01*
X101725000Y-155363072D01*
X101849482Y-155350812D01*
X101969180Y-155314502D01*
X102079494Y-155255537D01*
X102176185Y-155176185D01*
X102255537Y-155079494D01*
X102314502Y-154969180D01*
X102350812Y-154849482D01*
X102363072Y-154725000D01*
X102360000Y-154535750D01*
X102201250Y-154377000D01*
X101414500Y-154377000D01*
X101160500Y-154377000D01*
X101140500Y-154377000D01*
X101140500Y-154123000D01*
X101160500Y-154123000D01*
X101160500Y-154103000D01*
X101414500Y-154103000D01*
X101414500Y-154123000D01*
X102201250Y-154123000D01*
X102360000Y-153964250D01*
X102363072Y-153775000D01*
X102350812Y-153650518D01*
X102314502Y-153530820D01*
X102255537Y-153420506D01*
X102176185Y-153323815D01*
X102079494Y-153244463D01*
X101969180Y-153185498D01*
X101849482Y-153149188D01*
X101776287Y-153141979D01*
X101785000Y-153053519D01*
X101785000Y-153053509D01*
X101789039Y-153012501D01*
X101788344Y-153005444D01*
X101805537Y-152984494D01*
X101864502Y-152874180D01*
X101900812Y-152754482D01*
X101913072Y-152630000D01*
X101913072Y-151570000D01*
X101900812Y-151445518D01*
X101864502Y-151325820D01*
X101805537Y-151215506D01*
X101726185Y-151118815D01*
X101629494Y-151039463D01*
X101555665Y-151000000D01*
X101629494Y-150960537D01*
X101726185Y-150881185D01*
X101805537Y-150784494D01*
X101864502Y-150674180D01*
X101900812Y-150554482D01*
X101913072Y-150430000D01*
X101913072Y-149535000D01*
X107887343Y-149535000D01*
X114136928Y-155784586D01*
G04 #@! TA.AperFunction,Conductor*
D24*
G36*
X114136928Y-155784586D02*
G01*
X114136928Y-156006250D01*
X114153392Y-156173408D01*
X114202150Y-156334142D01*
X114281329Y-156482275D01*
X114387885Y-156612115D01*
X114416013Y-156635199D01*
X114332795Y-156759744D01*
X114254774Y-156948102D01*
X114215000Y-157148061D01*
X114215000Y-157351939D01*
X114254774Y-157551898D01*
X114332795Y-157740256D01*
X114446063Y-157909774D01*
X114590226Y-158053937D01*
X114759744Y-158167205D01*
X114948102Y-158245226D01*
X115148061Y-158285000D01*
X115351939Y-158285000D01*
X115551898Y-158245226D01*
X115740256Y-158167205D01*
X115795373Y-158130377D01*
X115640000Y-158285750D01*
X115636928Y-158475000D01*
X115649188Y-158599482D01*
X115685498Y-158719180D01*
X115744463Y-158829494D01*
X115823815Y-158926185D01*
X115920506Y-159005537D01*
X116030820Y-159064502D01*
X116150518Y-159100812D01*
X116275000Y-159113072D01*
X116426750Y-159110000D01*
X116585500Y-158951250D01*
X116585500Y-158127000D01*
X116565500Y-158127000D01*
X116565500Y-157873000D01*
X116585500Y-157873000D01*
X116585500Y-157048750D01*
X116426750Y-156890000D01*
X116275000Y-156886928D01*
X116222047Y-156892143D01*
X116167205Y-156759744D01*
X116165893Y-156757780D01*
X116240858Y-156797850D01*
X116401592Y-156846608D01*
X116568750Y-156863072D01*
X117006250Y-156863072D01*
X117173408Y-156846608D01*
X117334142Y-156797850D01*
X117482275Y-156718671D01*
X117494735Y-156708446D01*
X117590226Y-156803937D01*
X117759744Y-156917205D01*
X117800460Y-156934070D01*
X117740858Y-156952150D01*
X117592725Y-157031329D01*
X117571070Y-157049100D01*
X117504494Y-156994463D01*
X117394180Y-156935498D01*
X117274482Y-156899188D01*
X117150000Y-156886928D01*
X116998250Y-156890000D01*
X116839500Y-157048750D01*
X116839500Y-157873000D01*
X116859500Y-157873000D01*
X116859500Y-158127000D01*
X116839500Y-158127000D01*
X116839500Y-158951250D01*
X116998250Y-159110000D01*
X117150000Y-159113072D01*
X117274482Y-159100812D01*
X117394180Y-159064502D01*
X117504494Y-159005537D01*
X117571070Y-158950900D01*
X117592725Y-158968671D01*
X117740858Y-159047850D01*
X117901592Y-159096608D01*
X118068750Y-159113072D01*
X118506250Y-159113072D01*
X118673408Y-159096608D01*
X118796156Y-159059373D01*
X118390529Y-159465000D01*
X115825157Y-159465000D01*
X112332347Y-155972190D01*
X112307764Y-155942236D01*
X112188233Y-155844138D01*
X112051860Y-155771246D01*
X111903887Y-155726359D01*
X111788561Y-155715000D01*
X111788553Y-155715000D01*
X111750000Y-155711203D01*
X111711447Y-155715000D01*
X111533430Y-155715000D01*
X110365609Y-154547180D01*
X110341026Y-154517226D01*
X110221495Y-154419128D01*
X110085122Y-154346236D01*
X109937149Y-154301349D01*
X109821823Y-154289990D01*
X109821815Y-154289990D01*
X109783262Y-154286193D01*
X109744709Y-154289990D01*
X107001066Y-154289990D01*
X106962510Y-154286193D01*
X106923954Y-154289990D01*
X106923949Y-154289990D01*
X106883536Y-154293970D01*
X106808623Y-154301348D01*
X106664019Y-154345214D01*
X106660650Y-154346236D01*
X106524277Y-154419128D01*
X106404746Y-154517226D01*
X106380159Y-154547185D01*
X106040415Y-154886928D01*
X105818750Y-154886928D01*
X105651592Y-154903392D01*
X105490858Y-154952150D01*
X105342725Y-155031329D01*
X105250000Y-155107426D01*
X105157275Y-155031329D01*
X105009142Y-154952150D01*
X104848408Y-154903392D01*
X104681250Y-154886928D01*
X104243750Y-154886928D01*
X104076592Y-154903392D01*
X103915858Y-154952150D01*
X103767725Y-155031329D01*
X103637885Y-155137885D01*
X103531329Y-155267725D01*
X103452150Y-155415858D01*
X103403392Y-155576592D01*
X103386928Y-155743750D01*
X103386928Y-156256250D01*
X103403392Y-156423408D01*
X103452150Y-156584142D01*
X103531329Y-156732275D01*
X103637885Y-156862115D01*
X103767725Y-156968671D01*
X103915858Y-157047850D01*
X104076592Y-157096608D01*
X104243750Y-157113072D01*
X104252915Y-157113072D01*
X104465000Y-157325158D01*
X104465001Y-159021584D01*
X104372499Y-159097498D01*
X104249520Y-159247349D01*
X104206307Y-159183275D01*
X104033474Y-159011922D01*
X103830533Y-158877579D01*
X103605282Y-158785409D01*
X103567609Y-158781538D01*
X103377000Y-158906269D01*
X103377000Y-160123000D01*
X103397000Y-160123000D01*
X103397000Y-160377000D01*
X103377000Y-160377000D01*
X103377000Y-160397000D01*
X103123000Y-160397000D01*
X103123000Y-160377000D01*
X102015000Y-160377000D01*
X102015000Y-160652000D01*
X102061501Y-160880633D01*
X101085000Y-159904133D01*
X101085000Y-159848000D01*
X102015000Y-159848000D01*
X102015000Y-160123000D01*
X103123000Y-160123000D01*
X103123000Y-158906269D01*
X102932391Y-158781538D01*
X102894718Y-158785409D01*
X102669467Y-158877579D01*
X102466526Y-159011922D01*
X102293693Y-159183275D01*
X102157610Y-159385054D01*
X102063507Y-159609504D01*
X102015000Y-159848000D01*
X101085000Y-159848000D01*
X101085000Y-155276750D01*
X101160500Y-155201250D01*
X101160500Y-154377000D01*
X101414500Y-154377000D01*
X101414500Y-155201250D01*
X101573250Y-155360000D01*
X101725000Y-155363072D01*
X101849482Y-155350812D01*
X101969180Y-155314502D01*
X102079494Y-155255537D01*
X102176185Y-155176185D01*
X102255537Y-155079494D01*
X102314502Y-154969180D01*
X102350812Y-154849482D01*
X102363072Y-154725000D01*
X102360000Y-154535750D01*
X102201250Y-154377000D01*
X101414500Y-154377000D01*
X101160500Y-154377000D01*
X101140500Y-154377000D01*
X101140500Y-154123000D01*
X101160500Y-154123000D01*
X101160500Y-154103000D01*
X101414500Y-154103000D01*
X101414500Y-154123000D01*
X102201250Y-154123000D01*
X102360000Y-153964250D01*
X102363072Y-153775000D01*
X102350812Y-153650518D01*
X102314502Y-153530820D01*
X102255537Y-153420506D01*
X102176185Y-153323815D01*
X102079494Y-153244463D01*
X101969180Y-153185498D01*
X101849482Y-153149188D01*
X101776287Y-153141979D01*
X101785000Y-153053519D01*
X101785000Y-153053509D01*
X101789039Y-153012501D01*
X101788344Y-153005444D01*
X101805537Y-152984494D01*
X101864502Y-152874180D01*
X101900812Y-152754482D01*
X101913072Y-152630000D01*
X101913072Y-151570000D01*
X101900812Y-151445518D01*
X101864502Y-151325820D01*
X101805537Y-151215506D01*
X101726185Y-151118815D01*
X101629494Y-151039463D01*
X101555665Y-151000000D01*
X101629494Y-150960537D01*
X101726185Y-150881185D01*
X101805537Y-150784494D01*
X101864502Y-150674180D01*
X101900812Y-150554482D01*
X101913072Y-150430000D01*
X101913072Y-149535000D01*
X107887343Y-149535000D01*
X114136928Y-155784586D01*
G37*
G04 #@! TD.AperFunction*
D23*
X113134999Y-146820784D02*
X113131202Y-146859337D01*
X113134999Y-146897890D01*
X113134999Y-146897897D01*
X113146358Y-147013223D01*
X113191245Y-147161196D01*
X113264137Y-147297569D01*
X113362235Y-147417101D01*
X113392189Y-147441684D01*
X114495331Y-148544827D01*
X114495331Y-148571608D01*
X114535105Y-148771567D01*
X114613126Y-148959925D01*
X114726394Y-149129443D01*
X114870557Y-149273606D01*
X115040075Y-149386874D01*
X115228433Y-149464895D01*
X115428392Y-149504669D01*
X115632270Y-149504669D01*
X115802730Y-149470763D01*
X115805177Y-149475342D01*
X115844139Y-149548235D01*
X115870687Y-149580583D01*
X115917655Y-149637814D01*
X115917659Y-149637818D01*
X115942237Y-149667766D01*
X115972185Y-149692344D01*
X117057651Y-150777810D01*
X117082234Y-150807764D01*
X117201765Y-150905862D01*
X117338138Y-150978754D01*
X117484599Y-151023183D01*
X117926416Y-151465000D01*
X117288556Y-151465000D01*
X117250000Y-151461203D01*
X117211444Y-151465000D01*
X117211439Y-151465000D01*
X117171026Y-151468980D01*
X117096113Y-151476358D01*
X116948140Y-151521246D01*
X116811767Y-151594138D01*
X116692236Y-151692236D01*
X116667653Y-151722190D01*
X116301777Y-152088066D01*
X116159774Y-151946063D01*
X115990256Y-151832795D01*
X115801898Y-151754774D01*
X115601939Y-151715000D01*
X115575157Y-151715000D01*
X112035000Y-148174843D01*
X112035000Y-140288556D01*
X112038797Y-140250000D01*
X112035000Y-140211440D01*
X112035000Y-140211439D01*
X112030426Y-140165000D01*
X112023642Y-140096113D01*
X111978754Y-139948140D01*
X111905862Y-139811767D01*
X111807764Y-139692236D01*
X111777811Y-139667654D01*
X109285000Y-137174843D01*
X109285000Y-137148061D01*
X109245226Y-136948102D01*
X109167205Y-136759744D01*
X109053937Y-136590226D01*
X108909774Y-136446063D01*
X108740256Y-136332795D01*
X108551898Y-136254774D01*
X108351939Y-136215000D01*
X108148061Y-136215000D01*
X107948102Y-136254774D01*
X107759744Y-136332795D01*
X107590226Y-136446063D01*
X107446063Y-136590226D01*
X107332795Y-136759744D01*
X107254774Y-136948102D01*
X107215000Y-137148061D01*
X107215000Y-137351939D01*
X107254774Y-137551898D01*
X107332795Y-137740256D01*
X107446063Y-137909774D01*
X107590226Y-138053937D01*
X107759744Y-138167205D01*
X107948102Y-138245226D01*
X108148061Y-138285000D01*
X108174843Y-138285000D01*
X110465000Y-140575157D01*
X110465001Y-148317344D01*
X105169847Y-143022190D01*
X105145264Y-142992236D01*
X105025733Y-142894138D01*
X104889360Y-142821246D01*
X104741387Y-142776359D01*
X104626061Y-142765000D01*
X104626053Y-142765000D01*
X104587500Y-142761203D01*
X104548947Y-142765000D01*
X98067683Y-142765000D01*
X98030537Y-142695506D01*
X97951185Y-142598815D01*
X97854494Y-142519463D01*
X97835000Y-142509043D01*
X97835000Y-140490957D01*
X97854494Y-140480537D01*
X97951185Y-140401185D01*
X98030537Y-140304494D01*
X98089502Y-140194180D01*
X98125812Y-140074482D01*
X98138072Y-139950000D01*
X98138072Y-138950000D01*
X98125812Y-138825518D01*
X98089502Y-138705820D01*
X98030537Y-138595506D01*
X97951185Y-138498815D01*
X97854494Y-138419463D01*
X97744180Y-138360498D01*
X97624482Y-138324188D01*
X97500000Y-138311928D01*
X96600000Y-138311928D01*
X96475518Y-138324188D01*
X96355820Y-138360498D01*
X96250000Y-138417061D01*
X96144180Y-138360498D01*
X96024482Y-138324188D01*
X95900000Y-138311928D01*
X95735750Y-138315000D01*
X95577000Y-138473750D01*
X95577000Y-139323000D01*
X95597000Y-139323000D01*
X95597000Y-139577000D01*
X95577000Y-139577000D01*
X95577000Y-140426250D01*
X95735750Y-140585000D01*
X95900000Y-140588072D01*
X96024482Y-140575812D01*
X96144180Y-140539502D01*
X96250000Y-140482939D01*
X96265000Y-140490957D01*
X96265001Y-142509043D01*
X96250000Y-142517061D01*
X96144180Y-142460498D01*
X96024482Y-142424188D01*
X95900000Y-142411928D01*
X95735750Y-142415000D01*
X95577000Y-142573750D01*
X95577000Y-143423000D01*
X95597000Y-143423000D01*
X95597000Y-143677000D01*
X95577000Y-143677000D01*
X95577000Y-144526250D01*
X95735750Y-144685000D01*
X95900000Y-144688072D01*
X96024482Y-144675812D01*
X96144180Y-144639502D01*
X96250000Y-144582939D01*
X96355820Y-144639502D01*
X96475518Y-144675812D01*
X96600000Y-144688072D01*
X97500000Y-144688072D01*
X97624482Y-144675812D01*
X97744180Y-144639502D01*
X97854494Y-144580537D01*
X97951185Y-144501185D01*
X98030537Y-144404494D01*
X98067683Y-144335000D01*
X104262343Y-144335000D01*
X107892343Y-147965000D01*
X99538552Y-147965000D01*
X99499999Y-147961203D01*
X99461446Y-147965000D01*
X99461439Y-147965000D01*
X99360490Y-147974943D01*
X99346112Y-147976359D01*
X99252441Y-148004774D01*
X99198140Y-148021246D01*
X99061767Y-148094138D01*
X98942236Y-148192236D01*
X98917653Y-148222190D01*
X98522185Y-148617658D01*
X98492237Y-148642236D01*
X98467659Y-148672184D01*
X98467655Y-148672188D01*
X98446388Y-148698102D01*
X98394139Y-148761767D01*
X98375507Y-148796626D01*
X98338625Y-148865627D01*
X98273815Y-148918815D01*
X98194463Y-149015506D01*
X98141282Y-149115000D01*
X96225158Y-149115000D01*
X93285000Y-146174843D01*
X93285000Y-144050000D01*
X94361928Y-144050000D01*
X94374188Y-144174482D01*
X94410498Y-144294180D01*
X94469463Y-144404494D01*
X94548815Y-144501185D01*
X94645506Y-144580537D01*
X94755820Y-144639502D01*
X94875518Y-144675812D01*
X95000000Y-144688072D01*
X95164250Y-144685000D01*
X95323000Y-144526250D01*
X95323000Y-143677000D01*
X94523750Y-143677000D01*
X94365000Y-143835750D01*
X94361928Y-144050000D01*
X93285000Y-144050000D01*
X93285000Y-143050000D01*
X94361928Y-143050000D01*
X94365000Y-143264250D01*
X94523750Y-143423000D01*
X95323000Y-143423000D01*
X95323000Y-142573750D01*
X95164250Y-142415000D01*
X95000000Y-142411928D01*
X94875518Y-142424188D01*
X94755820Y-142460498D01*
X94645506Y-142519463D01*
X94548815Y-142598815D01*
X94469463Y-142695506D01*
X94410498Y-142805820D01*
X94374188Y-142925518D01*
X94361928Y-143050000D01*
X93285000Y-143050000D01*
X93285000Y-139950000D01*
X94361928Y-139950000D01*
X94374188Y-140074482D01*
X94410498Y-140194180D01*
X94469463Y-140304494D01*
X94548815Y-140401185D01*
X94645506Y-140480537D01*
X94755820Y-140539502D01*
X94875518Y-140575812D01*
X95000000Y-140588072D01*
X95164250Y-140585000D01*
X95323000Y-140426250D01*
X95323000Y-139577000D01*
X94523750Y-139577000D01*
X94365000Y-139735750D01*
X94361928Y-139950000D01*
X93285000Y-139950000D01*
X93285000Y-138950000D01*
X94361928Y-138950000D01*
X94365000Y-139164250D01*
X94523750Y-139323000D01*
X95323000Y-139323000D01*
X95323000Y-138473750D01*
X95164250Y-138315000D01*
X95000000Y-138311928D01*
X94875518Y-138324188D01*
X94755820Y-138360498D01*
X94645506Y-138419463D01*
X94548815Y-138498815D01*
X94469463Y-138595506D01*
X94410498Y-138705820D01*
X94374188Y-138825518D01*
X94361928Y-138950000D01*
X93285000Y-138950000D01*
X93285000Y-137625157D01*
X95725158Y-135185000D01*
X100161447Y-135185000D01*
X100200000Y-135188797D01*
X100238553Y-135185000D01*
X100238561Y-135185000D01*
X100353887Y-135173641D01*
X100501860Y-135128754D01*
X100638233Y-135055862D01*
X100757764Y-134957764D01*
X100782347Y-134927810D01*
X104371190Y-131338967D01*
X106215000Y-131338967D01*
X106215000Y-131661033D01*
X106277832Y-131976912D01*
X106401082Y-132274463D01*
X106580013Y-132542252D01*
X106807748Y-132769987D01*
X107075537Y-132948918D01*
X107373088Y-133072168D01*
X107688967Y-133135000D01*
X108011033Y-133135000D01*
X108326912Y-133072168D01*
X108624463Y-132948918D01*
X108892252Y-132769987D01*
X109119987Y-132542252D01*
X109298918Y-132274463D01*
X109422168Y-131976912D01*
X109485000Y-131661033D01*
X109485000Y-131338967D01*
X109422168Y-131023088D01*
X109298918Y-130725537D01*
X109119987Y-130457748D01*
X108892252Y-130230013D01*
X108624463Y-130051082D01*
X108326912Y-129927832D01*
X108011033Y-129865000D01*
X107688967Y-129865000D01*
X107373088Y-129927832D01*
X107075537Y-130051082D01*
X106807748Y-130230013D01*
X106580013Y-130457748D01*
X106401082Y-130725537D01*
X106277832Y-131023088D01*
X106215000Y-131338967D01*
X104371190Y-131338967D01*
X113135000Y-122575157D01*
X113134999Y-146820784D01*
G04 #@! TA.AperFunction,Conductor*
D24*
G36*
X113134999Y-146820784D02*
G01*
X113131202Y-146859337D01*
X113134999Y-146897890D01*
X113134999Y-146897897D01*
X113146358Y-147013223D01*
X113191245Y-147161196D01*
X113264137Y-147297569D01*
X113362235Y-147417101D01*
X113392189Y-147441684D01*
X114495331Y-148544827D01*
X114495331Y-148571608D01*
X114535105Y-148771567D01*
X114613126Y-148959925D01*
X114726394Y-149129443D01*
X114870557Y-149273606D01*
X115040075Y-149386874D01*
X115228433Y-149464895D01*
X115428392Y-149504669D01*
X115632270Y-149504669D01*
X115802730Y-149470763D01*
X115805177Y-149475342D01*
X115844139Y-149548235D01*
X115870687Y-149580583D01*
X115917655Y-149637814D01*
X115917659Y-149637818D01*
X115942237Y-149667766D01*
X115972185Y-149692344D01*
X117057651Y-150777810D01*
X117082234Y-150807764D01*
X117201765Y-150905862D01*
X117338138Y-150978754D01*
X117484599Y-151023183D01*
X117926416Y-151465000D01*
X117288556Y-151465000D01*
X117250000Y-151461203D01*
X117211444Y-151465000D01*
X117211439Y-151465000D01*
X117171026Y-151468980D01*
X117096113Y-151476358D01*
X116948140Y-151521246D01*
X116811767Y-151594138D01*
X116692236Y-151692236D01*
X116667653Y-151722190D01*
X116301777Y-152088066D01*
X116159774Y-151946063D01*
X115990256Y-151832795D01*
X115801898Y-151754774D01*
X115601939Y-151715000D01*
X115575157Y-151715000D01*
X112035000Y-148174843D01*
X112035000Y-140288556D01*
X112038797Y-140250000D01*
X112035000Y-140211440D01*
X112035000Y-140211439D01*
X112030426Y-140165000D01*
X112023642Y-140096113D01*
X111978754Y-139948140D01*
X111905862Y-139811767D01*
X111807764Y-139692236D01*
X111777811Y-139667654D01*
X109285000Y-137174843D01*
X109285000Y-137148061D01*
X109245226Y-136948102D01*
X109167205Y-136759744D01*
X109053937Y-136590226D01*
X108909774Y-136446063D01*
X108740256Y-136332795D01*
X108551898Y-136254774D01*
X108351939Y-136215000D01*
X108148061Y-136215000D01*
X107948102Y-136254774D01*
X107759744Y-136332795D01*
X107590226Y-136446063D01*
X107446063Y-136590226D01*
X107332795Y-136759744D01*
X107254774Y-136948102D01*
X107215000Y-137148061D01*
X107215000Y-137351939D01*
X107254774Y-137551898D01*
X107332795Y-137740256D01*
X107446063Y-137909774D01*
X107590226Y-138053937D01*
X107759744Y-138167205D01*
X107948102Y-138245226D01*
X108148061Y-138285000D01*
X108174843Y-138285000D01*
X110465000Y-140575157D01*
X110465001Y-148317344D01*
X105169847Y-143022190D01*
X105145264Y-142992236D01*
X105025733Y-142894138D01*
X104889360Y-142821246D01*
X104741387Y-142776359D01*
X104626061Y-142765000D01*
X104626053Y-142765000D01*
X104587500Y-142761203D01*
X104548947Y-142765000D01*
X98067683Y-142765000D01*
X98030537Y-142695506D01*
X97951185Y-142598815D01*
X97854494Y-142519463D01*
X97835000Y-142509043D01*
X97835000Y-140490957D01*
X97854494Y-140480537D01*
X97951185Y-140401185D01*
X98030537Y-140304494D01*
X98089502Y-140194180D01*
X98125812Y-140074482D01*
X98138072Y-139950000D01*
X98138072Y-138950000D01*
X98125812Y-138825518D01*
X98089502Y-138705820D01*
X98030537Y-138595506D01*
X97951185Y-138498815D01*
X97854494Y-138419463D01*
X97744180Y-138360498D01*
X97624482Y-138324188D01*
X97500000Y-138311928D01*
X96600000Y-138311928D01*
X96475518Y-138324188D01*
X96355820Y-138360498D01*
X96250000Y-138417061D01*
X96144180Y-138360498D01*
X96024482Y-138324188D01*
X95900000Y-138311928D01*
X95735750Y-138315000D01*
X95577000Y-138473750D01*
X95577000Y-139323000D01*
X95597000Y-139323000D01*
X95597000Y-139577000D01*
X95577000Y-139577000D01*
X95577000Y-140426250D01*
X95735750Y-140585000D01*
X95900000Y-140588072D01*
X96024482Y-140575812D01*
X96144180Y-140539502D01*
X96250000Y-140482939D01*
X96265000Y-140490957D01*
X96265001Y-142509043D01*
X96250000Y-142517061D01*
X96144180Y-142460498D01*
X96024482Y-142424188D01*
X95900000Y-142411928D01*
X95735750Y-142415000D01*
X95577000Y-142573750D01*
X95577000Y-143423000D01*
X95597000Y-143423000D01*
X95597000Y-143677000D01*
X95577000Y-143677000D01*
X95577000Y-144526250D01*
X95735750Y-144685000D01*
X95900000Y-144688072D01*
X96024482Y-144675812D01*
X96144180Y-144639502D01*
X96250000Y-144582939D01*
X96355820Y-144639502D01*
X96475518Y-144675812D01*
X96600000Y-144688072D01*
X97500000Y-144688072D01*
X97624482Y-144675812D01*
X97744180Y-144639502D01*
X97854494Y-144580537D01*
X97951185Y-144501185D01*
X98030537Y-144404494D01*
X98067683Y-144335000D01*
X104262343Y-144335000D01*
X107892343Y-147965000D01*
X99538552Y-147965000D01*
X99499999Y-147961203D01*
X99461446Y-147965000D01*
X99461439Y-147965000D01*
X99360490Y-147974943D01*
X99346112Y-147976359D01*
X99252441Y-148004774D01*
X99198140Y-148021246D01*
X99061767Y-148094138D01*
X98942236Y-148192236D01*
X98917653Y-148222190D01*
X98522185Y-148617658D01*
X98492237Y-148642236D01*
X98467659Y-148672184D01*
X98467655Y-148672188D01*
X98446388Y-148698102D01*
X98394139Y-148761767D01*
X98375507Y-148796626D01*
X98338625Y-148865627D01*
X98273815Y-148918815D01*
X98194463Y-149015506D01*
X98141282Y-149115000D01*
X96225158Y-149115000D01*
X93285000Y-146174843D01*
X93285000Y-144050000D01*
X94361928Y-144050000D01*
X94374188Y-144174482D01*
X94410498Y-144294180D01*
X94469463Y-144404494D01*
X94548815Y-144501185D01*
X94645506Y-144580537D01*
X94755820Y-144639502D01*
X94875518Y-144675812D01*
X95000000Y-144688072D01*
X95164250Y-144685000D01*
X95323000Y-144526250D01*
X95323000Y-143677000D01*
X94523750Y-143677000D01*
X94365000Y-143835750D01*
X94361928Y-144050000D01*
X93285000Y-144050000D01*
X93285000Y-143050000D01*
X94361928Y-143050000D01*
X94365000Y-143264250D01*
X94523750Y-143423000D01*
X95323000Y-143423000D01*
X95323000Y-142573750D01*
X95164250Y-142415000D01*
X95000000Y-142411928D01*
X94875518Y-142424188D01*
X94755820Y-142460498D01*
X94645506Y-142519463D01*
X94548815Y-142598815D01*
X94469463Y-142695506D01*
X94410498Y-142805820D01*
X94374188Y-142925518D01*
X94361928Y-143050000D01*
X93285000Y-143050000D01*
X93285000Y-139950000D01*
X94361928Y-139950000D01*
X94374188Y-140074482D01*
X94410498Y-140194180D01*
X94469463Y-140304494D01*
X94548815Y-140401185D01*
X94645506Y-140480537D01*
X94755820Y-140539502D01*
X94875518Y-140575812D01*
X95000000Y-140588072D01*
X95164250Y-140585000D01*
X95323000Y-140426250D01*
X95323000Y-139577000D01*
X94523750Y-139577000D01*
X94365000Y-139735750D01*
X94361928Y-139950000D01*
X93285000Y-139950000D01*
X93285000Y-138950000D01*
X94361928Y-138950000D01*
X94365000Y-139164250D01*
X94523750Y-139323000D01*
X95323000Y-139323000D01*
X95323000Y-138473750D01*
X95164250Y-138315000D01*
X95000000Y-138311928D01*
X94875518Y-138324188D01*
X94755820Y-138360498D01*
X94645506Y-138419463D01*
X94548815Y-138498815D01*
X94469463Y-138595506D01*
X94410498Y-138705820D01*
X94374188Y-138825518D01*
X94361928Y-138950000D01*
X93285000Y-138950000D01*
X93285000Y-137625157D01*
X95725158Y-135185000D01*
X100161447Y-135185000D01*
X100200000Y-135188797D01*
X100238553Y-135185000D01*
X100238561Y-135185000D01*
X100353887Y-135173641D01*
X100501860Y-135128754D01*
X100638233Y-135055862D01*
X100757764Y-134957764D01*
X100782347Y-134927810D01*
X104371190Y-131338967D01*
X106215000Y-131338967D01*
X106215000Y-131661033D01*
X106277832Y-131976912D01*
X106401082Y-132274463D01*
X106580013Y-132542252D01*
X106807748Y-132769987D01*
X107075537Y-132948918D01*
X107373088Y-133072168D01*
X107688967Y-133135000D01*
X108011033Y-133135000D01*
X108326912Y-133072168D01*
X108624463Y-132948918D01*
X108892252Y-132769987D01*
X109119987Y-132542252D01*
X109298918Y-132274463D01*
X109422168Y-131976912D01*
X109485000Y-131661033D01*
X109485000Y-131338967D01*
X109422168Y-131023088D01*
X109298918Y-130725537D01*
X109119987Y-130457748D01*
X108892252Y-130230013D01*
X108624463Y-130051082D01*
X108326912Y-129927832D01*
X108011033Y-129865000D01*
X107688967Y-129865000D01*
X107373088Y-129927832D01*
X107075537Y-130051082D01*
X106807748Y-130230013D01*
X106580013Y-130457748D01*
X106401082Y-130725537D01*
X106277832Y-131023088D01*
X106215000Y-131338967D01*
X104371190Y-131338967D01*
X113135000Y-122575157D01*
X113134999Y-146820784D01*
G37*
G04 #@! TD.AperFunction*
D23*
X100035498Y-150674180D02*
X100094463Y-150784494D01*
X100173815Y-150881185D01*
X100264853Y-150955897D01*
X100127000Y-151093750D01*
X100127000Y-151175859D01*
X100094463Y-151215506D01*
X100035498Y-151325820D01*
X100000000Y-151442841D01*
X99964502Y-151325820D01*
X99905537Y-151215506D01*
X99873000Y-151175859D01*
X99873000Y-151093750D01*
X99735147Y-150955897D01*
X99826185Y-150881185D01*
X99905537Y-150784494D01*
X99964502Y-150674180D01*
X100000000Y-150557159D01*
X100035498Y-150674180D01*
G04 #@! TA.AperFunction,Conductor*
D24*
G36*
X100035498Y-150674180D02*
G01*
X100094463Y-150784494D01*
X100173815Y-150881185D01*
X100264853Y-150955897D01*
X100127000Y-151093750D01*
X100127000Y-151175859D01*
X100094463Y-151215506D01*
X100035498Y-151325820D01*
X100000000Y-151442841D01*
X99964502Y-151325820D01*
X99905537Y-151215506D01*
X99873000Y-151175859D01*
X99873000Y-151093750D01*
X99735147Y-150955897D01*
X99826185Y-150881185D01*
X99905537Y-150784494D01*
X99964502Y-150674180D01*
X100000000Y-150557159D01*
X100035498Y-150674180D01*
G37*
G04 #@! TD.AperFunction*
D23*
X125052178Y-98847822D02*
X125060233Y-98929609D01*
X120772190Y-103217653D01*
X120742236Y-103242236D01*
X120644138Y-103361768D01*
X120571246Y-103498141D01*
X120526359Y-103646114D01*
X120515000Y-103761440D01*
X120515000Y-103761447D01*
X120511203Y-103800000D01*
X120515000Y-103838553D01*
X120515001Y-124433615D01*
X120426028Y-124145839D01*
X120177018Y-123679976D01*
X119789775Y-123439830D01*
X117979605Y-125250000D01*
X119789775Y-127060170D01*
X120177018Y-126820024D01*
X120437641Y-126326123D01*
X120515001Y-126066125D01*
X120515001Y-127885532D01*
X120498815Y-127898815D01*
X120419463Y-127995506D01*
X120360498Y-128105820D01*
X120324188Y-128225518D01*
X120311928Y-128350000D01*
X120311928Y-130050000D01*
X120324188Y-130174482D01*
X120360498Y-130294180D01*
X120419463Y-130404494D01*
X120498815Y-130501185D01*
X120595506Y-130580537D01*
X120705820Y-130639502D01*
X120825518Y-130675812D01*
X120950000Y-130688072D01*
X121015001Y-130688072D01*
X121015001Y-131148937D01*
X121011203Y-131187500D01*
X121026359Y-131341386D01*
X121071246Y-131489359D01*
X121071247Y-131489360D01*
X121144139Y-131625733D01*
X121181366Y-131671094D01*
X121217655Y-131715312D01*
X121217659Y-131715316D01*
X121242237Y-131745264D01*
X121272185Y-131769842D01*
X123186928Y-133684586D01*
X123186928Y-133906250D01*
X123203392Y-134073408D01*
X123252150Y-134234142D01*
X123331329Y-134382275D01*
X123437885Y-134512115D01*
X123567725Y-134618671D01*
X123715858Y-134697850D01*
X123876592Y-134746608D01*
X124043750Y-134763072D01*
X124497051Y-134763072D01*
X124504774Y-134801898D01*
X124582795Y-134990256D01*
X124696063Y-135159774D01*
X124840226Y-135303937D01*
X125009744Y-135417205D01*
X125198102Y-135495226D01*
X125398061Y-135535000D01*
X125415001Y-135535000D01*
X125415000Y-147746413D01*
X125345351Y-147803572D01*
X124400000Y-148748923D01*
X123454649Y-147803572D01*
X123357958Y-147724220D01*
X123247644Y-147665255D01*
X123127946Y-147628945D01*
X123003464Y-147616685D01*
X122878982Y-147628945D01*
X122759284Y-147665255D01*
X122648970Y-147724220D01*
X122552279Y-147803572D01*
X122163370Y-148192481D01*
X122084018Y-148289172D01*
X122083762Y-148289651D01*
X122083285Y-148289906D01*
X121986594Y-148369258D01*
X121835000Y-148520852D01*
X121835000Y-148498061D01*
X121795226Y-148298102D01*
X121717205Y-148109744D01*
X121603937Y-147940226D01*
X121459774Y-147796063D01*
X121290256Y-147682795D01*
X121101898Y-147604774D01*
X120901939Y-147565000D01*
X120698061Y-147565000D01*
X120498102Y-147604774D01*
X120309744Y-147682795D01*
X120140226Y-147796063D01*
X119996063Y-147940226D01*
X119882795Y-148109744D01*
X119804774Y-148298102D01*
X119765000Y-148498061D01*
X119765000Y-148701939D01*
X119804774Y-148901898D01*
X119882795Y-149090256D01*
X119996063Y-149259774D01*
X120140226Y-149403937D01*
X120309744Y-149517205D01*
X120498102Y-149595226D01*
X120602988Y-149616089D01*
X120671375Y-149684476D01*
X120466314Y-149889537D01*
X120386962Y-149986228D01*
X120386706Y-149986706D01*
X120386228Y-149986962D01*
X120289537Y-150066314D01*
X119983004Y-150372847D01*
X118535000Y-148924843D01*
X118535000Y-148898061D01*
X118495226Y-148698102D01*
X118417205Y-148509744D01*
X118303937Y-148340226D01*
X118159774Y-148196063D01*
X117990256Y-148082795D01*
X117801898Y-148004774D01*
X117601939Y-147965000D01*
X117398061Y-147965000D01*
X117285000Y-147987489D01*
X117285000Y-147428711D01*
X117303937Y-147409774D01*
X117417205Y-147240256D01*
X117495226Y-147051898D01*
X117535000Y-146851939D01*
X117535000Y-146648061D01*
X117495226Y-146448102D01*
X117417205Y-146259744D01*
X117303937Y-146090226D01*
X117159774Y-145946063D01*
X116990256Y-145832795D01*
X116801898Y-145754774D01*
X116601939Y-145715000D01*
X116398061Y-145715000D01*
X116198102Y-145754774D01*
X116009744Y-145832795D01*
X115840226Y-145946063D01*
X115696063Y-146090226D01*
X115582795Y-146259744D01*
X115504774Y-146448102D01*
X115465000Y-146648061D01*
X115465000Y-146851939D01*
X115504774Y-147051898D01*
X115582795Y-147240256D01*
X115696063Y-147409774D01*
X115715000Y-147428711D01*
X115715000Y-147451125D01*
X115632270Y-147434669D01*
X115605489Y-147434669D01*
X114704999Y-146534180D01*
X114704999Y-138415156D01*
X117565000Y-141275157D01*
X117565000Y-141301939D01*
X117604774Y-141501898D01*
X117682795Y-141690256D01*
X117796063Y-141859774D01*
X117940226Y-142003937D01*
X118109744Y-142117205D01*
X118298102Y-142195226D01*
X118498061Y-142235000D01*
X118701939Y-142235000D01*
X118901898Y-142195226D01*
X119090256Y-142117205D01*
X119259774Y-142003937D01*
X119403937Y-141859774D01*
X119517205Y-141690256D01*
X119595226Y-141501898D01*
X119635000Y-141301939D01*
X119635000Y-141098061D01*
X119595226Y-140898102D01*
X119517205Y-140709744D01*
X119403937Y-140540226D01*
X119259774Y-140396063D01*
X119090256Y-140282795D01*
X118901898Y-140204774D01*
X118701939Y-140165000D01*
X118675157Y-140165000D01*
X115984999Y-137474842D01*
X115984999Y-133042127D01*
X116291108Y-133122384D01*
X116612595Y-133141718D01*
X116931675Y-133097961D01*
X117236088Y-132992795D01*
X117410044Y-132899814D01*
X117505808Y-132635413D01*
X116550000Y-131679605D01*
X116535858Y-131693748D01*
X116356253Y-131514143D01*
X116370395Y-131500000D01*
X116729605Y-131500000D01*
X117685413Y-132455808D01*
X117949814Y-132360044D01*
X118090704Y-132070429D01*
X118172384Y-131758892D01*
X118191718Y-131437405D01*
X118147961Y-131118325D01*
X118042795Y-130813912D01*
X117949814Y-130639956D01*
X117685413Y-130544192D01*
X116729605Y-131500000D01*
X116370395Y-131500000D01*
X116356253Y-131485858D01*
X116535858Y-131306253D01*
X116550000Y-131320395D01*
X117505808Y-130364587D01*
X117410044Y-130100186D01*
X117120429Y-129959296D01*
X116808892Y-129877616D01*
X116487405Y-129858282D01*
X116168325Y-129902039D01*
X115984999Y-129965373D01*
X115984999Y-127244609D01*
X115989831Y-127239777D01*
X116229976Y-127627018D01*
X116723877Y-127887641D01*
X117259133Y-128046901D01*
X117815174Y-128098678D01*
X118370632Y-128040981D01*
X118904161Y-127876028D01*
X119370024Y-127627018D01*
X119610170Y-127239775D01*
X117800000Y-125429605D01*
X117785858Y-125443748D01*
X117606253Y-125264143D01*
X117620395Y-125250000D01*
X117606253Y-125235858D01*
X117785858Y-125056253D01*
X117800000Y-125070395D01*
X119610170Y-123260225D01*
X119370024Y-122872982D01*
X118876123Y-122612359D01*
X118340867Y-122453099D01*
X117784826Y-122401322D01*
X117229368Y-122459019D01*
X116695839Y-122623972D01*
X116229976Y-122872982D01*
X115989831Y-123260223D01*
X115984999Y-123255391D01*
X115984999Y-107825158D01*
X124970390Y-98839767D01*
X125052178Y-98847822D01*
G04 #@! TA.AperFunction,Conductor*
D24*
G36*
X125052178Y-98847822D02*
G01*
X125060233Y-98929609D01*
X120772190Y-103217653D01*
X120742236Y-103242236D01*
X120644138Y-103361768D01*
X120571246Y-103498141D01*
X120526359Y-103646114D01*
X120515000Y-103761440D01*
X120515000Y-103761447D01*
X120511203Y-103800000D01*
X120515000Y-103838553D01*
X120515001Y-124433615D01*
X120426028Y-124145839D01*
X120177018Y-123679976D01*
X119789775Y-123439830D01*
X117979605Y-125250000D01*
X119789775Y-127060170D01*
X120177018Y-126820024D01*
X120437641Y-126326123D01*
X120515001Y-126066125D01*
X120515001Y-127885532D01*
X120498815Y-127898815D01*
X120419463Y-127995506D01*
X120360498Y-128105820D01*
X120324188Y-128225518D01*
X120311928Y-128350000D01*
X120311928Y-130050000D01*
X120324188Y-130174482D01*
X120360498Y-130294180D01*
X120419463Y-130404494D01*
X120498815Y-130501185D01*
X120595506Y-130580537D01*
X120705820Y-130639502D01*
X120825518Y-130675812D01*
X120950000Y-130688072D01*
X121015001Y-130688072D01*
X121015001Y-131148937D01*
X121011203Y-131187500D01*
X121026359Y-131341386D01*
X121071246Y-131489359D01*
X121071247Y-131489360D01*
X121144139Y-131625733D01*
X121181366Y-131671094D01*
X121217655Y-131715312D01*
X121217659Y-131715316D01*
X121242237Y-131745264D01*
X121272185Y-131769842D01*
X123186928Y-133684586D01*
X123186928Y-133906250D01*
X123203392Y-134073408D01*
X123252150Y-134234142D01*
X123331329Y-134382275D01*
X123437885Y-134512115D01*
X123567725Y-134618671D01*
X123715858Y-134697850D01*
X123876592Y-134746608D01*
X124043750Y-134763072D01*
X124497051Y-134763072D01*
X124504774Y-134801898D01*
X124582795Y-134990256D01*
X124696063Y-135159774D01*
X124840226Y-135303937D01*
X125009744Y-135417205D01*
X125198102Y-135495226D01*
X125398061Y-135535000D01*
X125415001Y-135535000D01*
X125415000Y-147746413D01*
X125345351Y-147803572D01*
X124400000Y-148748923D01*
X123454649Y-147803572D01*
X123357958Y-147724220D01*
X123247644Y-147665255D01*
X123127946Y-147628945D01*
X123003464Y-147616685D01*
X122878982Y-147628945D01*
X122759284Y-147665255D01*
X122648970Y-147724220D01*
X122552279Y-147803572D01*
X122163370Y-148192481D01*
X122084018Y-148289172D01*
X122083762Y-148289651D01*
X122083285Y-148289906D01*
X121986594Y-148369258D01*
X121835000Y-148520852D01*
X121835000Y-148498061D01*
X121795226Y-148298102D01*
X121717205Y-148109744D01*
X121603937Y-147940226D01*
X121459774Y-147796063D01*
X121290256Y-147682795D01*
X121101898Y-147604774D01*
X120901939Y-147565000D01*
X120698061Y-147565000D01*
X120498102Y-147604774D01*
X120309744Y-147682795D01*
X120140226Y-147796063D01*
X119996063Y-147940226D01*
X119882795Y-148109744D01*
X119804774Y-148298102D01*
X119765000Y-148498061D01*
X119765000Y-148701939D01*
X119804774Y-148901898D01*
X119882795Y-149090256D01*
X119996063Y-149259774D01*
X120140226Y-149403937D01*
X120309744Y-149517205D01*
X120498102Y-149595226D01*
X120602988Y-149616089D01*
X120671375Y-149684476D01*
X120466314Y-149889537D01*
X120386962Y-149986228D01*
X120386706Y-149986706D01*
X120386228Y-149986962D01*
X120289537Y-150066314D01*
X119983004Y-150372847D01*
X118535000Y-148924843D01*
X118535000Y-148898061D01*
X118495226Y-148698102D01*
X118417205Y-148509744D01*
X118303937Y-148340226D01*
X118159774Y-148196063D01*
X117990256Y-148082795D01*
X117801898Y-148004774D01*
X117601939Y-147965000D01*
X117398061Y-147965000D01*
X117285000Y-147987489D01*
X117285000Y-147428711D01*
X117303937Y-147409774D01*
X117417205Y-147240256D01*
X117495226Y-147051898D01*
X117535000Y-146851939D01*
X117535000Y-146648061D01*
X117495226Y-146448102D01*
X117417205Y-146259744D01*
X117303937Y-146090226D01*
X117159774Y-145946063D01*
X116990256Y-145832795D01*
X116801898Y-145754774D01*
X116601939Y-145715000D01*
X116398061Y-145715000D01*
X116198102Y-145754774D01*
X116009744Y-145832795D01*
X115840226Y-145946063D01*
X115696063Y-146090226D01*
X115582795Y-146259744D01*
X115504774Y-146448102D01*
X115465000Y-146648061D01*
X115465000Y-146851939D01*
X115504774Y-147051898D01*
X115582795Y-147240256D01*
X115696063Y-147409774D01*
X115715000Y-147428711D01*
X115715000Y-147451125D01*
X115632270Y-147434669D01*
X115605489Y-147434669D01*
X114704999Y-146534180D01*
X114704999Y-138415156D01*
X117565000Y-141275157D01*
X117565000Y-141301939D01*
X117604774Y-141501898D01*
X117682795Y-141690256D01*
X117796063Y-141859774D01*
X117940226Y-142003937D01*
X118109744Y-142117205D01*
X118298102Y-142195226D01*
X118498061Y-142235000D01*
X118701939Y-142235000D01*
X118901898Y-142195226D01*
X119090256Y-142117205D01*
X119259774Y-142003937D01*
X119403937Y-141859774D01*
X119517205Y-141690256D01*
X119595226Y-141501898D01*
X119635000Y-141301939D01*
X119635000Y-141098061D01*
X119595226Y-140898102D01*
X119517205Y-140709744D01*
X119403937Y-140540226D01*
X119259774Y-140396063D01*
X119090256Y-140282795D01*
X118901898Y-140204774D01*
X118701939Y-140165000D01*
X118675157Y-140165000D01*
X115984999Y-137474842D01*
X115984999Y-133042127D01*
X116291108Y-133122384D01*
X116612595Y-133141718D01*
X116931675Y-133097961D01*
X117236088Y-132992795D01*
X117410044Y-132899814D01*
X117505808Y-132635413D01*
X116550000Y-131679605D01*
X116535858Y-131693748D01*
X116356253Y-131514143D01*
X116370395Y-131500000D01*
X116729605Y-131500000D01*
X117685413Y-132455808D01*
X117949814Y-132360044D01*
X118090704Y-132070429D01*
X118172384Y-131758892D01*
X118191718Y-131437405D01*
X118147961Y-131118325D01*
X118042795Y-130813912D01*
X117949814Y-130639956D01*
X117685413Y-130544192D01*
X116729605Y-131500000D01*
X116370395Y-131500000D01*
X116356253Y-131485858D01*
X116535858Y-131306253D01*
X116550000Y-131320395D01*
X117505808Y-130364587D01*
X117410044Y-130100186D01*
X117120429Y-129959296D01*
X116808892Y-129877616D01*
X116487405Y-129858282D01*
X116168325Y-129902039D01*
X115984999Y-129965373D01*
X115984999Y-127244609D01*
X115989831Y-127239777D01*
X116229976Y-127627018D01*
X116723877Y-127887641D01*
X117259133Y-128046901D01*
X117815174Y-128098678D01*
X118370632Y-128040981D01*
X118904161Y-127876028D01*
X119370024Y-127627018D01*
X119610170Y-127239775D01*
X117800000Y-125429605D01*
X117785858Y-125443748D01*
X117606253Y-125264143D01*
X117620395Y-125250000D01*
X117606253Y-125235858D01*
X117785858Y-125056253D01*
X117800000Y-125070395D01*
X119610170Y-123260225D01*
X119370024Y-122872982D01*
X118876123Y-122612359D01*
X118340867Y-122453099D01*
X117784826Y-122401322D01*
X117229368Y-122459019D01*
X116695839Y-122623972D01*
X116229976Y-122872982D01*
X115989831Y-123260223D01*
X115984999Y-123255391D01*
X115984999Y-107825158D01*
X124970390Y-98839767D01*
X125052178Y-98847822D01*
G37*
G04 #@! TD.AperFunction*
D23*
X125935565Y-67045723D02*
X125843645Y-67094856D01*
X125713805Y-67201412D01*
X125351412Y-67563805D01*
X125244856Y-67693645D01*
X125165677Y-67841778D01*
X125116919Y-68002512D01*
X125100455Y-68169670D01*
X125103818Y-68203818D01*
X125069670Y-68200455D01*
X124902512Y-68216919D01*
X124741778Y-68265677D01*
X124593645Y-68344856D01*
X124463805Y-68451412D01*
X124101412Y-68813805D01*
X123994856Y-68943645D01*
X123915677Y-69091778D01*
X123866919Y-69252512D01*
X123850455Y-69419670D01*
X123866919Y-69586828D01*
X123915677Y-69747562D01*
X123994856Y-69895695D01*
X124101412Y-70025535D01*
X124410771Y-70334894D01*
X124540611Y-70441450D01*
X124688744Y-70520629D01*
X124849478Y-70569387D01*
X124968855Y-70581145D01*
X124980613Y-70700522D01*
X125029371Y-70861256D01*
X125108550Y-71009389D01*
X125215106Y-71139229D01*
X125524465Y-71448588D01*
X125654305Y-71555144D01*
X125802438Y-71634323D01*
X125963172Y-71683081D01*
X126130330Y-71699545D01*
X126229610Y-71689767D01*
X129565001Y-75025158D01*
X129565000Y-90858098D01*
X113392184Y-107030915D01*
X113362236Y-107055493D01*
X113337658Y-107085441D01*
X113337654Y-107085445D01*
X113304689Y-107125613D01*
X113264138Y-107175024D01*
X113225176Y-107247917D01*
X113191245Y-107311398D01*
X113146358Y-107459371D01*
X113131202Y-107613257D01*
X113135000Y-107651820D01*
X113135000Y-115818485D01*
X113101898Y-115804774D01*
X112901939Y-115765000D01*
X112875158Y-115765000D01*
X104421156Y-107310999D01*
X104536254Y-107310999D01*
X104736213Y-107271225D01*
X104924571Y-107193204D01*
X105094089Y-107079936D01*
X105238252Y-106935773D01*
X105351520Y-106766255D01*
X105429541Y-106577897D01*
X105469315Y-106377938D01*
X105469315Y-106174060D01*
X105429541Y-105974101D01*
X105351520Y-105785743D01*
X105238252Y-105616225D01*
X105094089Y-105472062D01*
X105038538Y-105434944D01*
X105159774Y-105353937D01*
X105303937Y-105209774D01*
X105417205Y-105040256D01*
X105495226Y-104851898D01*
X105535000Y-104651939D01*
X105535000Y-104448061D01*
X105495226Y-104248102D01*
X105417205Y-104059744D01*
X105303937Y-103890226D01*
X105285000Y-103871289D01*
X105285000Y-101935000D01*
X105301939Y-101935000D01*
X105501898Y-101895226D01*
X105690256Y-101817205D01*
X105859774Y-101703937D01*
X106003937Y-101559774D01*
X106117205Y-101390256D01*
X106195226Y-101201898D01*
X106235000Y-101001939D01*
X106235000Y-100798061D01*
X106195226Y-100598102D01*
X106117205Y-100409744D01*
X106003937Y-100240226D01*
X105941452Y-100177741D01*
X106338854Y-100328456D01*
X107989541Y-100777889D01*
X109675898Y-101065911D01*
X111382181Y-101189830D01*
X113092458Y-101148492D01*
X114790761Y-100942280D01*
X116461234Y-100573122D01*
X118088280Y-100044463D01*
X119656706Y-99361239D01*
X121151871Y-98529830D01*
X122559812Y-97557998D01*
X123867386Y-96454817D01*
X125062383Y-95230587D01*
X126133646Y-93896738D01*
X127071173Y-92465724D01*
X127866211Y-90950907D01*
X128511336Y-89366429D01*
X129000525Y-87727084D01*
X129329211Y-86048179D01*
X129494325Y-84345388D01*
X129494325Y-82634612D01*
X129329211Y-80931821D01*
X129000525Y-79252916D01*
X128511336Y-77613571D01*
X127866211Y-76029093D01*
X127071173Y-74514276D01*
X126133646Y-73083262D01*
X125062383Y-71749413D01*
X123867386Y-70525183D01*
X122559812Y-69422002D01*
X121151871Y-68450170D01*
X119656706Y-67618761D01*
X118088280Y-66935537D01*
X116461234Y-66406878D01*
X114790761Y-66037720D01*
X113092458Y-65831508D01*
X111382181Y-65790170D01*
X109675898Y-65914089D01*
X107989541Y-66202111D01*
X106338854Y-66651544D01*
X104739250Y-67258194D01*
X103205664Y-68016396D01*
X101752414Y-68919071D01*
X100393069Y-69957790D01*
X99140320Y-71122856D01*
X98005866Y-72403391D01*
X97000296Y-73787439D01*
X96133001Y-75262076D01*
X95412078Y-76813536D01*
X95085010Y-77743093D01*
X95085010Y-75141891D01*
X104441902Y-65785000D01*
X111748947Y-65785000D01*
X111787500Y-65788797D01*
X111826053Y-65785000D01*
X111826061Y-65785000D01*
X111941387Y-65773641D01*
X112089360Y-65728754D01*
X112225733Y-65655862D01*
X112345264Y-65557764D01*
X112369847Y-65527810D01*
X112634585Y-65263072D01*
X112856250Y-65263072D01*
X113023408Y-65246608D01*
X113184142Y-65197850D01*
X113332275Y-65118671D01*
X113462115Y-65012115D01*
X113568671Y-64882275D01*
X113647850Y-64734142D01*
X113696608Y-64573408D01*
X113713072Y-64406250D01*
X113713072Y-63893750D01*
X113696608Y-63726592D01*
X113647850Y-63565858D01*
X113568671Y-63417725D01*
X113462115Y-63287885D01*
X113446414Y-63275000D01*
X113462115Y-63262115D01*
X113525401Y-63185000D01*
X122074843Y-63185000D01*
X125935565Y-67045723D01*
G04 #@! TA.AperFunction,Conductor*
D24*
G36*
X125935565Y-67045723D02*
G01*
X125843645Y-67094856D01*
X125713805Y-67201412D01*
X125351412Y-67563805D01*
X125244856Y-67693645D01*
X125165677Y-67841778D01*
X125116919Y-68002512D01*
X125100455Y-68169670D01*
X125103818Y-68203818D01*
X125069670Y-68200455D01*
X124902512Y-68216919D01*
X124741778Y-68265677D01*
X124593645Y-68344856D01*
X124463805Y-68451412D01*
X124101412Y-68813805D01*
X123994856Y-68943645D01*
X123915677Y-69091778D01*
X123866919Y-69252512D01*
X123850455Y-69419670D01*
X123866919Y-69586828D01*
X123915677Y-69747562D01*
X123994856Y-69895695D01*
X124101412Y-70025535D01*
X124410771Y-70334894D01*
X124540611Y-70441450D01*
X124688744Y-70520629D01*
X124849478Y-70569387D01*
X124968855Y-70581145D01*
X124980613Y-70700522D01*
X125029371Y-70861256D01*
X125108550Y-71009389D01*
X125215106Y-71139229D01*
X125524465Y-71448588D01*
X125654305Y-71555144D01*
X125802438Y-71634323D01*
X125963172Y-71683081D01*
X126130330Y-71699545D01*
X126229610Y-71689767D01*
X129565001Y-75025158D01*
X129565000Y-90858098D01*
X113392184Y-107030915D01*
X113362236Y-107055493D01*
X113337658Y-107085441D01*
X113337654Y-107085445D01*
X113304689Y-107125613D01*
X113264138Y-107175024D01*
X113225176Y-107247917D01*
X113191245Y-107311398D01*
X113146358Y-107459371D01*
X113131202Y-107613257D01*
X113135000Y-107651820D01*
X113135000Y-115818485D01*
X113101898Y-115804774D01*
X112901939Y-115765000D01*
X112875158Y-115765000D01*
X104421156Y-107310999D01*
X104536254Y-107310999D01*
X104736213Y-107271225D01*
X104924571Y-107193204D01*
X105094089Y-107079936D01*
X105238252Y-106935773D01*
X105351520Y-106766255D01*
X105429541Y-106577897D01*
X105469315Y-106377938D01*
X105469315Y-106174060D01*
X105429541Y-105974101D01*
X105351520Y-105785743D01*
X105238252Y-105616225D01*
X105094089Y-105472062D01*
X105038538Y-105434944D01*
X105159774Y-105353937D01*
X105303937Y-105209774D01*
X105417205Y-105040256D01*
X105495226Y-104851898D01*
X105535000Y-104651939D01*
X105535000Y-104448061D01*
X105495226Y-104248102D01*
X105417205Y-104059744D01*
X105303937Y-103890226D01*
X105285000Y-103871289D01*
X105285000Y-101935000D01*
X105301939Y-101935000D01*
X105501898Y-101895226D01*
X105690256Y-101817205D01*
X105859774Y-101703937D01*
X106003937Y-101559774D01*
X106117205Y-101390256D01*
X106195226Y-101201898D01*
X106235000Y-101001939D01*
X106235000Y-100798061D01*
X106195226Y-100598102D01*
X106117205Y-100409744D01*
X106003937Y-100240226D01*
X105941452Y-100177741D01*
X106338854Y-100328456D01*
X107989541Y-100777889D01*
X109675898Y-101065911D01*
X111382181Y-101189830D01*
X113092458Y-101148492D01*
X114790761Y-100942280D01*
X116461234Y-100573122D01*
X118088280Y-100044463D01*
X119656706Y-99361239D01*
X121151871Y-98529830D01*
X122559812Y-97557998D01*
X123867386Y-96454817D01*
X125062383Y-95230587D01*
X126133646Y-93896738D01*
X127071173Y-92465724D01*
X127866211Y-90950907D01*
X128511336Y-89366429D01*
X129000525Y-87727084D01*
X129329211Y-86048179D01*
X129494325Y-84345388D01*
X129494325Y-82634612D01*
X129329211Y-80931821D01*
X129000525Y-79252916D01*
X128511336Y-77613571D01*
X127866211Y-76029093D01*
X127071173Y-74514276D01*
X126133646Y-73083262D01*
X125062383Y-71749413D01*
X123867386Y-70525183D01*
X122559812Y-69422002D01*
X121151871Y-68450170D01*
X119656706Y-67618761D01*
X118088280Y-66935537D01*
X116461234Y-66406878D01*
X114790761Y-66037720D01*
X113092458Y-65831508D01*
X111382181Y-65790170D01*
X109675898Y-65914089D01*
X107989541Y-66202111D01*
X106338854Y-66651544D01*
X104739250Y-67258194D01*
X103205664Y-68016396D01*
X101752414Y-68919071D01*
X100393069Y-69957790D01*
X99140320Y-71122856D01*
X98005866Y-72403391D01*
X97000296Y-73787439D01*
X96133001Y-75262076D01*
X95412078Y-76813536D01*
X95085010Y-77743093D01*
X95085010Y-75141891D01*
X104441902Y-65785000D01*
X111748947Y-65785000D01*
X111787500Y-65788797D01*
X111826053Y-65785000D01*
X111826061Y-65785000D01*
X111941387Y-65773641D01*
X112089360Y-65728754D01*
X112225733Y-65655862D01*
X112345264Y-65557764D01*
X112369847Y-65527810D01*
X112634585Y-65263072D01*
X112856250Y-65263072D01*
X113023408Y-65246608D01*
X113184142Y-65197850D01*
X113332275Y-65118671D01*
X113462115Y-65012115D01*
X113568671Y-64882275D01*
X113647850Y-64734142D01*
X113696608Y-64573408D01*
X113713072Y-64406250D01*
X113713072Y-63893750D01*
X113696608Y-63726592D01*
X113647850Y-63565858D01*
X113568671Y-63417725D01*
X113462115Y-63287885D01*
X113446414Y-63275000D01*
X113462115Y-63262115D01*
X113525401Y-63185000D01*
X122074843Y-63185000D01*
X125935565Y-67045723D01*
G37*
G04 #@! TD.AperFunction*
D23*
X103715001Y-101951295D02*
X103715000Y-103871289D01*
X103696063Y-103890226D01*
X103582795Y-104059744D01*
X103508231Y-104239757D01*
X100485000Y-101216527D01*
X100485000Y-98721294D01*
X103715001Y-101951295D01*
G04 #@! TA.AperFunction,Conductor*
D24*
G36*
X103715001Y-101951295D02*
G01*
X103715000Y-103871289D01*
X103696063Y-103890226D01*
X103582795Y-104059744D01*
X103508231Y-104239757D01*
X100485000Y-101216527D01*
X100485000Y-98721294D01*
X103715001Y-101951295D01*
G37*
G04 #@! TD.AperFunction*
D23*
X109986928Y-62143750D02*
X109986928Y-62656250D01*
X110003392Y-62823408D01*
X110052150Y-62984142D01*
X110131329Y-63132275D01*
X110237885Y-63262115D01*
X110253586Y-63275000D01*
X110237885Y-63287885D01*
X110131329Y-63417725D01*
X110052150Y-63565858D01*
X110003392Y-63726592D01*
X109986928Y-63893750D01*
X109986928Y-64215000D01*
X104155296Y-64215000D01*
X104116743Y-64211203D01*
X104078190Y-64215000D01*
X104078183Y-64215000D01*
X103977234Y-64224943D01*
X103962856Y-64226359D01*
X103928416Y-64236806D01*
X103814884Y-64271246D01*
X103678511Y-64344138D01*
X103618303Y-64393550D01*
X103588931Y-64417655D01*
X103588928Y-64417658D01*
X103558980Y-64442236D01*
X103534402Y-64472184D01*
X99345685Y-68660902D01*
X99136195Y-68451412D01*
X99006355Y-68344856D01*
X98858222Y-68265677D01*
X98697488Y-68216919D01*
X98530330Y-68200455D01*
X98479330Y-68205478D01*
X98449005Y-68175153D01*
X98449545Y-68169670D01*
X98433081Y-68002512D01*
X98384323Y-67841778D01*
X98305144Y-67693645D01*
X98198588Y-67563805D01*
X97836195Y-67201412D01*
X97711269Y-67098889D01*
X102675158Y-62135000D01*
X109987790Y-62135000D01*
X109986928Y-62143750D01*
G04 #@! TA.AperFunction,Conductor*
D24*
G36*
X109986928Y-62143750D02*
G01*
X109986928Y-62656250D01*
X110003392Y-62823408D01*
X110052150Y-62984142D01*
X110131329Y-63132275D01*
X110237885Y-63262115D01*
X110253586Y-63275000D01*
X110237885Y-63287885D01*
X110131329Y-63417725D01*
X110052150Y-63565858D01*
X110003392Y-63726592D01*
X109986928Y-63893750D01*
X109986928Y-64215000D01*
X104155296Y-64215000D01*
X104116743Y-64211203D01*
X104078190Y-64215000D01*
X104078183Y-64215000D01*
X103977234Y-64224943D01*
X103962856Y-64226359D01*
X103928416Y-64236806D01*
X103814884Y-64271246D01*
X103678511Y-64344138D01*
X103618303Y-64393550D01*
X103588931Y-64417655D01*
X103588928Y-64417658D01*
X103558980Y-64442236D01*
X103534402Y-64472184D01*
X99345685Y-68660902D01*
X99136195Y-68451412D01*
X99006355Y-68344856D01*
X98858222Y-68265677D01*
X98697488Y-68216919D01*
X98530330Y-68200455D01*
X98479330Y-68205478D01*
X98449005Y-68175153D01*
X98449545Y-68169670D01*
X98433081Y-68002512D01*
X98384323Y-67841778D01*
X98305144Y-67693645D01*
X98198588Y-67563805D01*
X97836195Y-67201412D01*
X97711269Y-67098889D01*
X102675158Y-62135000D01*
X109987790Y-62135000D01*
X109986928Y-62143750D01*
G37*
G04 #@! TD.AperFunction*
M02*
